<svg width="40" height="41" viewBox="0 0 40 41" fill="none" xmlns="http://www.w3.org/2000/svg">
<g opacity="0.15" clip-path="url(#clip0)">
<path d="M20.0188 17.0647C21.9286 17.0577 23.4496 15.5236 23.4427 13.6097C23.4357 11.695 21.9114 10.1716 20.0008 10.1699C18.0743 10.1679 16.5357 11.7196 16.5504 13.6515C16.5647 15.5584 18.1029 17.0716 20.0188 17.0647Z" fill="#2A2F4C"/>
<path d="M20 0.489258C8.95427 0.489258 0 9.44394 0 20.4893C0 31.5346 8.95427 40.4893 20 40.4893C31.0457 40.4893 40 31.5346 40 20.4893C40 9.44394 31.0457 0.489258 20 0.489258ZM20.0286 6.5713C23.9243 6.58194 27.051 9.76844 27.031 13.7071C27.0114 17.5548 23.8335 20.6734 19.9443 20.6603C16.0949 20.6472 12.9379 17.4558 12.9608 13.6003C12.9825 9.70256 16.1412 6.56066 20.0286 6.5713ZM27.919 23.4282C27.0576 24.3125 26.0207 24.9525 24.8692 25.3989C23.7807 25.8208 22.5878 26.0332 21.4069 26.1748C21.5857 26.3687 21.6696 26.4641 21.7809 26.5754C23.3833 28.1864 24.9936 29.7893 26.5907 31.4049C27.1349 31.9557 27.2483 32.6382 26.9487 33.2778C26.6218 33.9775 25.8881 34.4375 25.1683 34.388C24.7124 34.3565 24.3568 34.1302 24.0413 33.8122C22.8317 32.5952 21.5992 31.4 20.4149 30.1601C20.0692 29.7991 19.9038 29.8679 19.599 30.1813C18.3824 31.4343 17.1458 32.6673 15.9022 33.8937C15.3436 34.4445 14.6791 34.5443 14.0309 34.2292C13.3422 33.8961 12.9043 33.1927 12.9379 32.4852C12.9616 32.008 13.1965 31.6422 13.5247 31.3157C15.1112 29.7324 16.6928 28.1443 18.2748 26.5574C18.3799 26.4522 18.4773 26.3405 18.63 26.1768C16.4722 25.9514 14.5264 25.4202 12.8606 24.1177C12.6535 23.9557 12.4403 23.7993 12.2521 23.6176C11.5225 22.9175 11.4492 22.115 12.0258 21.2893C12.5197 20.5821 13.3479 20.3931 14.2093 20.7994C14.3763 20.8776 14.535 20.9766 14.6873 21.0814C17.7915 23.2146 22.0563 23.2731 25.1728 21.1767C25.4813 20.941 25.8116 20.7471 26.1942 20.6493C26.9373 20.4577 27.6313 20.7315 28.0299 21.3821C28.4861 22.1257 28.4808 22.8508 27.919 23.4282Z" fill="#2A2F4C"/>
</g>
<defs>
<clipPath id="clip0">
<rect width="40" height="40" fill="white" transform="translate(0 0.489258)"/>
</clipPath>
</defs>
</svg>
