<svg width="75" height="50" viewBox="0 0 75 50" fill="none" xmlns="http://www.w3.org/2000/svg">
<path fill-rule="evenodd" clip-rule="evenodd" d="M70.1647 40.3257V47.4086H74.9971V49.6221H0.0228271V47.4086H4.70872V9.63316H22.2808V11.8466H6.90523V40.3257H53.9106V11.8466H40.8081L48.711 26.1605C48.767 26.1523 48.8222 26.1411 48.8776 26.1299C48.9852 26.108 49.093 26.0862 49.2064 26.0862C51.1037 26.0862 52.6293 27.6419 52.6293 29.5538C52.6293 31.079 51.7141 32.3765 50.2497 32.8394V37.8172H15.252V35.6038H19.9379V21.0345C19.0593 20.6892 18.1915 19.8148 17.8489 18.9295H12.7626V36.6367H10.5661V16.7161H17.8489C18.3082 15.2405 19.5866 14.3182 21.1002 14.3182C21.7139 14.3182 22.2814 14.445 22.7807 14.7303L22.6389 14.6058L24.6238 12.5688V2.55026H31.9066C32.3659 1.07465 33.6535 0.161621 35.167 0.161621C37.0644 0.161621 38.6082 1.68968 38.6082 3.60162C38.6082 4.5429 38.2335 5.41558 37.6278 6.04098L39.5881 9.63316H56.1071V40.3257H70.1647ZM37.0754 9.63313L36.1923 8.09009V9.63313H37.0754ZM35.1673 2.32886C35.8537 2.32886 36.412 2.89143 36.412 3.58312C36.412 4.27481 35.8537 4.83739 35.1673 4.83739C34.4809 4.83739 33.9226 4.27481 33.9226 3.58312C33.9226 2.89143 34.4809 2.32886 35.1673 2.32886ZM31.9067 4.76294H26.8204V10.3547L32.0486 5.16008C31.9999 5.06106 31.9739 4.97685 31.9451 4.88354L31.9451 4.88341C31.9334 4.84531 31.9212 4.8057 31.9067 4.76294ZM21.1094 16.4949C21.7958 16.4949 22.3541 17.0574 22.3541 17.7491C22.3541 18.4408 21.7958 19.0034 21.1094 19.0034C20.423 19.0034 19.8647 18.4408 19.8647 17.7491C19.8647 17.0574 20.423 16.4949 21.1094 16.4949ZM24.5142 17.7474C24.5142 19.2726 23.599 20.57 22.1346 21.0329V35.6022H24.624V20.1083H26.8205V35.6022H33.9958V6.86709C33.8683 6.82344 33.766 6.77192 33.6503 6.71367L33.5977 6.68726L24.2202 16.1692L24.0869 16.0441C24.3701 16.5479 24.5142 17.1283 24.5142 17.7474ZM40.8782 35.6024V30.7329H45.9645C46.3071 31.6183 47.1749 32.4927 48.0535 32.838V35.6024H40.8782ZM49.2248 30.8093C49.9112 30.8093 50.4695 30.2467 50.4695 29.555C50.4695 28.8634 49.9112 28.3008 49.2248 28.3008C48.5384 28.3008 47.9801 28.8634 47.9801 29.555C47.9801 30.2467 48.5384 30.8093 49.2248 30.8093ZM46.7641 27.2066C46.4072 27.5749 46.1315 27.9305 45.9644 28.5208H38.6816V35.6037H36.1923V11.8464H38.2955L46.7641 27.2066ZM25.649 47.4071H67.9685V42.5376H52.5929V46.079H41.0246V42.5376H25.649V47.4071ZM43.2211 42.5376H50.3963V43.8656H43.2211V42.5376ZM23.4525 42.5376H6.90547V47.4071H23.4525V42.5376Z" fill="white"/>
</svg>
