<svg width="60" height="60" viewBox="0 0 60 60" fill="none" xmlns="http://www.w3.org/2000/svg">
<circle cx="30" cy="30" r="30" fill="url(#paint0_linear)"/>
<path d="M22.632 20.864C18.984 20.864 16.248 23.504 16.248 29.6C16.248 35.672 18.984 38.312 22.632 38.312C26.256 38.312 29.016 35.672 29.016 29.6C29.016 23.504 26.256 20.864 22.632 20.864ZM22.632 35.816C19.944 35.816 19.056 33.008 19.056 29.6C19.056 26.168 19.944 23.36 22.632 23.36C25.32 23.36 26.208 26.168 26.208 29.6C26.208 33.008 25.32 35.816 22.632 35.816ZM41.0578 31.784V21.2H37.5778L30.1858 31.208V34.232H38.3458V38H41.0578V34.232H43.2418V31.784H41.0578ZM32.9458 31.784V31.208L37.8418 24.368H38.4178V31.784H32.9458Z" fill="white"/>
<defs>
<linearGradient id="paint0_linear" x1="76" y1="-15.011" x2="0" y2="60.989" gradientUnits="userSpaceOnUse">
<stop stop-color="#74EBD5"/>
<stop offset="1" stop-color="#0575E6"/>
</linearGradient>
</defs>
</svg>
