<svg width="60" height="60" viewBox="0 0 60 60" fill="none" xmlns="http://www.w3.org/2000/svg">
<circle cx="30" cy="30" r="30" fill="url(#paint0_linear)"/>
<path d="M23.632 20.864C19.984 20.864 17.248 23.504 17.248 29.6C17.248 35.672 19.984 38.312 23.632 38.312C27.256 38.312 30.016 35.672 30.016 29.6C30.016 23.504 27.256 20.864 23.632 20.864ZM23.632 35.816C20.944 35.816 20.056 33.008 20.056 29.6C20.056 26.168 20.944 23.36 23.632 23.36C26.32 23.36 27.208 26.168 27.208 29.6C27.208 33.008 26.32 35.816 23.632 35.816ZM32.1218 21.2V23.576H39.2498V24.152L35.6258 27.104V29.648C36.0338 29.552 36.5378 29.504 37.1378 29.504C39.3218 29.504 40.4978 30.752 40.4978 32.672C40.4978 34.616 39.2018 35.816 37.1138 35.816C35.3138 35.816 33.9458 34.808 33.7778 33.08H30.9698C31.0898 36.056 33.5138 38.312 37.1138 38.312C40.7138 38.312 43.2818 36.2 43.2818 32.672C43.2818 29.552 41.3138 27.824 38.7938 27.704V27.104L42.4418 24.152V21.2H32.1218Z" fill="white"/>
<defs>
<linearGradient id="paint0_linear" x1="76" y1="-15.011" x2="0" y2="60.989" gradientUnits="userSpaceOnUse">
<stop stop-color="#74EBD5"/>
<stop offset="1" stop-color="#0575E6"/>
</linearGradient>
</defs>
</svg>
