<svg width="40" height="32" viewBox="0 0 40 32" fill="none" xmlns="http://www.w3.org/2000/svg">
<path d="M13.276 2.23535H12.0733V3.43H13.276V2.23535Z" fill="url(#paint0_linear)"/>
<path d="M15.684 2.23535H14.4786V3.43H15.684V2.23535Z" fill="url(#paint1_linear)"/>
<path d="M18.0907 2.23535H16.888V3.43H18.0907V2.23535Z" fill="url(#paint2_linear)"/>
<path d="M16.0907 16.8149L14.9147 15.6401L16.0907 14.4693L15.2427 13.6243L13.2107 15.6401L15.2427 17.6572L16.0907 16.8149Z" fill="url(#paint3_linear)"/>
<path d="M24.7573 17.6572L26.7893 15.6401L24.7573 13.6243L23.9093 14.4693L25.0853 15.6401L23.9093 16.8149L24.7573 17.6572Z" fill="url(#paint4_linear)"/>
<path d="M25.1347 8.6814H14.864V9.87737H25.1347V8.6814Z" fill="url(#paint5_linear)"/>
<path d="M21.712 6.61133H18.288V7.80598H21.712V6.61133Z" fill="url(#paint6_linear)"/>
<path d="M13.116 26.8462H18.5906V21.4067H13.116V26.8462ZM14.32 22.6014H17.3893V25.6516H14.32V22.6014Z" fill="url(#paint7_linear)"/>
<path d="M18.5906 27.8569H13.116V29.0516H18.5906V27.8569Z" fill="url(#paint8_linear)"/>
<path d="M21.4093 26.8462H26.884V21.4067H21.4093V26.8462ZM22.612 22.6014H25.68V25.6516H22.612V22.6014Z" fill="url(#paint9_linear)"/>
<path d="M26.884 27.8569H21.4093V29.0516H26.884V27.8569Z" fill="url(#paint10_linear)"/>
<path d="M3.60136 8.98608H2.39736V10.1821H3.60136V8.98608Z" fill="url(#paint11_linear)"/>
<path d="M5.76803 8.98608H4.56403V10.1821H5.76803V8.98608Z" fill="url(#paint12_linear)"/>
<path d="M7.9347 8.98608H6.7307V10.1821H7.9347V8.98608Z" fill="url(#paint13_linear)"/>
<path d="M33.268 8.98608H32.0654V10.1821H33.268V8.98608Z" fill="url(#paint14_linear)"/>
<path d="M35.436 8.98608H34.232V10.1821H35.436V8.98608Z" fill="url(#paint15_linear)"/>
<path d="M37.6027 8.98608H36.3987V10.1821H37.6027V8.98608Z" fill="url(#paint16_linear)"/>
<path d="M30.8693 6.89475V5.41402V4.21672V0.25H9.13067V4.21672V5.41269V6.89343H0V11.0747V12.2694V28.7998H9.13067V31.446H30.8733V28.7998H40V12.2707V11.076V6.89475H30.8693ZM10.3333 1.44598H29.668V4.21804H10.3333V1.44598ZM10.3333 5.41402H29.668V6.89475V11.076H10.3333V6.89475V5.41402ZM29.668 19.0108H10.3333V12.2707H29.668V19.0108ZM1.20267 8.09205H9.12933V11.076H1.20267V8.09205ZM1.20267 27.6038V12.2707H9.12933V20.2054V27.6038H1.20267ZM29.668 30.2527H10.3333V28.8011V20.2054H29.668V28.8011V30.2527ZM38.7973 27.6038H30.8733V20.2054V12.2707H38.7973V27.6038ZM30.8693 11.076V8.09205H38.7933V11.076H30.8693Z" fill="url(#paint17_linear)"/>
<defs>
<linearGradient id="paint0_linear" x1="13.1548" y1="2.37538" x2="12.2786" y2="3.35572" gradientUnits="userSpaceOnUse">
<stop stop-color="#7EFFE7"/>
<stop offset="1" stop-color="#77BBFF"/>
</linearGradient>
<linearGradient id="paint1_linear" x1="15.5625" y1="2.37538" x2="14.6866" y2="3.35764" gradientUnits="userSpaceOnUse">
<stop stop-color="#7EFFE7"/>
<stop offset="1" stop-color="#77BBFF"/>
</linearGradient>
<linearGradient id="paint2_linear" x1="17.9695" y1="2.37538" x2="17.0933" y2="3.35572" gradientUnits="userSpaceOnUse">
<stop stop-color="#7EFFE7"/>
<stop offset="1" stop-color="#77BBFF"/>
</linearGradient>
<linearGradient id="paint3_linear" x1="15.8005" y1="14.097" x2="12.9017" y2="16.3977" gradientUnits="userSpaceOnUse">
<stop stop-color="#7EFFE7"/>
<stop offset="1" stop-color="#77BBFF"/>
</linearGradient>
<linearGradient id="paint4_linear" x1="26.4992" y1="14.097" x2="23.6004" y2="16.3977" gradientUnits="userSpaceOnUse">
<stop stop-color="#7EFFE7"/>
<stop offset="1" stop-color="#77BBFF"/>
</linearGradient>
<linearGradient id="paint5_linear" x1="24.1001" y1="8.82158" x2="23.9171" y2="10.5678" gradientUnits="userSpaceOnUse">
<stop stop-color="#7EFFE7"/>
<stop offset="1" stop-color="#77BBFF"/>
</linearGradient>
<linearGradient id="paint6_linear" x1="21.3671" y1="6.75136" x2="20.8632" y2="8.35661" gradientUnits="userSpaceOnUse">
<stop stop-color="#7EFFE7"/>
<stop offset="1" stop-color="#77BBFF"/>
</linearGradient>
<linearGradient id="paint7_linear" x1="18.0392" y1="22.0443" x2="14.0495" y2="26.507" gradientUnits="userSpaceOnUse">
<stop stop-color="#7EFFE7"/>
<stop offset="1" stop-color="#77BBFF"/>
</linearGradient>
<linearGradient id="paint8_linear" x1="18.0392" y1="27.997" x2="17.7058" y2="29.695" gradientUnits="userSpaceOnUse">
<stop stop-color="#7EFFE7"/>
<stop offset="1" stop-color="#77BBFF"/>
</linearGradient>
<linearGradient id="paint9_linear" x1="26.3325" y1="22.0443" x2="22.3429" y2="26.507" gradientUnits="userSpaceOnUse">
<stop stop-color="#7EFFE7"/>
<stop offset="1" stop-color="#77BBFF"/>
</linearGradient>
<linearGradient id="paint10_linear" x1="26.3325" y1="27.997" x2="25.9991" y2="29.695" gradientUnits="userSpaceOnUse">
<stop stop-color="#7EFFE7"/>
<stop offset="1" stop-color="#77BBFF"/>
</linearGradient>
<linearGradient id="paint11_linear" x1="3.48008" y1="9.12627" x2="2.60291" y2="10.1077" gradientUnits="userSpaceOnUse">
<stop stop-color="#7EFFE7"/>
<stop offset="1" stop-color="#77BBFF"/>
</linearGradient>
<linearGradient id="paint12_linear" x1="5.64675" y1="9.12627" x2="4.76958" y2="10.1077" gradientUnits="userSpaceOnUse">
<stop stop-color="#7EFFE7"/>
<stop offset="1" stop-color="#77BBFF"/>
</linearGradient>
<linearGradient id="paint13_linear" x1="7.81342" y1="9.12627" x2="6.93625" y2="10.1077" gradientUnits="userSpaceOnUse">
<stop stop-color="#7EFFE7"/>
<stop offset="1" stop-color="#77BBFF"/>
</linearGradient>
<linearGradient id="paint14_linear" x1="33.1469" y1="9.12627" x2="32.2696" y2="10.1067" gradientUnits="userSpaceOnUse">
<stop stop-color="#7EFFE7"/>
<stop offset="1" stop-color="#77BBFF"/>
</linearGradient>
<linearGradient id="paint15_linear" x1="35.3147" y1="9.12627" x2="34.4376" y2="10.1077" gradientUnits="userSpaceOnUse">
<stop stop-color="#7EFFE7"/>
<stop offset="1" stop-color="#77BBFF"/>
</linearGradient>
<linearGradient id="paint16_linear" x1="37.4814" y1="9.12627" x2="36.6042" y2="10.1077" gradientUnits="userSpaceOnUse">
<stop stop-color="#7EFFE7"/>
<stop offset="1" stop-color="#77BBFF"/>
</linearGradient>
<linearGradient id="paint17_linear" x1="35.9707" y1="3.90667" x2="14.3186" y2="34.7619" gradientUnits="userSpaceOnUse">
<stop stop-color="#7EFFE7"/>
<stop offset="1" stop-color="#77BBFF"/>
</linearGradient>
</defs>
</svg>
