<svg width="19" height="13" viewBox="0 0 19 13" fill="none" xmlns="http://www.w3.org/2000/svg">
<g opacity="0.4">
<mask id="path-1-outside-1" maskUnits="userSpaceOnUse" x="0" y="-0.3125" width="19" height="13" fill="black">
<rect fill="white" y="-0.3125" width="19" height="13"/>
<path fill-rule="evenodd" clip-rule="evenodd" d="M9.45455 0.6875C11.8694 0.6875 14.0326 2.23452 15.4207 3.53339C16.3273 4.37844 17.1485 5.32885 17.87 6.3681C17.8954 6.40639 17.9091 6.45258 17.9091 6.5C17.9091 6.54742 17.8954 6.59361 17.87 6.6319C17.1483 7.66961 16.3271 8.61851 15.4207 9.46214C14.0326 10.7632 11.8694 12.3125 9.45455 12.3125C7.03969 12.3125 4.87647 10.7655 3.48844 9.46661C2.58173 8.62161 1.76052 7.67119 1.03908 6.6319C1.01369 6.59361 1 6.54742 1 6.5C1 6.45258 1.01369 6.40639 1.03908 6.3681C1.76054 5.32883 2.58175 4.37842 3.48844 3.53339C4.87647 2.23452 7.03969 0.6875 9.45455 0.6875ZM9.45439 9.06063C10.8755 9.06063 12.0275 7.91414 12.0275 6.49988C12.0275 5.08562 10.8755 3.93913 9.45439 3.93913C8.0333 3.93913 6.88127 5.08562 6.88127 6.49988C6.88127 7.91414 8.0333 9.06063 9.45439 9.06063Z"/>
</mask>
<path fill-rule="evenodd" clip-rule="evenodd" d="M9.45455 0.6875C11.8694 0.6875 14.0326 2.23452 15.4207 3.53339C16.3273 4.37844 17.1485 5.32885 17.87 6.3681C17.8954 6.40639 17.9091 6.45258 17.9091 6.5C17.9091 6.54742 17.8954 6.59361 17.87 6.6319C17.1483 7.66961 16.3271 8.61851 15.4207 9.46214C14.0326 10.7632 11.8694 12.3125 9.45455 12.3125C7.03969 12.3125 4.87647 10.7655 3.48844 9.46661C2.58173 8.62161 1.76052 7.67119 1.03908 6.6319C1.01369 6.59361 1 6.54742 1 6.5C1 6.45258 1.01369 6.40639 1.03908 6.3681C1.76054 5.32883 2.58175 4.37842 3.48844 3.53339C4.87647 2.23452 7.03969 0.6875 9.45455 0.6875ZM9.45439 9.06063C10.8755 9.06063 12.0275 7.91414 12.0275 6.49988C12.0275 5.08562 10.8755 3.93913 9.45439 3.93913C8.0333 3.93913 6.88127 5.08562 6.88127 6.49988C6.88127 7.91414 8.0333 9.06063 9.45439 9.06063Z" fill="#2A2F4C"/>
<path d="M15.4207 3.53339L15.284 3.67942L15.2843 3.67969L15.4207 3.53339ZM17.87 6.3681L18.0367 6.25752L18.0343 6.25404L17.87 6.3681ZM17.87 6.6319L18.0342 6.74612L18.0367 6.74245L17.87 6.6319ZM15.4207 9.46214L15.2844 9.31573L15.2839 9.31622L15.4207 9.46214ZM3.48844 9.46661L3.62509 9.32058L3.62479 9.3203L3.48844 9.46661ZM1.03908 6.6319L0.872378 6.74248L0.874787 6.74595L1.03908 6.6319ZM1.03908 6.3681L0.874754 6.25402L0.872415 6.25755L1.03908 6.3681ZM3.48844 3.53339L3.62479 3.6797L3.62509 3.67942L3.48844 3.53339ZM15.5573 3.38736C14.1609 2.08066 11.9491 0.4875 9.45455 0.4875V0.8875C11.7897 0.8875 13.9043 2.38838 15.284 3.67942L15.5573 3.38736ZM18.0343 6.25404C17.3049 5.20333 16.4743 4.24206 15.557 3.38708L15.2843 3.67969C16.1803 4.51482 16.9922 5.45438 17.7057 6.48216L18.0343 6.25404ZM18.1091 6.5C18.1091 6.41459 18.0845 6.32971 18.0367 6.25755L17.7033 6.47865C17.7063 6.48307 17.7091 6.49057 17.7091 6.5H18.1091ZM18.0367 6.74245C18.0845 6.67029 18.1091 6.58541 18.1091 6.5H17.7091C17.7091 6.50943 17.7063 6.51693 17.7033 6.52135L18.0367 6.74245ZM15.5569 9.60854C16.474 8.755 17.3046 7.79526 18.0342 6.74609L17.7058 6.51771C16.9921 7.54396 16.1802 8.48202 15.2844 9.31573L15.5569 9.60854ZM9.45455 12.5125C11.9492 12.5125 14.1611 10.917 15.5574 9.60806L15.2839 9.31622C13.9042 10.6095 11.7896 12.1125 9.45455 12.1125V12.5125ZM3.35178 9.61264C4.74818 10.9193 6.95998 12.5125 9.45455 12.5125V12.1125C7.1194 12.1125 5.00475 10.6116 3.62509 9.32058L3.35178 9.61264ZM0.874787 6.74595C1.60419 7.79672 2.43472 8.75799 3.35208 9.61292L3.62479 9.3203C2.72874 8.48522 1.91685 7.54567 1.20338 6.51785L0.874787 6.74595ZM0.8 6.5C0.8 6.58541 0.824553 6.67029 0.872415 6.74245L1.20575 6.52135C1.20282 6.51693 1.2 6.50943 1.2 6.5H0.8ZM0.872415 6.25755C0.824553 6.32971 0.8 6.41459 0.8 6.5H1.2C1.2 6.49057 1.20282 6.48307 1.20575 6.47865L0.872415 6.25755ZM3.35208 3.38708C2.43474 4.24204 1.60421 5.20331 0.87479 6.25405L1.20338 6.48215C1.91687 5.45436 2.72876 4.5148 3.62479 3.6797L3.35208 3.38708ZM9.45455 0.4875C6.95998 0.4875 4.74818 2.08066 3.35178 3.38736L3.62509 3.67942C5.00475 2.38838 7.1194 0.8875 9.45455 0.8875V0.4875ZM11.8275 6.49988C11.8275 7.80278 10.7659 8.86063 9.45439 8.86063V9.26063C10.985 9.26063 12.2275 8.02551 12.2275 6.49988H11.8275ZM9.45439 4.13913C10.7659 4.13913 11.8275 5.19698 11.8275 6.49988H12.2275C12.2275 4.97425 10.985 3.73913 9.45439 3.73913V4.13913ZM7.08127 6.49988C7.08127 5.19698 8.14284 4.13913 9.45439 4.13913V3.73913C7.92375 3.73913 6.68127 4.97425 6.68127 6.49988H7.08127ZM9.45439 8.86063C8.14284 8.86063 7.08127 7.80278 7.08127 6.49988H6.68127C6.68127 8.02551 7.92375 9.26063 9.45439 9.26063V8.86063Z" fill="#2A2F4C" mask="url(#path-1-outside-1)"/>
</g>
</svg>
