<svg width="60" height="61" viewBox="0 0 60 61" fill="none" xmlns="http://www.w3.org/2000/svg">
<circle cx="30" cy="30.25" r="30" fill="url(#paint0_linear)"/>
<path d="M22.632 21.114C18.984 21.114 16.248 23.754 16.248 29.85C16.248 35.922 18.984 38.562 22.632 38.562C26.256 38.562 29.016 35.922 29.016 29.85C29.016 23.754 26.256 21.114 22.632 21.114ZM22.632 36.066C19.944 36.066 19.056 33.258 19.056 29.85C19.056 26.418 19.944 23.61 22.632 23.61C25.32 23.61 26.208 26.418 26.208 29.85C26.208 33.258 25.32 36.066 22.632 36.066ZM37.3378 26.874C35.7778 26.874 34.9618 27.33 34.2178 27.93H33.6418L33.9538 23.826H41.7538V21.45H31.7458L31.0018 30.546H33.6898C34.3858 29.562 35.3698 29.13 36.6898 29.13C38.6338 29.13 39.9298 30.474 39.9298 32.586C39.9298 34.722 38.6578 36.066 36.6418 36.066C34.8178 36.066 33.6178 35.154 33.4018 33.33H30.6178C30.8098 36.306 32.9218 38.562 36.7378 38.562C40.2658 38.562 42.7378 36.162 42.7378 32.514C42.7378 29.25 40.5298 26.874 37.3378 26.874Z" fill="white"/>
<defs>
<linearGradient id="paint0_linear" x1="76" y1="-14.761" x2="0" y2="61.239" gradientUnits="userSpaceOnUse">
<stop stop-color="#74EBD5"/>
<stop offset="1" stop-color="#0575E6"/>
</linearGradient>
</defs>
</svg>
