<svg width="24" height="24" viewBox="0 0 24 24" fill="none" xmlns="http://www.w3.org/2000/svg">
<g opacity="0.2">
<path d="M12 0.000488281C5.38323 0.000488281 0 5.38372 0 12.0005C0 18.6168 5.38323 24.0005 12 24.0005C18.6163 24.0005 24 18.6168 24 12.0005C24 5.38372 18.6173 0.000488281 12 0.000488281ZM14.9843 12.4229H13.032C13.032 15.5421 13.032 19.3815 13.032 19.3815L10.139 19.3815C10.139 19.3815 10.139 15.5793 10.139 12.4229H8.76388V9.96359H10.139V8.37284C10.139 7.23355 10.6804 5.45332 13.0586 5.45332L15.2023 5.46154L15.2023 7.84887C15.2023 7.84887 13.8996 7.84887 13.6463 7.84887C13.3931 7.84887 13.0329 7.97551 13.0329 8.51882V9.96408H15.2371L14.9843 12.4229Z" fill="#2A2F4C"/>
</g>
</svg>
