<svg width="12" height="13" viewBox="0 0 12 13" fill="none" xmlns="http://www.w3.org/2000/svg">
<path d="M6.22865 3.67578C5.92295 3.67578 5.67456 3.92727 5.67456 4.23679V7.04185C5.67456 7.25465 5.7892 7.4481 5.98027 7.54483L8.06289 8.62816C8.13932 8.66685 8.23485 8.6862 8.31128 8.6862C8.52145 8.6862 8.71251 8.57013 8.80805 8.37667C8.94179 8.10584 8.84626 7.75763 8.55966 7.62221L6.78275 6.69364V4.23679C6.78275 3.92727 6.53436 3.67578 6.22865 3.67578Z" fill="#2A2F4C"/>
<path d="M11.3302 3.90774H11.3493C11.4831 3.90774 11.6168 3.8497 11.7124 3.77232C11.827 3.6756 11.8843 3.54018 11.8843 3.38542L11.999 0.986607C12.0181 0.677083 11.7697 0.40625 11.464 0.40625C11.1583 0.386905 10.8908 0.638393 10.8908 0.947917L10.8526 1.79911C9.66796 0.657738 8.08211 0 6.41983 0C2.86599 0 0 2.92113 0 6.5C0 10.0982 2.8851 13 6.41983 13C8.57888 13 10.5851 11.9167 11.7697 10.0982C11.9416 9.84673 11.8652 9.49851 11.6168 9.3244C11.3684 9.1503 11.0245 9.22768 10.8526 9.47917C9.85902 10.9881 8.19675 11.878 6.41983 11.878C3.47741 11.878 1.10818 9.45982 1.10818 6.5C1.10818 3.54018 3.49651 1.12202 6.41983 1.12202C7.87193 1.12202 9.24761 1.72173 10.2412 2.76637L8.98012 2.70833C8.67441 2.68899 8.40692 2.94048 8.40692 3.25C8.38781 3.55952 8.6362 3.83036 8.94191 3.83036L11.3302 3.90774Z" fill="#2A2F4C"/>
</svg>
