<svg width="32" height="33" viewBox="0 0 32 33" fill="none" xmlns="http://www.w3.org/2000/svg">
<path d="M16 0.25C7.16374 0.25 0 7.41342 0 16.25C0 25.0866 7.16374 32.25 16 32.25C24.8363 32.25 32 25.0866 32 16.25C32 7.41342 24.8363 0.25 16 0.25ZM24.1161 17.9805C24.8618 18.7088 25.6507 19.3943 26.3202 20.198C26.6168 20.5536 26.8964 20.9212 27.1092 21.3346C27.413 21.9242 27.1386 22.5708 26.6109 22.6058L23.333 22.6052C22.4864 22.6752 21.8127 22.3338 21.2447 21.755C20.7913 21.2937 20.3707 20.801 19.934 20.3241C19.7555 20.1283 19.5676 19.944 19.3437 19.799C18.8969 19.5083 18.5086 19.5973 18.2526 20.0641C17.9917 20.5391 17.9321 21.0655 17.9072 21.5942C17.8715 22.3672 17.6385 22.5691 16.8629 22.6055C15.2058 22.6831 13.6335 22.4316 12.1721 21.5962C10.8829 20.8593 9.88514 19.8193 9.01565 18.6417C7.32252 16.3462 6.02582 13.8268 4.86073 11.2351C4.59851 10.6514 4.79034 10.3391 5.43427 10.327C6.5041 10.3063 7.57393 10.309 8.64376 10.326C9.07916 10.3329 9.36724 10.582 9.53453 10.9928C10.1127 12.4152 10.8214 13.7686 11.7095 15.0237C11.9462 15.3579 12.1878 15.6912 12.5319 15.9272C12.9116 16.1878 13.201 16.1017 13.3801 15.6778C13.4947 15.4083 13.5441 15.1203 13.569 14.8315C13.6541 13.8426 13.6642 12.8539 13.5169 11.8689C13.4253 11.2524 13.0786 10.8544 12.4641 10.7378C12.1512 10.6786 12.197 10.5627 12.3492 10.3839C12.6134 10.0749 12.8609 9.88372 13.3555 9.88372L17.059 9.88306C17.6427 9.99764 17.7737 10.2595 17.8529 10.8475L17.8562 14.9631C17.8493 15.1906 17.9704 15.865 18.379 16.014C18.7063 16.122 18.9224 15.8595 19.1182 15.6522C20.0063 14.7097 20.6391 13.5974 21.2058 12.446C21.4559 11.9383 21.6716 11.4128 21.8811 10.8864C22.0369 10.4972 22.2792 10.3057 22.7185 10.3122L26.2848 10.3165C26.3899 10.3165 26.4967 10.3175 26.6008 10.3355C27.2018 10.4383 27.3665 10.6969 27.1805 11.2832C26.8879 12.2044 26.3192 12.9718 25.7634 13.7411C25.1675 14.5647 24.5321 15.3596 23.9422 16.1868C23.4001 16.943 23.443 17.3238 24.1161 17.9805Z" fill="#38618C"/>
</svg>
