<svg width="60" height="61" viewBox="0 0 60 61" fill="none" xmlns="http://www.w3.org/2000/svg">
<circle cx="30" cy="30.25" r="30" fill="url(#paint0_linear)"/>
<path d="M23.632 21.114C19.984 21.114 17.248 23.754 17.248 29.85C17.248 35.922 19.984 38.562 23.632 38.562C27.256 38.562 30.016 35.922 30.016 29.85C30.016 23.754 27.256 21.114 23.632 21.114ZM23.632 36.066C20.944 36.066 20.056 33.258 20.056 29.85C20.056 26.418 20.944 23.61 23.632 23.61C26.32 23.61 27.208 26.418 27.208 29.85C27.208 33.258 26.32 36.066 23.632 36.066ZM38.5298 27.186C36.4898 27.186 35.4098 28.002 34.8098 28.65H34.2338C34.4018 25.29 35.7938 23.49 38.0978 23.49C39.6098 23.49 40.3538 24.186 40.7138 25.338H43.4738C43.0898 22.962 41.1218 21.114 38.1458 21.114C33.5858 21.114 31.5458 25.05 31.5458 30.234C31.5458 36.33 34.2578 38.562 37.9778 38.562C41.6978 38.562 43.9298 35.898 43.9298 32.706C43.9298 29.442 41.5778 27.186 38.5298 27.186ZM37.9298 36.162C36.1058 36.162 34.6898 34.962 34.6898 32.778C34.6898 30.642 36.0818 29.514 37.9058 29.514C39.7298 29.514 41.1218 30.594 41.1218 32.802C41.1218 35.01 39.7538 36.162 37.9298 36.162Z" fill="white"/>
<defs>
<linearGradient id="paint0_linear" x1="76" y1="-14.761" x2="0" y2="61.239" gradientUnits="userSpaceOnUse">
<stop stop-color="#74EBD5"/>
<stop offset="1" stop-color="#0575E6"/>
</linearGradient>
</defs>
</svg>
