<svg width="36" height="36" viewBox="0 0 36 36" fill="none" xmlns="http://www.w3.org/2000/svg">
<circle cx="18" cy="18" r="18" fill="url(#paint0_linear)"/>
<path d="M13.168 11.576C10.688 11.576 8.784 13.32 8.784 17.4C8.784 21.464 10.688 23.208 13.168 23.208C15.648 23.208 17.552 21.464 17.552 17.4C17.552 13.32 15.648 11.576 13.168 11.576ZM13.168 21.16C11.488 21.16 11.104 19.192 11.104 17.4C11.104 15.592 11.488 13.624 13.168 13.624C14.864 13.624 15.248 15.592 15.248 17.4C15.248 19.192 14.864 21.16 13.168 21.16ZM20.7917 15.176C20.9037 14.088 21.5757 13.624 22.5198 13.624C23.4798 13.624 24.1518 14.136 24.1518 15.224C24.1518 16.296 23.2397 17.096 22.3438 17.736L18.5037 20.6V23H26.7758V21H22.0398V20.584L24.3917 18.76C25.6077 17.816 26.4718 16.632 26.4718 15.176C26.4718 12.872 24.8397 11.576 22.5837 11.576C20.1837 11.576 18.6157 12.824 18.4877 15.176H20.7917Z" fill="white"/>
<defs>
<linearGradient id="paint0_linear" x1="38.2367" y1="-48.1956" x2="-11.0641" y2="-45.8046" gradientUnits="userSpaceOnUse">
<stop offset="0.147013" stop-color="#FFBD6F"/>
<stop offset="0.495438" stop-color="#E5787E"/>
<stop offset="0.837254" stop-color="#B0539C"/>
<stop offset="1" stop-color="#5321E2"/>
</linearGradient>
</defs>
</svg>
