<svg width="31" height="33" viewBox="0 0 31 33" fill="none" xmlns="http://www.w3.org/2000/svg">
<path d="M0 0.25V0.719697V21.3864V21.8561H0.469697H10.9792L9.43797 24.9238L9.10038 25.6136H9.86364H21.1364H21.8996L21.562 24.9238L20.0208 21.8561H30.5303H31V21.3864V0.719697V0.25H30.5303H0.469697H0ZM0.939394 1.18939H30.0606V17.1591H0.939394V1.18939ZM23.0152 2.59848C21.8851 2.59848 20.9307 3.40977 20.7107 4.47727H7.98485H7.51515V4.94697V15.2803V15.75H7.98485H23.0152H23.4848V15.2803V7.25142C24.5524 7.03144 25.3636 6.07701 25.3636 4.94697C25.3636 3.6555 24.3066 2.59848 23.0152 2.59848ZM23.0152 3.53788C23.7989 3.53788 24.4242 4.16319 24.4242 4.94697C24.4242 5.73075 23.7989 6.35606 23.0152 6.35606C22.2314 6.35606 21.6061 5.73075 21.6061 4.94697C21.6061 4.16319 22.2314 3.53788 23.0152 3.53788ZM8.45455 5.41667H20.7107C20.8993 6.33167 21.6305 7.06287 22.5455 7.25142V14.8106H8.45455V5.41667ZM10.803 7.29545V8.23485H16.4394V7.29545H10.803ZM10.803 9.64394V10.5833H20.197V9.64394H10.803ZM10.803 11.9924V12.9318H16.4394V11.9924H10.803ZM0.939394 18.0985H30.0606V20.9167H0.939394V18.0985ZM12.036 21.8561H18.964L20.3731 24.6742H10.6269L12.036 21.8561ZM4.40341 27.4924L4.27131 27.7566L2.39252 31.5142L2.05492 32.1894H2.81818H28.1818H28.9451L28.6075 31.5142L26.7287 27.7566L26.5966 27.4924H26.303H4.69697H4.40341ZM4.99053 28.4318H26.0095L27.4186 31.25H3.58144L4.99053 28.4318Z" fill="white"/>
</svg>
