<svg width="60" height="60" viewBox="0 0 60 60" fill="none" xmlns="http://www.w3.org/2000/svg">
<circle cx="30" cy="30" r="30" fill="url(#paint0_linear)"/>
<path d="M24.632 20.864C20.984 20.864 18.248 23.504 18.248 29.6C18.248 35.672 20.984 38.312 24.632 38.312C28.256 38.312 31.016 35.672 31.016 29.6C31.016 23.504 28.256 20.864 24.632 20.864ZM24.632 35.816C21.944 35.816 21.056 33.008 21.056 29.6C21.056 26.168 21.944 23.36 24.632 23.36C27.32 23.36 28.208 26.168 28.208 29.6C28.208 33.008 27.32 35.816 24.632 35.816ZM32.6418 38H42.8898V35.552H39.3138V21.2H35.9778L32.6178 23.504V26.312L35.9538 24.056H36.5298V35.552H32.6418V38Z" fill="white"/>
<defs>
<linearGradient id="paint0_linear" x1="76" y1="-15.011" x2="0" y2="60.989" gradientUnits="userSpaceOnUse">
<stop stop-color="#74EBD5"/>
<stop offset="1" stop-color="#0575E6"/>
</linearGradient>
</defs>
</svg>
