<svg width="24" height="25" viewBox="0 0 24 25" fill="none" xmlns="http://www.w3.org/2000/svg">
<g opacity="0.2" clip-path="url(#clip0)">
<path d="M12.0113 10.4347C13.1572 10.4305 14.0698 9.51005 14.0656 8.36173C14.0614 7.21292 13.1469 6.29883 12.0005 6.29785C10.8446 6.29663 9.9214 7.22765 9.93024 8.38677C9.93883 9.53092 10.8618 10.4389 12.0113 10.4347Z" fill="#2A2F4C"/>
<path d="M12 0.489258C5.37256 0.489258 0 5.86207 0 12.4893C0 19.1164 5.37256 24.4893 12 24.4893C18.6274 24.4893 24 19.1164 24 12.4893C24 5.86207 18.6274 0.489258 12 0.489258ZM12.0172 4.13849C14.3546 4.14487 16.2306 6.05677 16.2186 8.41994C16.2068 10.7286 14.3001 12.5997 11.9666 12.5919C9.65696 12.584 7.76274 10.6692 7.77649 8.35586C7.7895 6.01724 9.68471 4.1321 12.0172 4.13849ZM16.7514 14.2526C16.2346 14.7832 15.6124 15.1672 14.9215 15.4351C14.2684 15.6882 13.5527 15.8156 12.8441 15.9006C12.9514 16.017 13.0017 16.0742 13.0685 16.1409C14.03 17.1076 14.9961 18.0693 15.9544 19.0386C16.281 19.3691 16.349 19.7786 16.1692 20.1624C15.9731 20.5822 15.5328 20.8582 15.101 20.8285C14.8275 20.8096 14.6141 20.6738 14.4248 20.483C13.699 19.7528 12.9595 19.0357 12.249 18.2917C12.0415 18.0752 11.9423 18.1164 11.7594 18.3045C11.0294 19.0563 10.2875 19.7961 9.54132 20.5319C9.20618 20.8624 8.80745 20.9223 8.41854 20.7332C8.00532 20.5334 7.74261 20.1113 7.76274 19.6868C7.77698 19.4005 7.91791 19.181 8.11482 18.9851C9.06672 18.0352 10.0157 17.0823 10.9649 16.1301C11.028 16.067 11.0864 16 11.178 15.9018C9.88334 15.7665 8.71587 15.4478 7.71634 14.6663C7.5921 14.5691 7.46418 14.4753 7.35124 14.3663C6.91347 13.9462 6.86952 13.4647 7.21547 12.9693C7.51182 12.545 8.00876 12.4316 8.52559 12.6754C8.62576 12.7223 8.72102 12.7817 8.81236 12.8445C10.6749 14.1244 13.2338 14.1596 15.1037 12.9017C15.2888 12.7603 15.4869 12.6439 15.7165 12.5853C16.1624 12.4704 16.5788 12.6346 16.8179 13.025C17.0917 13.4711 17.0885 13.9062 16.7514 14.2526Z" fill="#2A2F4C"/>
</g>
<defs>
<clipPath id="clip0">
<rect width="24" height="24" fill="white" transform="translate(0 0.489258)"/>
</clipPath>
</defs>
</svg>
