<svg width="94" height="59" viewBox="0 0 94 59" fill="none" xmlns="http://www.w3.org/2000/svg">
<path fill-rule="evenodd" clip-rule="evenodd" d="M4.80786 0.611328H7.64285V12.8003H4.80786V0.611328ZM42.6075 8.41821H39.5835V11.275H42.6075V8.41821ZM48.6557 8.41821H45.6317V11.275H48.6557V8.41821ZM51.6796 8.41821H54.7036V11.275H51.6796V8.41821ZM41.8058 48.0232C43.4204 48.9643 45.2661 49.462 47.1436 49.462C51.0232 49.462 54.6039 47.3365 56.488 43.9136L58.9671 45.2996C56.5825 49.6294 52.0524 52.3188 47.1436 52.3188C44.7685 52.3188 42.4319 51.6887 40.3861 50.4961L41.8058 48.0232ZM47.1437 27.9413C49.7484 27.9413 52.257 28.8965 54.2068 30.6314L56.0828 28.4896C53.614 26.2941 50.4401 25.0845 47.1437 25.0845C40.3397 25.0845 34.5753 30.2074 33.7351 37.0012L36.548 37.3553C37.2117 31.9884 41.7676 27.9413 47.1437 27.9413ZM58.8417 35.6532H54.7036V32.7964H63.5866V41.7477H60.7516V37.5778L53.1444 45.2919L47.1437 39.1974L38.0717 48.3399L31.0211 41.2373L33.0263 39.2197L38.0717 44.3106L47.1437 35.1808L53.1916 41.2991L58.8417 35.6532ZM22.9517 34.3203H25.9757V37.1771H22.9517V34.3203ZM71.3354 40.4155H68.3114V43.2723H71.3354V40.4155ZM3.10684 6.70532H0.271851V12.7998H3.10684V6.70532ZM9.34387 3.65796H12.1789V12.7997H9.34387V3.65796ZM84.7545 49.3667H81.9196V58.5085H84.7545V49.3667ZM86.4554 52.4133H89.2904V58.5078H86.4554V52.4133ZM93.8266 46.3188H90.9916V58.5079H93.8266V46.3188Z" fill="white"/>
</svg>
