<svg width="19" height="21" viewBox="0 0 19 21" fill="none" xmlns="http://www.w3.org/2000/svg">
<path fill-rule="evenodd" clip-rule="evenodd" d="M16.6733 11.41C17.5569 11.4503 18.3065 10.7542 18.3452 9.85514C18.3839 8.95604 17.7626 8.14773 16.8783 8.10886L11.0075 7.37171C11.0075 7.37171 12.2309 5.32528 12.2309 2.29321C12.2309 0.27197 10.787 3.80423e-08 9.93774 3.80423e-08C9.26969 -0.000256215 9.0898 1.29416 9.0898 1.29416H9.08843C8.93716 2.12417 8.74019 2.84902 8.05574 4.18358C7.28954 5.67942 6.24608 5.53908 5.02785 6.87142C4.81286 7.10606 4.52397 7.49335 4.24244 7.96989C4.21946 7.99509 4.19802 8.03037 4.17726 8.07999C4.15215 8.1391 4.12208 8.1801 4.0956 8.23477C4.04897 8.32044 4.0031 8.40612 3.958 8.49606C3.20401 9.25004 2.02935 9.173 1.52915 9.173C0.525831 9.173 0.000341646 9.75597 0.000341646 10.7018L0 17.6914C0 18.7525 0.434178 19.1104 1.52923 19.1104H3.05804C3.82773 19.1104 4.43044 19.5517 5.35133 19.8748C6.61269 20.3118 8.49649 20.6398 11.7415 20.6398C12.309 20.6398 14.0692 20.6419 14.0692 20.6419C14.6081 20.6419 15.041 20.3958 15.3534 20.0985C15.4723 19.9855 15.5963 19.8213 15.6494 19.501C15.658 19.4514 15.6672 19.2433 15.6658 19.2152C15.7066 18.2988 15.1527 17.9671 14.8388 17.8626C14.8474 17.8597 14.8417 17.8519 14.8588 17.8525L15.855 17.8971C16.7394 17.9374 17.6123 17.3004 17.6123 16.217C17.6123 15.3187 16.8841 14.6852 16.0026 14.642L16.5309 14.6665C17.4151 14.7054 18.1626 14.0093 18.2035 13.1102C18.242 12.2112 17.5569 11.4504 16.6733 11.41Z" fill="url(#paint0_linear)"/>
<defs>
<linearGradient id="paint0_linear" x1="16.4988" y1="2.41957" x2="0.279506" y2="16.8356" gradientUnits="userSpaceOnUse">
<stop stop-color="#74EBD5"/>
<stop offset="1" stop-color="#0575E6"/>
</linearGradient>
</defs>
</svg>
