<svg width="36" height="36" viewBox="0 0 36 36" fill="none" xmlns="http://www.w3.org/2000/svg">
<circle cx="18" cy="18" r="18" fill="url(#paint0_linear)"/>
<path d="M13.168 11.576C10.688 11.576 8.784 13.32 8.784 17.4C8.784 21.464 10.688 23.208 13.168 23.208C15.648 23.208 17.552 21.464 17.552 17.4C17.552 13.32 15.648 11.576 13.168 11.576ZM13.168 21.16C11.488 21.16 11.104 19.192 11.104 17.4C11.104 15.592 11.488 13.624 13.168 13.624C14.864 13.624 15.248 15.592 15.248 17.4C15.248 19.192 14.864 21.16 13.168 21.16ZM18.8717 11.8V13.736H23.5278V14.152L21.3837 15.736V17.64C21.6557 17.56 21.9917 17.528 22.4077 17.528C23.6877 17.528 24.3758 18.264 24.3758 19.368C24.3758 20.456 23.6237 21.16 22.4077 21.16C21.3357 21.16 20.5837 20.616 20.4557 19.592H18.1517C18.1997 21.64 19.8957 23.208 22.4077 23.208C24.9037 23.208 26.6798 21.752 26.6798 19.384C26.6798 17.384 25.4317 16.296 23.9278 16.168V15.736L26.0717 14.152V11.8H18.8717Z" fill="white"/>
<defs>
<linearGradient id="paint0_linear" x1="38.2367" y1="-48.1956" x2="-11.0641" y2="-45.8046" gradientUnits="userSpaceOnUse">
<stop offset="0.147013" stop-color="#FFBD6F"/>
<stop offset="0.495438" stop-color="#E5787E"/>
<stop offset="0.837254" stop-color="#B0539C"/>
<stop offset="1" stop-color="#5321E2"/>
</linearGradient>
</defs>
</svg>
