<svg width="60" height="60" viewBox="0 0 60 60" fill="none" xmlns="http://www.w3.org/2000/svg">
<circle cx="30" cy="30" r="30" fill="url(#paint0_linear)"/>
<path d="M23.632 20.864C19.984 20.864 17.248 23.504 17.248 29.6C17.248 35.672 19.984 38.312 23.632 38.312C27.256 38.312 30.016 35.672 30.016 29.6C30.016 23.504 27.256 20.864 23.632 20.864ZM23.632 35.816C20.944 35.816 20.056 33.008 20.056 29.6C20.056 26.168 20.944 23.36 23.632 23.36C26.32 23.36 27.208 26.168 27.208 29.6C27.208 33.008 26.32 35.816 23.632 35.816ZM34.3058 26.048C34.4978 24.2 35.6978 23.36 37.3298 23.36C39.0578 23.36 40.2338 24.296 40.2338 26.144C40.2338 27.92 38.8178 29.264 37.5698 30.248L31.5458 35V38H43.5218V35.552H35.7458V34.976L39.6338 31.832C41.5538 30.296 43.0418 28.4 43.0418 26.12C43.0418 22.688 40.6658 20.864 37.4018 20.864C34.0658 20.864 31.7138 22.592 31.5218 26.048H34.3058Z" fill="white"/>
<defs>
<linearGradient id="paint0_linear" x1="76" y1="-15.011" x2="0" y2="60.989" gradientUnits="userSpaceOnUse">
<stop stop-color="#74EBD5"/>
<stop offset="1" stop-color="#0575E6"/>
</linearGradient>
</defs>
</svg>
