<svg width="67" height="59" viewBox="0 0 67 59" fill="none" xmlns="http://www.w3.org/2000/svg">
<path fill-rule="evenodd" clip-rule="evenodd" d="M5.68877 0.617676H8.38773V3.16759H5.68877V0.617676ZM2.99001 0.61792H0.291046V3.16783H2.99001V0.61792ZM23.2322 11.4973H0.290955V14.0472H23.2322V11.4973ZM2.98992 27.8154H0.290955V30.3653H2.98992V27.8154ZM2.98992 33.2549H0.290955V35.8048H2.98992V33.2549ZM0.290955 38.6951H2.98992V41.245H0.290955V38.6951ZM12.4362 16.9368H15.1352V19.4867H12.4362V16.9368ZM9.73734 16.9368H0.290955V19.4867H9.73734V16.9368ZM63.5482 45.3242H61.0178V46.8539H58.3188V53.4834H63.7167V55.0131H58.3188V57.563H61.0178V58.9229H63.5482V57.563H66.2472V50.9335H60.8492V49.4038H66.4157V46.8539H63.5482V45.3242ZM13.7858 0.617676H11.0869V3.16759H13.7858V0.617676ZM40.607 23.5663V16.9368H32.6786V27.6459H35.2091V19.4867H38.0766V23.5663H40.607ZM44.3479 30.8239L42.5376 32.6268L40.6069 30.7237V38.6945H43.4744V41.2444H38.0764V30.7237L36.2273 32.6268L34.4776 30.8239L39.4154 25.8428L44.3479 30.8239Z" fill="white"/>
</svg>
