<svg width="32" height="33" viewBox="0 0 32 33" fill="none" xmlns="http://www.w3.org/2000/svg">
<g clip-path="url(#clip0)">
<path d="M16.0151 14.0002C17.5429 13.9946 18.7597 12.7673 18.7541 11.2362C18.7486 9.70447 17.5291 8.48569 16.0007 8.48438C14.4594 8.48274 13.2285 9.72411 13.2403 11.2696C13.2518 12.7951 14.4823 14.0057 16.0151 14.0002Z" fill="#E9792F"/>
<path d="M16 0.739258C7.16342 0.739258 0 7.903 0 16.7393C0 25.5755 7.16342 32.7393 16 32.7393C24.8366 32.7393 32 25.5755 32 16.7393C32 7.903 24.8366 0.739258 16 0.739258ZM16.0229 5.60489C19.1394 5.61341 21.6408 8.1626 21.6248 11.3135C21.6091 14.3917 19.0668 16.8866 15.9555 16.8761C12.8759 16.8656 10.3503 14.3125 10.3687 11.2281C10.386 8.1099 12.9129 5.59638 16.0229 5.60489ZM22.3352 19.0904C21.6461 19.7978 20.8165 20.3098 19.8953 20.667C19.0245 21.0045 18.0703 21.1744 17.1255 21.2877C17.2685 21.4428 17.3357 21.5191 17.4247 21.6082C18.7067 22.897 19.9948 24.1793 21.2726 25.4717C21.7079 25.9124 21.7986 26.4584 21.559 26.9701C21.2974 27.5299 20.7105 27.8978 20.1346 27.8582C19.7699 27.833 19.4855 27.652 19.2331 27.3976C18.2654 26.424 17.2793 25.4678 16.3319 24.4759C16.0553 24.1872 15.9231 24.2422 15.6792 24.4929C14.7059 25.4953 13.7166 26.4817 12.7218 27.4628C12.2749 27.9034 11.7433 27.9833 11.2247 27.7312C10.6738 27.4647 10.3235 26.902 10.3503 26.336C10.3693 25.9543 10.5572 25.6616 10.8198 25.4004C12.089 24.1338 13.3542 22.8633 14.6198 21.5938C14.704 21.5096 14.7819 21.4203 14.904 21.2893C13.1778 21.1089 11.6212 20.684 10.2885 19.642C10.1228 19.5124 9.95225 19.3873 9.80166 19.242C9.21796 18.6818 9.15937 18.0399 9.62062 17.3793C10.0158 16.8136 10.6783 16.6623 11.3674 16.9874C11.501 17.0499 11.628 17.1292 11.7498 17.213C14.2332 18.9195 17.645 18.9663 20.1382 17.2892C20.3851 17.1007 20.6492 16.9455 20.9553 16.8673C21.5498 16.7141 22.105 16.9331 22.4239 17.4536C22.7889 18.0484 22.7847 18.6285 22.3352 19.0904Z" fill="#E9792F"/>
</g>
<defs>
<clipPath id="clip0">
<rect width="32" height="32" fill="white" transform="translate(0 0.739258)"/>
</clipPath>
</defs>
</svg>
