<svg width="32" height="33" viewBox="0 0 32 33" fill="none" xmlns="http://www.w3.org/2000/svg">
<path d="M16 0.25C7.17764 0.25 0 7.42764 0 16.25C0 25.0717 7.17764 32.25 16 32.25C24.8217 32.25 32 25.0717 32 16.25C32 7.42764 24.823 0.25 16 0.25ZM19.9791 16.8133H17.376C17.376 20.9721 17.376 26.0913 17.376 26.0913H13.5187C13.5187 26.0913 13.5187 21.0218 13.5187 16.8133H11.6852V13.5341H13.5187V11.4131C13.5187 9.89408 14.2406 7.52044 17.4114 7.52044L20.2697 7.5314V10.7145C20.2697 10.7145 18.5328 10.7145 18.1951 10.7145C17.8574 10.7145 17.3773 10.8834 17.3773 11.6078L17.3773 13.5348H20.3161L19.9791 16.8133Z" fill="#2F549E"/>
</svg>
