<svg width="26" height="62" viewBox="0 0 26 62" fill="none" xmlns="http://www.w3.org/2000/svg">
<path fill-rule="evenodd" clip-rule="evenodd" d="M0.673615 0.564453H15.8398V3.74817H0.673615V0.564453ZM0.673523 7.35645H9.09918V10.541H0.673523V7.35645ZM24.2652 58.301H10.7841V61.4847H24.2652V58.301ZM9.09915 44.7168H12.4694V47.9005H9.09915V44.7168ZM19.2096 44.7168H15.8394V47.9005H19.2096V44.7168ZM22.58 44.7168H25.9502V47.9005H22.58V44.7168ZM22.5802 17.5467V20.7312H15.6288V22.641H22.3702V30.9198H18.9991V32.6179H15.8397V30.9198H12.4694V27.7353H19.2099V25.8255H12.4694V17.5467H15.8397V15.637H18.9991V17.5467H22.5802Z" fill="white"/>
</svg>
