<svg width="375" height="155" viewBox="0 0 375 155" fill="none" xmlns="http://www.w3.org/2000/svg">
<g opacity="0.8" filter="url(#filter0_f)">
<path fill-rule="evenodd" clip-rule="evenodd" d="M94.2883 57.7892C92.9716 57.7892 91.7391 57.1412 90.9928 56.0563L88.0186 51.7329C86.429 49.4224 83.0171 49.4224 81.4276 51.7329L78.4533 56.0563C77.707 57.1412 76.4746 57.7892 75.1578 57.7892H46C43.7909 57.7892 42 59.5801 42 61.7892V100.511C42 102.72 43.7909 104.511 46 104.511H329C331.209 104.511 333 102.72 333 100.511V61.7892C333 59.5801 331.209 57.7892 329 57.7892H94.2883Z" fill="url(#paint0_linear)"/>
</g>
<path fill-rule="evenodd" clip-rule="evenodd" d="M202.749 34C201.688 34 200.67 33.5786 199.92 32.8284L191.263 24.1716C189.701 22.6095 187.169 22.6095 185.607 24.1716L176.95 32.8284C176.2 33.5786 175.182 34 174.121 34H27C24.7909 34 23 35.7909 23 38V86C23 88.2091 24.7909 90 27 90H348C350.209 90 352 88.2091 352 86V38C352 35.7909 350.209 34 348 34H202.749Z" fill="url(#paint1_linear)"/>
<path d="M125.147 62.048H122.379V64.72H120.635V62.048H117.867V60.32H120.619V57.632H122.379V60.32H125.147V62.048ZM137.017 56.848H132.489L132.361 58.848L133.945 59.04C135.214 59.1787 136.11 59.5467 136.633 60.144C137.166 60.7413 137.433 61.568 137.433 62.624C137.433 65.0027 136.148 66.192 133.577 66.192C132.51 66.192 131.284 66.0747 129.897 65.84L130.121 63.952C131.305 64.08 132.254 64.144 132.969 64.144C133.769 64.144 134.302 64.0267 134.569 63.792C134.846 63.5573 134.996 63.152 135.017 62.576C135.049 61.9147 134.894 61.488 134.553 61.296C134.212 61.104 133.508 60.96 132.441 60.864L131.097 60.704C130.862 60.6827 130.67 60.5867 130.521 60.416C130.382 60.2453 130.318 60.0427 130.329 59.808L130.601 54.96H137.097L137.017 56.848ZM145.83 56.848H141.302L141.174 58.848L142.758 59.04C144.027 59.1787 144.923 59.5467 145.446 60.144C145.979 60.7413 146.246 61.568 146.246 62.624C146.246 65.0027 144.96 66.192 142.39 66.192C141.323 66.192 140.096 66.0747 138.71 65.84L138.934 63.952C140.118 64.08 141.067 64.144 141.782 64.144C142.582 64.144 143.115 64.0267 143.382 63.792C143.659 63.5573 143.808 63.152 143.83 62.576C143.862 61.9147 143.707 61.488 143.366 61.296C143.024 61.104 142.32 60.96 141.254 60.864L139.91 60.704C139.675 60.6827 139.483 60.5867 139.334 60.416C139.195 60.2453 139.131 60.0427 139.142 59.808L139.414 54.96H145.91L145.83 56.848ZM150.194 54.752C151.218 54.752 151.933 54.992 152.338 55.472C152.743 55.952 152.946 56.8053 152.946 58.032C152.946 59.248 152.743 60.1013 152.338 60.592C151.933 61.072 151.218 61.312 150.194 61.312C149.181 61.312 148.471 61.072 148.066 60.592C147.661 60.1013 147.458 59.248 147.458 58.032C147.458 56.8053 147.661 55.952 148.066 55.472C148.471 54.992 149.181 54.752 150.194 54.752ZM151.602 66H150.082L156.706 54.96H158.21L151.602 66ZM150.178 56.064C149.794 56.064 149.533 56.1973 149.394 56.464C149.266 56.72 149.202 57.2427 149.202 58.032C149.202 58.832 149.266 59.36 149.394 59.616C149.533 59.872 149.794 60 150.178 60C150.583 60 150.85 59.872 150.978 59.616C151.117 59.36 151.186 58.832 151.186 58.032C151.186 57.232 151.117 56.704 150.978 56.448C150.85 56.192 150.583 56.064 150.178 56.064ZM158.13 59.616C159.154 59.616 159.869 59.8613 160.274 60.352C160.679 60.832 160.882 61.68 160.882 62.896C160.882 64.1227 160.679 64.9813 160.274 65.472C159.869 65.952 159.154 66.192 158.13 66.192C157.117 66.192 156.407 65.952 156.002 65.472C155.607 64.9813 155.41 64.1227 155.41 62.896C155.41 61.68 155.607 60.832 156.002 60.352C156.407 59.8613 157.117 59.616 158.13 59.616ZM158.914 61.328C158.786 61.072 158.525 60.944 158.13 60.944C157.735 60.944 157.469 61.072 157.33 61.328C157.202 61.5733 157.143 62.096 157.154 62.896C157.143 63.696 157.202 64.224 157.33 64.48C157.469 64.736 157.735 64.864 158.13 64.864C158.525 64.864 158.786 64.736 158.914 64.48C159.053 64.224 159.122 63.696 159.122 62.896C159.122 62.1067 159.053 61.584 158.914 61.328ZM170.514 61.856V61.92C170.834 61.9627 171.096 62.0107 171.298 62.064C171.501 62.1067 171.698 62.2027 171.89 62.352C172.082 62.5013 172.226 62.64 172.322 62.768C172.429 62.896 172.562 63.1467 172.722 63.52C172.882 63.8827 173.01 64.2187 173.106 64.528C173.213 64.8373 173.373 65.328 173.586 66H171.122C170.653 64.5067 170.306 63.5893 170.082 63.248C169.858 62.9067 169.464 62.736 168.898 62.736H168.178C168.232 63.0027 168.258 63.2267 168.258 63.408V66H165.906V58.112H168.258V60.128C168.258 60.448 168.226 60.768 168.162 61.088H168.754C169.362 61.088 169.784 60.9173 170.018 60.576C170.253 60.224 170.557 59.4027 170.93 58.112H173.33C172.84 59.5947 172.509 60.4907 172.338 60.8C172.082 61.2693 171.704 61.5733 171.202 61.712C171.021 61.7653 170.792 61.8133 170.514 61.856ZM185.91 58.096V66H183.622V59.792H180.71V66H178.406V58.096H185.91ZM189.842 58.112L190.018 59.264C190.349 58.8693 190.802 58.544 191.378 58.288C191.965 58.032 192.557 57.904 193.154 57.904C194.978 57.904 195.89 59.312 195.89 62.128C195.89 63.6427 195.645 64.704 195.154 65.312C194.663 65.9093 193.901 66.208 192.866 66.208C191.799 66.208 190.919 65.952 190.226 65.44C190.279 65.984 190.295 66.5493 190.274 67.136V69.04H187.922V58.112H189.842ZM190.274 60.512V64.128C191.106 64.3413 191.703 64.448 192.066 64.448C192.599 64.448 192.962 64.2987 193.154 64C193.357 63.7013 193.458 63.0773 193.458 62.128C193.458 61.2 193.367 60.576 193.186 60.256C193.005 59.9253 192.685 59.76 192.226 59.76C191.693 59.76 191.042 60.0107 190.274 60.512ZM198.123 58.832C198.741 58.2027 199.792 57.888 201.275 57.888C202.757 57.888 203.803 58.2027 204.411 58.832C205.019 59.4613 205.323 60.5387 205.323 62.064C205.323 63.5787 205.019 64.6507 204.411 65.28C203.803 65.8987 202.757 66.208 201.275 66.208C199.792 66.208 198.741 65.8987 198.123 65.28C197.515 64.6507 197.211 63.5787 197.211 62.064C197.211 60.5387 197.515 59.4613 198.123 58.832ZM201.275 59.664C200.645 59.664 200.224 59.824 200.011 60.144C199.797 60.464 199.691 61.104 199.691 62.064C199.691 63.0027 199.797 63.632 200.011 63.952C200.224 64.272 200.645 64.432 201.275 64.432C201.893 64.432 202.309 64.272 202.523 63.952C202.747 63.632 202.859 63.0027 202.859 62.064C202.859 61.1147 202.747 60.48 202.523 60.16C202.309 59.8293 201.893 59.664 201.275 59.664ZM215.453 64.304V68.256H213.901L213.725 66H207.821L207.661 68.256H206.109V64.304H207.101C207.571 63.0987 207.896 61.6747 208.077 60.032C208.205 58.752 208.957 58.112 210.333 58.112H214.205V64.304H215.453ZM211.981 64.304V59.712H210.957C210.477 59.712 210.211 59.9627 210.157 60.464C209.976 62.032 209.651 63.312 209.181 64.304H211.981ZM217.036 59.872L216.828 58.272C218.247 58.016 219.612 57.888 220.924 57.888C221.991 57.888 222.775 58.1067 223.276 58.544C223.788 58.9707 224.044 59.7173 224.044 60.784V66H222.172L221.932 64.8C221.143 65.728 220.167 66.192 219.004 66.192C218.247 66.192 217.628 65.9947 217.148 65.6C216.679 65.1947 216.444 64.6347 216.444 63.92V63.12C216.444 62.4907 216.657 62 217.084 61.648C217.511 61.296 218.103 61.12 218.86 61.12H221.676V60.768C221.665 60.3733 221.569 60.1067 221.388 59.968C221.217 59.8187 220.881 59.744 220.38 59.744C219.516 59.744 218.401 59.7867 217.036 59.872ZM218.78 63.296V63.6C218.78 64.144 219.084 64.416 219.692 64.416C220.321 64.416 220.983 64.16 221.676 63.648V62.544H219.548C219.036 62.5547 218.78 62.8053 218.78 63.296ZM234.737 61.84V61.904C234.971 61.936 235.169 61.9733 235.329 62.016C235.499 62.048 235.665 62.1067 235.825 62.192C235.985 62.2773 236.113 62.3573 236.209 62.432C236.315 62.496 236.427 62.624 236.545 62.816C236.673 62.9973 236.769 63.1573 236.833 63.296C236.907 63.4347 237.003 63.6693 237.121 64C237.249 64.32 237.35 64.608 237.425 64.864C237.51 65.12 237.633 65.4987 237.793 66H235.409C234.886 64.5067 234.518 63.584 234.305 63.232C234.091 62.88 233.755 62.704 233.297 62.704H232.513C232.577 62.9387 232.609 63.168 232.609 63.392V66H230.529V63.392C230.529 63.2 230.555 62.9707 230.609 62.704H229.793C229.355 62.704 229.03 62.88 228.817 63.232C228.614 63.5733 228.241 64.496 227.697 66H225.313C225.483 65.4773 225.606 65.0987 225.681 64.864C225.755 64.6293 225.857 64.3413 225.985 64C226.113 63.648 226.209 63.4133 226.273 63.296C226.337 63.168 226.433 63.008 226.561 62.816C226.689 62.6133 226.801 62.4853 226.897 62.432C226.993 62.368 227.121 62.288 227.281 62.192C227.441 62.096 227.601 62.032 227.761 62C227.931 61.968 228.139 61.936 228.385 61.904V61.84C227.595 61.744 227.062 61.5147 226.785 61.152C226.507 60.7787 226.15 59.9307 225.713 58.608C225.649 58.3947 225.595 58.2293 225.553 58.112H227.873C228.31 59.3813 228.641 60.1973 228.865 60.56C229.089 60.9227 229.43 61.104 229.889 61.104H230.625C230.561 60.8053 230.529 60.4907 230.529 60.16V58.112H232.609V60.16C232.609 60.4907 232.577 60.8053 232.513 61.104H233.201C233.67 61.104 234.011 60.928 234.225 60.576C234.438 60.224 234.769 59.4027 235.217 58.112H237.553C237.062 59.584 236.731 60.48 236.561 60.8C236.283 61.28 235.883 61.5893 235.361 61.728C235.19 61.7707 234.982 61.808 234.737 61.84ZM239.333 59.872L239.125 58.272C240.543 58.016 241.909 57.888 243.221 57.888C244.287 57.888 245.071 58.1067 245.573 58.544C246.085 58.9707 246.341 59.7173 246.341 60.784V66H244.469L244.229 64.8C243.439 65.728 242.463 66.192 241.301 66.192C240.543 66.192 239.925 65.9947 239.445 65.6C238.975 65.1947 238.741 64.6347 238.741 63.92V63.12C238.741 62.4907 238.954 62 239.381 61.648C239.807 61.296 240.399 61.12 241.157 61.12H243.973V60.768C243.962 60.3733 243.866 60.1067 243.685 59.968C243.514 59.8187 243.178 59.744 242.677 59.744C241.813 59.744 240.698 59.7867 239.333 59.872ZM241.077 63.296V63.6C241.077 64.144 241.381 64.416 241.989 64.416C242.618 64.416 243.279 64.16 243.973 63.648V62.544H241.845C241.333 62.5547 241.077 62.8053 241.077 63.296ZM255.705 58.112H257.849C258.383 58.112 258.66 58.384 258.681 58.928L258.937 66H256.777L256.553 59.84H256.329L255.049 64.256C254.932 64.7467 254.639 64.992 254.169 64.992H252.889C252.399 64.992 252.095 64.7467 251.977 64.256L250.713 59.84H250.489L250.297 66H248.153L248.393 58.928C248.393 58.384 248.671 58.112 249.225 58.112H251.337C251.828 58.112 252.121 58.3573 252.217 58.848L253.209 62.336C253.263 62.5387 253.337 62.928 253.433 63.504H253.609C253.62 63.4507 253.647 63.28 253.689 62.992C253.743 62.704 253.791 62.4853 253.833 62.336L254.809 58.848C254.905 58.3573 255.204 58.112 255.705 58.112Z" fill="white"/>
<defs>
<filter id="filter0_f" x="-8" y="0" width="391" height="154.511" filterUnits="userSpaceOnUse" color-interpolation-filters="sRGB">
<feFlood flood-opacity="0" result="BackgroundImageFix"/>
<feBlend mode="normal" in="SourceGraphic" in2="BackgroundImageFix" result="shape"/>
<feGaussianBlur stdDeviation="25" result="effect1_foregroundBlur"/>
</filter>
<linearGradient id="paint0_linear" x1="329.269" y1="15.8761" x2="20.1255" y2="76.6664" gradientUnits="userSpaceOnUse">
<stop stop-color="#FFBD6F"/>
<stop offset="0.489444" stop-color="#E5787E"/>
<stop offset="0.985106" stop-color="#B0539C"/>
</linearGradient>
<linearGradient id="paint1_linear" x1="372.441" y1="-66.6974" x2="-54.9358" y2="35.0797" gradientUnits="userSpaceOnUse">
<stop offset="0.147013" stop-color="#FFBD6F"/>
<stop offset="0.495438" stop-color="#E5787E"/>
<stop offset="0.837254" stop-color="#B0539C"/>
<stop offset="1" stop-color="#5321E2"/>
</linearGradient>
</defs>
</svg>
