<svg width="279" height="224" viewBox="0 0 279 224" fill="none" xmlns="http://www.w3.org/2000/svg">
<path opacity="0.5" d="M249.566 149.276C249.566 163.321 237.415 176.19 217.41 185.578C197.444 194.946 169.827 200.754 139.295 200.754C108.763 200.754 81.1464 194.946 61.181 185.578C41.176 176.19 29.0247 163.321 29.0247 149.276C29.0247 135.23 41.176 122.361 61.181 112.974C81.1464 103.605 108.763 97.7969 139.295 97.7969C169.827 97.7969 197.444 103.605 217.41 112.974C237.415 122.361 249.566 135.23 249.566 149.276Z" stroke="url(#paint0_linear)"/>
<path opacity="0.7" d="M219.615 149.276C219.615 159.486 210.789 168.882 196.161 175.755C181.573 182.609 161.384 186.862 139.058 186.862C116.731 186.862 96.5422 182.609 81.9539 175.755C67.3262 168.882 58.5001 159.486 58.5001 149.276C58.5001 139.067 67.3262 129.671 81.9539 122.798C96.5422 115.944 116.731 111.69 139.058 111.69C161.384 111.69 181.573 115.944 196.161 122.798C210.789 129.671 219.615 139.067 219.615 149.276Z" stroke="url(#paint1_linear)"/>
<path opacity="0.3" d="M277.615 149.036C277.615 169.401 262.248 187.952 237.149 201.441C212.071 214.919 177.391 223.271 139.058 223.271C100.724 223.271 66.0441 214.919 40.9657 201.441C15.8667 187.952 0.5 169.401 0.5 149.036C0.5 128.671 15.8667 110.121 40.9657 96.6314C66.0441 83.1534 100.724 74.8018 139.058 74.8018C177.391 74.8018 212.071 83.1534 237.149 96.6314C262.248 110.121 277.615 128.671 277.615 149.036Z" stroke="url(#paint2_linear)"/>
<path opacity="0.5" d="M155.441 69.9296C160.096 72.638 162.966 77.6103 162.983 82.9953L163.103 119.975C163.119 124.746 157.948 127.731 153.824 125.331L81.6039 83.3051C76.9496 80.5967 74.0794 75.6244 74.0619 70.2394L73.9417 33.2597C73.9262 28.4886 79.0973 25.5037 83.2209 27.9034L155.441 69.9296Z" fill="url(#paint3_linear)"/>
<path opacity="0.5" d="M208.067 80.2209C213.259 83.2347 216.457 88.7815 216.463 94.7845L216.522 150.881C216.528 156.172 210.794 159.477 206.218 156.821L129.428 112.244C124.236 109.231 121.039 103.684 121.032 97.6809L120.973 41.5848C120.968 36.2936 126.701 32.9884 131.277 35.6448L208.067 80.2209Z" fill="url(#paint4_linear)"/>
<path d="M158.752 43.7813L109.457 15.3324C107.905 14.4368 105.921 14.9686 105.025 16.5201C104.738 17.0173 104.588 17.5817 104.59 18.1558L105.18 154.395C105.195 158.058 107.157 161.437 110.33 163.269L159.626 191.717C161.177 192.613 163.162 192.081 164.058 190.53C164.345 190.033 164.495 189.468 164.492 188.894L163.903 52.6552C163.887 48.9918 161.926 45.6127 158.752 43.7813Z" fill="url(#paint5_linear)"/>
<path d="M108.393 20.6467C108.919 20.6467 109.344 20.2178 109.344 19.6886C109.344 19.1594 108.919 18.7305 108.393 18.7305C107.868 18.7305 107.443 19.1594 107.443 19.6886C107.443 20.2178 107.868 20.6467 108.393 20.6467Z" fill="white"/>
<path d="M111.721 22.5628C112.246 22.5628 112.672 22.1338 112.672 21.6046C112.672 21.0755 112.246 20.6465 111.721 20.6465C111.196 20.6465 110.771 21.0755 110.771 21.6046C110.771 22.1338 111.196 22.5628 111.721 22.5628Z" fill="white"/>
<path d="M115.049 24.4788C115.574 24.4788 116 24.0498 116 23.5206C116 22.9915 115.574 22.5625 115.049 22.5625C114.524 22.5625 114.098 22.9915 114.098 23.5206C114.098 24.0498 114.524 24.4788 115.049 24.4788Z" fill="white"/>
<path opacity="0.9" d="M225.458 106.218L193.768 87.9954C192.77 87.4218 191.495 87.7623 190.919 88.7562C190.734 89.0746 190.638 89.4362 190.639 89.8039L191.018 177.07C191.028 179.417 192.289 181.581 194.329 182.755L226.019 200.977C227.017 201.551 228.292 201.21 228.868 200.216C229.053 199.898 229.149 199.536 229.148 199.169L228.769 111.902C228.759 109.556 227.498 107.391 225.458 106.218Z" fill="white"/>
<path opacity="0.9" d="M205.446 146.705C207.399 147.849 208.603 149.939 208.615 152.202L208.767 181.118C208.778 183.139 206.585 184.403 204.841 183.381L175.968 166.464C174.015 165.32 172.81 163.231 172.798 160.968L172.646 132.052C172.636 130.031 174.829 128.766 176.573 129.788L205.446 146.705Z" fill="url(#paint6_linear)"/>
<path opacity="0.5" d="M96.3688 84.1387C97.6848 84.9017 98.4959 86.3068 98.4985 87.828L98.5152 97.6512C98.5174 98.9923 97.0647 99.8309 95.9045 99.1582L76.4823 87.897C75.1663 87.134 74.3552 85.7289 74.3526 84.2077L74.3359 74.3846C74.3337 73.0435 75.7864 72.2049 76.9466 72.8775L96.3688 84.1387Z" fill="white"/>
<path opacity="0.9" d="M76.1341 70.0538C78.0868 71.198 79.2914 73.2871 79.3033 75.5503L79.4552 104.466C79.4659 106.487 77.2728 107.752 75.529 106.73L46.6558 89.813C44.703 88.6688 43.4985 86.5797 43.4866 84.3165L43.3347 55.4006C43.324 53.3795 45.5171 52.115 47.2609 53.1368L76.1341 70.0538Z" fill="url(#paint7_linear)"/>
<path opacity="0.5" d="M108.11 133.463C109.419 134.226 110.226 135.626 110.231 137.141L110.278 152.121C110.283 153.465 108.825 154.305 107.664 153.628L92.5589 144.821C91.2499 144.057 90.4431 142.658 90.4383 141.143L90.3907 126.163C90.3864 124.819 91.8438 123.978 93.005 124.656L108.11 133.463Z" fill="white"/>
<path opacity="0.9" d="M185.893 42.8114C187.197 43.5743 188.002 44.9694 188.009 46.4804L188.062 58.3347C188.068 59.6809 186.608 60.523 185.446 59.8433L173.381 52.7863C172.077 52.0234 171.272 50.6283 171.265 49.1172L171.212 37.263C171.206 35.9168 172.666 35.0747 173.828 35.7544L185.893 42.8114Z" fill="white"/>
<path opacity="0.9" d="M71.0876 97.3268C76.4963 100.462 79.8298 106.236 79.8393 112.488L79.8443 115.77C79.8493 119.056 76.2906 121.11 73.4482 119.463L49.7974 105.755C48.0858 104.763 47.031 102.936 47.028 100.958L47.0125 90.7728C47.0075 87.4874 50.5661 85.4331 53.4086 87.0805L71.0876 97.3268Z" fill="white"/>
<path opacity="0.5" d="M231.63 139.075C236.363 141.852 239.286 146.915 239.323 152.403C239.343 155.335 236.16 157.172 233.631 155.688L217.688 146.335C216 145.344 214.958 143.538 214.945 141.581L214.912 136.733C214.89 133.428 218.476 131.358 221.327 133.03L231.63 139.075Z" fill="url(#paint8_linear)"/>
<defs>
<linearGradient id="paint0_linear" x1="227.749" y1="109.482" x2="164.486" y2="244.301" gradientUnits="userSpaceOnUse">
<stop stop-color="#74EBD5"/>
<stop offset="1" stop-color="#0575E6"/>
</linearGradient>
<linearGradient id="paint1_linear" x1="203.785" y1="120.119" x2="157.392" y2="218.856" gradientUnits="userSpaceOnUse">
<stop stop-color="#74EBD5"/>
<stop offset="1" stop-color="#0575E6"/>
</linearGradient>
<linearGradient id="paint2_linear" x1="250.1" y1="91.8219" x2="151.472" y2="275.338" gradientUnits="userSpaceOnUse">
<stop stop-color="#74EBD5"/>
<stop offset="1" stop-color="#0575E6"/>
</linearGradient>
<linearGradient id="paint3_linear" x1="170.513" y1="107.661" x2="65.0998" y2="107.298" gradientUnits="userSpaceOnUse">
<stop stop-color="#74EBD5"/>
<stop offset="1" stop-color="#0575E6"/>
</linearGradient>
<linearGradient id="paint4_linear" x1="230.268" y1="132.885" x2="105.459" y2="132.33" gradientUnits="userSpaceOnUse">
<stop stop-color="#74EBD5"/>
<stop offset="1" stop-color="#0575E6"/>
</linearGradient>
<linearGradient id="paint5_linear" x1="110.624" y1="35.6746" x2="195.698" y2="64.4245" gradientUnits="userSpaceOnUse">
<stop stop-color="#74EBD5"/>
<stop offset="1" stop-color="#0575E6"/>
</linearGradient>
<linearGradient id="paint6_linear" x1="216.508" y1="172.106" x2="164.298" y2="172.101" gradientUnits="userSpaceOnUse">
<stop stop-color="#74EBD5"/>
<stop offset="1" stop-color="#0575E6"/>
</linearGradient>
<linearGradient id="paint7_linear" x1="87.1961" y1="95.4545" x2="34.9867" y2="95.4497" gradientUnits="userSpaceOnUse">
<stop stop-color="#74EBD5"/>
<stop offset="1" stop-color="#0575E6"/>
</linearGradient>
<linearGradient id="paint8_linear" x1="240.142" y1="152.266" x2="212.894" y2="152.029" gradientUnits="userSpaceOnUse">
<stop stop-color="#74EBD5"/>
<stop offset="1" stop-color="#0575E6"/>
</linearGradient>
</defs>
</svg>
