<svg width="1000" height="637" viewBox="0 0 1000 637" fill="none" xmlns="http://www.w3.org/2000/svg">
<g filter="url(#filter0_d)">
<rect x="15" y="13" width="970" height="606.25"/>
</g>
<g filter="url(#filter1_d)">
<path d="M634.326 288.786C692.099 288.786 738.934 241.951 738.934 184.178C738.934 126.405 692.099 79.5703 634.326 79.5703C576.553 79.5703 529.718 126.405 529.718 184.178C529.718 241.951 576.553 288.786 634.326 288.786Z" fill="#D8D8D8"/>
<path d="M634.326 288.786C692.099 288.786 738.934 241.951 738.934 184.178C738.934 126.405 692.099 79.5703 634.326 79.5703C576.553 79.5703 529.718 126.405 529.718 184.178C529.718 241.951 576.553 288.786 634.326 288.786Z" stroke="#FD6E62" stroke-width="4"/>
</g>
<mask id="mask0" mask-type="alpha" maskUnits="userSpaceOnUse" x="527" y="77" width="214" height="214">
<path d="M634.326 288.786C692.099 288.786 738.934 241.951 738.934 184.178C738.934 126.405 692.099 79.5703 634.326 79.5703C576.553 79.5703 529.718 126.405 529.718 184.178C529.718 241.951 576.553 288.786 634.326 288.786Z" fill="white" stroke="white" stroke-width="4"/>
</mask>
<g mask="url(#mask0)">
<rect x="17.3774" y="-9.58594" width="1195.86" height="747.708"/>
</g>
<defs>
<filter id="filter0_d" x="0" y="0" width="1000" height="636.25" filterUnits="userSpaceOnUse" color-interpolation-filters="sRGB">
<feFlood flood-opacity="0" result="BackgroundImageFix"/>
<feColorMatrix in="SourceAlpha" type="matrix" values="0 0 0 0 0 0 0 0 0 0 0 0 0 0 0 0 0 0 127 0"/>
<feOffset dy="2"/>
<feGaussianBlur stdDeviation="7.5"/>
<feColorMatrix type="matrix" values="0 0 0 0 0 0 0 0 0 0 0 0 0 0 0 0 0 0 0.5 0"/>
<feBlend mode="normal" in2="BackgroundImageFix" result="effect1_dropShadow"/>
<feBlend mode="normal" in="SourceGraphic" in2="effect1_dropShadow" result="shape"/>
</filter>
<filter id="filter1_d" x="512.718" y="64.5703" width="243.216" height="243.216" filterUnits="userSpaceOnUse" color-interpolation-filters="sRGB">
<feFlood flood-opacity="0" result="BackgroundImageFix"/>
<feColorMatrix in="SourceAlpha" type="matrix" values="0 0 0 0 0 0 0 0 0 0 0 0 0 0 0 0 0 0 127 0"/>
<feOffset dy="2"/>
<feGaussianBlur stdDeviation="7.5"/>
<feColorMatrix type="matrix" values="0 0 0 0 0 0 0 0 0 0 0 0 0 0 0 0 0 0 0.5 0"/>
<feBlend mode="normal" in2="BackgroundImageFix" result="effect1_dropShadow"/>
<feBlend mode="normal" in="SourceGraphic" in2="effect1_dropShadow" result="shape"/>
</filter>
</defs>
</svg>
