<svg width="279" height="180" viewBox="0 0 279 180" fill="none" xmlns="http://www.w3.org/2000/svg">
<path opacity="0.5" d="M250.361 105.009C250.361 119.1 238.171 132.011 218.102 141.428C198.073 150.827 170.367 156.654 139.738 156.654C109.109 156.654 81.4039 150.827 61.3748 141.428C41.306 132.011 29.1152 119.1 29.1152 105.009C29.1152 90.9184 41.306 78.0078 61.3748 68.5906C81.4039 59.1919 109.109 53.3652 139.738 53.3652C170.367 53.3652 198.073 59.1919 218.102 68.5906C238.171 78.0078 250.361 90.9184 250.361 105.009Z" stroke="url(#paint0_linear)"/>
<path opacity="0.7" d="M220.316 105.01C220.316 115.253 211.461 124.679 196.786 131.574C182.151 138.45 161.898 142.717 139.5 142.717C117.102 142.717 96.8491 138.45 82.2142 131.574C67.5398 124.679 58.6848 115.253 58.6848 105.01C58.6848 94.767 67.5398 85.3408 82.2142 78.4459C96.8491 71.5694 117.102 67.3027 139.5 67.3027C161.898 67.3027 182.151 71.5694 196.786 78.4459C211.461 85.3408 220.316 94.767 220.316 105.01Z" stroke="url(#paint1_linear)"/>
<path opacity="0.3" d="M278.5 104.769C278.5 125.2 263.084 143.81 237.905 157.342C212.746 170.863 177.956 179.242 139.5 179.242C101.044 179.242 66.2538 170.863 41.0953 157.342C15.9163 143.81 0.5 125.2 0.5 104.769C0.5 84.3387 15.9163 65.7283 41.0953 52.1962C66.2538 38.6751 101.044 30.2969 139.5 30.2969C177.956 30.2969 212.746 38.6751 237.905 52.1962C263.084 65.7283 278.5 84.3387 278.5 104.769Z" stroke="url(#paint2_linear)"/>
<path fill-rule="evenodd" clip-rule="evenodd" d="M60.5683 20.4805L58.1837 19.2236V78.041L60.5683 79.2974V20.4805ZM98.2458 22.4019L95.8612 21.146V98.7075L98.2458 99.9629V22.4019ZM99.6762 22.1069L102.061 23.3628V102.366L99.6762 101.11V22.1069ZM105.876 23.8428L103.492 22.5874V103.032L105.876 104.288V23.8428ZM107.307 26.4321L109.692 27.688V106.691L107.307 105.435V26.4321ZM113.507 31.5332L111.123 30.2773V107.358L113.507 108.614V31.5332ZM114.938 34.6021L117.322 35.8579V110.536L114.938 109.28V34.6021ZM120.661 40.6641L118.276 39.4082V111.683L120.661 112.939V40.6641ZM122.092 43.7334L124.476 44.9893V114.861L122.092 113.605V43.7334ZM215.568 48.5396L217.953 49.7944V167.246L215.568 165.991V48.5396ZM214.615 53.6392L212.23 52.3843V164.068L214.615 165.323V53.6392ZM196.968 54.7876L199.353 56.0425V156.673L196.968 155.418V54.7876ZM193.153 56.229L195.538 57.4839V154.75L193.153 153.495V56.229ZM192.199 61.8096L189.815 60.5542V151.573L192.199 152.828V61.8096ZM185.523 66.8027L187.907 68.0581V150.426L185.523 149.17V66.8027ZM210.322 53.6392L207.938 52.3843V161.666L210.322 162.92V53.6392ZM204.599 52.8652L206.984 54.1201V160.999L204.599 159.744V52.8652ZM203.168 54.1201L200.784 52.8652V157.821L203.168 159.076V54.1201ZM182.184 70.6475L184.568 71.9033V148.503L182.184 147.248V70.6475ZM180.276 63.7324L177.892 62.4771V144.844L180.276 146.1V63.7324ZM174.553 57.1899L176.937 58.4453V144.177L174.553 142.921V57.1899ZM173.599 51.2368L171.215 49.9814V141L173.599 142.255V51.2368ZM166.922 52.8652L169.307 54.1206V139.853L166.922 138.597V52.8652ZM165.968 61.3296L163.584 60.0737V136.674L165.968 137.93V61.3296ZM159.769 68.2437L162.153 69.5V136.007L159.769 134.751V68.2437ZM158.338 74.7871L155.953 73.5303V132.348L158.338 133.604V74.7871ZM152.138 79.2974L154.523 80.5547V131.682L152.138 130.425V79.2974ZM150.707 84.8809L148.323 83.623V128.021L150.707 129.279V84.8809ZM144.507 78.3364L146.892 79.5938V127.357L144.507 126.099V78.3364ZM143.553 72.8652L141.168 71.6079V124.177L143.553 125.434V72.8652ZM136.876 65.3599L139.261 66.6167V123.031L136.876 121.774V65.3599ZM135.922 60.3691L133.537 59.1128V119.853L135.922 121.109V60.3691ZM129.722 54.7876L132.107 56.0439V119.187L129.722 117.931V54.7876ZM128.292 50.7568L125.907 49.5005V115.527L128.292 116.783V50.7568ZM92.5226 22.1069L94.9072 23.3628V98.0405L92.5226 96.7847V22.1069ZM90.6148 23.8433L88.2302 22.5874V94.8618L90.6148 96.1182V23.8433ZM84.8917 22.5874L87.2763 23.8433V93.7148L84.8917 92.459V22.5874ZM83.4608 25.2861L81.0761 24.0298V90.5371L83.4608 91.7935V25.2861ZM77.2606 25.9517L79.6452 27.208V89.8701L77.2606 88.6138V25.9517ZM75.8298 26.7275L73.4452 25.4712V86.2109L75.8298 87.4673V26.7275ZM69.6297 25.9517L72.0143 27.2085V85.5449L69.6297 84.2886V25.9517ZM68.1988 28.6504L65.8142 27.3936V82.3657L68.1988 83.6226V28.6504ZM62.4767 23.5488L64.8613 24.8057V81.2197L62.4767 79.9629V23.5488ZM54.8457 21.146L57.2303 22.4028V77.375L54.8457 76.1182V21.146ZM53.8917 21.9224L51.5071 20.6655V73.7153L53.8917 74.9722V21.9224ZM47.2146 20.1851L49.5992 21.4424V73.0503L47.2146 71.793V20.1851ZM46.2607 20.9614L43.8761 19.7041V69.3896L46.2607 70.647V20.9614ZM39.5836 20.6655L41.9682 21.9233V68.7246L39.5836 67.4673V20.6655ZM38.6297 23.3647L36.2451 22.1069V65.5439L38.6297 66.8018V23.3647ZM32.4296 27.3936L34.8142 28.6528V64.3989L32.4296 63.1401V27.3936ZM30.9992 30.5762L28.6146 29.3164V61.2173L30.9992 62.4771V30.5762ZM24.7991 32.6802L27.1837 33.9414V60.5547L24.7991 59.2935V32.6802ZM23.8457 42.1172L21.4611 40.8506V56.8853L23.8457 58.1519V42.1172ZM17.1681 43.2534L19.5527 44.5244V56.2295L17.1681 54.958V43.2534ZM16.2147 48.3843L13.8301 47.0977V53.02L16.2147 54.3066V48.3843Z" fill="url(#paint3_linear)"/>
<path opacity="0.2" fill-rule="evenodd" clip-rule="evenodd" d="M102.538 1.25684L100.153 0V58.8174L102.538 60.0737V1.25684ZM126.861 3.36377L129.246 4.61963V74.4912L126.861 73.2354V3.36377ZM132.585 4.61963L130.2 3.36377V75.6382L132.585 76.8945V4.61963ZM140.216 10.7197L137.831 9.46387V79.4834L140.216 80.7393V10.7197ZM141.646 10.9907L144.031 12.2466V83.1426L141.646 81.8872V10.9907ZM155.477 18.3755L153.092 17.1196V88.1343L155.477 89.3901V18.3755ZM156.908 23.0972L159.293 24.353V91.3125L156.908 90.0566V23.0972ZM215.569 32.0132L213.184 30.7578V121.776L215.569 123.031V32.0132ZM238.938 35.564L241.323 36.8188V137.449L238.938 136.194V35.564ZM235.124 37.0054L237.508 38.2603V135.527L235.124 134.271V37.0054ZM234.169 42.5864L231.784 41.3311V132.35L234.169 133.604V42.5864ZM227.493 47.5791L229.877 48.8345V131.202L227.493 129.946V47.5791ZM256.108 61.5571L253.723 60.3022V144.845L256.108 146.1V61.5571ZM257.539 53.71L259.923 54.9648V148.022L257.539 146.768V53.71ZM252.292 48.54L249.908 47.2852V142.442L252.292 143.697V48.54ZM246.569 50.251L248.954 51.5059V141.775L246.569 140.52V50.251ZM245.138 43.8555L242.753 42.6006V138.598L245.138 139.853V43.8555ZM224.153 51.4233L226.538 52.6792V129.279L224.153 128.023V51.4233ZM222.246 44.5088L219.862 43.2534V125.621L222.246 126.876V44.5088ZM216.523 37.9663L218.908 39.2217V124.954L216.523 123.698V37.9663ZM208.892 33.6416L211.277 34.897V120.629L208.892 119.373V33.6416ZM207.938 42.1064L205.553 40.8506V117.451L207.938 118.707V42.1064ZM201.738 49.0205L204.123 50.2769V116.784L201.738 115.528V49.0205ZM200.308 55.5635L197.923 54.3066V113.124L200.308 114.38V55.5635ZM194.108 60.0737L196.493 61.3311V112.458L194.108 111.201V60.0737ZM192.677 65.6572L190.292 64.3994V108.798L192.677 110.056V65.6572ZM186.477 59.1128L188.862 60.3701V108.133L186.477 106.875V59.1128ZM185.523 53.6421L183.138 52.3848V104.954L185.523 106.211V53.6421ZM178.846 46.1367L181.231 47.3936V103.808L178.846 102.551V46.1367ZM177.892 41.146L175.507 39.8896V100.629L177.892 101.886V41.146ZM171.692 35.564L174.077 36.8203V99.9634L171.692 98.707V35.564ZM170.262 39.6992L167.877 38.4429V96.3037L170.262 97.5601V39.6992ZM164.061 40.8594L166.446 42.1152V95.6377L164.061 94.3818V40.8594ZM162.631 33.3564L160.246 32.1006V92.4595L162.631 93.7153V33.3564ZM149.515 26.9131L151.423 27.8604V87.4678L149.515 86.52V26.9131ZM147.608 22.6021L145.7 21.627V84.0903L147.608 85.0649V22.6021ZM134.492 11.1772L136.877 12.4331V78.8169L134.492 77.561V11.1772ZM125.43 6.0625L123.046 4.80615V71.3135L125.43 72.5698V6.0625ZM119.23 6.72852L121.615 7.98486V70.647L119.23 69.3906V6.72852ZM117.799 7.50439L115.415 6.24805V66.9878L117.799 68.2441V7.50439ZM111.599 6.72852L113.984 7.98535V66.3218L111.599 65.0654V6.72852ZM110.168 9.42676L107.784 8.16992V63.1421L110.168 64.3989V9.42676ZM104.446 4.32568L106.831 5.58252V61.9966L104.446 60.7397V4.32568ZM96.8153 1.92236L99.2 3.1792V58.1514L96.8153 56.8945V1.92236ZM95.8614 2.69873L93.4768 1.44189V54.4917L95.8614 55.7485V2.69873ZM89.1844 0.961426L91.569 2.21875V53.8267L89.1844 52.5693V0.961426ZM88.2304 1.73828L85.8458 0.480957V50.1665L88.2304 51.4238V1.73828ZM81.5534 1.44189L83.938 2.69971V49.501L81.5534 48.2437V1.44189ZM80.5994 4.1416L78.2148 2.88379V46.3208L80.5994 47.5786V4.1416ZM74.3993 8.16992L76.7839 9.4292V45.1753L74.3993 43.9165V8.16992ZM72.9689 11.3525L70.5843 10.0928V41.9937L72.9689 43.2534V11.3525ZM66.7688 13.4565L69.1535 14.7178V41.3311L66.7688 40.0698V13.4565ZM65.8154 22.8936L63.4308 21.627V37.6616L65.8154 38.9282V22.8936ZM59.1384 24.0298L61.523 25.3008V37.0059L59.1384 35.7344V24.0298ZM58.1844 29.1606L55.7998 27.874V33.7964L58.1844 35.083V29.1606Z" fill="url(#paint4_linear)"/>
<path fill-rule="evenodd" clip-rule="evenodd" d="M104.923 11.1946C104.923 13.3179 103.215 14.6011 101.108 14.0606C99.0008 13.5201 97.2926 11.3605 97.2926 9.23716C97.2926 7.11377 99.0008 5.8306 101.108 6.37112C103.215 6.91164 104.923 9.07117 104.923 11.1946ZM102.538 10.7136C102.538 11.5512 101.898 12.0574 101.108 11.8441C100.318 11.6309 99.6769 10.7791 99.6769 9.94149C99.6769 9.10389 100.318 8.59773 101.108 8.81095C101.898 9.02416 102.538 9.87601 102.538 10.7136Z" fill="url(#paint5_linear)"/>
<path fill-rule="evenodd" clip-rule="evenodd" d="M176.938 44.8362C176.938 46.9595 175.23 48.2427 173.123 47.7022C171.016 47.1617 169.308 45.0021 169.308 42.8788C169.308 40.7554 171.016 39.4722 173.123 40.0127C175.23 40.5532 176.938 42.7128 176.938 44.8362ZM174.554 44.3557C174.554 45.1933 173.914 45.6994 173.123 45.4862C172.333 45.273 171.693 44.4212 171.693 43.5836C171.693 42.746 172.333 42.2398 173.123 42.453C173.914 42.6663 174.554 43.5181 174.554 44.3557Z" fill="url(#paint6_linear)"/>
<defs>
<linearGradient id="paint0_linear" x1="228.474" y1="65.0895" x2="165.009" y2="200.337" gradientUnits="userSpaceOnUse">
<stop stop-color="#74EBD5"/>
<stop offset="1" stop-color="#0575E6"/>
</linearGradient>
<linearGradient id="paint1_linear" x1="204.433" y1="75.7597" x2="157.893" y2="174.811" gradientUnits="userSpaceOnUse">
<stop stop-color="#74EBD5"/>
<stop offset="1" stop-color="#0575E6"/>
</linearGradient>
<linearGradient id="paint2_linear" x1="250.896" y1="47.3728" x2="151.954" y2="231.473" gradientUnits="userSpaceOnUse">
<stop stop-color="#74EBD5"/>
<stop offset="1" stop-color="#0575E6"/>
</linearGradient>
<linearGradient id="paint3_linear" x1="197.391" y1="36.5742" x2="86.0725" y2="190.083" gradientUnits="userSpaceOnUse">
<stop stop-color="#74EBD5"/>
<stop offset="1" stop-color="#0575E6"/>
</linearGradient>
<linearGradient id="paint4_linear" x1="239.361" y1="17.3506" x2="128.042" y2="170.86" gradientUnits="userSpaceOnUse">
<stop stop-color="#74EBD5"/>
<stop offset="1" stop-color="#0575E6"/>
</linearGradient>
<linearGradient id="paint5_linear" x1="104.155" y1="7.17785" x2="97.88" y2="13.2107" gradientUnits="userSpaceOnUse">
<stop stop-color="#74EBD5"/>
<stop offset="1" stop-color="#0575E6"/>
</linearGradient>
<linearGradient id="paint6_linear" x1="176.17" y1="40.8195" x2="169.895" y2="46.8523" gradientUnits="userSpaceOnUse">
<stop stop-color="#74EBD5"/>
<stop offset="1" stop-color="#0575E6"/>
</linearGradient>
</defs>
</svg>
