<svg width="375" height="176" viewBox="0 0 375 176" fill="none" xmlns="http://www.w3.org/2000/svg">
<rect x="-0.939819" width="375.94" height="176" fill="url(#paint0_linear)"/>
<path d="M183.655 64V52.96C184.647 52.864 186.049 52.816 187.863 52.816C189.399 52.816 190.449 53.0667 191.015 53.568C191.591 54.0693 191.879 55.0187 191.879 56.416C191.879 57.8133 191.607 58.768 191.063 59.28C190.529 59.7813 189.569 60.032 188.183 60.032C187.479 60.032 186.785 59.9893 186.103 59.904V64H183.655ZM186.103 58.16H187.799C188.439 58.1493 188.871 58.0267 189.095 57.792C189.319 57.5573 189.431 57.0987 189.431 56.416C189.431 55.7333 189.319 55.2747 189.095 55.04C188.871 54.8053 188.439 54.688 187.799 54.688L186.103 54.704V58.16ZM198.347 60.848H195.499C195.574 61.424 195.75 61.8133 196.027 62.016C196.305 62.208 196.753 62.304 197.371 62.304C198.214 62.304 199.195 62.2453 200.315 62.128L200.539 63.6C199.718 63.9947 198.571 64.192 197.099 64.192C195.617 64.192 194.561 63.872 193.931 63.232C193.302 62.592 192.987 61.536 192.987 60.064C192.987 58.528 193.297 57.4507 193.915 56.832C194.534 56.2027 195.563 55.888 197.003 55.888C198.315 55.888 199.265 56.1173 199.851 56.576C200.438 57.024 200.737 57.712 200.747 58.64C200.747 59.376 200.555 59.9307 200.171 60.304C199.798 60.6667 199.19 60.848 198.347 60.848ZM195.451 59.424H197.691C197.99 59.424 198.187 59.3547 198.283 59.216C198.379 59.0773 198.427 58.8747 198.427 58.608C198.427 58.2347 198.331 57.9787 198.139 57.84C197.947 57.6907 197.595 57.616 197.083 57.616C196.475 57.616 196.059 57.7387 195.835 57.984C195.611 58.2187 195.483 58.6987 195.451 59.424ZM206.963 59.856V59.92C207.283 59.9627 207.544 60.0107 207.747 60.064C207.95 60.1067 208.147 60.2027 208.339 60.352C208.531 60.5013 208.675 60.64 208.771 60.768C208.878 60.896 209.011 61.1467 209.171 61.52C209.331 61.8827 209.459 62.2187 209.555 62.528C209.662 62.8373 209.822 63.328 210.035 64H207.571C207.102 62.5067 206.755 61.5893 206.531 61.248C206.307 60.9067 205.912 60.736 205.347 60.736H204.627C204.68 61.0027 204.707 61.2267 204.707 61.408V64H202.355V56.112H204.707V58.128C204.707 58.448 204.675 58.768 204.611 59.088H205.203C205.811 59.088 206.232 58.9173 206.467 58.576C206.702 58.224 207.006 57.4027 207.379 56.112H209.779C209.288 57.5947 208.958 58.4907 208.787 58.8C208.531 59.2693 208.152 59.5733 207.651 59.712C207.47 59.7653 207.24 59.8133 206.963 59.856ZM218.826 56.112V64H216.458V57.76H215.434C215.168 57.76 214.97 57.8187 214.842 57.936C214.725 58.0533 214.645 58.256 214.602 58.544C214.378 60.3147 214.186 61.5093 214.026 62.128C213.706 63.6427 212.634 64.2933 210.81 64.08L210.57 62.32C211.008 62.2453 211.317 62.16 211.498 62.064C211.69 61.9573 211.829 61.76 211.914 61.472C212.117 60.8747 212.288 59.7547 212.426 58.112C212.554 56.7787 213.285 56.112 214.618 56.112H218.826ZM221.031 57.872L220.823 56.272C222.242 56.016 223.607 55.888 224.919 55.888C225.986 55.888 226.77 56.1067 227.271 56.544C227.783 56.9707 228.039 57.7173 228.039 58.784V64H226.167L225.927 62.8C225.138 63.728 224.162 64.192 222.999 64.192C222.242 64.192 221.623 63.9947 221.143 63.6C220.674 63.1947 220.439 62.6347 220.439 61.92V61.12C220.439 60.4907 220.653 60 221.079 59.648C221.506 59.296 222.098 59.12 222.855 59.12H225.671V58.768C225.661 58.3733 225.565 58.1067 225.383 57.968C225.213 57.8187 224.877 57.744 224.375 57.744C223.511 57.744 222.397 57.7867 221.031 57.872ZM222.775 61.296V61.6C222.775 62.144 223.079 62.416 223.687 62.416C224.317 62.416 224.978 62.16 225.671 61.648V60.544H223.543C223.031 60.5547 222.775 60.8053 222.775 61.296ZM237.404 56.112H239.548C240.081 56.112 240.359 56.384 240.38 56.928L240.636 64H238.476L238.252 57.84H238.028L236.748 62.256C236.631 62.7467 236.337 62.992 235.868 62.992H234.588C234.097 62.992 233.793 62.7467 233.676 62.256L232.412 57.84H232.188L231.996 64H229.852L230.092 56.928C230.092 56.384 230.369 56.112 230.924 56.112H233.036C233.527 56.112 233.82 56.3573 233.916 56.848L234.908 60.336C234.961 60.5387 235.036 60.928 235.132 61.504H235.308C235.319 61.4507 235.345 61.28 235.388 60.992C235.441 60.704 235.489 60.4853 235.532 60.336L236.508 56.848C236.604 56.3573 236.903 56.112 237.404 56.112ZM250.159 56.112V64H247.839V60.656H244.847V64H242.511V56.112H244.847V59.008H247.839V56.112H250.159ZM254.439 58.848H255.623C257.01 58.848 257.959 59.0347 258.471 59.408C258.983 59.7707 259.239 60.4587 259.239 61.472C259.239 62.464 258.994 63.152 258.503 63.536C258.013 63.9093 257.191 64.096 256.039 64.096C254.407 64.096 253.138 64.064 252.231 64H252.167V56.112H254.439V58.848ZM262.615 56.112V64H260.247V56.112H262.615ZM254.439 62.432H255.623C256.114 62.432 256.439 62.368 256.599 62.24C256.77 62.1013 256.855 61.8133 256.855 61.376C256.855 60.96 256.77 60.6827 256.599 60.544C256.439 60.4053 256.114 60.336 255.623 60.336H254.439V62.432ZM269.644 60.848H266.796C266.871 61.424 267.047 61.8133 267.324 62.016C267.602 62.208 268.05 62.304 268.668 62.304C269.511 62.304 270.492 62.2453 271.612 62.128L271.836 63.6C271.015 63.9947 269.868 64.192 268.396 64.192C266.914 64.192 265.858 63.872 265.228 63.232C264.599 62.592 264.284 61.536 264.284 60.064C264.284 58.528 264.594 57.4507 265.212 56.832C265.831 56.2027 266.86 55.888 268.3 55.888C269.612 55.888 270.562 56.1173 271.148 56.576C271.735 57.024 272.034 57.712 272.044 58.64C272.044 59.376 271.852 59.9307 271.468 60.304C271.095 60.6667 270.487 60.848 269.644 60.848ZM266.748 59.424H268.988C269.287 59.424 269.484 59.3547 269.58 59.216C269.676 59.0773 269.724 58.8747 269.724 58.608C269.724 58.2347 269.628 57.9787 269.436 57.84C269.244 57.6907 268.892 57.616 268.38 57.616C267.772 57.616 267.356 57.7387 267.132 57.984C266.908 58.2187 266.78 58.6987 266.748 59.424ZM276.977 57.904L276.817 56.272C277.595 56.0373 278.518 55.92 279.585 55.92C281.046 55.92 282.054 56.0587 282.609 56.336C283.163 56.6133 283.441 57.1893 283.441 58.064C283.441 58.672 283.313 59.12 283.057 59.408C282.801 59.696 282.369 59.8613 281.761 59.904V59.968C282.465 60.0213 282.971 60.2187 283.281 60.56C283.601 60.8907 283.761 61.3813 283.761 62.032C283.761 62.9067 283.483 63.488 282.929 63.776C282.385 64.0533 281.446 64.192 280.113 64.192C278.747 64.192 277.569 64.0853 276.577 63.872L276.737 62.24C277.889 62.3467 278.955 62.4 279.937 62.4C280.502 62.4 280.875 62.352 281.057 62.256C281.238 62.1493 281.329 61.92 281.329 61.568C281.329 61.248 281.233 61.04 281.041 60.944C280.859 60.8373 280.497 60.7787 279.953 60.768L277.681 60.736V59.248L279.937 59.216C280.406 59.216 280.721 59.168 280.881 59.072C281.051 58.9653 281.137 58.752 281.137 58.432C281.137 58.144 281.041 57.9573 280.849 57.872C280.657 57.7867 280.273 57.744 279.697 57.744C278.715 57.744 277.809 57.7973 276.977 57.904ZM285.578 57.872L285.37 56.272C286.789 56.016 288.154 55.888 289.466 55.888C290.533 55.888 291.317 56.1067 291.818 56.544C292.33 56.9707 292.586 57.7173 292.586 58.784V64H290.714L290.474 62.8C289.685 63.728 288.709 64.192 287.546 64.192C286.789 64.192 286.17 63.9947 285.69 63.6C285.221 63.1947 284.986 62.6347 284.986 61.92V61.12C284.986 60.4907 285.2 60 285.626 59.648C286.053 59.296 286.645 59.12 287.402 59.12H290.218V58.768C290.208 58.3733 290.112 58.1067 289.93 57.968C289.76 57.8187 289.424 57.744 288.922 57.744C288.058 57.744 286.944 57.7867 285.578 57.872ZM287.322 61.296V61.6C287.322 62.144 287.626 62.416 288.234 62.416C288.864 62.416 289.525 62.16 290.218 61.648V60.544H288.09C287.578 60.5547 287.322 60.8053 287.322 61.296ZM301.423 57.936H298.799V64H296.463V57.936H293.839V56.112H301.423V57.936ZM304.65 56.112L304.826 57.264C305.157 56.8693 305.61 56.544 306.186 56.288C306.773 56.032 307.365 55.904 307.962 55.904C309.786 55.904 310.698 57.312 310.698 60.128C310.698 61.6427 310.453 62.704 309.962 63.312C309.471 63.9093 308.709 64.208 307.674 64.208C306.607 64.208 305.727 63.952 305.034 63.44C305.087 63.984 305.103 64.5493 305.082 65.136V67.04H302.73V56.112H304.65ZM305.082 58.512V62.128C305.914 62.3413 306.511 62.448 306.874 62.448C307.407 62.448 307.77 62.2987 307.962 62C308.165 61.7013 308.266 61.0773 308.266 60.128C308.266 59.2 308.175 58.576 307.994 58.256C307.813 57.9253 307.493 57.76 307.034 57.76C306.501 57.76 305.85 58.0107 305.082 58.512ZM312.563 57.872L312.355 56.272C313.773 56.016 315.139 55.888 316.451 55.888C317.517 55.888 318.301 56.1067 318.803 56.544C319.315 56.9707 319.571 57.7173 319.571 58.784V64H317.699L317.459 62.8C316.669 63.728 315.693 64.192 314.531 64.192C313.773 64.192 313.155 63.9947 312.675 63.6C312.205 63.1947 311.971 62.6347 311.971 61.92V61.12C311.971 60.4907 312.184 60 312.611 59.648C313.037 59.296 313.629 59.12 314.387 59.12H317.203V58.768C317.192 58.3733 317.096 58.1067 316.915 57.968C316.744 57.8187 316.408 57.744 315.907 57.744C315.043 57.744 313.928 57.7867 312.563 57.872ZM314.307 61.296V61.6C314.307 62.144 314.611 62.416 315.219 62.416C315.848 62.416 316.509 62.16 317.203 61.648V60.544H315.075C314.563 60.5547 314.307 60.8053 314.307 61.296ZM328.407 57.936H325.783V64H323.447V57.936H320.823V56.112H328.407V57.936ZM331.986 58.848H333.17C334.557 58.848 335.506 59.0347 336.018 59.408C336.53 59.7707 336.786 60.4587 336.786 61.472C336.786 62.464 336.541 63.152 336.05 63.536C335.56 63.9093 334.738 64.096 333.586 64.096C331.954 64.096 330.685 64.064 329.778 64H329.714V56.112H331.986V58.848ZM340.162 56.112V64H337.794V56.112H340.162ZM331.986 62.432H333.17C333.661 62.432 333.986 62.368 334.146 62.24C334.317 62.1013 334.402 61.8133 334.402 61.376C334.402 60.96 334.317 60.6827 334.146 60.544C333.986 60.4053 333.661 60.336 333.17 60.336H331.986V62.432Z" fill="white"/>
<path d="M235.515 108.96V120H233.083V110.72H229.211V120H226.779V108.96H235.515ZM239.601 112.112L239.777 113.264C240.108 112.869 240.561 112.544 241.137 112.288C241.724 112.032 242.316 111.904 242.913 111.904C244.737 111.904 245.649 113.312 245.649 116.128C245.649 117.643 245.404 118.704 244.913 119.312C244.423 119.909 243.66 120.208 242.625 120.208C241.559 120.208 240.679 119.952 239.985 119.44C240.039 119.984 240.055 120.549 240.033 121.136V123.04H237.681V112.112H239.601ZM240.033 114.512V118.128C240.865 118.341 241.463 118.448 241.825 118.448C242.359 118.448 242.721 118.299 242.913 118C243.116 117.701 243.217 117.077 243.217 116.128C243.217 115.2 243.127 114.576 242.945 114.256C242.764 113.925 242.444 113.76 241.985 113.76C241.452 113.76 240.801 114.011 240.033 114.512ZM247.882 112.832C248.501 112.203 249.551 111.888 251.034 111.888C252.517 111.888 253.562 112.203 254.17 112.832C254.778 113.461 255.082 114.539 255.082 116.064C255.082 117.579 254.778 118.651 254.17 119.28C253.562 119.899 252.517 120.208 251.034 120.208C249.551 120.208 248.501 119.899 247.882 119.28C247.274 118.651 246.97 117.579 246.97 116.064C246.97 114.539 247.274 113.461 247.882 112.832ZM251.034 113.664C250.405 113.664 249.983 113.824 249.77 114.144C249.557 114.464 249.45 115.104 249.45 116.064C249.45 117.003 249.557 117.632 249.77 117.952C249.983 118.272 250.405 118.432 251.034 118.432C251.653 118.432 252.069 118.272 252.282 117.952C252.506 117.632 252.618 117.003 252.618 116.064C252.618 115.115 252.506 114.48 252.282 114.16C252.069 113.829 251.653 113.664 251.034 113.664ZM265.213 118.304V122.256H263.661L263.485 120H257.581L257.421 122.256H255.869V118.304H256.861C257.33 117.099 257.656 115.675 257.837 114.032C257.965 112.752 258.717 112.112 260.093 112.112H263.965V118.304H265.213ZM261.741 118.304V113.712H260.717C260.237 113.712 259.97 113.963 259.917 114.464C259.736 116.032 259.41 117.312 258.941 118.304H261.741ZM266.795 113.872L266.587 112.272C268.006 112.016 269.371 111.888 270.683 111.888C271.75 111.888 272.534 112.107 273.035 112.544C273.547 112.971 273.803 113.717 273.803 114.784V120H271.931L271.691 118.8C270.902 119.728 269.926 120.192 268.763 120.192C268.006 120.192 267.387 119.995 266.907 119.6C266.438 119.195 266.203 118.635 266.203 117.92V117.12C266.203 116.491 266.417 116 266.843 115.648C267.27 115.296 267.862 115.12 268.619 115.12H271.435V114.768C271.425 114.373 271.329 114.107 271.147 113.968C270.977 113.819 270.641 113.744 270.139 113.744C269.275 113.744 268.161 113.787 266.795 113.872ZM268.539 117.296V117.6C268.539 118.144 268.843 118.416 269.451 118.416C270.081 118.416 270.742 118.16 271.435 117.648V116.544H269.307C268.795 116.555 268.539 116.805 268.539 117.296ZM284.496 115.84V115.904C284.731 115.936 284.928 115.973 285.088 116.016C285.259 116.048 285.424 116.107 285.584 116.192C285.744 116.277 285.872 116.357 285.968 116.432C286.075 116.496 286.187 116.624 286.304 116.816C286.432 116.997 286.528 117.157 286.592 117.296C286.667 117.435 286.763 117.669 286.88 118C287.008 118.32 287.109 118.608 287.184 118.864C287.269 119.12 287.392 119.499 287.552 120H285.168C284.645 118.507 284.277 117.584 284.064 117.232C283.851 116.88 283.515 116.704 283.056 116.704H282.272C282.336 116.939 282.368 117.168 282.368 117.392V120H280.288V117.392C280.288 117.2 280.315 116.971 280.368 116.704H279.552C279.115 116.704 278.789 116.88 278.576 117.232C278.373 117.573 278 118.496 277.456 120H275.072C275.243 119.477 275.365 119.099 275.44 118.864C275.515 118.629 275.616 118.341 275.744 118C275.872 117.648 275.968 117.413 276.032 117.296C276.096 117.168 276.192 117.008 276.32 116.816C276.448 116.613 276.56 116.485 276.656 116.432C276.752 116.368 276.88 116.288 277.04 116.192C277.2 116.096 277.36 116.032 277.52 116C277.691 115.968 277.899 115.936 278.144 115.904V115.84C277.355 115.744 276.821 115.515 276.544 115.152C276.267 114.779 275.909 113.931 275.472 112.608C275.408 112.395 275.355 112.229 275.312 112.112H277.632C278.069 113.381 278.4 114.197 278.624 114.56C278.848 114.923 279.189 115.104 279.648 115.104H280.384C280.32 114.805 280.288 114.491 280.288 114.16V112.112H282.368V114.16C282.368 114.491 282.336 114.805 282.272 115.104H282.96C283.429 115.104 283.771 114.928 283.984 114.576C284.197 114.224 284.528 113.403 284.976 112.112H287.312C286.821 113.584 286.491 114.48 286.32 114.8C286.043 115.28 285.643 115.589 285.12 115.728C284.949 115.771 284.741 115.808 284.496 115.84ZM296.58 120.016H294.468V115.888C294.468 115.579 294.495 115.157 294.548 114.624H294.484C294.367 115.008 294.17 115.397 293.892 115.792L290.916 120H288.9V112.112H290.996V116.32C290.996 116.619 290.97 117.008 290.916 117.488H290.964C291.103 117.136 291.3 116.779 291.556 116.416L294.564 112.112H296.58V120.016Z" fill="white"/>
<path d="M48.6862 93.808L49.3102 99.232C46.4302 100.128 42.8942 100.576 38.7022 100.576C33.5822 100.576 29.9822 99.296 27.9022 96.736C25.8222 94.176 24.7822 89.744 24.7822 83.44C24.7822 77.136 25.8222 72.704 27.9022 70.144C29.9822 67.584 33.5822 66.304 38.7022 66.304C42.4142 66.304 45.7262 66.672 48.6382 67.408L48.0142 72.88C45.4222 72.72 42.3182 72.64 38.7022 72.64C36.3022 72.64 34.6542 73.408 33.7582 74.944C32.8942 76.448 32.4622 79.28 32.4622 83.44C32.4622 87.6 32.8942 90.448 33.7582 91.984C34.6542 93.488 36.3022 94.24 38.7022 94.24C43.1502 94.24 46.4782 94.096 48.6862 93.808ZM55.5104 69.952C57.5904 67.488 61.2864 66.256 66.5984 66.256C71.9104 66.256 75.6065 67.488 77.6865 69.952C79.7664 72.384 80.8064 76.88 80.8064 83.44C80.8064 90 79.7664 94.512 77.6865 96.976C75.6065 99.408 71.9104 100.624 66.5984 100.624C61.2864 100.624 57.5904 99.408 55.5104 96.976C53.4624 94.512 52.4384 90 52.4384 83.44C52.4384 76.88 53.4624 72.384 55.5104 69.952ZM71.6865 74.512C70.7905 72.944 69.0944 72.16 66.5984 72.16C64.1024 72.16 62.3904 72.944 61.4625 74.512C60.5665 76.08 60.1185 79.056 60.1185 83.44C60.1185 87.824 60.5665 90.8 61.4625 92.368C62.3904 93.936 64.1024 94.72 66.5984 94.72C69.0944 94.72 70.7905 93.936 71.6865 92.368C72.6145 90.8 73.0785 87.824 73.0785 83.44C73.0785 79.056 72.6145 76.08 71.6865 74.512ZM98.595 87.472L91.9229 85.12C89.4589 84.224 87.6989 83.008 86.6429 81.472C85.5869 79.936 85.0589 77.92 85.0589 75.424C85.0589 71.776 85.9389 69.344 87.6989 68.128C89.4909 66.88 92.6269 66.256 97.1069 66.256C101.331 66.256 104.963 66.688 108.003 67.552L107.523 72.544C104.739 72.448 101.283 72.4 97.155 72.4C95.235 72.4 93.9549 72.576 93.3149 72.928C92.6749 73.248 92.3549 74.08 92.3549 75.424C92.3549 76.512 92.5949 77.296 93.0749 77.776C93.5549 78.256 94.4669 78.72 95.811 79.168L102.099 81.328C104.659 82.224 106.467 83.456 107.523 85.024C108.579 86.56 109.107 88.576 109.107 91.072C109.107 94.784 108.211 97.312 106.419 98.656C104.627 99.968 101.427 100.624 96.819 100.624C93.0749 100.624 89.2829 100.208 85.4429 99.376L85.8749 94.096C92.6909 94.256 96.3389 94.336 96.819 94.336C98.7709 94.336 100.067 94.128 100.707 93.712C101.379 93.296 101.715 92.432 101.715 91.12C101.715 90 101.491 89.216 101.043 88.768C100.595 88.288 99.779 87.856 98.595 87.472Z" fill="white"/>
<path d="M151.597 80.96H133.237V76.76H151.597V80.96ZM151.597 89.48H133.237V85.28H151.597V89.48Z" fill="white"/>
<line x1="171.491" y1="87.5" x2="351.942" y2="87.5" stroke="white"/>
<defs>
<linearGradient id="paint0_linear" x1="420.539" y1="-75.8214" x2="-122.712" y2="31.323" gradientUnits="userSpaceOnUse">
<stop offset="0.147013" stop-color="#FFBD6F"/>
<stop offset="0.495438" stop-color="#E5787E"/>
<stop offset="0.837254" stop-color="#B0539C"/>
<stop offset="1" stop-color="#5321E2"/>
</linearGradient>
</defs>
</svg>
