<svg width="429" height="404" viewBox="0 0 429 404" fill="none" xmlns="http://www.w3.org/2000/svg">
<g opacity="0.5" filter="url(#filter0_f)">
<path d="M343 85L60 142.81V341L99.0884 278.909L343 223.818V85Z" fill="url(#paint0_linear)"/>
</g>
<path d="M395 9.90625L21.9999 86.2333V347.906L73.5192 265.926L395 193.189V9.90625Z" fill="url(#paint1_linear)"/>
<path d="M111.707 183.264V135.264M111.707 135.264L121.399 148.237M111.707 135.264L100.399 154.724" stroke="white" stroke-width="5" stroke-linecap="round"/>
<path d="M176.434 152.385L163.465 155.091L163.344 167.619L158.199 168.692L158.32 156.165L145.352 158.872L145.402 153.688L158.3 150.996L158.421 138.397L163.637 137.308L163.515 149.907L176.484 147.201L176.434 152.385ZM193.187 118.207L220.886 112.426C222.389 112.113 223.442 112.324 224.045 113.06C224.648 113.749 224.731 114.857 224.294 116.385L208.848 164.517L201.8 165.988L215.504 123.465C216.036 121.821 216.588 120.437 217.162 119.311L193.41 124.268L193.187 118.207ZM228.482 117.38L228.113 111.852C233.387 109.554 238.421 107.905 243.214 106.904C248.335 105.835 252.111 105.79 254.54 106.768C257.016 107.736 258.233 110.356 258.192 114.628C258.162 117.7 257.524 120.659 256.277 123.506C255.031 126.353 252.792 129.909 249.562 134.176L235.883 152.192C238.094 151.539 240.679 150.904 243.639 150.286L259.568 146.961L259.501 153.945L227.291 160.667L227.334 156.132C227.347 154.836 227.709 153.754 228.421 152.887L242.104 134.439C248.182 126.561 251.171 120.596 251.069 116.546C251.042 114.491 250.35 113.295 248.993 112.955C247.684 112.606 245.525 112.745 242.518 113.372C238.289 114.255 233.611 115.591 228.482 117.38ZM279.279 102.682C281.039 100.064 284.034 98.3129 288.263 97.4303C292.492 96.5477 295.441 97.0578 297.111 98.9607C298.828 100.806 299.661 104.416 299.609 109.792C299.558 115.12 298.652 119.093 296.891 121.712C295.178 124.321 292.207 126.066 287.978 126.949C283.749 127.832 280.776 127.326 279.06 125.433C277.39 123.53 276.581 119.915 276.632 114.587C276.684 109.212 277.566 105.243 279.279 102.682ZM291.51 147.264L286.717 148.265L318.279 92.0998L323.072 91.0995L291.51 147.264ZM288.151 101.765C285.801 102.255 284.173 103.361 283.265 105.084C282.358 106.806 281.885 109.611 281.848 113.499C281.81 117.435 282.23 120.077 283.108 121.427C283.986 122.729 285.6 123.134 287.949 122.644C290.346 122.144 291.997 121.056 292.905 119.382C293.812 117.66 294.285 114.831 294.323 110.895C294.361 106.959 293.941 104.341 293.062 103.039C292.184 101.689 290.547 101.265 288.151 101.765ZM322.024 112.155C326.206 111.282 329.132 111.797 330.802 113.7C332.519 115.593 333.351 119.204 333.3 124.531C333.248 129.907 332.342 133.904 330.582 136.523C328.869 139.084 325.922 140.801 321.74 141.674C317.511 142.556 314.538 142.075 312.82 140.23C311.151 138.327 310.342 134.688 310.394 129.312C310.445 123.984 311.327 120.016 313.041 117.407C314.801 114.788 317.796 113.038 322.024 112.155ZM326.824 117.764C325.945 116.462 324.308 116.061 321.912 116.562C319.515 117.062 317.863 118.149 316.956 119.823C316.049 121.497 315.6 124.298 315.609 128.224C315.524 132.169 315.921 134.817 316.799 136.166C317.677 137.468 319.314 137.869 321.711 137.369C324.107 136.868 325.759 135.781 326.666 134.107C327.574 132.385 328.046 129.556 328.084 125.62C328.123 121.636 327.703 119.017 326.824 117.764Z" fill="white"/>
<path d="M103.255 298.57L103.09 315.706L106.59 314.975L106.649 308.831L110.808 307.963C114.661 307.159 116.889 304.635 116.923 301.155C116.956 297.723 114.767 296.168 110.914 296.972L103.255 298.57ZM106.68 305.688L106.725 300.984L110.39 300.219C112.552 299.768 113.342 300.417 113.328 301.953C113.313 303.465 112.506 304.471 110.345 304.923L106.68 305.688ZM124.651 298.584C120.845 299.378 118.377 302.504 118.339 306.368C118.302 310.231 120.72 312.337 124.526 311.543C128.379 310.739 130.801 307.623 130.838 303.759C130.875 299.895 128.504 297.779 124.651 298.584ZM124.553 308.759C122.509 309.186 121.609 307.673 121.629 305.681C121.648 303.713 122.58 301.818 124.624 301.392C126.692 300.96 127.568 302.478 127.549 304.446C127.53 306.437 126.621 308.328 124.553 308.759ZM141.299 303.588C141.1 304.683 140.343 305.464 139.027 305.738C137.006 306.16 136.224 304.623 136.244 302.607C136.263 300.615 137.054 298.797 139.098 298.371C140.296 298.121 140.973 298.482 141.222 299.364L144.488 298.683C144.207 296.227 142.132 294.935 139.102 295.568C135.366 296.347 132.992 299.43 132.954 303.317C132.916 307.229 135.241 309.307 138.977 308.527C142.007 307.895 144.21 305.639 144.541 302.911L141.299 303.588ZM146.331 297.172L150.302 296.344L150.21 305.871L153.499 305.185L153.591 295.657L157.538 294.834L157.565 292.026L146.358 294.365L146.331 297.172ZM177.002 300.28L177.121 287.944L165.609 290.347L165.49 302.682L168.779 301.996L168.871 292.468L173.805 291.439L173.713 300.966L177.002 300.28ZM186.675 288.441C188.649 288.029 189.549 289.47 189.529 291.51C189.51 293.55 188.577 295.397 186.604 295.809C184.56 296.235 183.684 294.67 183.703 292.726C183.722 290.782 184.631 288.868 186.675 288.441ZM180.591 287.22L180.425 304.355L183.715 303.669L183.772 297.741L184.383 297.614C185.009 298.345 185.966 298.72 187.634 298.372C190.806 297.71 192.782 294.591 192.819 290.823C192.854 287.103 190.955 284.746 187.759 285.413C186.068 285.766 185.028 286.581 184.362 287.559L183.752 287.686L183.762 286.558L180.591 287.22ZM201.235 282.6C197.429 283.394 194.961 286.52 194.924 290.384C194.886 294.248 197.304 296.354 201.11 295.559C204.963 294.755 207.385 291.639 207.422 287.775C207.46 283.912 205.088 281.796 201.235 282.6ZM201.137 292.776C199.093 293.202 198.194 291.689 198.213 289.697C198.232 287.73 199.164 285.834 201.208 285.408C203.276 284.976 204.152 286.494 204.133 288.462C204.114 290.454 203.205 292.344 201.137 292.776ZM221.91 288.129L222.003 278.577L211.83 280.7L211.796 284.252C211.772 286.676 211.283 288.814 210.68 290.472L208.895 290.845L208.835 297.061L211.936 296.414L211.969 292.982L220.92 291.114L220.887 294.545L223.988 293.898L224.048 287.682L221.91 288.129ZM218.621 288.815L213.805 289.82C214.36 288.172 214.732 286.13 214.756 283.658L214.763 282.89L218.686 282.071L218.621 288.815ZM233.874 288.41L236.905 287.778L236.982 279.762C237.014 276.45 234.818 275.591 231.553 276.273C228.639 276.881 226.464 278.796 226.37 281.186L229.636 280.505C229.738 279.645 230.377 279.033 231.693 278.758C233.126 278.459 233.824 278.96 233.812 280.232L233.809 280.544L230.59 281.216C227.019 281.961 225.659 284.424 225.641 286.344C225.62 288.528 227.152 290.124 229.877 289.556C231.474 289.222 232.537 288.498 233.273 287.482L233.884 287.354L233.874 288.41ZM231.054 286.651C229.715 286.931 228.921 286.522 228.932 285.394C228.943 284.266 229.794 283.561 231.204 283.267L233.788 282.728L233.781 283.496C233.766 285.032 232.651 286.318 231.054 286.651ZM244.868 281.23L247.194 280.744L247.146 285.64L250.201 285.003L250.248 280.107L252.55 279.626L254.688 284.066L258.047 283.365L255.242 277.627L257.979 271.069L254.666 271.76L252.577 276.818L250.275 277.299L250.32 272.667L247.265 273.305L247.221 277.936L244.895 278.422L242.896 274.217L239.606 274.903L242.203 280.349L239.299 287.278L242.636 286.581L244.868 281.23Z" fill="#2A2F4C"/>
<path opacity="0.6" d="M101.252 336.611L101.141 335.43C102.188 335.02 103.305 334.691 104.491 334.444C105.995 334.13 107.032 334.141 107.603 334.477C108.186 334.798 108.472 335.589 108.46 336.849C108.451 337.749 108.28 338.467 107.947 339.004C107.625 339.526 107.106 339.898 106.388 340.119L106.388 340.191C107.256 340.094 107.87 340.283 108.229 340.759C108.588 341.223 108.762 341.971 108.752 343.003C108.74 344.251 108.444 345.163 107.864 345.739C107.296 346.313 106.307 346.747 104.897 347.041C103.217 347.391 101.833 347.549 100.743 347.513L100.877 346.335C102.203 346.214 103.465 346.028 104.663 345.778C105.615 345.58 106.268 345.3 106.623 344.938C106.979 344.565 107.16 343.94 107.169 343.064C107.178 342.116 106.996 341.513 106.624 341.256C106.251 340.986 105.571 340.954 104.585 341.16L102.541 341.587L102.553 340.345L104.597 339.918C105.466 339.737 106.066 339.468 106.398 339.111C106.73 338.755 106.9 338.168 106.907 337.352C106.916 336.512 106.739 335.986 106.378 335.775C106.016 335.563 105.354 335.557 104.391 335.758C103.686 335.905 102.64 336.189 101.252 336.611ZM111.293 338.126L111.163 337.021C112.763 336.424 114.15 336.002 115.325 335.757C116.323 335.549 117.056 335.612 117.521 335.946C117.999 336.265 118.233 336.935 118.223 337.955L118.163 344.128L116.983 344.375L116.82 342.972C116.405 343.489 115.885 343.975 115.259 344.429C114.645 344.869 113.98 345.163 113.263 345.313C112.476 345.477 111.856 345.397 111.402 345.073C110.948 344.736 110.724 344.178 110.732 343.398L110.741 342.444C110.748 341.76 110.958 341.189 111.373 340.732C111.8 340.259 112.389 339.945 113.141 339.788L116.718 339.041L116.725 338.267C116.719 337.718 116.593 337.355 116.349 337.178C116.104 337.002 115.653 336.982 114.995 337.119C114.161 337.294 112.927 337.629 111.293 338.126ZM112.254 342.344L112.249 342.902C112.245 343.358 112.347 343.672 112.556 343.844C112.778 344.001 113.117 344.032 113.575 343.936C114.033 343.853 114.546 343.638 115.112 343.292C115.678 342.947 116.204 342.508 116.689 341.975L116.706 340.211L113.394 340.903C112.642 341.095 112.262 341.576 112.254 342.344ZM124.708 331.841L124.614 330.639C125.921 330.055 127.155 329.642 128.318 329.399C129.599 329.132 130.537 329.122 131.132 329.369C131.74 329.601 132.038 330.245 132.028 331.301C132.021 332.081 131.855 332.834 131.531 333.56C131.208 334.275 130.637 335.178 129.817 336.271L126.29 340.977C126.843 340.814 127.501 340.653 128.264 340.493L132.387 339.633L132.373 341.163L124.391 342.829L124.4 341.839C124.403 341.551 124.481 341.307 124.636 341.107L128.199 336.304C129.006 335.261 129.589 334.379 129.948 333.657C130.307 332.924 130.477 332.272 130.459 331.701C130.453 331.139 130.268 330.812 129.906 330.72C129.555 330.626 128.986 330.661 128.199 330.825C127.024 331.07 125.861 331.409 124.708 331.841ZM146.786 329.407L148.354 329.079C148.73 329.001 148.916 329.154 148.912 329.538L149.203 337.65L147.811 337.941L147.55 330.415L147.25 330.477L145.006 337.071C144.897 337.429 144.696 337.639 144.402 337.7L143.239 337.943C142.945 338.004 142.747 337.878 142.645 337.564L140.519 331.882L140.22 331.945L139.829 339.607L138.455 339.893L138.886 331.63C138.89 331.246 139.086 331.014 139.473 330.933L141.024 330.609C141.317 330.548 141.51 330.676 141.6 330.992L143.331 335.66C143.446 335.972 143.565 336.366 143.689 336.843L143.971 336.784C144.141 336.162 144.269 335.716 144.353 335.447L146.182 330.036C146.291 329.678 146.492 329.468 146.786 329.407ZM157.027 332.389L153.027 333.224C153.1 334.214 153.334 334.842 153.73 335.107C154.126 335.371 154.782 335.408 155.699 335.217C156.685 335.011 157.685 334.73 158.696 334.376L158.827 335.372C158.072 335.853 156.961 336.247 155.492 336.553C154.012 336.862 152.964 336.733 152.348 336.167C151.733 335.589 151.433 334.46 151.449 332.781C151.465 331.089 151.782 329.843 152.4 329.043C153.017 328.232 154.025 327.68 155.422 327.389C156.703 327.121 157.634 327.166 158.217 327.524C158.8 327.869 159.093 328.521 159.095 329.478C159.079 331.134 158.39 332.104 157.027 332.389ZM153.021 332.039L156.651 331.282C157.285 331.149 157.595 330.654 157.58 329.795C157.585 329.231 157.431 328.862 157.116 328.688C156.801 328.514 156.256 328.508 155.48 328.67C154.576 328.859 153.946 329.194 153.589 329.675C153.233 330.157 153.044 330.945 153.021 332.039ZM167.789 332.514L167.92 333.51C167.083 333.984 166.106 334.338 164.99 334.571C163.499 334.882 162.45 334.76 161.846 334.203C161.242 333.635 160.948 332.504 160.965 330.813C160.981 329.133 161.298 327.887 161.915 327.075C162.544 326.25 163.599 325.682 165.079 325.373C166.207 325.138 167.128 325.083 167.842 325.21L167.638 326.24C166.864 326.33 166.089 326.456 165.313 326.618C164.291 326.831 163.572 327.215 163.157 327.768C162.753 328.32 162.545 329.225 162.533 330.485C162.52 331.757 162.712 332.585 163.107 332.97C163.502 333.355 164.216 333.439 165.25 333.223C166.201 333.025 167.047 332.788 167.789 332.514ZM171.798 329.198L171.799 329.126C171.107 329.175 170.61 329.033 170.308 328.701C170.007 328.357 169.859 327.818 169.867 327.086C169.875 326.223 170.116 325.526 170.59 324.995C171.076 324.463 171.906 324.074 173.081 323.829C174.761 323.478 176.023 323.257 176.868 323.164L176.784 331.894L175.321 332.199L175.353 328.959L173.044 329.441C172.21 329.615 171.708 330.019 171.538 330.654L170.863 333.13L169.313 333.453L170.113 330.663C170.319 329.974 170.881 329.485 171.798 329.198ZM175.364 327.807L175.395 324.585C175.219 324.622 174.872 324.695 174.355 324.802C173.85 324.896 173.433 324.977 173.104 325.046C172.411 325.19 171.94 325.408 171.691 325.7C171.454 325.977 171.333 326.409 171.327 326.997C171.321 327.609 171.44 328.015 171.684 328.216C171.941 328.402 172.421 328.421 173.126 328.274L175.364 327.807ZM187.947 332.151L186.96 332.357L186.827 329.798L179.585 331.309L179.669 322.544L181.132 322.238L181.059 329.78L185.323 328.89L185.396 321.349L186.876 321.04L186.803 328.581L187.984 328.335L187.947 332.151ZM190.154 321.667L190.024 320.562C191.624 319.965 193.012 319.544 194.186 319.298C195.185 319.09 195.917 319.153 196.383 319.487C196.86 319.806 197.094 320.476 197.084 321.496L197.025 327.669L195.844 327.916L195.682 326.513C195.266 327.031 194.746 327.516 194.12 327.97C193.506 328.41 192.841 328.704 192.125 328.854C191.338 329.018 190.717 328.938 190.263 328.614C189.809 328.277 189.586 327.719 189.593 326.939L189.602 325.985C189.609 325.301 189.82 324.73 190.234 324.273C190.661 323.8 191.25 323.486 192.002 323.329L195.579 322.582L195.586 321.808C195.58 321.259 195.455 320.896 195.21 320.719C194.966 320.543 194.514 320.523 193.857 320.66C193.023 320.835 191.788 321.17 190.154 321.667ZM191.116 325.885L191.11 326.443C191.106 326.899 191.208 327.213 191.418 327.385C191.639 327.542 191.979 327.573 192.437 327.477C192.895 327.394 193.407 327.179 193.973 326.833C194.539 326.488 195.065 326.049 195.551 325.516L195.568 323.752L192.255 324.444C191.503 324.637 191.123 325.117 191.116 325.885Z" fill="#2A2F4C"/>
<defs>
<filter id="filter0_f" x="10" y="35" width="383" height="356" filterUnits="userSpaceOnUse" color-interpolation-filters="sRGB">
<feFlood flood-opacity="0" result="BackgroundImageFix"/>
<feBlend mode="normal" in="SourceGraphic" in2="BackgroundImageFix" result="shape"/>
<feGaussianBlur stdDeviation="25" result="effect1_foregroundBlur"/>
</filter>
<linearGradient id="paint0_linear" x1="369.176" y1="114.609" x2="-16.2699" y2="348.481" gradientUnits="userSpaceOnUse">
<stop offset="0.147013" stop-color="#FFBD6F"/>
<stop offset="0.475096" stop-color="#E5787E"/>
<stop offset="0.837254" stop-color="#B0539C"/>
<stop offset="1" stop-color="#5321E2"/>
</linearGradient>
<linearGradient id="paint1_linear" x1="429.5" y1="49" x2="-79" y2="357" gradientUnits="userSpaceOnUse">
<stop offset="0.147013" stop-color="#FFBD6F"/>
<stop offset="0.475096" stop-color="#E5787E"/>
<stop offset="0.837254" stop-color="#B0539C"/>
<stop offset="1" stop-color="#5321E2"/>
</linearGradient>
</defs>
</svg>
