<svg width="328" height="675" viewBox="0 0 328 675" fill="none" xmlns="http://www.w3.org/2000/svg">
<rect x="2" y="2" width="153.26" height="154.47" stroke="url(#paint0_linear)" stroke-width="4"/>
<rect x="172.365" y="2" width="153.26" height="154.47" stroke="url(#paint1_linear)" stroke-width="4"/>
<rect x="2" y="517.776" width="153.26" height="154.47" stroke="url(#paint2_linear)" stroke-width="4"/>
<rect x="2" y="173.676" width="153.26" height="154.47" stroke="url(#paint3_linear)" stroke-width="4"/>
<rect x="172.365" y="173.676" width="153.26" height="154.47" stroke="url(#paint4_linear)" stroke-width="4"/>
<rect x="2" y="345.352" width="153.26" height="154.47" stroke="url(#paint5_linear)" stroke-width="4"/>
<rect x="172.365" y="345.352" width="153.26" height="154.47" stroke="url(#paint6_linear)" stroke-width="4"/>
<rect x="170.74" y="515.776" width="157.26" height="158.47" fill="url(#paint7_linear)"/>
<path fill-rule="evenodd" clip-rule="evenodd" d="M54.3171 376.779H25.1862V381.366H54.3171V376.779ZM64.0274 386.565H25.1862V391.152H64.0274V386.565ZM44.6068 396.347H49.4619V400.934H44.6068V396.347ZM39.7517 396.347H25.1862V400.934H39.7517V396.347Z" fill="white"/>
<path fill-rule="evenodd" clip-rule="evenodd" d="M199.147 213.009H195.327V210.956H191.253V207.107H199.401V204.798H191.253V194.79H195.327V192.48H199.147V194.79H203.476V198.639H195.073V200.948H203.221V210.956H199.147V213.009ZM248.295 225.582H244.22V229.432H248.295V225.582ZM252.369 225.582H256.443V229.432H252.369V225.582ZM264.593 225.582H260.518V229.432H264.593V225.582Z" fill="white"/>
<path fill-rule="evenodd" clip-rule="evenodd" d="M24.8079 195.611H27.6429V207.8H24.8079V195.611ZM62.6075 203.418H59.5835V206.275H62.6075V203.418ZM68.6557 203.418H65.6317V206.275H68.6557V203.418ZM71.6796 203.418H74.7036V206.275H71.6796V203.418ZM61.8058 243.023C63.4204 243.964 65.2661 244.462 67.1436 244.462C71.0232 244.462 74.6039 242.337 76.488 238.914L78.9671 240.3C76.5825 244.629 72.0524 247.319 67.1436 247.319C64.7685 247.319 62.4319 246.689 60.3861 245.496L61.8058 243.023ZM67.1437 222.941C69.7484 222.941 72.257 223.897 74.2068 225.631L76.0828 223.49C73.614 221.294 70.4401 220.084 67.1437 220.084C60.3397 220.084 54.5753 225.207 53.7351 232.001L56.548 232.355C57.2117 226.988 61.7676 222.941 67.1437 222.941ZM78.8417 230.653H74.7036V227.796H83.5866V236.748H80.7516V232.578L73.1444 240.292L67.1437 234.197L58.0717 243.34L51.0211 236.237L53.0263 234.22L58.0717 239.311L67.1437 230.181L73.1916 236.299L78.8417 230.653ZM42.9517 229.32H45.9757V232.177H42.9517V229.32ZM91.3354 235.416H88.3114V238.272H91.3354V235.416ZM23.1068 201.705H20.2719V207.8H23.1068V201.705ZM29.3439 198.658H32.1789V207.8H29.3439V198.658ZM104.755 244.367H101.92V253.508H104.755V244.367ZM106.455 247.413H109.29V253.508H106.455V247.413ZM113.827 241.319H110.992V253.508H113.827V241.319Z" fill="white"/>
<path fill-rule="evenodd" clip-rule="evenodd" d="M79.826 19.8076H75.0206V24.348H79.826V19.8076ZM26.0805 59.0625L29.3684 62.4512V46.4431H55.7985V50.9835H33.8741V62.4512L37.3073 59.0625L40.5624 62.273L31.7524 71.1414L22.933 62.273L26.0805 59.0625ZM84.6315 19.8076H89.437V24.348H84.6315V19.8076ZM99.0478 19.8076H94.2424V24.348H99.0478V19.8076Z" fill="white"/>
<path fill-rule="evenodd" clip-rule="evenodd" d="M275.674 19.5645H290.84V22.7482H275.674V19.5645ZM275.674 26.3564H284.099V29.541H275.674V26.3564ZM299.265 77.301H285.784V80.4847H299.265V77.301ZM284.099 63.7168H287.469V66.9005H284.099V63.7168ZM294.21 63.7168H290.839V66.9005H294.21V63.7168ZM297.58 63.7168H300.95V66.9005H297.58V63.7168ZM297.58 36.5467V39.7312H290.629V41.641H297.37V49.9198H293.999V51.6179H290.84V49.9198H287.469V46.7353H294.21V44.8255H287.469V36.5467H290.84V34.637H293.999V36.5467H297.58Z" fill="white"/>
<path fill-rule="evenodd" clip-rule="evenodd" d="M82.6368 540.815H80.2145V543.104H82.6368V540.815ZM83.8479 578.65H32.8287V546.765H71.7365V544.477H30.5578V580.938H86.1188V560.19H83.8479V578.65ZM52.3586 573.768H54.7809V576.056H52.3586V573.768ZM57.2028 573.768H59.6251V576.056H57.2028V573.768ZM64.4698 573.768H62.0475V576.056H64.4698V573.768ZM21.9285 589.481H19.6577V594.363H21.9285V589.481ZM24.5021 589.481H26.773V594.363H24.5021V589.481Z" fill="white"/>
<path fill-rule="evenodd" clip-rule="evenodd" d="M260.165 403.326V410.409H264.997V412.622H190.023V410.409H194.709V372.633H212.281V374.847H196.905V403.326H243.911V374.847H230.808L238.711 389.161C238.767 389.152 238.822 389.141 238.878 389.13C238.985 389.108 239.093 389.086 239.206 389.086C241.104 389.086 242.629 390.642 242.629 392.554C242.629 394.079 241.714 395.376 240.25 395.839V400.817H205.252V398.604H209.938V384.035C209.059 383.689 208.192 382.815 207.849 381.929H202.763V399.637H200.566V379.716H207.849C208.308 378.24 209.587 377.318 211.1 377.318C211.714 377.318 212.281 377.445 212.781 377.73L212.639 377.606L214.624 375.569V365.55H221.907C222.366 364.075 223.653 363.162 225.167 363.162C227.064 363.162 228.608 364.69 228.608 366.602C228.608 367.543 228.234 368.416 227.628 369.041L229.588 372.633H246.107V403.326H260.165ZM227.075 372.633L226.192 371.09V372.633H227.075ZM225.167 365.329C225.854 365.329 226.412 365.891 226.412 366.583C226.412 367.275 225.854 367.837 225.167 367.837C224.481 367.837 223.923 367.275 223.923 366.583C223.923 365.891 224.481 365.329 225.167 365.329ZM221.907 367.763H216.82V373.355L222.049 368.16C222 368.061 221.974 367.977 221.945 367.884L221.945 367.883C221.933 367.845 221.921 367.806 221.907 367.763ZM211.109 379.495C211.796 379.495 212.354 380.057 212.354 380.749C212.354 381.441 211.796 382.003 211.109 382.003C210.423 382.003 209.865 381.441 209.865 380.749C209.865 380.057 210.423 379.495 211.109 379.495ZM214.514 380.747C214.514 382.273 213.599 383.57 212.135 384.033V398.602H214.624V383.108H216.821V398.602H223.996V369.867C223.868 369.823 223.766 369.772 223.65 369.714L223.598 369.687L214.22 379.169L214.087 379.044C214.37 379.548 214.514 380.128 214.514 380.747ZM230.878 398.602V393.733H235.965C236.307 394.618 237.175 395.493 238.053 395.838V398.602H230.878ZM239.225 393.809C239.911 393.809 240.469 393.247 240.469 392.555C240.469 391.863 239.911 391.301 239.225 391.301C238.538 391.301 237.98 391.863 237.98 392.555C237.98 393.247 238.538 393.809 239.225 393.809ZM236.764 390.207C236.407 390.575 236.131 390.931 235.964 391.521H228.682V398.604H226.192V374.846H228.296L236.764 390.207ZM215.649 410.407H257.968V405.538H242.593V409.079H231.025V405.538H215.649V410.407ZM233.221 405.538H240.396V406.866H233.221V405.538ZM213.453 405.538H196.905V410.407H213.453V405.538Z" fill="white"/>
<path fill-rule="evenodd" clip-rule="evenodd" d="M199.689 536.618H202.388V539.168H199.689V536.618ZM196.99 536.618H194.291V539.168H196.99V536.618ZM217.232 547.497H194.291V550.047H217.232V547.497ZM196.99 563.815H194.291V566.365H196.99V563.815ZM196.99 569.255H194.291V571.805H196.99V569.255ZM194.291 574.695H196.99V577.245H194.291V574.695ZM206.436 552.937H209.135V555.487H206.436V552.937ZM203.737 552.937H194.291V555.487H203.737V552.937ZM257.548 581.324H255.018V582.854H252.319V589.483H257.717V591.013H252.319V593.563H255.018V594.923H257.548V593.563H260.247V586.933H254.849V585.404H260.416V582.854H257.548V581.324ZM207.786 536.618H205.087V539.168H207.786V536.618ZM234.607 559.566V552.937H226.679V563.646H229.209V555.487H232.077V559.566H234.607ZM238.348 566.824L236.538 568.627L234.607 566.724V574.694H237.474V577.244H232.076V566.724L230.227 568.627L228.478 566.824L233.415 561.843L238.348 566.824Z" fill="white"/>
<path d="M196.706 111.891L194.729 111.194C193.998 110.929 193.477 110.568 193.163 110.113C192.85 109.658 192.694 109.06 192.694 108.32C192.694 107.239 192.955 106.518 193.477 106.157C194.008 105.788 194.937 105.603 196.265 105.603C197.517 105.603 198.594 105.731 199.495 105.987L199.353 107.466C198.528 107.438 197.503 107.424 196.279 107.424C195.71 107.424 195.331 107.476 195.141 107.58C194.952 107.675 194.857 107.922 194.857 108.32C194.857 108.643 194.928 108.875 195.07 109.017C195.212 109.16 195.483 109.297 195.881 109.43L197.745 110.07C198.504 110.336 199.04 110.701 199.353 111.166C199.666 111.621 199.822 112.219 199.822 112.959C199.822 114.059 199.557 114.808 199.026 115.207C198.494 115.596 197.546 115.79 196.18 115.79C195.07 115.79 193.946 115.667 192.808 115.42L192.936 113.855C194.956 113.902 196.038 113.926 196.18 113.926C196.758 113.926 197.143 113.864 197.332 113.741C197.532 113.618 197.631 113.362 197.631 112.973C197.631 112.641 197.565 112.408 197.432 112.276C197.299 112.133 197.057 112.005 196.706 111.891Z" fill="white"/>
<path d="M208.673 105.788H210.764C211.286 105.788 211.556 106.058 211.575 106.599L211.96 115.605H209.911L209.583 107.481H209.342L207.862 113.556C207.767 114.021 207.473 114.253 206.98 114.253H205.557C205.064 114.253 204.769 114.021 204.675 113.556L203.181 107.481H202.939L202.654 115.605H200.605L200.961 106.599C200.989 106.058 201.26 105.788 201.772 105.788H203.864C204.328 105.788 204.613 106.02 204.717 106.485L205.912 111.379C205.988 111.692 206.074 112.152 206.169 112.759H206.354C206.363 112.712 206.396 112.517 206.453 112.176C206.52 111.835 206.572 111.569 206.61 111.379L207.791 106.485C207.904 106.02 208.199 105.788 208.673 105.788Z" fill="white"/>
<path d="M221.068 105.788H223.159C223.681 105.788 223.951 106.058 223.97 106.599L224.354 115.605H222.305L221.978 107.481H221.736L220.257 113.556C220.162 114.021 219.868 114.253 219.374 114.253H217.952C217.458 114.253 217.164 114.021 217.069 113.556L215.575 107.481H215.334L215.049 115.605H213L213.356 106.599C213.384 106.058 213.655 105.788 214.167 105.788H216.258C216.723 105.788 217.008 106.02 217.112 106.485L218.307 111.379C218.383 111.692 218.469 112.152 218.563 112.759H218.748C218.758 112.712 218.791 112.517 218.848 112.176C218.914 111.835 218.966 111.569 219.004 111.379L220.185 106.485C220.299 106.02 220.593 105.788 221.068 105.788Z" fill="white"/>
<path d="M26.7723 626.259V626.316C27.5027 626.382 28.0197 626.633 28.3232 627.07C28.6362 627.497 28.7927 628.118 28.7927 628.934C28.7927 629.92 28.5414 630.594 28.0386 630.954C27.5359 631.315 26.6822 631.495 25.4775 631.495C23.6658 631.495 22.2809 631.457 21.3229 631.381V621.563C22.1766 621.487 23.4097 621.45 25.0222 621.45C26.3217 621.45 27.2229 621.63 27.7256 621.99C28.2283 622.341 28.4797 623.015 28.4797 624.011C28.4797 624.722 28.3469 625.263 28.0813 625.633C27.8157 625.993 27.3794 626.202 26.7723 626.259ZM23.4429 625.576H25.0365C25.5582 625.576 25.9139 625.49 26.1036 625.32C26.3028 625.149 26.4024 624.812 26.4024 624.309C26.4024 623.816 26.298 623.489 26.0893 623.328C25.8901 623.166 25.4965 623.086 24.9084 623.086L23.4429 623.072V625.576ZM23.4429 629.858H25.0934C25.7004 629.858 26.1083 629.773 26.317 629.602C26.5257 629.422 26.63 629.062 26.63 628.521C26.63 627.933 26.5209 627.539 26.3028 627.34C26.0846 627.131 25.6672 627.022 25.0507 627.013H23.4429V629.858Z" fill="white"/>
<path d="M37.9226 631.381H35.8453V625.519C35.8453 625.082 35.888 624.641 35.9734 624.196H35.8738C35.7315 624.632 35.5465 625.064 35.3189 625.49L32.0037 631.381H29.8552V621.563H31.9183V627.326C31.9183 627.734 31.8803 628.189 31.8045 628.692H31.8898C32.0131 628.331 32.2029 627.904 32.459 627.411L35.7742 621.563H37.9226V631.381Z" fill="white"/>
<path d="M46.9994 633.529L46.8287 631.381H40.3263L40.1556 633.529H38.6189V629.816H39.6576C40.3311 628.137 40.7579 626.069 40.9381 623.612C40.9856 622.996 41.2132 622.502 41.6211 622.133C42.029 621.753 42.5649 621.563 43.2289 621.563H47.2555V629.816H48.5361V633.529H46.9994ZM45.0928 629.816V623.128H43.8265C43.5419 623.128 43.3332 623.195 43.2004 623.328C43.0771 623.451 43.006 623.664 42.987 623.968C42.8732 625.343 42.7214 626.472 42.5317 627.354C42.342 628.236 42.0622 629.057 41.6922 629.816H45.0928Z" fill="white"/>
<path d="M55.8395 629.688L55.9249 631.281C55.0427 631.376 53.5251 631.424 51.3718 631.424C50.7173 631.424 50.1956 631.248 49.8067 630.897C49.4178 630.537 49.2234 630.053 49.2234 629.446V623.498C49.2234 622.891 49.4178 622.412 49.8067 622.061C50.2051 621.701 50.7268 621.521 51.3718 621.521C53.5251 621.521 55.0427 621.568 55.9249 621.663L55.8395 623.271H52.0548C51.8176 623.271 51.6469 623.328 51.5426 623.441C51.4382 623.555 51.3861 623.74 51.3861 623.996V625.49H55.2988V627.055H51.3861V628.948C51.3861 629.214 51.4382 629.403 51.5426 629.517C51.6469 629.631 51.8176 629.688 52.0548 629.688H55.8395Z" fill="white"/>
<path d="M57.4233 622.474C58.0399 621.744 59.1354 621.378 60.71 621.378C62.2846 621.378 63.3802 621.744 63.9968 622.474C64.6133 623.195 64.9216 624.528 64.9216 626.472C64.9216 628.417 64.6133 629.754 63.9968 630.484C63.3802 631.205 62.2846 631.566 60.71 631.566C59.1354 631.566 58.0399 631.205 57.4233 630.484C56.8162 629.754 56.5127 628.417 56.5127 626.472C56.5127 624.528 56.8162 623.195 57.4233 622.474ZM62.2183 623.826C61.9527 623.361 61.4499 623.128 60.71 623.128C59.9702 623.128 59.4627 623.361 59.1876 623.826C58.922 624.29 58.7892 625.173 58.7892 626.472C58.7892 627.772 58.922 628.654 59.1876 629.119C59.4627 629.583 59.9702 629.816 60.71 629.816C61.4499 629.816 61.9527 629.583 62.2183 629.119C62.4933 628.654 62.6309 627.772 62.6309 626.472C62.6309 625.173 62.4933 624.29 62.2183 623.826Z" fill="white"/>
<path d="M21.3229 652.723V642.906C22.205 642.82 23.4524 642.778 25.0649 642.778C26.4308 642.778 27.3652 643.001 27.8679 643.446C28.3801 643.892 28.6362 644.737 28.6362 645.979C28.6362 647.222 28.3943 648.071 27.9106 648.526C27.4363 648.972 26.5826 649.195 25.3495 649.195C24.7234 649.195 24.1069 649.157 23.4998 649.081V652.723H21.3229ZM23.4998 647.53H25.008C25.5771 647.521 25.9613 647.411 26.1605 647.203C26.3597 646.994 26.4593 646.586 26.4593 645.979C26.4593 645.372 26.3597 644.964 26.1605 644.755C25.9613 644.547 25.5771 644.442 25.008 644.442L23.4998 644.457V647.53Z" fill="white"/>
<path d="M36.0522 651.03L36.1375 652.624C35.2554 652.719 33.7377 652.766 31.5845 652.766C30.93 652.766 30.4083 652.591 30.0194 652.24C29.6305 651.879 29.436 651.395 29.436 650.788V644.841C29.436 644.234 29.6305 643.755 30.0194 643.404C30.4178 643.043 30.9395 642.863 31.5845 642.863C33.7377 642.863 35.2554 642.911 36.1375 643.005L36.0522 644.613H32.2674C32.0303 644.613 31.8596 644.67 31.7552 644.784C31.6509 644.898 31.5987 645.083 31.5987 645.339V646.833H35.5115V648.398H31.5987V650.29C31.5987 650.556 31.6509 650.746 31.7552 650.859C31.8596 650.973 32.0303 651.03 32.2674 651.03H36.0522Z" fill="white"/>
<path d="M41.5891 647.573V647.63C41.7693 647.658 41.9353 647.691 42.0871 647.729C42.2388 647.758 42.3811 647.81 42.5139 647.886C42.6562 647.962 42.7795 648.028 42.8839 648.085C42.9882 648.142 43.0925 648.246 43.1969 648.398C43.3107 648.54 43.4008 648.654 43.4672 648.739C43.5431 648.825 43.6285 648.981 43.7233 649.209C43.8277 649.437 43.9083 649.617 43.9652 649.75C44.0221 649.873 44.1028 650.096 44.2071 650.418C44.3209 650.741 44.4063 650.992 44.4632 651.172C44.5201 651.343 44.615 651.637 44.7478 652.055C44.8426 652.349 44.9138 652.572 44.9612 652.723H42.6989C42.1677 650.987 41.8073 649.925 41.6175 649.536C41.3235 648.939 40.9536 648.583 40.5077 648.469C40.337 648.422 40.1425 648.398 39.9244 648.398H39.2272C39.3031 648.749 39.341 649.062 39.341 649.337V652.723H37.1783V642.906H39.341V645.68C39.341 646.05 39.3031 646.439 39.2272 646.847H39.8959C40.5694 646.847 41.0532 646.591 41.3472 646.079C41.6507 645.567 42.0207 644.556 42.457 643.048C42.476 642.982 42.4902 642.934 42.4997 642.906H44.7051C44.1739 644.575 43.8372 645.566 43.6949 645.88C43.3629 646.619 42.9455 647.108 42.4428 647.345C42.2057 647.449 41.9211 647.525 41.5891 647.573Z" fill="white"/>
<path d="M53.2947 642.906V652.723H51.1177V644.471H49.8656C49.306 644.471 49.0072 644.746 48.9692 645.296C48.8459 646.766 48.7274 647.886 48.6135 648.654C48.5092 649.422 48.3479 650.082 48.1298 650.632C47.5512 652.244 46.4651 652.956 44.8715 652.766L44.715 651.087C45.0849 651.021 45.379 650.912 45.5971 650.76C45.8248 650.608 46.0003 650.371 46.1236 650.048C46.3133 649.546 46.4603 648.939 46.5647 648.227C46.669 647.506 46.7781 646.444 46.8919 645.04C46.9963 643.617 47.7646 642.906 49.1969 642.906H53.2947Z" fill="white"/>
<path d="M60.0493 650.148H56.6772L55.9658 652.723H53.7462L56.5776 643.475C56.6156 643.304 56.7057 643.167 56.848 643.062C56.9902 642.958 57.1515 642.906 57.3317 642.906H59.3806C59.7885 642.906 60.0398 643.096 60.1347 643.475L62.9661 652.723H60.7607L60.0493 650.148ZM59.5798 648.469L58.7545 645.467C58.6407 644.993 58.5743 644.684 58.5554 644.542H58.1712C58.1522 644.637 58.119 644.789 58.0716 644.997C58.0242 645.206 57.9862 645.363 57.9578 645.467L57.1325 648.469H59.5798Z" fill="white"/>
<path d="M71.3237 642.906H73.4153C73.9275 642.906 74.1978 643.176 74.2263 643.717L74.5962 652.723H72.5473L72.2343 644.599H71.9782L70.4985 650.674C70.4036 651.139 70.1143 651.372 69.6305 651.372H68.2077C67.7239 651.372 67.4251 651.139 67.3113 650.674L65.8173 644.599H65.5755L65.2909 652.723H63.2563L63.612 643.717C63.6309 643.176 63.9013 642.906 64.423 642.906H66.5145C66.9698 642.906 67.2544 643.138 67.3682 643.603L68.5634 648.497C68.6014 648.687 68.6488 648.953 68.7057 649.294C68.7721 649.636 68.81 649.83 68.8195 649.878H69.0045C69.014 649.83 69.0472 649.636 69.1041 649.294C69.1705 648.953 69.2227 648.687 69.2606 648.497L70.4416 643.603C70.5459 643.138 70.8399 642.906 71.3237 642.906Z" fill="white"/>
<path d="M81.1706 650.148H77.7985L77.0871 652.723H74.8674L77.6989 643.475C77.7368 643.304 77.8269 643.167 77.9692 643.062C78.1115 642.958 78.2728 642.906 78.453 642.906H80.5019C80.9097 642.906 81.1611 643.096 81.256 643.475L84.0874 652.723H81.882L81.1706 650.148ZM80.701 648.469L79.8758 645.467C79.762 644.993 79.6956 644.684 79.6766 644.542H79.2924C79.2735 644.637 79.2403 644.789 79.1928 644.997C79.1454 645.206 79.1075 645.363 79.079 645.467L78.2538 648.469H80.701Z" fill="white"/>
<path d="M196.488 627.073V627.13C196.668 627.158 196.834 627.192 196.986 627.23C197.137 627.258 197.28 627.31 197.412 627.386C197.555 627.462 197.678 627.528 197.782 627.585C197.887 627.642 197.991 627.746 198.095 627.898C198.209 628.041 198.299 628.154 198.366 628.24C198.442 628.325 198.527 628.482 198.622 628.709C198.726 628.937 198.807 629.117 198.864 629.25C198.921 629.373 199.001 629.596 199.106 629.919C199.219 630.241 199.305 630.493 199.362 630.673C199.419 630.844 199.513 631.138 199.646 631.555C199.741 631.849 199.812 632.072 199.86 632.224H197.597C197.066 630.488 196.706 629.425 196.516 629.037C196.222 628.439 195.852 628.083 195.406 627.969C195.236 627.922 195.041 627.898 194.823 627.898H194.126C194.202 628.249 194.24 628.562 194.24 628.837V632.224H192.077V622.406H194.24V625.181C194.24 625.551 194.202 625.94 194.126 626.347H194.794C195.468 626.347 195.952 626.091 196.246 625.579C196.549 625.067 196.919 624.057 197.356 622.548C197.374 622.482 197.389 622.435 197.398 622.406H199.604C199.072 624.076 198.736 625.067 198.593 625.38C198.261 626.12 197.844 626.608 197.341 626.845C197.104 626.95 196.82 627.026 196.488 627.073Z" fill="white"/>
<path d="M201.011 623.317C201.627 622.586 202.723 622.221 204.298 622.221C205.872 622.221 206.968 622.586 207.584 623.317C208.201 624.038 208.509 625.37 208.509 627.315C208.509 629.259 208.201 630.597 207.584 631.327C206.968 632.048 205.872 632.409 204.298 632.409C202.723 632.409 201.627 632.048 201.011 631.327C200.404 630.597 200.1 629.259 200.1 627.315C200.1 625.37 200.404 624.038 201.011 623.317ZM205.806 624.668C205.54 624.204 205.037 623.971 204.298 623.971C203.558 623.971 203.05 624.204 202.775 624.668C202.51 625.133 202.377 626.015 202.377 627.315C202.377 628.614 202.51 629.497 202.775 629.961C203.05 630.426 203.558 630.659 204.298 630.659C205.037 630.659 205.54 630.426 205.806 629.961C206.081 629.497 206.218 628.614 206.218 627.315C206.218 626.015 206.081 625.133 205.806 624.668Z" fill="white"/>
<path d="M217.41 622.406V632.224H215.233V627.841H211.776V632.224H209.613V622.406H211.776V626.162H215.233V622.406H217.41Z" fill="white"/>
<path d="M226.166 624.17H223.235V632.224H221.058V624.17H218.127V622.406H226.166V624.17Z" fill="white"/>
<path d="M233.388 630.531L233.474 632.124C232.592 632.219 231.074 632.266 228.921 632.266C228.266 632.266 227.744 632.091 227.355 631.74C226.967 631.379 226.772 630.896 226.772 630.289V624.341C226.772 623.734 226.967 623.255 227.355 622.904C227.754 622.544 228.276 622.363 228.921 622.363C231.074 622.363 232.592 622.411 233.474 622.506L233.388 624.114H229.604C229.366 624.114 229.196 624.17 229.091 624.284C228.987 624.398 228.935 624.583 228.935 624.839V626.333H232.848V627.898H228.935V629.791C228.935 630.056 228.987 630.246 229.091 630.36C229.196 630.474 229.366 630.531 229.604 630.531H233.388Z" fill="white"/>
<path d="M238.925 627.073V627.13C239.105 627.158 239.271 627.192 239.423 627.23C239.575 627.258 239.717 627.31 239.85 627.386C239.992 627.462 240.116 627.528 240.22 627.585C240.324 627.642 240.429 627.746 240.533 627.898C240.647 628.041 240.737 628.154 240.803 628.24C240.879 628.325 240.965 628.482 241.059 628.709C241.164 628.937 241.244 629.117 241.301 629.25C241.358 629.373 241.439 629.596 241.543 629.919C241.657 630.241 241.742 630.493 241.799 630.673C241.856 630.844 241.951 631.138 242.084 631.555C242.179 631.849 242.25 632.072 242.297 632.224H240.035C239.504 630.488 239.143 629.425 238.954 629.037C238.66 628.439 238.29 628.083 237.844 627.969C237.673 627.922 237.479 627.898 237.26 627.898H236.563C236.639 628.249 236.677 628.562 236.677 628.837V632.224H234.514V622.406H236.677V625.181C236.677 625.551 236.639 625.94 236.563 626.347H237.232C237.906 626.347 238.389 626.091 238.683 625.579C238.987 625.067 239.357 624.057 239.793 622.548C239.812 622.482 239.826 622.435 239.836 622.406H242.041C241.51 624.076 241.173 625.067 241.031 625.38C240.699 626.12 240.282 626.608 239.779 626.845C239.542 626.95 239.257 627.026 238.925 627.073Z" fill="white"/>
<path d="M249.624 630.388L249.809 631.996C248.955 632.262 247.907 632.394 246.664 632.394C245.146 632.394 244.079 632.015 243.463 631.256C242.846 630.497 242.538 629.184 242.538 627.315C242.538 625.446 242.846 624.133 243.463 623.374C244.079 622.615 245.146 622.235 246.664 622.235C247.764 622.235 248.746 622.344 249.609 622.563L249.424 624.185C248.656 624.137 247.736 624.114 246.664 624.114C245.953 624.114 245.464 624.341 245.199 624.797C244.942 625.242 244.814 626.082 244.814 627.315C244.814 628.548 244.942 629.392 245.199 629.848C245.464 630.293 245.953 630.516 246.664 630.516C247.983 630.516 248.969 630.474 249.624 630.388Z" fill="white"/>
<path d="M257.932 624.17H255.001V632.224H252.824V624.17H249.893V622.406H257.932V624.17Z" fill="white"/>
<path d="M266.435 622.406V632.224H264.258V627.841H260.8V632.224H258.638V622.406H260.8V626.162H264.258V622.406H266.435Z" fill="white"/>
<path d="M273.213 629.648H269.841L269.129 632.224H266.91L269.741 622.975C269.779 622.805 269.869 622.667 270.011 622.563C270.154 622.458 270.315 622.406 270.495 622.406H272.544C272.952 622.406 273.203 622.596 273.298 622.975L276.13 632.224H273.924L273.213 629.648ZM272.743 627.969L271.918 624.967C271.804 624.493 271.738 624.185 271.719 624.042H271.335C271.316 624.137 271.282 624.289 271.235 624.498C271.188 624.706 271.15 624.863 271.121 624.967L270.296 627.969H272.743Z" fill="white"/>
<path d="M283.605 632.224H281.442V628.453H280.005C279.455 628.453 279.118 628.733 278.995 629.293L278.269 632.224H275.993L276.79 629.221C276.979 628.406 277.473 627.922 278.269 627.77L278.255 627.685C277.582 627.599 277.098 627.353 276.804 626.945C276.519 626.528 276.377 625.94 276.377 625.181C276.377 624.118 276.647 623.369 277.188 622.933C277.738 622.496 278.644 622.278 279.906 622.278C281.499 622.278 282.732 622.321 283.605 622.406V632.224ZM281.442 626.788V623.957L279.963 623.943C279.422 623.943 279.052 624.038 278.853 624.227C278.663 624.417 278.563 624.782 278.554 625.323C278.554 625.864 278.654 626.243 278.853 626.461C279.061 626.679 279.431 626.788 279.963 626.788H281.442Z" fill="white"/>
<path d="M192.063 653.566V643.749C192.945 643.663 194.192 643.621 195.805 643.621C197.171 643.621 198.105 643.843 198.608 644.289C199.12 644.735 199.376 645.579 199.376 646.822C199.376 648.065 199.134 648.913 198.65 649.369C198.176 649.815 197.322 650.038 196.089 650.038C195.463 650.038 194.847 650 194.24 649.924V653.566H192.063ZM194.24 648.373H195.748C196.317 648.363 196.701 648.254 196.9 648.046C197.099 647.837 197.199 647.429 197.199 646.822C197.199 646.215 197.099 645.807 196.9 645.598C196.701 645.39 196.317 645.285 195.748 645.285L194.24 645.299V648.373Z" fill="white"/>
<path d="M206.792 651.873L206.877 653.467C205.995 653.561 204.477 653.609 202.324 653.609C201.67 653.609 201.148 653.433 200.759 653.082C200.37 652.722 200.176 652.238 200.176 651.631V645.684C200.176 645.077 200.37 644.598 200.759 644.247C201.157 643.886 201.679 643.706 202.324 643.706C204.477 643.706 205.995 643.753 206.877 643.848L206.792 645.456H203.007C202.77 645.456 202.599 645.513 202.495 645.627C202.391 645.741 202.338 645.926 202.338 646.182V647.676H206.251V649.241H202.338V651.133C202.338 651.399 202.391 651.588 202.495 651.702C202.599 651.816 202.77 651.873 203.007 651.873H206.792Z" fill="white"/>
<path d="M212.329 648.415V648.472C212.509 648.501 212.675 648.534 212.827 648.572C212.979 648.6 213.121 648.653 213.254 648.729C213.396 648.804 213.519 648.871 213.624 648.928C213.728 648.985 213.832 649.089 213.937 649.241C214.05 649.383 214.141 649.497 214.207 649.582C214.283 649.668 214.368 649.824 214.463 650.052C214.567 650.279 214.648 650.46 214.705 650.592C214.762 650.716 214.842 650.939 214.947 651.261C215.061 651.584 215.146 651.835 215.203 652.015C215.26 652.186 215.355 652.48 215.488 652.897C215.582 653.191 215.654 653.414 215.701 653.566H213.439C212.907 651.83 212.547 650.768 212.357 650.379C212.063 649.781 211.693 649.426 211.247 649.312C211.077 649.264 210.882 649.241 210.664 649.241H209.967C210.043 649.592 210.081 649.905 210.081 650.18V653.566H207.918V643.749H210.081V646.523C210.081 646.893 210.043 647.282 209.967 647.69H210.636C211.309 647.69 211.793 647.434 212.087 646.922C212.39 646.409 212.76 645.399 213.197 643.891C213.216 643.824 213.23 643.777 213.239 643.749H215.445C214.914 645.418 214.577 646.409 214.435 646.722C214.103 647.462 213.685 647.951 213.183 648.188C212.945 648.292 212.661 648.368 212.329 648.415Z" fill="white"/>
<path d="M224.034 643.749V653.566H221.857V645.314H220.605C220.046 645.314 219.747 645.589 219.709 646.139C219.586 647.609 219.467 648.729 219.353 649.497C219.249 650.265 219.088 650.924 218.87 651.475C218.291 653.087 217.205 653.799 215.611 653.609L215.455 651.93C215.825 651.864 216.119 651.754 216.337 651.603C216.565 651.451 216.74 651.214 216.863 650.891C217.053 650.388 217.2 649.781 217.304 649.07C217.409 648.349 217.518 647.287 217.632 645.883C217.736 644.46 218.504 643.749 219.937 643.749H224.034Z" fill="white"/>
<path d="M230.789 650.991H227.417L226.706 653.566H224.486L227.317 644.318C227.355 644.147 227.445 644.009 227.588 643.905C227.73 643.801 227.891 643.749 228.071 643.749H230.12C230.528 643.749 230.78 643.938 230.874 644.318L233.706 653.566H231.5L230.789 650.991ZM230.32 649.312L229.494 646.31C229.38 645.835 229.314 645.527 229.295 645.385H228.911C228.892 645.48 228.859 645.631 228.811 645.84C228.764 646.049 228.726 646.205 228.697 646.31L227.872 649.312H230.32Z" fill="white"/>
<path d="M242.063 643.749H244.155C244.667 643.749 244.938 644.019 244.966 644.56L245.336 653.566H243.287L242.974 645.442H242.718L241.238 651.517C241.143 651.982 240.854 652.214 240.37 652.214H238.947C238.464 652.214 238.165 651.982 238.051 651.517L236.557 645.442H236.315L236.031 653.566H233.996L234.352 644.56C234.371 644.019 234.641 643.749 235.163 643.749H237.254C237.71 643.749 237.994 643.981 238.108 644.446L239.303 649.34C239.341 649.53 239.389 649.796 239.445 650.137C239.512 650.479 239.55 650.673 239.559 650.72H239.744C239.754 650.673 239.787 650.479 239.844 650.137C239.91 649.796 239.962 649.53 240 649.34L241.181 644.446C241.286 643.981 241.58 643.749 242.063 643.749Z" fill="white"/>
<path d="M251.91 650.991H248.538L247.827 653.566H245.607L248.439 644.318C248.477 644.147 248.567 644.009 248.709 643.905C248.851 643.801 249.012 643.749 249.193 643.749H251.242C251.649 643.749 251.901 643.938 251.996 644.318L254.827 653.566H252.622L251.91 650.991ZM251.441 649.312L250.616 646.31C250.502 645.835 250.435 645.527 250.416 645.385H250.032C250.013 645.48 249.98 645.631 249.933 645.84C249.885 646.049 249.847 646.205 249.819 646.31L248.994 649.312H251.441Z" fill="white"/>
<path d="M198.599 280.07H195.668V288.123H193.491V280.07H190.56V278.306H198.599V280.07Z" fill="white"/>
<path d="M203.791 285.548H200.419L199.708 288.123H197.488L200.32 278.875C200.357 278.704 200.448 278.567 200.59 278.462C200.732 278.358 200.893 278.306 201.074 278.306H203.123C203.53 278.306 203.782 278.495 203.877 278.875L206.708 288.123H204.503L203.791 285.548ZM203.322 283.869L202.496 280.867C202.383 280.393 202.316 280.084 202.297 279.942H201.913C201.894 280.037 201.861 280.189 201.814 280.397C201.766 280.606 201.728 280.763 201.7 280.867L200.874 283.869H203.322Z" fill="white"/>
<path d="M207.169 288.123V278.306C208.051 278.22 209.298 278.178 210.911 278.178C212.277 278.178 213.211 278.401 213.714 278.846C214.226 279.292 214.482 280.136 214.482 281.379C214.482 282.622 214.24 283.471 213.757 283.926C213.282 284.372 212.429 284.595 211.196 284.595C210.569 284.595 209.953 284.557 209.346 284.481V288.123H207.169ZM209.346 282.93H210.854C211.423 282.92 211.807 282.811 212.007 282.603C212.206 282.394 212.305 281.986 212.305 281.379C212.305 280.772 212.206 280.364 212.007 280.155C211.807 279.947 211.423 279.842 210.854 279.842L209.346 279.857V282.93Z" fill="white"/>
<path d="M215.339 288.123V280.355C215.339 279.738 215.533 279.235 215.922 278.846C216.311 278.458 216.804 278.263 217.402 278.263C219.451 278.263 220.902 278.315 221.756 278.42L221.656 280.013H218.284C218.009 280.013 217.81 280.075 217.687 280.198C217.573 280.312 217.516 280.511 217.516 280.796V288.123H215.339Z" fill="white"/>
<path d="M228.916 286.43L229.001 288.024C228.119 288.119 226.601 288.166 224.448 288.166C223.793 288.166 223.272 287.991 222.883 287.64C222.494 287.279 222.299 286.795 222.299 286.188V280.241C222.299 279.634 222.494 279.155 222.883 278.804C223.281 278.443 223.803 278.263 224.448 278.263C226.601 278.263 228.119 278.311 229.001 278.405L228.916 280.013H225.131C224.894 280.013 224.723 280.07 224.619 280.184C224.514 280.298 224.462 280.483 224.462 280.739V282.233H228.375V283.798H224.462V285.69C224.462 285.956 224.514 286.146 224.619 286.259C224.723 286.373 224.894 286.43 225.131 286.43H228.916Z" fill="white"/>
<path d="M237.312 280.07H234.381V288.123H232.205V280.07H229.273V278.306H237.312V280.07Z" fill="white"/>
<path d="M246.085 288.123H244.008V282.261C244.008 281.825 244.051 281.384 244.136 280.938H244.037C243.894 281.374 243.709 281.806 243.482 282.233L240.166 288.123H238.018V278.306H240.081V284.068C240.081 284.476 240.043 284.931 239.967 285.434H240.053C240.176 285.074 240.366 284.647 240.622 284.154L243.937 278.306H246.085V288.123Z" fill="white"/>
<path d="M247.55 288.123V278.306C248.432 278.22 249.68 278.178 251.292 278.178C252.658 278.178 253.592 278.401 254.095 278.846C254.607 279.292 254.863 280.136 254.863 281.379C254.863 282.622 254.622 283.471 254.138 283.926C253.664 284.372 252.81 284.595 251.577 284.595C250.951 284.595 250.334 284.557 249.727 284.481V288.123H247.55ZM249.727 282.93H251.235C251.804 282.92 252.189 282.811 252.388 282.603C252.587 282.394 252.687 281.986 252.687 281.379C252.687 280.772 252.587 280.364 252.388 280.155C252.189 279.947 251.804 279.842 251.235 279.842L249.727 279.857V282.93Z" fill="white"/>
<path d="M256.318 279.216C256.934 278.486 258.03 278.121 259.604 278.121C261.179 278.121 262.275 278.486 262.891 279.216C263.508 279.937 263.816 281.27 263.816 283.215C263.816 285.159 263.508 286.497 262.891 287.227C262.275 287.948 261.179 288.308 259.604 288.308C258.03 288.308 256.934 287.948 256.318 287.227C255.711 286.497 255.407 285.159 255.407 283.215C255.407 281.27 255.711 279.937 256.318 279.216ZM261.113 280.568C260.847 280.103 260.344 279.871 259.604 279.871C258.865 279.871 258.357 280.103 258.082 280.568C257.816 281.033 257.684 281.915 257.684 283.215C257.684 284.514 257.816 285.396 258.082 285.861C258.357 286.326 258.865 286.558 259.604 286.558C260.344 286.558 260.847 286.326 261.113 285.861C261.388 285.396 261.525 284.514 261.525 283.215C261.525 281.915 261.388 281.033 261.113 280.568Z" fill="white"/>
<path d="M270.355 283.001V283.058C271.086 283.124 271.603 283.376 271.906 283.812C272.219 284.239 272.376 284.86 272.376 285.676C272.376 286.663 272.124 287.336 271.622 287.696C271.119 288.057 270.265 288.237 269.061 288.237C267.249 288.237 265.864 288.199 264.906 288.123V278.306C265.76 278.23 266.993 278.192 268.605 278.192C269.905 278.192 270.806 278.372 271.309 278.733C271.811 279.084 272.063 279.757 272.063 280.753C272.063 281.464 271.93 282.005 271.664 282.375C271.399 282.736 270.962 282.944 270.355 283.001ZM267.026 282.318H268.619C269.141 282.318 269.497 282.233 269.687 282.062C269.886 281.891 269.985 281.555 269.985 281.052C269.985 280.559 269.881 280.231 269.672 280.07C269.473 279.909 269.079 279.828 268.491 279.828L267.026 279.814V282.318ZM267.026 286.601H268.676C269.283 286.601 269.691 286.516 269.9 286.345C270.109 286.165 270.213 285.804 270.213 285.263C270.213 284.675 270.104 284.282 269.886 284.082C269.668 283.874 269.25 283.765 268.634 283.755H267.026V286.601Z" fill="white"/>
<path d="M278.731 285.548H275.359L274.648 288.123H272.428L275.259 278.875C275.297 278.704 275.387 278.567 275.53 278.462C275.672 278.358 275.833 278.306 276.014 278.306H278.062C278.47 278.306 278.722 278.495 278.816 278.875L281.648 288.123H279.443L278.731 285.548ZM278.262 283.869L277.436 280.867C277.322 280.393 277.256 280.084 277.237 279.942H276.853C276.834 280.037 276.801 280.189 276.753 280.397C276.706 280.606 276.668 280.763 276.64 280.867L275.814 283.869H278.262Z" fill="white"/>
<path d="M289.92 278.306V288.123H287.743V283.741H284.286V288.123H282.123V278.306H284.286V282.062H287.743V278.306H289.92Z" fill="white"/>
<path d="M295.446 285.192H291.206V283.812H295.446V285.192Z" fill="white"/>
<path d="M199.125 299.648V309.466H196.948V305.083H193.491V309.466H191.328V299.648H193.491V303.405H196.948V299.648H199.125Z" fill="white"/>
<path d="M205.903 306.89H202.531L201.82 309.466H199.6L202.432 300.217C202.469 300.047 202.56 299.909 202.702 299.805C202.844 299.7 203.005 299.648 203.186 299.648H205.235C205.642 299.648 205.894 299.838 205.989 300.217L208.82 309.466H206.615L205.903 306.89ZM205.434 305.212L204.608 302.209C204.495 301.735 204.428 301.427 204.409 301.285H204.025C204.006 301.379 203.973 301.531 203.926 301.74C203.878 301.948 203.84 302.105 203.812 302.209L202.986 305.212H205.434Z" fill="white"/>
<path d="M216.295 309.466H214.133V305.695H212.696C212.146 305.695 211.809 305.975 211.686 306.535L210.96 309.466H208.683L209.48 306.464C209.67 305.648 210.163 305.164 210.96 305.012L210.946 304.927C210.272 304.842 209.788 304.595 209.494 304.187C209.21 303.77 209.068 303.182 209.068 302.423C209.068 301.36 209.338 300.611 209.879 300.175C210.429 299.738 211.335 299.52 212.596 299.52C214.19 299.52 215.423 299.563 216.295 299.648V309.466ZM214.133 304.031V301.199L212.653 301.185C212.112 301.185 211.742 301.28 211.543 301.469C211.354 301.659 211.254 302.024 211.244 302.565C211.244 303.106 211.344 303.485 211.543 303.703C211.752 303.921 212.122 304.031 212.653 304.031H214.133Z" fill="white"/>
<path d="M220.259 309.466V299.648C221.141 299.563 222.388 299.52 224.001 299.52C225.367 299.52 226.301 299.743 226.804 300.189C227.316 300.635 227.572 301.479 227.572 302.722C227.572 303.964 227.33 304.813 226.847 305.268C226.372 305.714 225.519 305.937 224.286 305.937C223.66 305.937 223.043 305.899 222.436 305.823V309.466H220.259ZM222.436 304.272H223.944C224.513 304.263 224.897 304.154 225.097 303.945C225.296 303.736 225.395 303.329 225.395 302.722C225.395 302.114 225.296 301.707 225.097 301.498C224.897 301.289 224.513 301.185 223.944 301.185L222.436 301.199V304.272Z" fill="white"/>
<path d="M234.988 307.773L235.074 309.366C234.191 309.461 232.674 309.508 230.521 309.508C229.866 309.508 229.344 309.333 228.955 308.982C228.567 308.622 228.372 308.138 228.372 307.531V301.583C228.372 300.976 228.567 300.497 228.955 300.146C229.354 299.786 229.876 299.606 230.521 299.606C232.674 299.606 234.191 299.653 235.074 299.748L234.988 301.356H231.204C230.966 301.356 230.796 301.413 230.691 301.526C230.587 301.64 230.535 301.825 230.535 302.081V303.575H234.448V305.14H230.535V307.033C230.535 307.298 230.587 307.488 230.691 307.602C230.796 307.716 230.966 307.773 231.204 307.773H234.988Z" fill="white"/>
<path d="M240.525 304.315V304.372C240.705 304.4 240.871 304.434 241.023 304.472C241.175 304.5 241.317 304.552 241.45 304.628C241.592 304.704 241.716 304.77 241.82 304.827C241.924 304.884 242.029 304.989 242.133 305.14C242.247 305.283 242.337 305.396 242.403 305.482C242.479 305.567 242.565 305.724 242.659 305.951C242.764 306.179 242.844 306.359 242.901 306.492C242.958 306.615 243.039 306.838 243.143 307.161C243.257 307.483 243.342 307.735 243.399 307.915C243.456 308.086 243.551 308.38 243.684 308.797C243.779 309.091 243.85 309.314 243.897 309.466H241.635C241.104 307.73 240.743 306.668 240.554 306.279C240.26 305.681 239.89 305.325 239.444 305.212C239.273 305.164 239.079 305.14 238.86 305.14H238.163C238.239 305.491 238.277 305.804 238.277 306.079V309.466H236.114V299.648H238.277V302.423C238.277 302.793 238.239 303.182 238.163 303.589H238.832C239.505 303.589 239.989 303.333 240.283 302.821C240.587 302.309 240.957 301.299 241.393 299.791C241.412 299.724 241.426 299.677 241.436 299.648H243.641C243.11 301.318 242.773 302.309 242.631 302.622C242.299 303.362 241.882 303.85 241.379 304.087C241.142 304.192 240.857 304.268 240.525 304.315Z" fill="white"/>
<path d="M252.231 299.648V309.466H250.054V301.213H248.802C248.242 301.213 247.943 301.488 247.905 302.039C247.782 303.509 247.663 304.628 247.55 305.396C247.445 306.165 247.284 306.824 247.066 307.374C246.487 308.987 245.401 309.698 243.808 309.508L243.651 307.83C244.021 307.763 244.315 307.654 244.533 307.502C244.761 307.35 244.936 307.113 245.06 306.791C245.249 306.288 245.396 305.681 245.501 304.97C245.605 304.249 245.714 303.186 245.828 301.782C245.932 300.36 246.701 299.648 248.133 299.648H252.231Z" fill="white"/>
<path d="M258.985 306.89H255.613L254.902 309.466H252.682L255.514 300.217C255.552 300.047 255.642 299.909 255.784 299.805C255.926 299.7 256.088 299.648 256.268 299.648H258.317C258.725 299.648 258.976 299.838 259.071 300.217L261.902 309.466H259.697L258.985 306.89ZM258.516 305.212L257.691 302.209C257.577 301.735 257.51 301.427 257.491 301.285H257.107C257.088 301.379 257.055 301.531 257.008 301.74C256.96 301.948 256.922 302.105 256.894 302.209L256.069 305.212H258.516Z" fill="white"/>
<path d="M270.26 299.648H272.351C272.864 299.648 273.134 299.919 273.162 300.459L273.532 309.466H271.483L271.17 301.341H270.914L269.435 307.417C269.34 307.882 269.05 308.114 268.567 308.114H267.144C266.66 308.114 266.361 307.882 266.247 307.417L264.753 301.341H264.512L264.227 309.466H262.192L262.548 300.459C262.567 299.919 262.837 299.648 263.359 299.648H265.451C265.906 299.648 266.19 299.881 266.304 300.345L267.5 305.24C267.537 305.43 267.585 305.695 267.642 306.037C267.708 306.378 267.746 306.573 267.756 306.62H267.941C267.95 306.573 267.983 306.378 268.04 306.037C268.107 305.695 268.159 305.43 268.197 305.24L269.378 300.345C269.482 299.881 269.776 299.648 270.26 299.648Z" fill="white"/>
<path d="M280.107 306.89H276.735L276.023 309.466H273.804L276.635 300.217C276.673 300.047 276.763 299.909 276.905 299.805C277.048 299.7 277.209 299.648 277.389 299.648H279.438C279.846 299.648 280.097 299.838 280.192 300.217L283.023 309.466H280.818L280.107 306.89ZM279.637 305.212L278.812 302.209C278.698 301.735 278.632 301.427 278.613 301.285H278.229C278.21 301.379 278.176 301.531 278.129 301.74C278.082 301.948 278.044 302.105 278.015 302.209L277.19 305.212H279.637Z" fill="white"/>
<path d="M28.4708 278.306H30.5623C31.0746 278.306 31.3449 278.576 31.3733 279.117L31.7433 288.123H29.6944L29.3814 279.999H29.1253L27.6455 286.074C27.5507 286.539 27.2614 286.772 26.7776 286.772H25.3548C24.871 286.772 24.5722 286.539 24.4584 286.074L22.9644 279.999H22.7225L22.438 288.123H20.4033L20.759 279.117C20.778 278.576 21.0483 278.306 21.57 278.306H23.6616C24.1169 278.306 24.4015 278.538 24.5153 279.003L25.7105 283.898C25.7484 284.087 25.7959 284.353 25.8528 284.694C25.9192 285.036 25.9571 285.23 25.9666 285.278H26.1516C26.161 285.23 26.1942 285.036 26.2512 284.694C26.3176 284.353 26.3697 284.087 26.4077 283.898L27.5886 279.003C27.693 278.538 27.987 278.306 28.4708 278.306Z" fill="white"/>
<path d="M39.5413 286.43L39.6267 288.024C38.7445 288.119 37.2268 288.166 35.0736 288.166C34.4191 288.166 33.8974 287.991 33.5085 287.64C33.1196 287.279 32.9251 286.795 32.9251 286.188V280.241C32.9251 279.634 33.1196 279.155 33.5085 278.804C33.9069 278.443 34.4286 278.263 35.0736 278.263C37.2268 278.263 38.7445 278.311 39.6267 278.405L39.5413 280.013H35.7566C35.5194 280.013 35.3487 280.07 35.2443 280.184C35.14 280.298 35.0878 280.483 35.0878 280.739V282.233H39.0006V283.798H35.0878V285.69C35.0878 285.956 35.14 286.146 35.2443 286.259C35.3487 286.373 35.5194 286.43 35.7566 286.43H39.5413Z" fill="white"/>
<path d="M48.2654 290.272L48.0946 288.123H41.5923L41.4215 290.272H39.8849V286.558H40.9235C41.597 284.879 42.0239 282.811 42.2041 280.355C42.2515 279.738 42.4792 279.245 42.8871 278.875C43.2949 278.495 43.8309 278.306 44.4949 278.306H48.5215V286.558H49.802V290.272H48.2654ZM46.3588 286.558V279.871H45.0924C44.8079 279.871 44.5992 279.937 44.4664 280.07C44.3431 280.193 44.2719 280.407 44.253 280.71C44.1391 282.086 43.9874 283.215 43.7977 284.097C43.608 284.979 43.3281 285.799 42.9582 286.558H46.3588Z" fill="white"/>
<path d="M58.6564 288.123H56.579V282.261C56.579 281.825 56.6217 281.384 56.7071 280.938H56.6075C56.4652 281.374 56.2802 281.806 56.0526 282.233L52.7374 288.123H50.5889V278.306H52.652V284.068C52.652 284.476 52.6141 284.931 52.5382 285.434H52.6236C52.7469 285.074 52.9366 284.647 53.1927 284.154L56.5079 278.306H58.6564V288.123Z" fill="white"/>
<path d="M65.172 275.389H66.5664C66.6423 275.996 66.4668 276.518 66.04 276.954C65.6131 277.381 65.0155 277.594 64.2472 277.594C63.4789 277.594 62.8765 277.381 62.4402 276.954C62.0039 276.518 61.8236 275.996 61.8995 275.389H63.2939C63.256 276.167 63.5737 276.556 64.2472 276.556C64.9017 276.556 65.21 276.167 65.172 275.389ZM68.2027 288.123H66.1253V282.261C66.1253 281.825 66.168 281.384 66.2534 280.938H66.1538C66.0115 281.374 65.8265 281.806 65.5989 282.233L62.2837 288.123H60.1352V278.306H62.1983V284.068C62.1983 284.476 62.1604 284.931 62.0845 285.434H62.1699C62.2932 285.074 62.4829 284.647 62.739 284.154L66.0542 278.306H68.2027V288.123Z" fill="white"/>
<path d="M77.4786 278.306V288.123H75.3017V283.741H71.8442V288.123H69.6815V278.306H71.8442V282.062H75.3017V278.306H77.4786Z" fill="white"/>
<path d="M84.2568 285.548H80.8846L80.1732 288.123H77.9536L80.785 278.875C80.823 278.704 80.9131 278.567 81.0554 278.462C81.1977 278.358 81.3589 278.306 81.5392 278.306H83.588C83.9959 278.306 84.2473 278.495 84.3421 278.875L87.1736 288.123H84.9682L84.2568 285.548ZM83.7872 283.869L82.962 280.867C82.8482 280.393 82.7818 280.084 82.7628 279.942H82.3786C82.3596 280.037 82.3264 280.189 82.279 280.397C82.2316 280.606 82.1936 280.763 82.1652 280.867L81.34 283.869H83.7872Z" fill="white"/>
<path d="M94.649 288.123H92.4863V284.353H91.0492C90.4991 284.353 90.1623 284.633 90.039 285.192L89.3134 288.123H87.0368L87.8336 285.121C88.0233 284.305 88.5166 283.822 89.3134 283.67L89.2991 283.584C88.6257 283.499 88.1419 283.252 87.8478 282.845C87.5633 282.427 87.421 281.839 87.421 281.08C87.421 280.018 87.6913 279.269 88.232 278.832C88.7822 278.396 89.688 278.178 90.9496 278.178C92.5432 278.178 93.7763 278.22 94.649 278.306V288.123ZM92.4863 282.688V279.857L91.0065 279.842C90.4659 279.842 90.0959 279.937 89.8967 280.127C89.707 280.317 89.6074 280.682 89.5979 281.223C89.5979 281.763 89.6975 282.143 89.8967 282.361C90.1054 282.579 90.4753 282.688 91.0065 282.688H92.4863Z" fill="white"/>
<path d="M20.5741 309.466V299.648C21.4562 299.563 22.7036 299.52 24.3161 299.52C25.682 299.52 26.6163 299.743 27.1191 300.189C27.6313 300.635 27.8874 301.479 27.8874 302.722C27.8874 303.964 27.6455 304.813 27.1618 305.268C26.6875 305.714 25.8338 305.937 24.6007 305.937C23.9746 305.937 23.3581 305.899 22.751 305.823V309.466H20.5741ZM22.751 304.272H24.2592C24.8283 304.263 25.2125 304.154 25.4117 303.945C25.6109 303.736 25.7105 303.329 25.7105 302.722C25.7105 302.114 25.6109 301.707 25.4117 301.498C25.2125 301.289 24.8283 301.185 24.2592 301.185L22.751 301.199V304.272Z" fill="white"/>
<path d="M35.3034 307.773L35.3887 309.366C34.5066 309.461 32.9889 309.508 30.8357 309.508C30.1812 309.508 29.6595 309.333 29.2706 308.982C28.8817 308.622 28.6872 308.138 28.6872 307.531V301.583C28.6872 300.976 28.8817 300.497 29.2706 300.146C29.669 299.786 30.1907 299.606 30.8357 299.606C32.9889 299.606 34.5066 299.653 35.3887 299.748L35.3034 301.356H31.5186C31.2815 301.356 31.1108 301.413 31.0064 301.526C30.9021 301.64 30.8499 301.825 30.8499 302.081V303.575H34.7627V305.14H30.8499V307.033C30.8499 307.298 30.9021 307.488 31.0064 307.602C31.1108 307.716 31.2815 307.773 31.5186 307.773H35.3034Z" fill="white"/>
<path d="M40.8403 304.315V304.372C41.0205 304.4 41.1865 304.434 41.3383 304.472C41.49 304.5 41.6323 304.552 41.7651 304.628C41.9074 304.704 42.0307 304.77 42.1351 304.827C42.2394 304.884 42.3437 304.989 42.4481 305.14C42.5619 305.283 42.652 305.396 42.7184 305.482C42.7943 305.567 42.8797 305.724 42.9745 305.951C43.0789 306.179 43.1595 306.359 43.2164 306.492C43.2733 306.615 43.354 306.838 43.4583 307.161C43.5721 307.483 43.6575 307.735 43.7144 307.915C43.7713 308.086 43.8662 308.38 43.999 308.797C44.0938 309.091 44.165 309.314 44.2124 309.466H41.9501C41.4189 307.73 41.0585 306.668 40.8687 306.279C40.5747 305.681 40.2048 305.325 39.7589 305.212C39.5882 305.164 39.3937 305.14 39.1756 305.14H38.4784C38.5543 305.491 38.5922 305.804 38.5922 306.079V309.466H36.4295V299.648H38.5922V302.423C38.5922 302.793 38.5543 303.182 38.4784 303.589H39.1471C39.8206 303.589 40.3044 303.333 40.5984 302.821C40.9019 302.309 41.2719 301.299 41.7082 299.791C41.7272 299.724 41.7414 299.677 41.7509 299.648H43.9563C43.4251 301.318 43.0884 302.309 42.9461 302.622C42.6141 303.362 42.1967 303.85 41.694 304.087C41.4568 304.192 41.1723 304.268 40.8403 304.315Z" fill="white"/>
<path d="M52.5459 299.648V309.466H50.3689V301.213H49.1168C48.5572 301.213 48.2584 301.488 48.2204 302.039C48.0971 303.509 47.9786 304.628 47.8647 305.396C47.7604 306.165 47.5991 306.824 47.381 307.374C46.8024 308.987 45.7163 309.698 44.1227 309.508L43.9662 307.83C44.3361 307.763 44.6302 307.654 44.8483 307.502C45.076 307.35 45.2515 307.113 45.3748 306.791C45.5645 306.288 45.7115 305.681 45.8159 304.97C45.9202 304.249 46.0293 303.186 46.1431 301.782C46.2475 300.36 47.0158 299.648 48.4481 299.648H52.5459Z" fill="white"/>
<path d="M59.3005 306.89H55.9284L55.217 309.466H52.9974L55.8288 300.217C55.8668 300.047 55.9569 299.909 56.0992 299.805C56.2414 299.7 56.4027 299.648 56.5829 299.648H58.6318C59.0397 299.648 59.291 299.838 59.3859 300.217L62.2173 309.466H60.0119L59.3005 306.89ZM58.831 305.212L58.0057 302.209C57.8919 301.735 57.8255 301.427 57.8065 301.285H57.4224C57.4034 301.379 57.3702 301.531 57.3228 301.74C57.2754 301.948 57.2374 302.105 57.209 302.209L56.3837 305.212H58.831Z" fill="white"/>
<path d="M70.5749 299.648H72.6665C73.1787 299.648 73.449 299.919 73.4775 300.459L73.8474 309.466H71.7985L71.4855 301.341H71.2294L69.7497 307.417C69.6548 307.882 69.3655 308.114 68.8817 308.114H67.4589C66.9751 308.114 66.6763 307.882 66.5625 307.417L65.0685 301.341H64.8267L64.5421 309.466H62.5075L62.8632 300.459C62.8821 299.919 63.1525 299.648 63.6742 299.648H65.7657C66.221 299.648 66.5056 299.881 66.6194 300.345L67.8146 305.24C67.8526 305.43 67.9 305.695 67.9569 306.037C68.0233 306.378 68.0612 306.573 68.0707 306.62H68.2557C68.2652 306.573 68.2984 306.378 68.3553 306.037C68.4217 305.695 68.4739 305.43 68.5118 305.24L69.6927 300.345C69.7971 299.881 70.0911 299.648 70.5749 299.648Z" fill="white"/>
<path d="M80.4218 306.89H77.0497L76.3383 309.466H74.1186L76.9501 300.217C76.988 300.047 77.0781 299.909 77.2204 299.805C77.3627 299.7 77.524 299.648 77.7042 299.648H79.753C80.1609 299.648 80.4123 299.838 80.5071 300.217L83.3386 309.466H81.1332L80.4218 306.89ZM79.9523 305.212L79.127 302.209C79.0132 301.735 78.9468 301.427 78.9278 301.285H78.5436C78.5247 301.379 78.4915 301.531 78.444 301.74C78.3966 301.948 78.3587 302.105 78.3302 302.209L77.505 305.212H79.9523Z" fill="white"/>
<path d="M28.3 458.863H26.0093L25.2694 455.861C25.1745 455.548 25.0465 455.334 24.8852 455.221C24.7335 455.097 24.5106 455.036 24.2165 455.036L22.6941 455.021V458.863H20.5598V449.046C21.442 448.96 22.6893 448.917 24.3019 448.917C25.6204 448.917 26.5547 449.126 27.1049 449.543C27.655 449.961 27.9301 450.72 27.9301 451.82C27.9301 452.541 27.7831 453.105 27.489 453.513C27.2045 453.921 26.7254 454.168 26.052 454.253V454.324C26.8013 454.495 27.2661 454.988 27.4463 455.804L28.3 458.863ZM22.6941 453.357H24.2592C24.8283 453.357 25.2172 453.262 25.4259 453.072C25.6346 452.873 25.7389 452.503 25.7389 451.962C25.7389 451.422 25.6346 451.056 25.4259 450.867C25.2267 450.677 24.8378 450.582 24.2592 450.582L22.6941 450.596V453.357Z" fill="white"/>
<path d="M36.3493 450.81H33.4182V458.863H31.2413V450.81H28.3103V449.046H36.3493V450.81Z" fill="white"/>
<path d="M42.4615 453.741V453.798C43.1919 453.864 43.7136 454.116 44.0267 454.552C44.3397 454.979 44.4962 455.6 44.4962 456.416C44.4962 457.402 44.2448 458.076 43.7421 458.436C43.2394 458.797 42.3809 458.977 41.1668 458.977C39.3455 458.977 37.9654 458.939 37.0263 458.863V449.046C37.8705 448.97 39.0989 448.932 40.7115 448.932C42.0205 448.932 42.9263 449.112 43.4291 449.472C43.9318 449.823 44.1832 450.497 44.1832 451.493C44.1832 452.204 44.0456 452.745 43.7705 453.115C43.5049 453.475 43.0686 453.684 42.4615 453.741ZM39.1463 453.058H40.7257C41.2569 453.058 41.6173 452.973 41.807 452.802C42.0062 452.631 42.1058 452.294 42.1058 451.792C42.1058 451.298 42.0015 450.971 41.7928 450.81C41.5841 450.649 41.1905 450.568 40.6119 450.568L39.1463 450.554V453.058ZM39.1463 457.341H40.7968C41.3944 457.341 41.7976 457.255 42.0062 457.084C42.2149 456.904 42.3193 456.544 42.3193 456.003C42.3193 455.415 42.2102 455.021 41.992 454.822C41.7738 454.614 41.3565 454.504 40.7399 454.495H39.1463V457.341Z" fill="white"/>
<path d="M194.928 455.149L192.95 454.452C192.22 454.187 191.698 453.826 191.385 453.371C191.072 452.916 190.915 452.318 190.915 451.578C190.915 450.497 191.176 449.776 191.698 449.415C192.229 449.046 193.159 448.861 194.487 448.861C195.739 448.861 196.815 448.989 197.717 449.245L197.574 450.724C196.749 450.696 195.725 450.682 194.501 450.682C193.932 450.682 193.552 450.734 193.363 450.838C193.173 450.933 193.078 451.18 193.078 451.578C193.078 451.901 193.149 452.133 193.292 452.275C193.434 452.418 193.704 452.555 194.103 452.688L195.966 453.328C196.725 453.594 197.261 453.959 197.574 454.424C197.887 454.879 198.044 455.477 198.044 456.217C198.044 457.317 197.778 458.066 197.247 458.465C196.716 458.854 195.767 459.048 194.401 459.048C193.292 459.048 192.167 458.925 191.029 458.678L191.157 457.113C193.178 457.16 194.259 457.184 194.401 457.184C194.98 457.184 195.364 457.122 195.554 456.999C195.753 456.876 195.853 456.62 195.853 456.231C195.853 455.899 195.786 455.666 195.653 455.534C195.521 455.391 195.279 455.263 194.928 455.149Z" fill="white"/>
<path d="M205.543 457.17L205.642 458.763C204.751 458.858 203.233 458.906 201.089 458.906C200.435 458.906 199.913 458.73 199.524 458.379C199.135 458.019 198.936 457.535 198.926 456.928V450.981C198.936 450.373 199.135 449.894 199.524 449.543C199.913 449.183 200.435 449.003 201.089 449.003C203.233 449.003 204.751 449.05 205.642 449.145L205.543 450.753H201.772C201.535 450.753 201.364 450.81 201.26 450.924C201.155 451.037 201.103 451.222 201.103 451.479V452.973H205.016V454.538H201.103V456.43C201.103 456.696 201.155 456.885 201.26 456.999C201.364 457.113 201.535 457.17 201.772 457.17H205.543Z" fill="white"/>
<path d="M207.127 449.956C207.743 449.226 208.839 448.861 210.413 448.861C211.988 448.861 213.084 449.226 213.7 449.956C214.317 450.677 214.625 452.01 214.625 453.954C214.625 455.899 214.317 457.236 213.7 457.967C213.084 458.688 211.988 459.048 210.413 459.048C208.839 459.048 207.743 458.688 207.127 457.967C206.52 457.236 206.216 455.899 206.216 453.954C206.216 452.01 206.52 450.677 207.127 449.956ZM211.922 451.308C211.656 450.843 211.153 450.611 210.413 450.611C209.674 450.611 209.166 450.843 208.891 451.308C208.625 451.773 208.493 452.655 208.493 453.954C208.493 455.254 208.625 456.136 208.891 456.601C209.166 457.066 209.674 457.298 210.413 457.298C211.153 457.298 211.656 457.066 211.922 456.601C212.197 456.136 212.334 455.254 212.334 453.954C212.334 452.655 212.197 451.773 211.922 451.308Z" fill="white"/>
<path d="M191.883 471.299C192.499 470.568 193.595 470.203 195.17 470.203C196.744 470.203 197.84 470.568 198.456 471.299C199.073 472.019 199.381 473.352 199.381 475.297C199.381 477.241 199.073 478.579 198.456 479.309C197.84 480.03 196.744 480.39 195.17 480.39C193.595 480.39 192.499 480.03 191.883 479.309C191.276 478.579 190.972 477.241 190.972 475.297C190.972 473.352 191.276 472.019 191.883 471.299ZM196.678 472.65C196.412 472.185 195.91 471.953 195.17 471.953C194.43 471.953 193.922 472.185 193.647 472.65C193.382 473.115 193.249 473.997 193.249 475.297C193.249 476.596 193.382 477.478 193.647 477.943C193.922 478.408 194.43 478.64 195.17 478.64C195.91 478.64 196.412 478.408 196.678 477.943C196.953 477.478 197.09 476.596 197.09 475.297C197.09 473.997 196.953 473.115 196.678 472.65Z" fill="white"/>
<path d="M208.254 470.388V480.205H206.091V471.953H202.648V480.205H200.485V470.388H208.254Z" fill="white"/>
<path d="M217.01 472.152H214.079V480.205H211.902V472.152H208.971V470.388H217.01V472.152Z" fill="white"/>
<path d="M225.783 480.205H223.706V474.343C223.706 473.907 223.749 473.466 223.834 473.02H223.735C223.592 473.457 223.407 473.888 223.18 474.315L219.864 480.205H217.716V470.388H219.779V476.15C219.779 476.558 219.741 477.014 219.665 477.516H219.751C219.874 477.156 220.064 476.729 220.32 476.236L223.635 470.388H225.783V480.205Z" fill="white"/>
<path d="M235.145 470.388H237.236C237.749 470.388 238.019 470.658 238.047 471.199L238.417 480.205H236.368L236.055 472.081H235.799L234.32 478.157C234.225 478.621 233.935 478.854 233.452 478.854H232.029C231.545 478.854 231.246 478.621 231.132 478.157L229.638 472.081H229.397L229.112 480.205H227.077L227.433 471.199C227.452 470.658 227.722 470.388 228.244 470.388H230.336C230.791 470.388 231.075 470.62 231.189 471.085L232.384 475.98C232.422 476.169 232.47 476.435 232.527 476.776C232.593 477.118 232.631 477.312 232.641 477.36H232.826C232.835 477.312 232.868 477.118 232.925 476.776C232.992 476.435 233.044 476.169 233.082 475.98L234.263 471.085C234.367 470.62 234.661 470.388 235.145 470.388Z" fill="white"/>
<path d="M247.766 480.205H245.689V474.343C245.689 473.907 245.732 473.466 245.817 473.02H245.717C245.575 473.457 245.39 473.888 245.162 474.315L241.847 480.205H239.699V470.388H241.762V476.15C241.762 476.558 241.724 477.014 241.648 477.516H241.733C241.857 477.156 242.046 476.729 242.303 476.236L245.618 470.388H247.766V480.205Z" fill="white"/>
<path d="M249.003 472.11L248.832 470.544C249.686 470.364 250.725 470.274 251.948 470.274C253.219 470.274 254.102 470.454 254.595 470.815C255.088 471.166 255.335 471.839 255.335 472.835C255.335 473.547 255.202 474.087 254.936 474.457C254.671 474.818 254.244 475.026 253.656 475.083V475.14C254.367 475.207 254.875 475.458 255.178 475.894C255.482 476.321 255.634 476.942 255.634 477.758C255.634 478.735 255.387 479.409 254.894 479.779C254.4 480.139 253.566 480.319 252.389 480.319C250.872 480.319 249.62 480.177 248.633 479.892L248.79 478.398C249.928 478.579 250.99 478.669 251.977 478.669C252.537 478.669 252.911 478.583 253.101 478.413C253.3 478.232 253.4 477.877 253.4 477.346C253.4 476.776 253.295 476.392 253.087 476.193C252.887 475.994 252.499 475.885 251.92 475.866H250.028V474.343H251.906C252.399 474.343 252.736 474.263 252.916 474.102C253.096 473.931 253.186 473.608 253.186 473.134C253.186 472.65 253.087 472.328 252.887 472.167C252.698 472.005 252.337 471.925 251.806 471.925C251.066 471.925 250.132 471.986 249.003 472.11Z" fill="white"/>
<path d="M262.014 477.63H258.642L257.93 480.205H255.711L258.542 470.957C258.58 470.786 258.67 470.649 258.813 470.544C258.955 470.44 259.116 470.388 259.296 470.388H261.345C261.753 470.388 262.004 470.578 262.099 470.957L264.931 480.205H262.725L262.014 477.63ZM261.544 475.951L260.719 472.949C260.605 472.475 260.539 472.167 260.52 472.024H260.136C260.117 472.119 260.084 472.271 260.036 472.48C259.989 472.688 259.951 472.845 259.922 472.949L259.097 475.951H261.544Z" fill="white"/>
<path d="M272.648 482.354L272.477 480.205H265.406V470.388H267.569V478.64H270.841V470.388H273.018V478.64H274.185V482.354H272.648Z" fill="white"/>
<path d="M283.033 480.205H280.956V474.343C280.956 473.907 280.999 473.466 281.084 473.02H280.985C280.842 473.457 280.657 473.888 280.43 474.315L277.115 480.205H274.966V470.388H277.029V476.15C277.029 476.558 276.991 477.014 276.915 477.516H277.001C277.124 477.156 277.314 476.729 277.57 476.236L280.885 470.388H283.033V480.205Z" fill="white"/>
<path d="M291.513 480.205H289.35V476.435H287.913C287.363 476.435 287.026 476.715 286.903 477.274L286.177 480.205H283.901L284.697 477.203C284.887 476.388 285.38 475.904 286.177 475.752L286.163 475.667C285.489 475.581 285.006 475.335 284.712 474.927C284.427 474.509 284.285 473.921 284.285 473.162C284.285 472.1 284.555 471.351 285.096 470.914C285.646 470.478 286.552 470.26 287.813 470.26C289.407 470.26 290.64 470.303 291.513 470.388V480.205ZM289.35 474.77V471.939L287.87 471.925C287.33 471.925 286.96 472.02 286.76 472.209C286.571 472.399 286.471 472.764 286.462 473.305C286.462 473.845 286.561 474.225 286.76 474.443C286.969 474.661 287.339 474.77 287.87 474.77H289.35Z" fill="white"/>
<path d="M27.0906 113.912L27.1902 115.505C26.2986 115.6 24.7809 115.648 22.6372 115.648C21.9827 115.648 21.461 115.472 21.0721 115.121C20.6831 114.761 20.4839 114.277 20.4745 113.67V107.723C20.4839 107.115 20.6831 106.636 21.0721 106.285C21.461 105.925 21.9827 105.745 22.6372 105.745C24.7809 105.745 26.2986 105.792 27.1902 105.887L27.0906 107.495H23.3201C23.083 107.495 22.9122 107.552 22.8079 107.666C22.7036 107.779 22.6514 107.964 22.6514 108.221V109.715H26.5642V111.28H22.6514V113.172C22.6514 113.438 22.7036 113.627 22.8079 113.741C22.9122 113.855 23.083 113.912 23.3201 113.912H27.0906Z" fill="white"/>
<path d="M32.2579 112.674H28.0179V111.294H32.2579V112.674Z" fill="white"/>
<path d="M41.3934 105.788H43.485C44.0067 105.788 44.277 106.058 44.296 106.599L44.6802 115.605H42.6313L42.304 107.481H42.0621L40.5824 113.556C40.4875 114.021 40.1935 114.253 39.7002 114.253H38.2774C37.7842 114.253 37.4901 114.021 37.3953 113.556L35.9013 107.481H35.6594L35.3748 115.605H33.326L33.6817 106.599C33.7101 106.058 33.9805 105.788 34.4927 105.788H36.5842C37.049 105.788 37.3336 106.02 37.4379 106.485L38.6331 111.379C38.709 111.692 38.7944 112.152 38.8892 112.759H39.0742C39.0837 112.712 39.1169 112.517 39.1738 112.176C39.2402 111.835 39.2924 111.569 39.3303 111.379L40.5113 106.485C40.6251 106.02 40.9191 105.788 41.3934 105.788Z" fill="white"/>
<path d="M51.2271 113.03H47.855L47.1435 115.605H44.9239L47.7554 106.357C47.7933 106.186 47.8834 106.048 48.0257 105.944C48.168 105.84 48.3292 105.788 48.5095 105.788H50.5583C50.9662 105.788 51.2176 105.977 51.3124 106.357L54.1439 115.605H51.9385L51.2271 113.03ZM50.7575 111.351L49.9323 108.349C49.8185 107.874 49.7521 107.566 49.7331 107.424H49.3489C49.33 107.519 49.2968 107.67 49.2493 107.879C49.2019 108.088 49.164 108.244 49.1355 108.349L48.3103 111.351H50.7575Z" fill="white"/>
<path d="M56.7532 115.605H54.5905V105.788H56.7532V115.605Z" fill="white"/>
<path d="M60.3102 105.788V113.115C60.3102 113.371 60.3671 113.556 60.4809 113.67C60.6042 113.784 60.8034 113.841 61.0785 113.841H64.4506L64.5502 115.491C63.5922 115.596 62.2073 115.648 60.3955 115.648C59.6367 115.648 59.0723 115.458 58.7024 115.079C58.3324 114.699 58.1475 114.192 58.1475 113.556V105.788H60.3102Z" fill="white"/>
<path d="M28.4708 127.13H30.5623C31.0746 127.13 31.3449 127.4 31.3733 127.941L31.7433 136.948H29.6944L29.3814 128.823H29.1253L27.6455 134.899C27.5507 135.363 27.2614 135.596 26.7776 135.596H25.3548C24.871 135.596 24.5722 135.363 24.4584 134.899L22.9644 128.823H22.7225L22.438 136.948H20.4033L20.759 127.941C20.778 127.4 21.0483 127.13 21.57 127.13H23.6616C24.1169 127.13 24.4015 127.362 24.5153 127.827L25.7105 132.722C25.7484 132.911 25.7959 133.177 25.8528 133.518C25.9192 133.86 25.9571 134.054 25.9666 134.102H26.1516C26.161 134.054 26.1942 133.86 26.2512 133.518C26.3176 133.177 26.3697 132.911 26.4077 132.722L27.5886 127.827C27.693 127.362 27.987 127.13 28.4708 127.13Z" fill="white"/>
<path d="M38.3177 134.372H34.9455L34.2341 136.948H32.0145L34.8459 127.699C34.8839 127.528 34.974 127.391 35.1163 127.286C35.2586 127.182 35.4198 127.13 35.6 127.13H37.6489C38.0568 127.13 38.3082 127.32 38.403 127.699L41.2345 136.948H39.0291L38.3177 134.372ZM37.8481 132.693L37.0229 129.691C36.909 129.217 36.8427 128.909 36.8237 128.766H36.4395C36.4205 128.861 36.3873 129.013 36.3399 129.222C36.2925 129.43 36.2545 129.587 36.2261 129.691L35.4008 132.693H37.8481Z" fill="white"/>
<path d="M41.6953 136.948V127.13C42.5775 127.045 43.8248 127.002 45.4374 127.002C46.8033 127.002 47.7376 127.225 48.2403 127.671C48.7526 128.116 49.0087 128.961 49.0087 130.203C49.0087 131.446 48.7668 132.295 48.283 132.75C47.8088 133.196 46.9551 133.419 45.7219 133.419C45.0959 133.419 44.4793 133.381 43.8723 133.305V136.948H41.6953ZM43.8723 131.754H45.3805C45.9496 131.745 46.3338 131.636 46.5329 131.427C46.7321 131.218 46.8317 130.81 46.8317 130.203C46.8317 129.596 46.7321 129.188 46.5329 128.98C46.3338 128.771 45.9496 128.667 45.3805 128.667L43.8723 128.681V131.754Z" fill="white"/>
<path d="M54.3188 131.797V131.854C54.4991 131.882 54.6651 131.915 54.8168 131.953C54.9686 131.982 55.1109 132.034 55.2437 132.11C55.386 132.186 55.5093 132.252 55.6136 132.309C55.7179 132.366 55.8223 132.47 55.9266 132.622C56.0405 132.764 56.1306 132.878 56.197 132.964C56.2729 133.049 56.3582 133.205 56.4531 133.433C56.5574 133.661 56.6381 133.841 56.695 133.974C56.7519 134.097 56.8325 134.32 56.9368 134.643C57.0507 134.965 57.136 135.216 57.193 135.397C57.2499 135.567 57.3447 135.861 57.4775 136.279C57.5724 136.573 57.6435 136.796 57.6909 136.948H55.4286C54.8975 135.212 54.537 134.149 54.3473 133.76C54.0532 133.163 53.6833 132.807 53.2375 132.693C53.0667 132.646 52.8723 132.622 52.6541 132.622H51.9569C52.0328 132.973 52.0708 133.286 52.0708 133.561V136.948H49.9081V127.13H52.0708V129.904C52.0708 130.274 52.0328 130.663 51.9569 131.071H52.6257C53.2991 131.071 53.7829 130.815 54.077 130.303C54.3805 129.791 54.7504 128.78 55.1868 127.272C55.2057 127.206 55.22 127.158 55.2294 127.13H57.4348C56.9036 128.799 56.5669 129.791 56.4246 130.104C56.0926 130.844 55.6753 131.332 55.1725 131.569C54.9354 131.674 54.6508 131.749 54.3188 131.797Z" fill="white"/>
<path d="M64.9288 135.254L65.0142 136.848C64.132 136.943 62.6143 136.99 60.4611 136.99C59.8066 136.99 59.2849 136.815 58.896 136.464C58.5071 136.103 58.3127 135.62 58.3127 135.012V129.065C58.3127 128.458 58.5071 127.979 58.896 127.628C59.2944 127.268 59.8161 127.087 60.4611 127.087C62.6143 127.087 64.132 127.135 65.0142 127.23L64.9288 128.837H61.1441C60.907 128.837 60.7362 128.894 60.6319 129.008C60.5275 129.122 60.4754 129.307 60.4754 129.563V131.057H64.3881V132.622H60.4754V134.514C60.4754 134.78 60.5275 134.97 60.6319 135.084C60.7362 135.197 60.907 135.254 61.1441 135.254H64.9288Z" fill="white"/>
<path d="M73.3256 128.894H70.3946V136.948H68.2177V128.894H65.2866V127.13H73.3256V128.894Z" fill="white"/>
<path d="M82.0986 136.948H80.0213V131.085C80.0213 130.649 80.064 130.208 80.1493 129.762H80.0497C79.9074 130.199 79.7225 130.63 79.4948 131.057L76.1796 136.948H74.0312V127.13H76.0943V132.892C76.0943 133.3 76.0563 133.756 75.9804 134.258H76.0658C76.1891 133.898 76.3788 133.471 76.6349 132.978L79.9501 127.13H82.0986V136.948Z" fill="white"/>
<path d="M91.3746 127.13V136.948H89.1976V132.565H85.7402V136.948H83.5775V127.13H85.7402V130.886H89.1976V127.13H91.3746Z" fill="white"/>
<path d="M92.8171 136.948V129.179C92.8171 128.562 93.0115 128.06 93.4005 127.671C93.7894 127.282 94.2826 127.087 94.8802 127.087C96.9291 127.087 98.3804 127.139 99.2341 127.244L99.1345 128.837H95.7623C95.4873 128.837 95.2881 128.899 95.1648 129.022C95.0509 129.136 94.994 129.335 94.994 129.62V136.948H92.8171Z" fill="white"/>
<defs>
<linearGradient id="paint0_linear" x1="141.419" y1="18.5752" x2="16.0399" y2="142.997" gradientUnits="userSpaceOnUse">
<stop stop-color="#74EBD5"/>
<stop offset="1" stop-color="#0575E6"/>
</linearGradient>
<linearGradient id="paint1_linear" x1="311.784" y1="18.5752" x2="186.405" y2="142.997" gradientUnits="userSpaceOnUse">
<stop stop-color="#74EBD5"/>
<stop offset="1" stop-color="#0575E6"/>
</linearGradient>
<linearGradient id="paint2_linear" x1="141.419" y1="534.351" x2="16.0399" y2="658.773" gradientUnits="userSpaceOnUse">
<stop stop-color="#74EBD5"/>
<stop offset="1" stop-color="#0575E6"/>
</linearGradient>
<linearGradient id="paint3_linear" x1="141.419" y1="190.251" x2="16.0399" y2="314.673" gradientUnits="userSpaceOnUse">
<stop stop-color="#74EBD5"/>
<stop offset="1" stop-color="#0575E6"/>
</linearGradient>
<linearGradient id="paint4_linear" x1="311.784" y1="190.251" x2="186.405" y2="314.673" gradientUnits="userSpaceOnUse">
<stop stop-color="#74EBD5"/>
<stop offset="1" stop-color="#0575E6"/>
</linearGradient>
<linearGradient id="paint5_linear" x1="141.419" y1="361.927" x2="16.0399" y2="486.349" gradientUnits="userSpaceOnUse">
<stop stop-color="#74EBD5"/>
<stop offset="1" stop-color="#0575E6"/>
</linearGradient>
<linearGradient id="paint6_linear" x1="311.784" y1="361.927" x2="186.405" y2="486.349" gradientUnits="userSpaceOnUse">
<stop stop-color="#74EBD5"/>
<stop offset="1" stop-color="#0575E6"/>
</linearGradient>
<linearGradient id="paint7_linear" x1="312.159" y1="534.351" x2="186.78" y2="658.773" gradientUnits="userSpaceOnUse">
<stop stop-color="#74EBD5"/>
<stop offset="1" stop-color="#0575E6"/>
</linearGradient>
</defs>
</svg>
