<svg width="970" height="224" viewBox="0 0 970 224" fill="none" xmlns="http://www.w3.org/2000/svg">
<rect width="970" height="224" rx="8" fill="url(#paint0_linear)"/>
<path d="M510.704 88V71.44C512.192 71.296 514.296 71.224 517.016 71.224C519.32 71.224 520.896 71.6 521.744 72.352C522.608 73.104 523.04 74.528 523.04 76.624C523.04 78.72 522.632 80.152 521.816 80.92C521.016 81.672 519.576 82.048 517.496 82.048C516.44 82.048 515.4 81.984 514.376 81.856V88H510.704ZM514.376 79.24H516.92C517.88 79.224 518.528 79.04 518.864 78.688C519.2 78.336 519.368 77.648 519.368 76.624C519.368 75.6 519.2 74.912 518.864 74.56C518.528 74.208 517.88 74.032 516.92 74.032L514.376 74.056V79.24ZM532.743 83.272H528.471C528.583 84.136 528.847 84.72 529.263 85.024C529.679 85.312 530.351 85.456 531.279 85.456C532.543 85.456 534.015 85.368 535.695 85.192L536.031 87.4C534.799 87.992 533.079 88.288 530.871 88.288C528.647 88.288 527.063 87.808 526.119 86.848C525.175 85.888 524.703 84.304 524.703 82.096C524.703 79.792 525.167 78.176 526.095 77.248C527.023 76.304 528.567 75.832 530.727 75.832C532.695 75.832 534.119 76.176 534.999 76.864C535.879 77.536 536.327 78.568 536.343 79.96C536.343 81.064 536.055 81.896 535.479 82.456C534.919 83 534.007 83.272 532.743 83.272ZM528.399 81.136H531.759C532.207 81.136 532.503 81.032 532.647 80.824C532.791 80.616 532.863 80.312 532.863 79.912C532.863 79.352 532.719 78.968 532.431 78.76C532.143 78.536 531.615 78.424 530.847 78.424C529.935 78.424 529.311 78.608 528.975 78.976C528.639 79.328 528.447 80.048 528.399 81.136ZM545.666 81.784V81.88C546.146 81.944 546.538 82.016 546.842 82.096C547.146 82.16 547.442 82.304 547.73 82.528C548.018 82.752 548.234 82.96 548.378 83.152C548.538 83.344 548.738 83.72 548.978 84.28C549.218 84.824 549.41 85.328 549.554 85.792C549.714 86.256 549.954 86.992 550.274 88H546.578C545.874 85.76 545.354 84.384 545.018 83.872C544.682 83.36 544.09 83.104 543.242 83.104H542.162C542.242 83.504 542.282 83.84 542.282 84.112V88H538.754V76.168H542.282V79.192C542.282 79.672 542.234 80.152 542.138 80.632H543.026C543.938 80.632 544.57 80.376 544.922 79.864C545.274 79.336 545.73 78.104 546.29 76.168H549.89C549.154 78.392 548.658 79.736 548.402 80.2C548.018 80.904 547.45 81.36 546.698 81.568C546.426 81.648 546.082 81.72 545.666 81.784ZM563.461 76.168V88H559.909V78.64H558.373C557.973 78.64 557.677 78.728 557.485 78.904C557.309 79.08 557.189 79.384 557.125 79.816C556.789 82.472 556.501 84.264 556.261 85.192C555.781 87.464 554.173 88.44 551.437 88.12L551.077 85.48C551.733 85.368 552.197 85.24 552.469 85.096C552.757 84.936 552.965 84.64 553.093 84.208C553.397 83.312 553.653 81.632 553.861 79.168C554.053 77.168 555.149 76.168 557.149 76.168H563.461ZM566.769 78.808L566.457 76.408C568.585 76.024 570.633 75.832 572.601 75.832C574.201 75.832 575.377 76.16 576.129 76.816C576.897 77.456 577.281 78.576 577.281 80.176V88H574.473L574.113 86.2C572.929 87.592 571.465 88.288 569.721 88.288C568.585 88.288 567.657 87.992 566.937 87.4C566.233 86.792 565.881 85.952 565.881 84.88V83.68C565.881 82.736 566.201 82 566.841 81.472C567.481 80.944 568.369 80.68 569.505 80.68H573.729V80.152C573.713 79.56 573.569 79.16 573.297 78.952C573.041 78.728 572.537 78.616 571.785 78.616C570.489 78.616 568.817 78.68 566.769 78.808ZM569.385 83.944V84.4C569.385 85.216 569.841 85.624 570.753 85.624C571.697 85.624 572.689 85.24 573.729 84.472V82.816H570.537C569.769 82.832 569.385 83.208 569.385 83.944ZM591.328 76.168H594.544C595.344 76.168 595.76 76.576 595.792 77.392L596.176 88H592.936L592.6 78.76H592.264L590.344 85.384C590.168 86.12 589.728 86.488 589.024 86.488H587.104C586.368 86.488 585.912 86.12 585.736 85.384L583.84 78.76H583.504L583.216 88H580L580.36 77.392C580.36 76.576 580.776 76.168 581.608 76.168H584.776C585.512 76.168 585.952 76.536 586.096 77.272L587.584 82.504C587.664 82.808 587.776 83.392 587.92 84.256H588.184C588.2 84.176 588.24 83.92 588.304 83.488C588.384 83.056 588.456 82.728 588.52 82.504L589.984 77.272C590.128 76.536 590.576 76.168 591.328 76.168ZM610.461 76.168V88H606.981V82.984H602.493V88H598.989V76.168H602.493V80.512H606.981V76.168H610.461ZM616.881 80.272H618.657C620.737 80.272 622.161 80.552 622.929 81.112C623.697 81.656 624.081 82.688 624.081 84.208C624.081 85.696 623.713 86.728 622.977 87.304C622.241 87.864 621.009 88.144 619.281 88.144C616.833 88.144 614.929 88.096 613.569 88H613.473V76.168H616.881V80.272ZM629.145 76.168V88H625.593V76.168H629.145ZM616.881 85.648H618.657C619.393 85.648 619.881 85.552 620.121 85.36C620.377 85.152 620.505 84.72 620.505 84.064C620.505 83.44 620.377 83.024 620.121 82.816C619.881 82.608 619.393 82.504 618.657 82.504H616.881V85.648ZM639.688 83.272H635.416C635.528 84.136 635.792 84.72 636.208 85.024C636.624 85.312 637.296 85.456 638.224 85.456C639.488 85.456 640.96 85.368 642.64 85.192L642.976 87.4C641.744 87.992 640.024 88.288 637.816 88.288C635.592 88.288 634.008 87.808 633.064 86.848C632.12 85.888 631.648 84.304 631.648 82.096C631.648 79.792 632.112 78.176 633.04 77.248C633.968 76.304 635.512 75.832 637.672 75.832C639.64 75.832 641.064 76.176 641.944 76.864C642.824 77.536 643.272 78.568 643.288 79.96C643.288 81.064 643 81.896 642.424 82.456C641.864 83 640.952 83.272 639.688 83.272ZM635.344 81.136H638.704C639.152 81.136 639.448 81.032 639.592 80.824C639.736 80.616 639.808 80.312 639.808 79.912C639.808 79.352 639.664 78.968 639.376 78.76C639.088 78.536 638.56 78.424 637.792 78.424C636.88 78.424 636.256 78.608 635.92 78.976C635.584 79.328 635.392 80.048 635.344 81.136ZM650.687 78.856L650.447 76.408C651.615 76.056 652.999 75.88 654.599 75.88C656.791 75.88 658.303 76.088 659.135 76.504C659.967 76.92 660.383 77.784 660.383 79.096C660.383 80.008 660.191 80.68 659.807 81.112C659.423 81.544 658.775 81.792 657.863 81.856V81.952C658.919 82.032 659.679 82.328 660.143 82.84C660.623 83.336 660.863 84.072 660.863 85.048C660.863 86.36 660.447 87.232 659.615 87.664C658.799 88.08 657.391 88.288 655.391 88.288C653.343 88.288 651.575 88.128 650.087 87.808L650.327 85.36C652.055 85.52 653.655 85.6 655.127 85.6C655.975 85.6 656.535 85.528 656.807 85.384C657.079 85.224 657.215 84.88 657.215 84.352C657.215 83.872 657.071 83.56 656.783 83.416C656.511 83.256 655.967 83.168 655.151 83.152L651.743 83.104V80.872L655.127 80.824C655.831 80.824 656.303 80.752 656.543 80.608C656.799 80.448 656.927 80.128 656.927 79.648C656.927 79.216 656.783 78.936 656.495 78.808C656.207 78.68 655.631 78.616 654.767 78.616C653.295 78.616 651.935 78.696 650.687 78.856ZM663.589 78.808L663.277 76.408C665.405 76.024 667.453 75.832 669.421 75.832C671.021 75.832 672.197 76.16 672.949 76.816C673.717 77.456 674.101 78.576 674.101 80.176V88H671.293L670.933 86.2C669.749 87.592 668.285 88.288 666.541 88.288C665.405 88.288 664.477 87.992 663.757 87.4C663.053 86.792 662.701 85.952 662.701 84.88V83.68C662.701 82.736 663.021 82 663.661 81.472C664.301 80.944 665.189 80.68 666.325 80.68H670.549V80.152C670.533 79.56 670.389 79.16 670.117 78.952C669.861 78.728 669.357 78.616 668.605 78.616C667.309 78.616 665.637 78.68 663.589 78.808ZM666.205 83.944V84.4C666.205 85.216 666.661 85.624 667.573 85.624C668.517 85.624 669.509 85.24 670.549 84.472V82.816H667.357C666.589 82.832 666.205 83.208 666.205 83.944ZM687.356 78.904H683.42V88H679.916V78.904H675.98V76.168H687.356V78.904ZM692.197 76.168L692.461 77.896C692.957 77.304 693.637 76.816 694.501 76.432C695.381 76.048 696.269 75.856 697.165 75.856C699.901 75.856 701.269 77.968 701.269 82.192C701.269 84.464 700.901 86.056 700.165 86.968C699.429 87.864 698.285 88.312 696.733 88.312C695.133 88.312 693.813 87.928 692.773 87.16C692.853 87.976 692.877 88.824 692.845 89.704V92.56H689.317V76.168H692.197ZM692.845 79.768V85.192C694.093 85.512 694.989 85.672 695.533 85.672C696.333 85.672 696.877 85.448 697.165 85C697.469 84.552 697.621 83.616 697.621 82.192C697.621 80.8 697.485 79.864 697.213 79.384C696.941 78.888 696.461 78.64 695.773 78.64C694.973 78.64 693.997 79.016 692.845 79.768ZM704.066 78.808L703.754 76.408C705.882 76.024 707.93 75.832 709.898 75.832C711.498 75.832 712.674 76.16 713.426 76.816C714.194 77.456 714.578 78.576 714.578 80.176V88H711.77L711.41 86.2C710.226 87.592 708.762 88.288 707.018 88.288C705.882 88.288 704.954 87.992 704.234 87.4C703.53 86.792 703.178 85.952 703.178 84.88V83.68C703.178 82.736 703.498 82 704.138 81.472C704.778 80.944 705.666 80.68 706.802 80.68H711.026V80.152C711.01 79.56 710.866 79.16 710.594 78.952C710.338 78.728 709.834 78.616 709.082 78.616C707.786 78.616 706.114 78.68 704.066 78.808ZM706.682 83.944V84.4C706.682 85.216 707.138 85.624 708.05 85.624C708.994 85.624 709.986 85.24 711.026 84.472V82.816H707.834C707.066 82.832 706.682 83.208 706.682 83.944ZM727.833 78.904H723.897V88H720.393V78.904H716.457V76.168H727.833V78.904ZM733.201 80.272H734.977C737.057 80.272 738.481 80.552 739.249 81.112C740.017 81.656 740.401 82.688 740.401 84.208C740.401 85.696 740.033 86.728 739.297 87.304C738.561 87.864 737.329 88.144 735.601 88.144C733.153 88.144 731.249 88.096 729.889 88H729.793V76.168H733.201V80.272ZM745.465 76.168V88H741.913V76.168H745.465ZM733.201 85.648H734.977C735.713 85.648 736.201 85.552 736.441 85.36C736.697 85.152 736.825 84.72 736.825 84.064C736.825 83.44 736.697 83.024 736.441 82.816C736.201 82.608 735.713 82.504 734.977 82.504H733.201V85.648Z" fill="white"/>
<path d="M586.832 135.44V152H583.184V138.08H577.376V152H573.728V135.44H586.832ZM592.962 140.168L593.226 141.896C593.722 141.304 594.402 140.816 595.266 140.432C596.146 140.048 597.034 139.856 597.93 139.856C600.666 139.856 602.034 141.968 602.034 146.192C602.034 148.464 601.666 150.056 600.93 150.968C600.194 151.864 599.05 152.312 597.498 152.312C595.898 152.312 594.578 151.928 593.538 151.16C593.618 151.976 593.642 152.824 593.61 153.704V156.56H590.082V140.168H592.962ZM593.61 143.768V149.192C594.858 149.512 595.754 149.672 596.298 149.672C597.098 149.672 597.642 149.448 597.93 149C598.234 148.552 598.386 147.616 598.386 146.192C598.386 144.8 598.25 143.864 597.978 143.384C597.706 142.888 597.226 142.64 596.538 142.64C595.738 142.64 594.762 143.016 593.61 143.768ZM605.383 141.248C606.311 140.304 607.887 139.832 610.111 139.832C612.335 139.832 613.903 140.304 614.815 141.248C615.727 142.192 616.183 143.808 616.183 146.096C616.183 148.368 615.727 149.976 614.815 150.92C613.903 151.848 612.335 152.312 610.111 152.312C607.887 152.312 606.311 151.848 605.383 150.92C604.471 149.976 604.015 148.368 604.015 146.096C604.015 143.808 604.471 142.192 605.383 141.248ZM610.111 142.496C609.167 142.496 608.535 142.736 608.215 143.216C607.895 143.696 607.735 144.656 607.735 146.096C607.735 147.504 607.895 148.448 608.215 148.928C608.535 149.408 609.167 149.648 610.111 149.648C611.039 149.648 611.663 149.408 611.983 148.928C612.319 148.448 612.487 147.504 612.487 146.096C612.487 144.672 612.319 143.72 611.983 143.24C611.663 142.744 611.039 142.496 610.111 142.496ZM631.379 149.456V155.384H629.051L628.787 152H619.931L619.691 155.384H617.363V149.456H618.851C619.555 147.648 620.043 145.512 620.315 143.048C620.507 141.128 621.635 140.168 623.699 140.168H629.507V149.456H631.379ZM626.171 149.456V142.568H624.635C623.915 142.568 623.515 142.944 623.435 143.696C623.163 146.048 622.675 147.968 621.971 149.456H626.171ZM633.753 142.808L633.441 140.408C635.569 140.024 637.617 139.832 639.585 139.832C641.185 139.832 642.361 140.16 643.113 140.816C643.881 141.456 644.265 142.576 644.265 144.176V152H641.457L641.097 150.2C639.913 151.592 638.449 152.288 636.705 152.288C635.569 152.288 634.641 151.992 633.921 151.4C633.217 150.792 632.865 149.952 632.865 148.88V147.68C632.865 146.736 633.185 146 633.825 145.472C634.465 144.944 635.353 144.68 636.489 144.68H640.713V144.152C640.697 143.56 640.553 143.16 640.281 142.952C640.025 142.728 639.521 142.616 638.769 142.616C637.473 142.616 635.801 142.68 633.753 142.808ZM636.369 147.944V148.4C636.369 149.216 636.825 149.624 637.737 149.624C638.681 149.624 639.673 149.24 640.713 148.472V146.816H637.521C636.753 146.832 636.369 147.208 636.369 147.944ZM660.304 145.76V145.856C660.656 145.904 660.952 145.96 661.192 146.024C661.448 146.072 661.696 146.16 661.936 146.288C662.176 146.416 662.368 146.536 662.512 146.648C662.672 146.744 662.84 146.936 663.016 147.224C663.208 147.496 663.352 147.736 663.448 147.944C663.56 148.152 663.704 148.504 663.88 149C664.072 149.48 664.224 149.912 664.336 150.296C664.464 150.68 664.648 151.248 664.888 152H661.312C660.528 149.76 659.976 148.376 659.656 147.848C659.336 147.32 658.832 147.056 658.144 147.056H656.968C657.064 147.408 657.112 147.752 657.112 148.088V152H653.992V148.088C653.992 147.8 654.032 147.456 654.112 147.056H652.888C652.232 147.056 651.744 147.32 651.424 147.848C651.12 148.36 650.56 149.744 649.744 152H646.168C646.424 151.216 646.608 150.648 646.72 150.296C646.832 149.944 646.984 149.512 647.176 149C647.368 148.472 647.512 148.12 647.608 147.944C647.704 147.752 647.848 147.512 648.04 147.224C648.232 146.92 648.4 146.728 648.544 146.648C648.688 146.552 648.88 146.432 649.12 146.288C649.36 146.144 649.6 146.048 649.84 146C650.096 145.952 650.408 145.904 650.776 145.856V145.76C649.592 145.616 648.792 145.272 648.376 144.728C647.96 144.168 647.424 142.896 646.768 140.912C646.672 140.592 646.592 140.344 646.528 140.168H650.008C650.664 142.072 651.16 143.296 651.496 143.84C651.832 144.384 652.344 144.656 653.032 144.656H654.136C654.04 144.208 653.992 143.736 653.992 143.24V140.168H657.112V143.24C657.112 143.736 657.064 144.208 656.968 144.656H658C658.704 144.656 659.216 144.392 659.536 143.864C659.856 143.336 660.352 142.104 661.024 140.168H664.528C663.792 142.376 663.296 143.72 663.04 144.2C662.624 144.92 662.024 145.384 661.24 145.592C660.984 145.656 660.672 145.712 660.304 145.76ZM678.43 152.024H675.262V145.832C675.262 145.368 675.302 144.736 675.382 143.936H675.286C675.11 144.512 674.814 145.096 674.398 145.688L669.934 152H666.91V140.168H670.054V146.48C670.054 146.928 670.014 147.512 669.934 148.232H670.006C670.214 147.704 670.51 147.168 670.894 146.624L675.406 140.168H678.43V152.024Z" fill="white"/>
<path d="M246.414 130.616L247.662 141.464C241.902 143.256 234.83 144.152 226.446 144.152C216.206 144.152 209.006 141.592 204.846 136.472C200.686 131.352 198.606 122.488 198.606 109.88C198.606 97.272 200.686 88.408 204.846 83.288C209.006 78.168 216.206 75.608 226.446 75.608C233.87 75.608 240.494 76.344 246.318 77.816L245.07 88.76C239.886 88.44 233.678 88.28 226.446 88.28C221.646 88.28 218.35 89.816 216.558 92.888C214.83 95.896 213.966 101.56 213.966 109.88C213.966 118.2 214.83 123.896 216.558 126.968C218.35 129.976 221.646 131.48 226.446 131.48C235.342 131.48 241.998 131.192 246.414 130.616ZM260.062 82.904C264.222 77.976 271.614 75.512 282.238 75.512C292.862 75.512 300.254 77.976 304.414 82.904C308.574 87.768 310.654 96.76 310.654 109.88C310.654 123 308.574 132.024 304.414 136.952C300.254 141.816 292.862 144.248 282.238 144.248C271.614 144.248 264.222 141.816 260.062 136.952C255.966 132.024 253.918 123 253.918 109.88C253.918 96.76 255.966 87.768 260.062 82.904ZM292.414 92.024C290.622 88.888 287.23 87.32 282.238 87.32C277.246 87.32 273.822 88.888 271.966 92.024C270.174 95.16 269.278 101.112 269.278 109.88C269.278 118.648 270.174 124.6 271.966 127.736C273.822 130.872 277.246 132.44 282.238 132.44C287.23 132.44 290.622 130.872 292.414 127.736C294.27 124.6 295.198 118.648 295.198 109.88C295.198 101.112 294.27 95.16 292.414 92.024ZM346.231 117.944L332.887 113.24C327.959 111.448 324.439 109.016 322.327 105.944C320.215 102.872 319.159 98.84 319.159 93.848C319.159 86.552 320.919 81.688 324.439 79.256C328.023 76.76 334.295 75.512 343.255 75.512C351.703 75.512 358.967 76.376 365.047 78.104L364.087 88.088C358.519 87.896 351.607 87.8 343.351 87.8C339.511 87.8 336.951 88.152 335.671 88.856C334.391 89.496 333.751 91.16 333.751 93.848C333.751 96.024 334.231 97.592 335.191 98.552C336.151 99.512 337.975 100.44 340.663 101.336L353.239 105.656C358.359 107.448 361.975 109.912 364.087 113.048C366.199 116.12 367.255 120.152 367.255 125.144C367.255 132.568 365.463 137.624 361.879 140.312C358.295 142.936 351.895 144.248 342.679 144.248C335.191 144.248 327.607 143.416 319.927 141.752L320.791 131.192C334.423 131.512 341.719 131.672 342.679 131.672C346.583 131.672 349.175 131.256 350.455 130.424C351.799 129.592 352.471 127.864 352.471 125.24C352.471 123 352.023 121.432 351.127 120.536C350.231 119.576 348.599 118.712 346.231 117.944Z" fill="white"/>
<path d="M434.178 109.96H415.818V105.76H434.178V109.96ZM434.178 118.48H415.818V114.28H434.178V118.48Z" fill="white"/>
<line x1="477" y1="111.5" x2="778" y2="111.5" stroke="white"/>
<defs>
<linearGradient id="paint0_linear" x1="1087.5" y1="-96.5" x2="-168" y2="405.5" gradientUnits="userSpaceOnUse">
<stop offset="0.147013" stop-color="#FFBD6F"/>
<stop offset="0.475483" stop-color="#E87D7C"/>
<stop offset="0.495438" stop-color="#E5787E"/>
<stop offset="0.837254" stop-color="#B0539C"/>
<stop offset="1" stop-color="#5321E2"/>
</linearGradient>
</defs>
</svg>
