<svg width="375" height="157" viewBox="0 0 375 157" fill="none" xmlns="http://www.w3.org/2000/svg">
<g opacity="0.8" filter="url(#filter0_f)">
<path fill-rule="evenodd" clip-rule="evenodd" d="M94.2883 59.7892C92.9716 59.7892 91.7391 59.1412 90.9928 58.0563L88.0185 53.7329C86.429 51.4224 83.0171 51.4224 81.4276 53.7329L78.4533 58.0563C77.707 59.1412 76.4746 59.7892 75.1578 59.7892H46C43.7909 59.7892 42 61.5801 42 63.7892V102.511C42 104.72 43.7909 106.511 46 106.511H329C331.209 106.511 333 104.72 333 102.511V63.7892C333 61.5801 331.209 59.7892 329 59.7892H94.2883Z" fill="url(#paint0_linear)"/>
</g>
<path fill-rule="evenodd" clip-rule="evenodd" d="M202.749 11C201.688 11 200.67 10.5786 199.92 9.82843L191.263 1.17157C189.701 -0.390525 187.169 -0.390523 185.607 1.17157L176.95 9.82843C176.2 10.5786 175.182 11 174.121 11H27C24.7909 11 23 12.7909 23 15V87C23 89.2091 24.7909 91 27 91H348C350.209 91 352 89.2091 352 87V15C352 12.7909 350.209 11 348 11H202.749Z" fill="url(#paint1_linear)"/>
<path d="M62.9034 33.896L62.7114 32.136C63.6714 31.9333 64.8394 31.832 66.2154 31.832C67.6448 31.832 68.6368 32.0347 69.1914 32.44C69.7461 32.8347 70.0234 33.592 70.0234 34.712C70.0234 35.512 69.8741 36.12 69.5754 36.536C69.2768 36.9413 68.7968 37.176 68.1354 37.24V37.304C68.9354 37.3787 69.5061 37.6613 69.8474 38.152C70.1888 38.632 70.3594 39.3307 70.3594 40.248C70.3594 41.3467 70.0821 42.104 69.5274 42.52C68.9728 42.9253 68.0341 43.128 66.7114 43.128C65.0048 43.128 63.5968 42.968 62.4874 42.648L62.6634 40.968C63.9434 41.1707 65.1381 41.272 66.2474 41.272C66.8768 41.272 67.2981 41.176 67.5114 40.984C67.7354 40.7813 67.8474 40.3813 67.8474 39.784C67.8474 39.144 67.7301 38.712 67.4954 38.488C67.2714 38.264 66.8341 38.1413 66.1834 38.12H64.0554V36.408H66.1674C66.7221 36.408 67.1008 36.3173 67.3034 36.136C67.5061 35.944 67.6074 35.5813 67.6074 35.048C67.6074 34.504 67.4954 34.1413 67.2714 33.96C67.0581 33.7787 66.6528 33.688 66.0554 33.688C65.2234 33.688 64.1728 33.7573 62.9034 33.896ZM72.2703 36.872L72.0623 35.272C73.481 35.016 74.8463 34.888 76.1583 34.888C77.225 34.888 78.009 35.1067 78.5103 35.544C79.0223 35.9707 79.2783 36.7173 79.2783 37.784V43H77.4063L77.1663 41.8C76.377 42.728 75.401 43.192 74.2383 43.192C73.481 43.192 72.8623 42.9947 72.3823 42.6C71.913 42.1947 71.6783 41.6347 71.6783 40.92V40.12C71.6783 39.4907 71.8916 39 72.3183 38.648C72.745 38.296 73.337 38.12 74.0943 38.12H76.9103V37.768C76.8996 37.3733 76.8036 37.1067 76.6223 36.968C76.4516 36.8187 76.1156 36.744 75.6143 36.744C74.7503 36.744 73.6356 36.7867 72.2703 36.872ZM74.0143 40.296V40.6C74.0143 41.144 74.3183 41.416 74.9263 41.416C75.5556 41.416 76.217 41.16 76.9103 40.648V39.544H74.7823C74.2703 39.5547 74.0143 39.8053 74.0143 40.296ZM88.7229 35.096V43H86.4349V36.792H83.5229V43H81.2189V35.096H88.7229ZM98.6066 35.112L95.8066 43.112C95.3906 44.4133 94.6706 45.3253 93.6466 45.848C92.8572 46.296 91.7799 46.4027 90.4146 46.168L90.6066 44.6C91.5772 44.632 92.2652 44.5253 92.6706 44.28C93.0866 44.0347 93.4172 43.608 93.6626 43H93.2146C92.8092 43 92.5479 42.808 92.4306 42.424L89.8706 35.112H92.3826L93.8546 40.216C93.9826 40.7067 94.0679 41.1013 94.1106 41.4H94.3026C94.4732 40.792 94.5799 40.3973 94.6226 40.216L96.0786 35.112H98.6066ZM106.089 41.128L106.313 42.664C105.491 43.016 104.467 43.192 103.241 43.192C101.79 43.192 100.766 42.8827 100.169 42.264C99.5821 41.6347 99.2888 40.5627 99.2888 39.048C99.2888 37.5227 99.5875 36.4507 100.185 35.832C100.782 35.2027 101.811 34.888 103.273 34.888C104.467 34.888 105.438 35.0533 106.185 35.384L105.929 36.856C104.777 36.8347 104.025 36.824 103.673 36.824C102.947 36.824 102.446 36.9787 102.169 37.288C101.902 37.5973 101.769 38.184 101.769 39.048C101.769 39.912 101.902 40.4987 102.169 40.808C102.446 41.1173 102.947 41.272 103.673 41.272C104.611 41.272 105.417 41.224 106.089 41.128ZM112.389 38.856V38.92C112.709 38.9627 112.971 39.0107 113.173 39.064C113.376 39.1067 113.573 39.2027 113.765 39.352C113.957 39.5013 114.101 39.64 114.197 39.768C114.304 39.896 114.437 40.1467 114.597 40.52C114.757 40.8827 114.885 41.2187 114.981 41.528C115.088 41.8373 115.248 42.328 115.461 43H112.997C112.528 41.5067 112.181 40.5893 111.957 40.248C111.733 39.9067 111.339 39.736 110.773 39.736H110.053C110.107 40.0027 110.133 40.2267 110.133 40.408V43H107.781V35.112H110.133V37.128C110.133 37.448 110.101 37.768 110.037 38.088H110.629C111.237 38.088 111.659 37.9173 111.893 37.576C112.128 37.224 112.432 36.4027 112.805 35.112H115.205C114.715 36.5947 114.384 37.4907 114.213 37.8C113.957 38.2693 113.579 38.5733 113.077 38.712C112.896 38.7653 112.667 38.8133 112.389 38.856ZM127.929 35.112V43H125.609V39.656H122.617V43H120.281V35.112H122.617V38.008H125.609V35.112H127.929ZM130.498 35.832C131.116 35.2027 132.167 34.888 133.65 34.888C135.132 34.888 136.178 35.2027 136.786 35.832C137.394 36.4613 137.698 37.5387 137.698 39.064C137.698 40.5787 137.394 41.6507 136.786 42.28C136.178 42.8987 135.132 43.208 133.65 43.208C132.167 43.208 131.116 42.8987 130.498 42.28C129.89 41.6507 129.586 40.5787 129.586 39.064C129.586 37.5387 129.89 36.4613 130.498 35.832ZM133.65 36.664C133.02 36.664 132.599 36.824 132.386 37.144C132.172 37.464 132.066 38.104 132.066 39.064C132.066 40.0027 132.172 40.632 132.386 40.952C132.599 41.272 133.02 41.432 133.65 41.432C134.268 41.432 134.684 41.272 134.898 40.952C135.122 40.632 135.234 40.0027 135.234 39.064C135.234 38.1147 135.122 37.48 134.898 37.16C134.684 36.8293 134.268 36.664 133.65 36.664ZM144.848 38.904V38.968C145.573 39.0213 146.09 39.2187 146.4 39.56C146.709 39.9013 146.864 40.3973 146.864 41.048C146.864 41.8373 146.613 42.3813 146.112 42.68C145.61 42.9787 144.762 43.128 143.568 43.128C141.765 43.128 140.357 43.096 139.344 43.032V35.112C140.25 35.048 141.509 35.016 143.12 35.016C144.421 35.016 145.322 35.1653 145.824 35.464C146.325 35.752 146.576 36.3013 146.576 37.112C146.576 37.6773 146.437 38.1093 146.16 38.408C145.893 38.696 145.456 38.8613 144.848 38.904ZM141.568 38.248H143.12C143.6 38.248 143.925 38.1893 144.096 38.072C144.277 37.9547 144.368 37.7307 144.368 37.4C144.368 37.1013 144.272 36.8987 144.08 36.792C143.888 36.6853 143.53 36.632 143.008 36.632L141.568 36.616V38.248ZM141.568 41.48H143.168C143.68 41.48 144.032 41.4213 144.224 41.304C144.416 41.176 144.512 40.9253 144.512 40.552C144.512 40.2 144.41 39.96 144.208 39.832C144.005 39.6933 143.642 39.624 143.12 39.624H141.568V41.48ZM150.757 37.848H151.941C153.327 37.848 154.277 38.0347 154.789 38.408C155.301 38.7707 155.557 39.4587 155.557 40.472C155.557 41.464 155.311 42.152 154.821 42.536C154.33 42.9093 153.509 43.096 152.357 43.096C150.725 43.096 149.455 43.064 148.549 43H148.485V35.112H150.757V37.848ZM158.933 35.112V43H156.565V35.112H158.933ZM150.757 41.432H151.941C152.431 41.432 152.757 41.368 152.917 41.24C153.087 41.1013 153.173 40.8133 153.173 40.376C153.173 39.96 153.087 39.6827 152.917 39.544C152.757 39.4053 152.431 39.336 151.941 39.336H150.757V41.432ZM164.521 39.688H164.425L162.553 43H160.121L162.553 38.952L160.313 35.112H162.729L164.409 38.152H164.553L166.233 35.112H168.649L166.409 38.952L168.825 43H166.393L164.521 39.688ZM179.933 41.128L180.157 42.664C179.335 43.016 178.311 43.192 177.085 43.192C175.634 43.192 174.61 42.8827 174.013 42.264C173.426 41.6347 173.133 40.5627 173.133 39.048C173.133 37.5227 173.431 36.4507 174.029 35.832C174.626 35.2027 175.655 34.888 177.117 34.888C178.311 34.888 179.282 35.0533 180.029 35.384L179.773 36.856C178.621 36.8347 177.869 36.824 177.517 36.824C176.791 36.824 176.29 36.9787 176.013 37.288C175.746 37.5973 175.613 38.184 175.613 39.048C175.613 39.912 175.746 40.4987 176.013 40.808C176.29 41.1173 176.791 41.272 177.517 41.272C178.455 41.272 179.261 41.224 179.933 41.128ZM188.521 36.936H185.897V43H183.561V36.936H180.937V35.112H188.521V36.936ZM191.748 35.112L191.924 36.264C192.255 35.8693 192.708 35.544 193.284 35.288C193.871 35.032 194.463 34.904 195.06 34.904C196.884 34.904 197.796 36.312 197.796 39.128C197.796 40.6427 197.551 41.704 197.06 42.312C196.57 42.9093 195.807 43.208 194.772 43.208C193.706 43.208 192.826 42.952 192.132 42.44C192.186 42.984 192.202 43.5493 192.18 44.136V46.04H189.828V35.112H191.748ZM192.18 37.512V41.128C193.012 41.3413 193.61 41.448 193.972 41.448C194.506 41.448 194.868 41.2987 195.06 41C195.263 40.7013 195.364 40.0773 195.364 39.128C195.364 38.2 195.274 37.576 195.092 37.256C194.911 36.9253 194.591 36.76 194.132 36.76C193.599 36.76 192.948 37.0107 192.18 37.512ZM199.661 36.872L199.453 35.272C200.872 35.016 202.237 34.888 203.549 34.888C204.616 34.888 205.4 35.1067 205.901 35.544C206.413 35.9707 206.669 36.7173 206.669 37.784V43H204.797L204.557 41.8C203.768 42.728 202.792 43.192 201.629 43.192C200.872 43.192 200.253 42.9947 199.773 42.6C199.304 42.1947 199.069 41.6347 199.069 40.92V40.12C199.069 39.4907 199.282 39 199.709 38.648C200.136 38.296 200.728 38.12 201.485 38.12H204.301V37.768C204.29 37.3733 204.194 37.1067 204.013 36.968C203.842 36.8187 203.506 36.744 203.005 36.744C202.141 36.744 201.026 36.7867 199.661 36.872ZM201.405 40.296V40.6C201.405 41.144 201.709 41.416 202.317 41.416C202.946 41.416 203.608 41.16 204.301 40.648V39.544H202.173C201.661 39.5547 201.405 39.8053 201.405 40.296ZM216.258 35.112V43H213.938V39.656H210.946V43H208.61V35.112H210.946V38.008H213.938V35.112H216.258ZM225.946 43.016H223.834V38.888C223.834 38.5787 223.86 38.1573 223.914 37.624H223.85C223.732 38.008 223.535 38.3973 223.258 38.792L220.282 43H218.266V35.112H220.362V39.32C220.362 39.6187 220.335 40.008 220.282 40.488H220.33C220.468 40.136 220.666 39.7787 220.922 39.416L223.93 35.112H225.946V43.016ZM236.577 41.304V45.256H235.009L234.833 43H227.969V35.112H230.305V41.304H233.041V35.112H235.377V41.304H236.577ZM249.31 35.112L246.51 43.112C246.094 44.4133 245.374 45.3253 244.35 45.848C243.56 46.296 242.483 46.4027 241.118 46.168L241.31 44.6C242.28 44.632 242.968 44.5253 243.374 44.28C243.79 44.0347 244.12 43.608 244.366 43H243.918C243.512 43 243.251 42.808 243.134 42.424L240.574 35.112H243.086L244.558 40.216C244.686 40.7067 244.771 41.1013 244.814 41.4H245.006C245.176 40.792 245.283 40.3973 245.326 40.216L246.782 35.112H249.31ZM255.973 38.904V38.968C256.698 39.0213 257.215 39.2187 257.525 39.56C257.834 39.9013 257.989 40.3973 257.989 41.048C257.989 41.8373 257.738 42.3813 257.237 42.68C256.735 42.9787 255.887 43.128 254.693 43.128C252.89 43.128 251.482 43.096 250.469 43.032V35.112C251.375 35.048 252.634 35.016 254.245 35.016C255.546 35.016 256.447 35.1653 256.949 35.464C257.45 35.752 257.701 36.3013 257.701 37.112C257.701 37.6773 257.562 38.1093 257.285 38.408C257.018 38.696 256.581 38.8613 255.973 38.904ZM252.693 38.248H254.245C254.725 38.248 255.05 38.1893 255.221 38.072C255.402 37.9547 255.493 37.7307 255.493 37.4C255.493 37.1013 255.397 36.8987 255.205 36.792C255.013 36.6853 254.655 36.632 254.133 36.632L252.693 36.616V38.248ZM252.693 41.48H254.293C254.805 41.48 255.157 41.4213 255.349 41.304C255.541 41.176 255.637 40.9253 255.637 40.552C255.637 40.2 255.535 39.96 255.333 39.832C255.13 39.6933 254.767 39.624 254.245 39.624H252.693V41.48ZM264.618 39.848H261.77C261.844 40.424 262.02 40.8133 262.298 41.016C262.575 41.208 263.023 41.304 263.642 41.304C264.484 41.304 265.466 41.2453 266.586 41.128L266.81 42.6C265.988 42.9947 264.842 43.192 263.37 43.192C261.887 43.192 260.831 42.872 260.202 42.232C259.572 41.592 259.258 40.536 259.258 39.064C259.258 37.528 259.567 36.4507 260.186 35.832C260.804 35.2027 261.834 34.888 263.274 34.888C264.586 34.888 265.535 35.1173 266.122 35.576C266.708 36.024 267.007 36.712 267.018 37.64C267.018 38.376 266.826 38.9307 266.442 39.304C266.068 39.6667 265.46 39.848 264.618 39.848ZM261.722 38.424H263.962C264.26 38.424 264.458 38.3547 264.554 38.216C264.65 38.0773 264.698 37.8747 264.698 37.608C264.698 37.2347 264.602 36.9787 264.41 36.84C264.218 36.6907 263.866 36.616 263.354 36.616C262.746 36.616 262.33 36.7387 262.106 36.984C261.882 37.2187 261.754 37.6987 261.722 38.424ZM276.034 35.112V43H273.666V36.76H272.642C272.375 36.76 272.178 36.8187 272.05 36.936C271.933 37.0533 271.853 37.256 271.81 37.544C271.586 39.3147 271.394 40.5093 271.234 41.128C270.914 42.6427 269.842 43.2933 268.018 43.08L267.778 41.32C268.215 41.2453 268.525 41.16 268.706 41.064C268.898 40.9573 269.037 40.76 269.122 40.472C269.325 39.8747 269.495 38.7547 269.634 37.112C269.762 35.7787 270.493 35.112 271.826 35.112H276.034ZM285.727 43.016H283.615V38.888C283.615 38.5787 283.642 38.1573 283.695 37.624H283.631C283.514 38.008 283.316 38.3973 283.039 38.792L280.063 43H278.047V35.112H280.143V39.32C280.143 39.6187 280.116 40.008 280.063 40.488H280.111C280.25 40.136 280.447 39.7787 280.703 39.416L283.711 35.112H285.727V43.016ZM294.774 35.112V43H292.438V40.056C291.532 40.3653 290.646 40.52 289.782 40.52C288.214 40.52 287.43 39.9173 287.43 38.712V35.112H289.766V37.976C289.766 38.2533 289.825 38.4507 289.942 38.568C290.07 38.6747 290.284 38.728 290.582 38.728C291.19 38.728 291.809 38.616 292.438 38.392V35.112H294.774ZM304.508 43.016H302.396V38.888C302.396 38.5787 302.423 38.1573 302.476 37.624H302.412C302.295 38.008 302.098 38.3973 301.82 38.792L298.844 43H296.828V35.112H298.924V39.32C298.924 39.6187 298.898 40.008 298.844 40.488H298.892C299.031 40.136 299.228 39.7787 299.484 39.416L302.492 35.112H304.508V43.016ZM313.971 35.112V43H311.603V36.76H310.579C310.313 36.76 310.115 36.8187 309.987 36.936C309.87 37.0533 309.79 37.256 309.747 37.544C309.523 39.3147 309.331 40.5093 309.171 41.128C308.851 42.6427 307.779 43.2933 305.955 43.08L305.715 41.32C306.153 41.2453 306.462 41.16 306.643 41.064C306.835 40.9573 306.974 40.76 307.059 40.472C307.262 39.8747 307.433 38.7547 307.571 37.112C307.699 35.7787 308.43 35.112 309.763 35.112H313.971ZM113.327 62.856V62.92C113.647 62.9627 113.908 63.0107 114.111 63.064C114.314 63.1067 114.511 63.2027 114.703 63.352C114.895 63.5013 115.039 63.64 115.135 63.768C115.242 63.896 115.375 64.1467 115.535 64.52C115.695 64.8827 115.823 65.2187 115.919 65.528C116.026 65.8373 116.186 66.328 116.399 67H113.935C113.466 65.5067 113.119 64.5893 112.895 64.248C112.671 63.9067 112.276 63.736 111.711 63.736H110.991C111.044 64.0027 111.071 64.2267 111.071 64.408V67H108.719V59.112H111.071V61.128C111.071 61.448 111.039 61.768 110.975 62.088H111.567C112.175 62.088 112.596 61.9173 112.831 61.576C113.066 61.224 113.37 60.4027 113.743 59.112H116.143C115.652 60.5947 115.322 61.4907 115.151 61.8C114.895 62.2693 114.516 62.5733 114.015 62.712C113.834 62.7653 113.604 62.8133 113.327 62.856ZM118.248 59.832C118.866 59.2027 119.917 58.888 121.4 58.888C122.882 58.888 123.928 59.2027 124.536 59.832C125.144 60.4613 125.448 61.5387 125.448 63.064C125.448 64.5787 125.144 65.6507 124.536 66.28C123.928 66.8987 122.882 67.208 121.4 67.208C119.917 67.208 118.866 66.8987 118.248 66.28C117.64 65.6507 117.336 64.5787 117.336 63.064C117.336 61.5387 117.64 60.4613 118.248 59.832ZM121.4 60.664C120.77 60.664 120.349 60.824 120.136 61.144C119.922 61.464 119.816 62.104 119.816 63.064C119.816 64.0027 119.922 64.632 120.136 64.952C120.349 65.272 120.77 65.432 121.4 65.432C122.018 65.432 122.434 65.272 122.648 64.952C122.872 64.632 122.984 64.0027 122.984 63.064C122.984 62.1147 122.872 61.48 122.648 61.16C122.434 60.8293 122.018 60.664 121.4 60.664ZM134.758 59.112V67H132.438V63.656H129.446V67H127.11V59.112H129.446V62.008H132.438V59.112H134.758ZM142.254 62.904V62.968C142.979 63.0213 143.496 63.2187 143.806 63.56C144.115 63.9013 144.27 64.3973 144.27 65.048C144.27 65.8373 144.019 66.3813 143.518 66.68C143.016 66.9787 142.168 67.128 140.974 67.128C139.171 67.128 137.763 67.096 136.75 67.032V59.112C137.656 59.048 138.915 59.016 140.526 59.016C141.827 59.016 142.728 59.1653 143.23 59.464C143.731 59.752 143.982 60.3013 143.982 61.112C143.982 61.6773 143.843 62.1093 143.566 62.408C143.299 62.696 142.862 62.8613 142.254 62.904ZM138.974 62.248H140.526C141.006 62.248 141.331 62.1893 141.502 62.072C141.683 61.9547 141.774 61.7307 141.774 61.4C141.774 61.1013 141.678 60.8987 141.486 60.792C141.294 60.6853 140.936 60.632 140.414 60.632L138.974 60.616V62.248ZM138.974 65.48H140.574C141.086 65.48 141.438 65.4213 141.63 65.304C141.822 65.176 141.918 64.9253 141.918 64.552C141.918 64.2 141.816 63.96 141.614 63.832C141.411 63.6933 141.048 63.624 140.526 63.624H138.974V65.48ZM150.899 63.848H148.051C148.125 64.424 148.301 64.8133 148.579 65.016C148.856 65.208 149.304 65.304 149.923 65.304C150.765 65.304 151.747 65.2453 152.867 65.128L153.091 66.6C152.269 66.9947 151.123 67.192 149.651 67.192C148.168 67.192 147.112 66.872 146.483 66.232C145.853 65.592 145.539 64.536 145.539 63.064C145.539 61.528 145.848 60.4507 146.467 59.832C147.085 59.2027 148.115 58.888 149.555 58.888C150.867 58.888 151.816 59.1173 152.403 59.576C152.989 60.024 153.288 60.712 153.299 61.64C153.299 62.376 153.107 62.9307 152.723 63.304C152.349 63.6667 151.741 63.848 150.899 63.848ZM148.003 62.424H150.243C150.541 62.424 150.739 62.3547 150.835 62.216C150.931 62.0773 150.979 61.8747 150.979 61.608C150.979 61.2347 150.883 60.9787 150.691 60.84C150.499 60.6907 150.147 60.616 149.635 60.616C149.027 60.616 148.611 60.7387 148.387 60.984C148.163 61.2187 148.035 61.6987 148.003 62.424ZM156.826 59.112L157.002 60.264C157.333 59.8693 157.786 59.544 158.362 59.288C158.949 59.032 159.541 58.904 160.138 58.904C161.962 58.904 162.874 60.312 162.874 63.128C162.874 64.6427 162.629 65.704 162.138 66.312C161.648 66.9093 160.885 67.208 159.85 67.208C158.784 67.208 157.904 66.952 157.21 66.44C157.264 66.984 157.28 67.5493 157.258 68.136V70.04H154.906V59.112H156.826ZM157.258 61.512V65.128C158.09 65.3413 158.688 65.448 159.05 65.448C159.584 65.448 159.946 65.2987 160.138 65C160.341 64.7013 160.442 64.0773 160.442 63.128C160.442 62.2 160.352 61.576 160.17 61.256C159.989 60.9253 159.669 60.76 159.21 60.76C158.677 60.76 158.026 61.0107 157.258 61.512ZM170.995 65.128L171.219 66.664C170.398 67.016 169.374 67.192 168.147 67.192C166.696 67.192 165.672 66.8827 165.075 66.264C164.488 65.6347 164.195 64.5627 164.195 63.048C164.195 61.5227 164.494 60.4507 165.091 59.832C165.688 59.2027 166.718 58.888 168.179 58.888C169.374 58.888 170.344 59.0533 171.091 59.384L170.835 60.856C169.683 60.8347 168.931 60.824 168.579 60.824C167.854 60.824 167.352 60.9787 167.075 61.288C166.808 61.5973 166.675 62.184 166.675 63.048C166.675 63.912 166.808 64.4987 167.075 64.808C167.352 65.1173 167.854 65.272 168.579 65.272C169.518 65.272 170.323 65.224 170.995 65.128ZM180.368 67.016H178.256V62.888C178.256 62.5787 178.282 62.1573 178.336 61.624H178.272C178.154 62.008 177.957 62.3973 177.68 62.792L174.704 67H172.688V59.112H174.784V63.32C174.784 63.6187 174.757 64.008 174.704 64.488H174.752C174.89 64.136 175.088 63.7787 175.344 63.416L178.352 59.112H180.368V67.016ZM184.743 62.12H186.295C186.391 60.8827 186.716 60.0347 187.271 59.576C187.825 59.1173 188.743 58.888 190.023 58.888C191.516 58.888 192.551 59.176 193.127 59.752C193.713 60.328 194.007 61.432 194.007 63.064C194.007 64.6533 193.713 65.736 193.127 66.312C192.54 66.8773 191.505 67.16 190.023 67.16C188.711 67.16 187.777 66.92 187.223 66.44C186.668 65.96 186.353 65.0747 186.279 63.784H184.743V67H182.391V59.112H184.743V62.12ZM188.759 64.856C188.961 65.1547 189.372 65.304 189.991 65.304C190.609 65.304 191.025 65.1547 191.239 64.856C191.452 64.5467 191.559 63.9387 191.559 63.032C191.559 62.1147 191.452 61.5067 191.239 61.208C191.025 60.8987 190.609 60.744 189.991 60.744C189.372 60.744 188.961 60.8987 188.759 61.208C188.556 61.5067 188.455 62.1147 188.455 63.032C188.455 63.9387 188.556 64.5467 188.759 64.856ZM205.604 65.128L205.828 66.664C205.007 67.016 203.983 67.192 202.756 67.192C201.306 67.192 200.282 66.8827 199.684 66.264C199.098 65.6347 198.804 64.5627 198.804 63.048C198.804 61.5227 199.103 60.4507 199.7 59.832C200.298 59.2027 201.327 58.888 202.788 58.888C203.983 58.888 204.954 59.0533 205.7 59.384L205.444 60.856C204.292 60.8347 203.54 60.824 203.188 60.824C202.463 60.824 201.962 60.9787 201.684 61.288C201.418 61.5973 201.284 62.184 201.284 63.048C201.284 63.912 201.418 64.4987 201.684 64.808C201.962 65.1173 202.463 65.272 203.188 65.272C204.127 65.272 204.932 65.224 205.604 65.128ZM219.438 62.84V64.344L218.094 64.568H218.062V67H215.806V64.568H211.438C210.958 64.568 210.595 64.3813 210.35 64.008C210.115 63.6347 210.088 63.224 210.27 62.776L213.134 55.96H215.438L212.814 62.312C212.739 62.4933 212.734 62.6267 212.798 62.712C212.862 62.7973 212.974 62.84 213.134 62.84H215.806V59.864L216.206 58.104H218.062V62.84H219.438ZM233.078 65.304V69.256H231.526L231.35 67H225.446L225.286 69.256H223.734V65.304H224.726C225.196 64.0987 225.521 62.6747 225.702 61.032C225.83 59.752 226.582 59.112 227.958 59.112H231.83V65.304H233.078ZM229.606 65.304V60.712H228.582C228.102 60.712 227.836 60.9627 227.782 61.464C227.601 63.032 227.276 64.312 226.806 65.304H229.606ZM235.029 59.832C235.648 59.2027 236.698 58.888 238.181 58.888C239.664 58.888 240.709 59.2027 241.317 59.832C241.925 60.4613 242.229 61.5387 242.229 63.064C242.229 64.5787 241.925 65.6507 241.317 66.28C240.709 66.8987 239.664 67.208 238.181 67.208C236.698 67.208 235.648 66.8987 235.029 66.28C234.421 65.6507 234.117 64.5787 234.117 63.064C234.117 61.5387 234.421 60.4613 235.029 59.832ZM238.181 60.664C237.552 60.664 237.13 60.824 236.917 61.144C236.704 61.464 236.597 62.104 236.597 63.064C236.597 64.0027 236.704 64.632 236.917 64.952C237.13 65.272 237.552 65.432 238.181 65.432C238.8 65.432 239.216 65.272 239.429 64.952C239.653 64.632 239.765 64.0027 239.765 63.064C239.765 62.1147 239.653 61.48 239.429 61.16C239.216 60.8293 238.8 60.664 238.181 60.664ZM246.784 55.96H253.408C253.813 55.96 254.106 56.088 254.288 56.344C254.48 56.5893 254.512 56.8933 254.384 57.256L251.04 67H248.64L251.44 59C251.568 58.6053 251.722 58.2587 251.904 57.96H246.88L246.784 55.96ZM258.053 55.752C259.077 55.752 259.792 55.992 260.197 56.472C260.603 56.952 260.805 57.8053 260.805 59.032C260.805 60.248 260.603 61.1013 260.197 61.592C259.792 62.072 259.077 62.312 258.053 62.312C257.04 62.312 256.331 62.072 255.925 61.592C255.52 61.1013 255.317 60.248 255.317 59.032C255.317 57.8053 255.52 56.952 255.925 56.472C256.331 55.992 257.04 55.752 258.053 55.752ZM259.461 67H257.941L264.565 55.96H266.069L259.461 67ZM258.037 57.064C257.653 57.064 257.392 57.1973 257.253 57.464C257.125 57.72 257.061 58.2427 257.061 59.032C257.061 59.832 257.125 60.36 257.253 60.616C257.392 60.872 257.653 61 258.037 61C258.443 61 258.709 60.872 258.837 60.616C258.976 60.36 259.045 59.832 259.045 59.032C259.045 58.232 258.976 57.704 258.837 57.448C258.709 57.192 258.443 57.064 258.037 57.064ZM265.989 60.616C267.013 60.616 267.728 60.8613 268.133 61.352C268.539 61.832 268.741 62.68 268.741 63.896C268.741 65.1227 268.539 65.9813 268.133 66.472C267.728 66.952 267.013 67.192 265.989 67.192C264.976 67.192 264.267 66.952 263.861 66.472C263.467 65.9813 263.269 65.1227 263.269 63.896C263.269 62.68 263.467 61.832 263.861 61.352C264.267 60.8613 264.976 60.616 265.989 60.616ZM266.773 62.328C266.645 62.072 266.384 61.944 265.989 61.944C265.595 61.944 265.328 62.072 265.189 62.328C265.061 62.5733 265.003 63.096 265.013 63.896C265.003 64.696 265.061 65.224 265.189 65.48C265.328 65.736 265.595 65.864 265.989 65.864C266.384 65.864 266.645 65.736 266.773 65.48C266.912 65.224 266.981 64.696 266.981 63.896C266.981 63.1067 266.912 62.584 266.773 62.328Z" fill="white"/>
<defs>
<filter id="filter0_f" x="-8" y="2" width="391" height="154.511" filterUnits="userSpaceOnUse" color-interpolation-filters="sRGB">
<feFlood flood-opacity="0" result="BackgroundImageFix"/>
<feBlend mode="normal" in="SourceGraphic" in2="BackgroundImageFix" result="shape"/>
<feGaussianBlur stdDeviation="25" result="effect1_foregroundBlur"/>
</filter>
<linearGradient id="paint0_linear" x1="329.269" y1="17.8761" x2="20.1255" y2="78.6664" gradientUnits="userSpaceOnUse">
<stop stop-color="#FFBD6F"/>
<stop offset="0.489444" stop-color="#E5787E"/>
<stop offset="0.985106" stop-color="#B0539C"/>
</linearGradient>
<linearGradient id="paint1_linear" x1="372.441" y1="-121.828" x2="-65.7035" y2="-45.005" gradientUnits="userSpaceOnUse">
<stop offset="0.147013" stop-color="#FFBD6F"/>
<stop offset="0.495438" stop-color="#E5787E"/>
<stop offset="0.837254" stop-color="#B0539C"/>
<stop offset="1" stop-color="#5321E2"/>
</linearGradient>
</defs>
</svg>
