<svg width="339" height="203" viewBox="0 0 339 203" fill="none" xmlns="http://www.w3.org/2000/svg">
<path fill-rule="evenodd" clip-rule="evenodd" d="M179.749 11C178.688 11 177.67 10.5786 176.92 9.82843L168.263 1.17157C166.701 -0.390525 164.169 -0.390523 162.607 1.17157L153.95 9.82843C153.2 10.5786 152.182 11 151.121 11H4C1.79086 11 0 12.7909 0 15V199C0 201.209 1.79086 203 3.99999 203H335C337.209 203 339 201.209 339 199V15C339 12.7909 337.209 11 335 11H179.749Z" fill="url(#paint0_linear)"/>
<path d="M122.934 95.144H114.63V103.16H109.398V95.144H101.094V89.96H109.35V81.896H114.63V89.96H122.934V95.144ZM136.655 73.88H156.527C157.743 73.88 158.623 74.264 159.167 75.032C159.743 75.768 159.839 76.68 159.455 77.768L149.423 107H142.223L150.623 83C151.007 81.816 151.471 80.776 152.015 79.88H136.943L136.655 73.88ZM163.361 79.976L163.073 74.456C166.785 73.688 170.497 73.304 174.209 73.304C177.921 73.304 180.689 73.848 182.513 74.936C184.369 76.024 185.297 78.04 185.297 80.984C185.297 82.968 184.929 84.728 184.193 86.264C183.489 87.768 182.065 89.656 179.921 91.928L171.425 100.76C172.641 100.536 174.273 100.424 176.321 100.424H186.257V107H162.785V102.92C162.785 101.672 163.137 100.68 163.841 99.944L171.953 91.208C175.921 87.08 177.889 83.928 177.857 81.752C177.825 80.824 177.473 80.232 176.801 79.976C176.129 79.688 174.977 79.544 173.345 79.544C169.953 79.544 166.625 79.688 163.361 79.976ZM198.215 73.256C201.287 73.256 203.431 73.976 204.647 75.416C205.863 76.856 206.471 79.416 206.471 83.096C206.471 86.744 205.863 89.304 204.647 90.776C203.431 92.216 201.287 92.936 198.215 92.936C195.175 92.936 193.047 92.216 191.831 90.776C190.615 89.304 190.007 86.744 190.007 83.096C190.007 79.416 190.615 76.856 191.831 75.416C193.047 73.976 195.175 73.256 198.215 73.256ZM202.439 107H197.879L217.751 73.88H222.263L202.439 107ZM198.167 77.192C197.015 77.192 196.231 77.592 195.815 78.392C195.431 79.16 195.239 80.728 195.239 83.096C195.239 85.496 195.431 87.08 195.815 87.848C196.231 88.616 197.015 89 198.167 89C199.383 89 200.183 88.616 200.567 87.848C200.983 87.08 201.191 85.496 201.191 83.096C201.191 80.696 200.983 79.112 200.567 78.344C200.183 77.576 199.383 77.192 198.167 77.192ZM222.023 87.848C225.095 87.848 227.239 88.584 228.455 90.056C229.671 91.496 230.279 94.04 230.279 97.688C230.279 101.368 229.671 103.944 228.455 105.416C227.239 106.856 225.095 107.576 222.023 107.576C218.983 107.576 216.855 106.856 215.639 105.416C214.455 103.944 213.863 101.368 213.863 97.688C213.863 94.04 214.455 91.496 215.639 90.056C216.855 88.584 218.983 87.848 222.023 87.848ZM224.375 92.984C223.991 92.216 223.207 91.832 222.023 91.832C220.839 91.832 220.039 92.216 219.623 92.984C219.239 93.72 219.063 95.288 219.095 97.688C219.063 100.088 219.239 101.672 219.623 102.44C220.039 103.208 220.839 103.592 222.023 103.592C223.207 103.592 223.991 103.208 224.375 102.44C224.791 101.672 224.999 100.088 224.999 97.688C224.999 95.32 224.791 93.752 224.375 92.984Z" fill="white"/>
<path d="M73.136 147V135.96C74.128 135.864 75.5307 135.816 77.344 135.816C78.88 135.816 79.9307 136.067 80.496 136.568C81.072 137.069 81.36 138.019 81.36 139.416C81.36 140.813 81.088 141.768 80.544 142.28C80.0107 142.781 79.0507 143.032 77.664 143.032C76.96 143.032 76.2667 142.989 75.584 142.904V147H73.136ZM75.584 141.16H77.28C77.92 141.149 78.352 141.027 78.576 140.792C78.8 140.557 78.912 140.099 78.912 139.416C78.912 138.733 78.8 138.275 78.576 138.04C78.352 137.805 77.92 137.688 77.28 137.688L75.584 137.704V141.16ZM83.3805 139.832C83.9992 139.203 85.0498 138.888 86.5325 138.888C88.0152 138.888 89.0605 139.203 89.6685 139.832C90.2765 140.461 90.5805 141.539 90.5805 143.064C90.5805 144.579 90.2765 145.651 89.6685 146.28C89.0605 146.899 88.0152 147.208 86.5325 147.208C85.0498 147.208 83.9992 146.899 83.3805 146.28C82.7725 145.651 82.4685 144.579 82.4685 143.064C82.4685 141.539 82.7725 140.461 83.3805 139.832ZM86.5325 140.664C85.9032 140.664 85.4818 140.824 85.2685 141.144C85.0552 141.464 84.9485 142.104 84.9485 143.064C84.9485 144.003 85.0552 144.632 85.2685 144.952C85.4818 145.272 85.9032 145.432 86.5325 145.432C87.1512 145.432 87.5672 145.272 87.7805 144.952C88.0045 144.632 88.1165 144.003 88.1165 143.064C88.1165 142.115 88.0045 141.48 87.7805 141.16C87.5672 140.829 87.1512 140.664 86.5325 140.664ZM98.6904 145.128L98.9144 146.664C98.093 147.016 97.069 147.192 95.8424 147.192C94.3917 147.192 93.3677 146.883 92.7704 146.264C92.1837 145.635 91.8904 144.563 91.8904 143.048C91.8904 141.523 92.189 140.451 92.7864 139.832C93.3837 139.203 94.413 138.888 95.8744 138.888C97.069 138.888 98.0397 139.053 98.7864 139.384L98.5304 140.856C97.3784 140.835 96.6264 140.824 96.2744 140.824C95.549 140.824 95.0477 140.979 94.7704 141.288C94.5037 141.597 94.3704 142.184 94.3704 143.048C94.3704 143.912 94.5037 144.499 94.7704 144.808C95.0477 145.117 95.549 145.272 96.2744 145.272C97.213 145.272 98.0184 145.224 98.6904 145.128ZM107.279 140.936H104.655V147H102.319V140.936H99.695V139.112H107.279V140.936ZM119.559 139.096V147H117.271V140.792H114.359V147H112.055V139.096H119.559ZM123.491 139.112L123.667 140.264C123.997 139.869 124.451 139.544 125.027 139.288C125.613 139.032 126.205 138.904 126.803 138.904C128.627 138.904 129.539 140.312 129.539 143.128C129.539 144.643 129.293 145.704 128.803 146.312C128.312 146.909 127.549 147.208 126.515 147.208C125.448 147.208 124.568 146.952 123.875 146.44C123.928 146.984 123.944 147.549 123.923 148.136V150.04H121.571V139.112H123.491ZM123.923 141.512V145.128C124.755 145.341 125.352 145.448 125.715 145.448C126.248 145.448 126.611 145.299 126.803 145C127.005 144.701 127.107 144.077 127.107 143.128C127.107 142.2 127.016 141.576 126.835 141.256C126.653 140.925 126.333 140.76 125.875 140.76C125.341 140.76 124.691 141.011 123.923 141.512ZM131.771 139.832C132.39 139.203 133.44 138.888 134.923 138.888C136.406 138.888 137.451 139.203 138.059 139.832C138.667 140.461 138.971 141.539 138.971 143.064C138.971 144.579 138.667 145.651 138.059 146.28C137.451 146.899 136.406 147.208 134.923 147.208C133.44 147.208 132.39 146.899 131.771 146.28C131.163 145.651 130.859 144.579 130.859 143.064C130.859 141.539 131.163 140.461 131.771 139.832ZM134.923 140.664C134.294 140.664 133.872 140.824 133.659 141.144C133.446 141.464 133.339 142.104 133.339 143.064C133.339 144.003 133.446 144.632 133.659 144.952C133.872 145.272 134.294 145.432 134.923 145.432C135.542 145.432 135.958 145.272 136.171 144.952C136.395 144.632 136.507 144.003 136.507 143.064C136.507 142.115 136.395 141.48 136.171 141.16C135.958 140.829 135.542 140.664 134.923 140.664ZM149.102 145.304V149.256H147.55L147.374 147H141.47L141.31 149.256H139.758V145.304H140.75C141.219 144.099 141.545 142.675 141.726 141.032C141.854 139.752 142.606 139.112 143.982 139.112H147.854V145.304H149.102ZM145.63 145.304V140.712H144.606C144.126 140.712 143.859 140.963 143.806 141.464C143.625 143.032 143.299 144.312 142.83 145.304H145.63ZM150.684 140.872L150.476 139.272C151.895 139.016 153.26 138.888 154.572 138.888C155.639 138.888 156.423 139.107 156.924 139.544C157.436 139.971 157.692 140.717 157.692 141.784V147H155.82L155.58 145.8C154.791 146.728 153.815 147.192 152.652 147.192C151.895 147.192 151.276 146.995 150.796 146.6C150.327 146.195 150.092 145.635 150.092 144.92V144.12C150.092 143.491 150.306 143 150.732 142.648C151.159 142.296 151.751 142.12 152.508 142.12H155.324V141.768C155.314 141.373 155.218 141.107 155.036 140.968C154.866 140.819 154.53 140.744 154.028 140.744C153.164 140.744 152.05 140.787 150.684 140.872ZM152.428 144.296V144.6C152.428 145.144 152.732 145.416 153.34 145.416C153.97 145.416 154.631 145.16 155.324 144.648V143.544H153.196C152.684 143.555 152.428 143.805 152.428 144.296ZM168.385 142.84V142.904C168.62 142.936 168.817 142.973 168.977 143.016C169.148 143.048 169.313 143.107 169.473 143.192C169.633 143.277 169.761 143.357 169.857 143.432C169.964 143.496 170.076 143.624 170.193 143.816C170.321 143.997 170.417 144.157 170.481 144.296C170.556 144.435 170.652 144.669 170.769 145C170.897 145.32 170.998 145.608 171.073 145.864C171.158 146.12 171.281 146.499 171.441 147H169.057C168.534 145.507 168.166 144.584 167.953 144.232C167.74 143.88 167.404 143.704 166.945 143.704H166.161C166.225 143.939 166.257 144.168 166.257 144.392V147H164.177V144.392C164.177 144.2 164.204 143.971 164.257 143.704H163.441C163.004 143.704 162.678 143.88 162.465 144.232C162.262 144.573 161.889 145.496 161.345 147H158.961C159.132 146.477 159.254 146.099 159.329 145.864C159.404 145.629 159.505 145.341 159.633 145C159.761 144.648 159.857 144.413 159.921 144.296C159.985 144.168 160.081 144.008 160.209 143.816C160.337 143.613 160.449 143.485 160.545 143.432C160.641 143.368 160.769 143.288 160.929 143.192C161.089 143.096 161.249 143.032 161.409 143C161.58 142.968 161.788 142.936 162.033 142.904V142.84C161.244 142.744 160.71 142.515 160.433 142.152C160.156 141.779 159.798 140.931 159.361 139.608C159.297 139.395 159.244 139.229 159.201 139.112H161.521C161.958 140.381 162.289 141.197 162.513 141.56C162.737 141.923 163.078 142.104 163.537 142.104H164.273C164.209 141.805 164.177 141.491 164.177 141.16V139.112H166.257V141.16C166.257 141.491 166.225 141.805 166.161 142.104H166.849C167.318 142.104 167.66 141.928 167.873 141.576C168.086 141.224 168.417 140.403 168.865 139.112H171.201C170.71 140.584 170.38 141.48 170.209 141.8C169.932 142.28 169.532 142.589 169.009 142.728C168.838 142.771 168.63 142.808 168.385 142.84ZM176.114 140.904L175.954 139.272C176.733 139.037 177.655 138.92 178.722 138.92C180.183 138.92 181.191 139.059 181.746 139.336C182.301 139.613 182.578 140.189 182.578 141.064C182.578 141.672 182.45 142.12 182.194 142.408C181.938 142.696 181.506 142.861 180.898 142.904V142.968C181.602 143.021 182.109 143.219 182.418 143.56C182.738 143.891 182.898 144.381 182.898 145.032C182.898 145.907 182.621 146.488 182.066 146.776C181.522 147.053 180.583 147.192 179.25 147.192C177.885 147.192 176.706 147.085 175.714 146.872L175.874 145.24C177.026 145.347 178.093 145.4 179.074 145.4C179.639 145.4 180.013 145.352 180.194 145.256C180.375 145.149 180.466 144.92 180.466 144.568C180.466 144.248 180.37 144.04 180.178 143.944C179.997 143.837 179.634 143.779 179.09 143.768L176.818 143.736V142.248L179.074 142.216C179.543 142.216 179.858 142.168 180.018 142.072C180.189 141.965 180.274 141.752 180.274 141.432C180.274 141.144 180.178 140.957 179.986 140.872C179.794 140.787 179.41 140.744 178.834 140.744C177.853 140.744 176.946 140.797 176.114 140.904ZM184.716 140.872L184.508 139.272C185.926 139.016 187.292 138.888 188.604 138.888C189.67 138.888 190.454 139.107 190.956 139.544C191.468 139.971 191.724 140.717 191.724 141.784V147H189.852L189.612 145.8C188.822 146.728 187.846 147.192 186.684 147.192C185.926 147.192 185.308 146.995 184.828 146.6C184.358 146.195 184.124 145.635 184.124 144.92V144.12C184.124 143.491 184.337 143 184.764 142.648C185.19 142.296 185.782 142.12 186.54 142.12H189.356V141.768C189.345 141.373 189.249 141.107 189.068 140.968C188.897 140.819 188.561 140.744 188.06 140.744C187.196 140.744 186.081 140.787 184.716 140.872ZM186.46 144.296V144.6C186.46 145.144 186.764 145.416 187.372 145.416C188.001 145.416 188.662 145.16 189.356 144.648V143.544H187.228C186.716 143.555 186.46 143.805 186.46 144.296ZM197.037 137.992L196.941 136.152C198.178 135.896 199.416 135.768 200.653 135.768C201.89 135.768 202.813 135.949 203.421 136.312C204.04 136.675 204.349 137.347 204.349 138.328C204.349 138.989 204.226 139.576 203.981 140.088C203.746 140.589 203.272 141.219 202.557 141.976L199.725 144.92C200.13 144.845 200.674 144.808 201.357 144.808H204.669V147H196.845V145.64C196.845 145.224 196.962 144.893 197.197 144.648L199.901 141.736C201.224 140.36 201.88 139.309 201.869 138.584C201.858 138.275 201.741 138.077 201.517 137.992C201.293 137.896 200.909 137.848 200.365 137.848C199.234 137.848 198.125 137.896 197.037 137.992ZM217.276 139.112H219.42C219.953 139.112 220.23 139.384 220.252 139.928L220.508 147H218.348L218.124 140.84H217.9L216.62 145.256C216.502 145.747 216.209 145.992 215.74 145.992H214.46C213.969 145.992 213.665 145.747 213.548 145.256L212.284 140.84H212.06L211.868 147H209.724L209.964 139.928C209.964 139.384 210.241 139.112 210.796 139.112H212.908C213.398 139.112 213.692 139.357 213.788 139.848L214.78 143.336C214.833 143.539 214.908 143.928 215.004 144.504H215.18C215.19 144.451 215.217 144.28 215.26 143.992C215.313 143.704 215.361 143.485 215.404 143.336L216.38 139.848C216.476 139.357 216.774 139.112 217.276 139.112ZM227.391 143.848H224.543C224.618 144.424 224.794 144.813 225.071 145.016C225.348 145.208 225.796 145.304 226.415 145.304C227.258 145.304 228.239 145.245 229.359 145.128L229.583 146.6C228.762 146.995 227.615 147.192 226.143 147.192C224.66 147.192 223.604 146.872 222.975 146.232C222.346 145.592 222.031 144.536 222.031 143.064C222.031 141.528 222.34 140.451 222.959 139.832C223.578 139.203 224.607 138.888 226.047 138.888C227.359 138.888 228.308 139.117 228.895 139.576C229.482 140.024 229.78 140.712 229.791 141.64C229.791 142.376 229.599 142.931 229.215 143.304C228.842 143.667 228.234 143.848 227.391 143.848ZM224.495 142.424H226.735C227.034 142.424 227.231 142.355 227.327 142.216C227.423 142.077 227.471 141.875 227.471 141.608C227.471 141.235 227.375 140.979 227.183 140.84C226.991 140.691 226.639 140.616 226.127 140.616C225.519 140.616 225.103 140.739 224.879 140.984C224.655 141.219 224.527 141.699 224.495 142.424ZM237.847 145.128L238.071 146.664C237.249 147.016 236.225 147.192 234.999 147.192C233.548 147.192 232.524 146.883 231.927 146.264C231.34 145.635 231.047 144.563 231.047 143.048C231.047 141.523 231.345 140.451 231.943 139.832C232.54 139.203 233.569 138.888 235.031 138.888C236.225 138.888 237.196 139.053 237.943 139.384L237.687 140.856C236.535 140.835 235.783 140.824 235.431 140.824C234.705 140.824 234.204 140.979 233.927 141.288C233.66 141.597 233.527 142.184 233.527 143.048C233.527 143.912 233.66 144.499 233.927 144.808C234.204 145.117 234.705 145.272 235.431 145.272C236.369 145.272 237.175 145.224 237.847 145.128ZM241.107 143.64V143.56C239.955 143.347 239.379 142.637 239.379 141.432C239.379 140.504 239.614 139.859 240.083 139.496C240.553 139.133 241.443 138.952 242.755 138.952C244.526 138.952 245.795 138.989 246.563 139.064V147H244.259V144.312H242.803C242.27 144.312 241.966 144.504 241.891 144.888L241.363 147H238.931L239.603 144.552C239.753 144.029 240.254 143.725 241.107 143.64ZM244.259 142.76V140.696H242.803C242.334 140.696 242.03 140.76 241.891 140.888C241.753 141.005 241.683 141.261 241.683 141.656C241.683 142.104 241.753 142.403 241.891 142.552C242.03 142.691 242.334 142.76 242.803 142.76H244.259ZM257.179 145.304V149.256H255.611L255.435 147H248.571V139.112H250.907V145.304H253.643V139.112H255.979V145.304H257.179ZM258.763 140.872L258.555 139.272C259.973 139.016 261.339 138.888 262.651 138.888C263.717 138.888 264.501 139.107 265.003 139.544C265.515 139.971 265.771 140.717 265.771 141.784V147H263.899L263.659 145.8C262.869 146.728 261.893 147.192 260.731 147.192C259.973 147.192 259.355 146.995 258.875 146.6C258.405 146.195 258.171 145.635 258.171 144.92V144.12C258.171 143.491 258.384 143 258.811 142.648C259.237 142.296 259.829 142.12 260.587 142.12H263.403V141.768C263.392 141.373 263.296 141.107 263.115 140.968C262.944 140.819 262.608 140.744 262.107 140.744C261.243 140.744 260.128 140.787 258.763 140.872ZM260.507 144.296V144.6C260.507 145.144 260.811 145.416 261.419 145.416C262.048 145.416 262.709 145.16 263.403 144.648V143.544H261.275C260.763 143.555 260.507 143.805 260.507 144.296Z" fill="white"/>
<defs>
<linearGradient id="paint0_linear" x1="427" y1="-38" x2="-76.2292" y2="206.78" gradientUnits="userSpaceOnUse">
<stop offset="0.147013" stop-color="#FFBD6F"/>
<stop offset="0.495438" stop-color="#E5787E"/>
<stop offset="0.837254" stop-color="#B0539C"/>
<stop offset="1" stop-color="#5321E2"/>
</linearGradient>
</defs>
</svg>
