<svg width="523" height="156" viewBox="0 0 523 156" fill="none" xmlns="http://www.w3.org/2000/svg">
<g opacity="0.8" filter="url(#filter0_f)">
<path fill-rule="evenodd" clip-rule="evenodd" d="M124.606 59.1893C123.545 59.1893 122.527 58.7679 121.777 58.0177L114.931 51.1716C113.369 49.6095 110.836 49.6095 109.274 51.1716L102.428 58.0177C101.678 58.7679 100.66 59.1893 99.5996 59.1893H54C51.7909 59.1893 50 60.9802 50 63.1893V101.911C50 104.12 51.7909 105.911 54 105.911H469C471.209 105.911 473 104.12 473 101.911V63.1893C473 60.9802 471.209 59.1893 469 59.1893H124.606Z" fill="url(#paint0_linear)"/>
</g>
<path fill-rule="evenodd" clip-rule="evenodd" d="M97.0919 27.9999C96.031 27.9999 95.0136 27.5785 94.2635 26.8283L85.2635 17.8283C83.7014 16.2662 81.1687 16.2662 79.6066 17.8283L70.6066 26.8283C69.8565 27.5785 68.839 27.9999 67.7782 27.9999H12C9.79086 27.9999 8 29.7907 8 31.9999V79.9999C8 82.209 9.79087 83.9999 12 83.9999H511C513.209 83.9999 515 82.209 515 79.9999V31.9999C515 29.7907 513.209 27.9999 511 27.9999H97.0919Z" fill="url(#paint1_linear)"/>
<path d="M43.6847 50.896L43.4927 49.136C44.4527 48.9333 45.6207 48.832 46.9967 48.832C48.426 48.832 49.418 49.0347 49.9727 49.44C50.5274 49.8347 50.8047 50.592 50.8047 51.712C50.8047 52.512 50.6554 53.12 50.3567 53.536C50.058 53.9413 49.578 54.176 48.9167 54.24V54.304C49.7167 54.3787 50.2874 54.6613 50.6287 55.152C50.97 55.632 51.1407 56.3307 51.1407 57.248C51.1407 58.3467 50.8634 59.104 50.3087 59.52C49.754 59.9253 48.8154 60.128 47.4927 60.128C45.786 60.128 44.378 59.968 43.2687 59.648L43.4447 57.968C44.7247 58.1707 45.9194 58.272 47.0287 58.272C47.658 58.272 48.0794 58.176 48.2927 57.984C48.5167 57.7813 48.6287 57.3813 48.6287 56.784C48.6287 56.144 48.5114 55.712 48.2767 55.488C48.0527 55.264 47.6154 55.1413 46.9647 55.12H44.8367V53.408H46.9487C47.5034 53.408 47.882 53.3173 48.0847 53.136C48.2874 52.944 48.3887 52.5813 48.3887 52.048C48.3887 51.504 48.2767 51.1413 48.0527 50.96C47.8394 50.7787 47.434 50.688 46.8367 50.688C46.0047 50.688 44.954 50.7573 43.6847 50.896ZM53.0516 53.872L52.8436 52.272C54.2622 52.016 55.6276 51.888 56.9396 51.888C58.0062 51.888 58.7902 52.1067 59.2916 52.544C59.8036 52.9707 60.0596 53.7173 60.0596 54.784V60H58.1876L57.9476 58.8C57.1582 59.728 56.1822 60.192 55.0196 60.192C54.2622 60.192 53.6436 59.9947 53.1636 59.6C52.6942 59.1947 52.4596 58.6347 52.4596 57.92V57.12C52.4596 56.4907 52.6729 56 53.0996 55.648C53.5262 55.296 54.1182 55.12 54.8756 55.12H57.6916V54.768C57.6809 54.3733 57.5849 54.1067 57.4036 53.968C57.2329 53.8187 56.8969 53.744 56.3956 53.744C55.5316 53.744 54.4169 53.7867 53.0516 53.872ZM54.7956 57.296V57.6C54.7956 58.144 55.0996 58.416 55.7076 58.416C56.3369 58.416 56.9982 58.16 57.6916 57.648V56.544H55.5636C55.0516 56.5547 54.7956 56.8053 54.7956 57.296ZM69.5042 52.096V60H67.2162V53.792H64.3042V60H62.0002V52.096H69.5042ZM79.3878 52.112L76.5878 60.112C76.1718 61.4133 75.4518 62.3253 74.4278 62.848C73.6385 63.296 72.5611 63.4027 71.1958 63.168L71.3878 61.6C72.3585 61.632 73.0465 61.5253 73.4518 61.28C73.8678 61.0347 74.1985 60.608 74.4438 60H73.9958C73.5905 60 73.3291 59.808 73.2118 59.424L70.6518 52.112H73.1638L74.6358 57.216C74.7638 57.7067 74.8491 58.1013 74.8918 58.4H75.0838C75.2545 57.792 75.3611 57.3973 75.4038 57.216L76.8598 52.112H79.3878ZM86.8701 58.128L87.0941 59.664C86.2727 60.016 85.2487 60.192 84.0221 60.192C82.5714 60.192 81.5474 59.8827 80.9501 59.264C80.3634 58.6347 80.0701 57.5627 80.0701 56.048C80.0701 54.5227 80.3687 53.4507 80.9661 52.832C81.5634 52.2027 82.5927 51.888 84.0541 51.888C85.2487 51.888 86.2194 52.0533 86.9661 52.384L86.7101 53.856C85.5581 53.8347 84.8061 53.824 84.4541 53.824C83.7287 53.824 83.2274 53.9787 82.9501 54.288C82.6834 54.5973 82.5501 55.184 82.5501 56.048C82.5501 56.912 82.6834 57.4987 82.9501 57.808C83.2274 58.1173 83.7287 58.272 84.4541 58.272C85.3927 58.272 86.1981 58.224 86.8701 58.128ZM93.1707 55.856V55.92C93.4907 55.9627 93.752 56.0107 93.9547 56.064C94.1574 56.1067 94.3547 56.2027 94.5467 56.352C94.7387 56.5013 94.8827 56.64 94.9787 56.768C95.0854 56.896 95.2187 57.1467 95.3787 57.52C95.5387 57.8827 95.6667 58.2187 95.7627 58.528C95.8694 58.8373 96.0294 59.328 96.2427 60H93.7787C93.3094 58.5067 92.9627 57.5893 92.7387 57.248C92.5147 56.9067 92.12 56.736 91.5547 56.736H90.8347C90.888 57.0027 90.9147 57.2267 90.9147 57.408V60H88.5627V52.112H90.9147V54.128C90.9147 54.448 90.8827 54.768 90.8187 55.088H91.4107C92.0187 55.088 92.44 54.9173 92.6747 54.576C92.9094 54.224 93.2134 53.4027 93.5867 52.112H95.9867C95.496 53.5947 95.1654 54.4907 94.9947 54.8C94.7387 55.2693 94.36 55.5733 93.8587 55.712C93.6774 55.7653 93.448 55.8133 93.1707 55.856ZM108.711 52.112V60H106.391V56.656H103.399V60H101.063V52.112H103.399V55.008H106.391V52.112H108.711ZM111.279 52.832C111.898 52.2027 112.948 51.888 114.431 51.888C115.914 51.888 116.959 52.2027 117.567 52.832C118.175 53.4613 118.479 54.5387 118.479 56.064C118.479 57.5787 118.175 58.6507 117.567 59.28C116.959 59.8987 115.914 60.208 114.431 60.208C112.948 60.208 111.898 59.8987 111.279 59.28C110.671 58.6507 110.367 57.5787 110.367 56.064C110.367 54.5387 110.671 53.4613 111.279 52.832ZM114.431 53.664C113.802 53.664 113.38 53.824 113.167 54.144C112.954 54.464 112.847 55.104 112.847 56.064C112.847 57.0027 112.954 57.632 113.167 57.952C113.38 58.272 113.802 58.432 114.431 58.432C115.05 58.432 115.466 58.272 115.679 57.952C115.903 57.632 116.015 57.0027 116.015 56.064C116.015 55.1147 115.903 54.48 115.679 54.16C115.466 53.8293 115.05 53.664 114.431 53.664ZM125.629 55.904V55.968C126.354 56.0213 126.871 56.2187 127.181 56.56C127.49 56.9013 127.645 57.3973 127.645 58.048C127.645 58.8373 127.394 59.3813 126.893 59.68C126.391 59.9787 125.543 60.128 124.349 60.128C122.546 60.128 121.138 60.096 120.125 60.032V52.112C121.031 52.048 122.29 52.016 123.901 52.016C125.202 52.016 126.103 52.1653 126.605 52.464C127.106 52.752 127.357 53.3013 127.357 54.112C127.357 54.6773 127.218 55.1093 126.941 55.408C126.674 55.696 126.237 55.8613 125.629 55.904ZM122.349 55.248H123.901C124.381 55.248 124.706 55.1893 124.877 55.072C125.058 54.9547 125.149 54.7307 125.149 54.4C125.149 54.1013 125.053 53.8987 124.861 53.792C124.669 53.6853 124.311 53.632 123.789 53.632L122.349 53.616V55.248ZM122.349 58.48H123.949C124.461 58.48 124.813 58.4213 125.005 58.304C125.197 58.176 125.293 57.9253 125.293 57.552C125.293 57.2 125.191 56.96 124.989 56.832C124.786 56.6933 124.423 56.624 123.901 56.624H122.349V58.48ZM131.538 54.848H132.722C134.108 54.848 135.058 55.0347 135.57 55.408C136.082 55.7707 136.338 56.4587 136.338 57.472C136.338 58.464 136.092 59.152 135.602 59.536C135.111 59.9093 134.29 60.096 133.138 60.096C131.506 60.096 130.236 60.064 129.33 60H129.266V52.112H131.538V54.848ZM139.714 52.112V60H137.346V52.112H139.714ZM131.538 58.432H132.722C133.212 58.432 133.538 58.368 133.698 58.24C133.868 58.1013 133.954 57.8133 133.954 57.376C133.954 56.96 133.868 56.6827 133.698 56.544C133.538 56.4053 133.212 56.336 132.722 56.336H131.538V58.432ZM145.303 56.688H145.207L143.335 60H140.903L143.335 55.952L141.095 52.112H143.511L145.191 55.152H145.335L147.015 52.112H149.431L147.191 55.952L149.607 60H147.175L145.303 56.688ZM160.714 58.128L160.938 59.664C160.116 60.016 159.092 60.192 157.866 60.192C156.415 60.192 155.391 59.8827 154.794 59.264C154.207 58.6347 153.914 57.5627 153.914 56.048C153.914 54.5227 154.212 53.4507 154.81 52.832C155.407 52.2027 156.436 51.888 157.898 51.888C159.092 51.888 160.063 52.0533 160.81 52.384L160.554 53.856C159.402 53.8347 158.65 53.824 158.298 53.824C157.572 53.824 157.071 53.9787 156.794 54.288C156.527 54.5973 156.394 55.184 156.394 56.048C156.394 56.912 156.527 57.4987 156.794 57.808C157.071 58.1173 157.572 58.272 158.298 58.272C159.236 58.272 160.042 58.224 160.714 58.128ZM169.302 53.936H166.678V60H164.342V53.936H161.718V52.112H169.302V53.936ZM172.53 52.112L172.706 53.264C173.036 52.8693 173.49 52.544 174.066 52.288C174.652 52.032 175.244 51.904 175.842 51.904C177.666 51.904 178.578 53.312 178.578 56.128C178.578 57.6427 178.332 58.704 177.842 59.312C177.351 59.9093 176.588 60.208 175.554 60.208C174.487 60.208 173.607 59.952 172.914 59.44C172.967 59.984 172.983 60.5493 172.962 61.136V63.04H170.61V52.112H172.53ZM172.962 54.512V58.128C173.794 58.3413 174.391 58.448 174.754 58.448C175.287 58.448 175.65 58.2987 175.842 58C176.044 57.7013 176.146 57.0773 176.146 56.128C176.146 55.2 176.055 54.576 175.874 54.256C175.692 53.9253 175.372 53.76 174.914 53.76C174.38 53.76 173.73 54.0107 172.962 54.512ZM180.442 53.872L180.234 52.272C181.653 52.016 183.018 51.888 184.33 51.888C185.397 51.888 186.181 52.1067 186.682 52.544C187.194 52.9707 187.45 53.7173 187.45 54.784V60H185.578L185.338 58.8C184.549 59.728 183.573 60.192 182.41 60.192C181.653 60.192 181.034 59.9947 180.554 59.6C180.085 59.1947 179.85 58.6347 179.85 57.92V57.12C179.85 56.4907 180.064 56 180.49 55.648C180.917 55.296 181.509 55.12 182.266 55.12H185.082V54.768C185.072 54.3733 184.976 54.1067 184.794 53.968C184.624 53.8187 184.288 53.744 183.786 53.744C182.922 53.744 181.808 53.7867 180.442 53.872ZM182.186 57.296V57.6C182.186 58.144 182.49 58.416 183.098 58.416C183.728 58.416 184.389 58.16 185.082 57.648V56.544H182.954C182.442 56.5547 182.186 56.8053 182.186 57.296ZM197.039 52.112V60H194.719V56.656H191.727V60H189.391V52.112H191.727V55.008H194.719V52.112H197.039ZM206.727 60.016H204.615V55.888C204.615 55.5787 204.642 55.1573 204.695 54.624H204.631C204.514 55.008 204.316 55.3973 204.039 55.792L201.063 60H199.047V52.112H201.143V56.32C201.143 56.6187 201.116 57.008 201.063 57.488H201.111C201.25 57.136 201.447 56.7787 201.703 56.416L204.711 52.112H206.727V60.016ZM217.358 58.304V62.256H215.79L215.614 60H208.75V52.112H211.086V58.304H213.822V52.112H216.158V58.304H217.358ZM230.091 52.112L227.291 60.112C226.875 61.4133 226.155 62.3253 225.131 62.848C224.342 63.296 223.264 63.4027 221.899 63.168L222.091 61.6C223.062 61.632 223.75 61.5253 224.155 61.28C224.571 61.0347 224.902 60.608 225.147 60H224.699C224.294 60 224.032 59.808 223.915 59.424L221.355 52.112H223.867L225.339 57.216C225.467 57.7067 225.552 58.1013 225.595 58.4H225.787C225.958 57.792 226.064 57.3973 226.107 57.216L227.563 52.112H230.091ZM236.754 55.904V55.968C237.479 56.0213 237.996 56.2187 238.306 56.56C238.615 56.9013 238.77 57.3973 238.77 58.048C238.77 58.8373 238.519 59.3813 238.018 59.68C237.516 59.9787 236.668 60.128 235.474 60.128C233.671 60.128 232.263 60.096 231.25 60.032V52.112C232.156 52.048 233.415 52.016 235.026 52.016C236.327 52.016 237.228 52.1653 237.73 52.464C238.231 52.752 238.482 53.3013 238.482 54.112C238.482 54.6773 238.343 55.1093 238.066 55.408C237.799 55.696 237.362 55.8613 236.754 55.904ZM233.474 55.248H235.026C235.506 55.248 235.831 55.1893 236.002 55.072C236.183 54.9547 236.274 54.7307 236.274 54.4C236.274 54.1013 236.178 53.8987 235.986 53.792C235.794 53.6853 235.436 53.632 234.914 53.632L233.474 53.616V55.248ZM233.474 58.48H235.074C235.586 58.48 235.938 58.4213 236.13 58.304C236.322 58.176 236.418 57.9253 236.418 57.552C236.418 57.2 236.316 56.96 236.114 56.832C235.911 56.6933 235.548 56.624 235.026 56.624H233.474V58.48ZM245.399 56.848H242.551C242.625 57.424 242.801 57.8133 243.079 58.016C243.356 58.208 243.804 58.304 244.423 58.304C245.265 58.304 246.247 58.2453 247.367 58.128L247.591 59.6C246.769 59.9947 245.623 60.192 244.151 60.192C242.668 60.192 241.612 59.872 240.983 59.232C240.353 58.592 240.039 57.536 240.039 56.064C240.039 54.528 240.348 53.4507 240.967 52.832C241.585 52.2027 242.615 51.888 244.055 51.888C245.367 51.888 246.316 52.1173 246.903 52.576C247.489 53.024 247.788 53.712 247.799 54.64C247.799 55.376 247.607 55.9307 247.223 56.304C246.849 56.6667 246.241 56.848 245.399 56.848ZM242.503 55.424H244.743C245.041 55.424 245.239 55.3547 245.335 55.216C245.431 55.0773 245.479 54.8747 245.479 54.608C245.479 54.2347 245.383 53.9787 245.191 53.84C244.999 53.6907 244.647 53.616 244.135 53.616C243.527 53.616 243.111 53.7387 242.887 53.984C242.663 54.2187 242.535 54.6987 242.503 55.424ZM256.815 52.112V60H254.447V53.76H253.423C253.157 53.76 252.959 53.8187 252.831 53.936C252.714 54.0533 252.634 54.256 252.591 54.544C252.367 56.3147 252.175 57.5093 252.015 58.128C251.695 59.6427 250.623 60.2933 248.799 60.08L248.559 58.32C248.997 58.2453 249.306 58.16 249.487 58.064C249.679 57.9573 249.818 57.76 249.903 57.472C250.106 56.8747 250.277 55.7547 250.415 54.112C250.543 52.7787 251.274 52.112 252.607 52.112H256.815ZM266.508 60.016H264.396V55.888C264.396 55.5787 264.423 55.1573 264.476 54.624H264.412C264.295 55.008 264.098 55.3973 263.82 55.792L260.844 60H258.828V52.112H260.924V56.32C260.924 56.6187 260.898 57.008 260.844 57.488H260.892C261.031 57.136 261.228 56.7787 261.484 56.416L264.492 52.112H266.508V60.016ZM275.555 52.112V60H273.219V57.056C272.313 57.3653 271.427 57.52 270.563 57.52C268.995 57.52 268.211 56.9173 268.211 55.712V52.112H270.547V54.976C270.547 55.2533 270.606 55.4507 270.723 55.568C270.851 55.6747 271.065 55.728 271.363 55.728C271.971 55.728 272.59 55.616 273.219 55.392V52.112H275.555ZM285.29 60.016H283.178V55.888C283.178 55.5787 283.204 55.1573 283.258 54.624H283.194C283.076 55.008 282.879 55.3973 282.602 55.792L279.626 60H277.61V52.112H279.706V56.32C279.706 56.6187 279.679 57.008 279.626 57.488H279.674C279.812 57.136 280.01 56.7787 280.266 56.416L283.274 52.112H285.29V60.016ZM294.753 52.112V60H292.385V53.76H291.361C291.094 53.76 290.897 53.8187 290.769 53.936C290.651 54.0533 290.571 54.256 290.529 54.544C290.305 56.3147 290.113 57.5093 289.953 58.128C289.633 59.6427 288.561 60.2933 286.737 60.08L286.497 58.32C286.934 58.2453 287.243 58.16 287.425 58.064C287.617 57.9573 287.755 57.76 287.841 57.472C288.043 56.8747 288.214 55.7547 288.353 54.112C288.481 52.7787 289.211 52.112 290.545 52.112H294.753ZM304.843 55.856V55.92C305.163 55.9627 305.424 56.0107 305.627 56.064C305.829 56.1067 306.027 56.2027 306.219 56.352C306.411 56.5013 306.555 56.64 306.651 56.768C306.757 56.896 306.891 57.1467 307.051 57.52C307.211 57.8827 307.339 58.2187 307.435 58.528C307.541 58.8373 307.701 59.328 307.915 60H305.451C304.981 58.5067 304.635 57.5893 304.411 57.248C304.187 56.9067 303.792 56.736 303.227 56.736H302.507C302.56 57.0027 302.587 57.2267 302.587 57.408V60H300.235V52.112H302.587V54.128C302.587 54.448 302.555 54.768 302.491 55.088H303.083C303.691 55.088 304.112 54.9173 304.347 54.576C304.581 54.224 304.885 53.4027 305.259 52.112H307.659C307.168 53.5947 306.837 54.4907 306.667 54.8C306.411 55.2693 306.032 55.5733 305.531 55.712C305.349 55.7653 305.12 55.8133 304.843 55.856ZM309.763 52.832C310.382 52.2027 311.433 51.888 312.915 51.888C314.398 51.888 315.443 52.2027 316.051 52.832C316.659 53.4613 316.963 54.5387 316.963 56.064C316.963 57.5787 316.659 58.6507 316.051 59.28C315.443 59.8987 314.398 60.208 312.915 60.208C311.433 60.208 310.382 59.8987 309.763 59.28C309.155 58.6507 308.851 57.5787 308.851 56.064C308.851 54.5387 309.155 53.4613 309.763 52.832ZM312.915 53.664C312.286 53.664 311.865 53.824 311.651 54.144C311.438 54.464 311.331 55.104 311.331 56.064C311.331 57.0027 311.438 57.632 311.651 57.952C311.865 58.272 312.286 58.432 312.915 58.432C313.534 58.432 313.95 58.272 314.163 57.952C314.387 57.632 314.499 57.0027 314.499 56.064C314.499 55.1147 314.387 54.48 314.163 54.16C313.95 53.8293 313.534 53.664 312.915 53.664ZM326.273 52.112V60H323.953V56.656H320.961V60H318.625V52.112H320.961V55.008H323.953V52.112H326.273ZM333.769 55.904V55.968C334.495 56.0213 335.012 56.2187 335.321 56.56C335.631 56.9013 335.785 57.3973 335.785 58.048C335.785 58.8373 335.535 59.3813 335.033 59.68C334.532 59.9787 333.684 60.128 332.489 60.128C330.687 60.128 329.279 60.096 328.265 60.032V52.112C329.172 52.048 330.431 52.016 332.041 52.016C333.343 52.016 334.244 52.1653 334.745 52.464C335.247 52.752 335.497 53.3013 335.497 54.112C335.497 54.6773 335.359 55.1093 335.081 55.408C334.815 55.696 334.377 55.8613 333.769 55.904ZM330.489 55.248H332.041C332.521 55.248 332.847 55.1893 333.017 55.072C333.199 54.9547 333.289 54.7307 333.289 54.4C333.289 54.1013 333.193 53.8987 333.001 53.792C332.809 53.6853 332.452 53.632 331.929 53.632L330.489 53.616V55.248ZM330.489 58.48H332.089C332.601 58.48 332.953 58.4213 333.145 58.304C333.337 58.176 333.433 57.9253 333.433 57.552C333.433 57.2 333.332 56.96 333.129 56.832C332.927 56.6933 332.564 56.624 332.041 56.624H330.489V58.48ZM342.414 56.848H339.566C339.641 57.424 339.817 57.8133 340.094 58.016C340.372 58.208 340.82 58.304 341.438 58.304C342.281 58.304 343.262 58.2453 344.382 58.128L344.606 59.6C343.785 59.9947 342.638 60.192 341.166 60.192C339.684 60.192 338.628 59.872 337.998 59.232C337.369 58.592 337.054 57.536 337.054 56.064C337.054 54.528 337.364 53.4507 337.982 52.832C338.601 52.2027 339.63 51.888 341.07 51.888C342.382 51.888 343.332 52.1173 343.918 52.576C344.505 53.024 344.804 53.712 344.814 54.64C344.814 55.376 344.622 55.9307 344.238 56.304C343.865 56.6667 343.257 56.848 342.414 56.848ZM339.518 55.424H341.758C342.057 55.424 342.254 55.3547 342.35 55.216C342.446 55.0773 342.494 54.8747 342.494 54.608C342.494 54.2347 342.398 53.9787 342.206 53.84C342.014 53.6907 341.662 53.616 341.15 53.616C340.542 53.616 340.126 53.7387 339.902 53.984C339.678 54.2187 339.55 54.6987 339.518 55.424ZM348.342 52.112L348.518 53.264C348.849 52.8693 349.302 52.544 349.878 52.288C350.465 52.032 351.057 51.904 351.654 51.904C353.478 51.904 354.39 53.312 354.39 56.128C354.39 57.6427 354.145 58.704 353.654 59.312C353.163 59.9093 352.401 60.208 351.366 60.208C350.299 60.208 349.419 59.952 348.726 59.44C348.779 59.984 348.795 60.5493 348.774 61.136V63.04H346.422V52.112H348.342ZM348.774 54.512V58.128C349.606 58.3413 350.203 58.448 350.566 58.448C351.099 58.448 351.462 58.2987 351.654 58C351.857 57.7013 351.958 57.0773 351.958 56.128C351.958 55.2 351.867 54.576 351.686 54.256C351.505 53.9253 351.185 53.76 350.726 53.76C350.193 53.76 349.542 54.0107 348.774 54.512ZM362.511 58.128L362.735 59.664C361.913 60.016 360.889 60.192 359.663 60.192C358.212 60.192 357.188 59.8827 356.591 59.264C356.004 58.6347 355.711 57.5627 355.711 56.048C355.711 54.5227 356.009 53.4507 356.607 52.832C357.204 52.2027 358.233 51.888 359.695 51.888C360.889 51.888 361.86 52.0533 362.607 52.384L362.351 53.856C361.199 53.8347 360.447 53.824 360.095 53.824C359.369 53.824 358.868 53.9787 358.591 54.288C358.324 54.5973 358.191 55.184 358.191 56.048C358.191 56.912 358.324 57.4987 358.591 57.808C358.868 58.1173 359.369 58.272 360.095 58.272C361.033 58.272 361.839 58.224 362.511 58.128ZM371.883 60.016H369.771V55.888C369.771 55.5787 369.798 55.1573 369.851 54.624H369.787C369.67 55.008 369.473 55.3973 369.195 55.792L366.219 60H364.203V52.112H366.299V56.32C366.299 56.6187 366.273 57.008 366.219 57.488H366.267C366.406 57.136 366.603 56.7787 366.859 56.416L369.867 52.112H371.883V60.016ZM376.258 55.12H377.81C377.906 53.8827 378.232 53.0347 378.786 52.576C379.341 52.1173 380.258 51.888 381.538 51.888C383.032 51.888 384.066 52.176 384.642 52.752C385.229 53.328 385.522 54.432 385.522 56.064C385.522 57.6533 385.229 58.736 384.642 59.312C384.056 59.8773 383.021 60.16 381.538 60.16C380.226 60.16 379.293 59.92 378.738 59.44C378.184 58.96 377.869 58.0747 377.794 56.784H376.258V60H373.906V52.112H376.258V55.12ZM380.274 57.856C380.477 58.1547 380.888 58.304 381.506 58.304C382.125 58.304 382.541 58.1547 382.754 57.856C382.968 57.5467 383.074 56.9387 383.074 56.032C383.074 55.1147 382.968 54.5067 382.754 54.208C382.541 53.8987 382.125 53.744 381.506 53.744C380.888 53.744 380.477 53.8987 380.274 54.208C380.072 54.5067 379.97 55.1147 379.97 56.032C379.97 56.9387 380.072 57.5467 380.274 57.856Z" fill="white"/>
<path d="M400.628 58.128L400.852 59.664C400.031 60.016 399.007 60.192 397.78 60.192C396.329 60.192 395.305 59.8827 394.708 59.264C394.121 58.6347 393.828 57.5627 393.828 56.048C393.828 54.5227 394.127 53.4507 394.724 52.832C395.321 52.2027 396.351 51.888 397.812 51.888C399.007 51.888 399.977 52.0533 400.724 52.384L400.468 53.856C399.316 53.8347 398.564 53.824 398.212 53.824C397.487 53.824 396.985 53.9787 396.708 54.288C396.441 54.5973 396.308 55.184 396.308 56.048C396.308 56.912 396.441 57.4987 396.708 57.808C396.985 58.1173 397.487 58.272 398.212 58.272C399.151 58.272 399.956 58.224 400.628 58.128ZM414.461 55.84V57.344L413.117 57.568H413.085V60H410.829V57.568H406.461C405.981 57.568 405.619 57.3813 405.373 57.008C405.139 56.6347 405.112 56.224 405.293 55.776L408.157 48.96H410.461L407.837 55.312C407.763 55.4933 407.757 55.6267 407.821 55.712C407.885 55.7973 407.997 55.84 408.157 55.84H410.829V52.864L411.229 51.104H413.085V55.84H414.461ZM418.233 48.752C419.257 48.752 419.972 48.992 420.377 49.472C420.782 49.952 420.985 50.8053 420.985 52.032C420.985 53.248 420.782 54.1013 420.377 54.592C419.972 55.072 419.257 55.312 418.233 55.312C417.22 55.312 416.51 55.072 416.105 54.592C415.7 54.1013 415.497 53.248 415.497 52.032C415.497 50.8053 415.7 49.952 416.105 49.472C416.51 48.992 417.22 48.752 418.233 48.752ZM419.641 60H418.121L424.745 48.96H426.249L419.641 60ZM418.217 50.064C417.833 50.064 417.572 50.1973 417.433 50.464C417.305 50.72 417.241 51.2427 417.241 52.032C417.241 52.832 417.305 53.36 417.433 53.616C417.572 53.872 417.833 54 418.217 54C418.622 54 418.889 53.872 419.017 53.616C419.156 53.36 419.225 52.832 419.225 52.032C419.225 51.232 419.156 50.704 419.017 50.448C418.889 50.192 418.622 50.064 418.217 50.064ZM426.169 53.616C427.193 53.616 427.908 53.8613 428.313 54.352C428.718 54.832 428.921 55.68 428.921 56.896C428.921 58.1227 428.718 58.9813 428.313 59.472C427.908 59.952 427.193 60.192 426.169 60.192C425.156 60.192 424.446 59.952 424.041 59.472C423.646 58.9813 423.449 58.1227 423.449 56.896C423.449 55.68 423.646 54.832 424.041 54.352C424.446 53.8613 425.156 53.616 426.169 53.616ZM426.953 55.328C426.825 55.072 426.564 54.944 426.169 54.944C425.774 54.944 425.508 55.072 425.369 55.328C425.241 55.5733 425.182 56.096 425.193 56.896C425.182 57.696 425.241 58.224 425.369 58.48C425.508 58.736 425.774 58.864 426.169 58.864C426.564 58.864 426.825 58.736 426.953 58.48C427.092 58.224 427.161 57.696 427.161 56.896C427.161 56.1067 427.092 55.584 426.953 55.328ZM442.618 58.304V62.256H441.066L440.89 60H434.986L434.826 62.256H433.274V58.304H434.266C434.735 57.0987 435.06 55.6747 435.242 54.032C435.37 52.752 436.122 52.112 437.498 52.112H441.37V58.304H442.618ZM439.146 58.304V53.712H438.122C437.642 53.712 437.375 53.9627 437.322 54.464C437.14 56.032 436.815 57.312 436.346 58.304H439.146ZM444.568 52.832C445.187 52.2027 446.237 51.888 447.72 51.888C449.203 51.888 450.248 52.2027 450.856 52.832C451.464 53.4613 451.768 54.5387 451.768 56.064C451.768 57.5787 451.464 58.6507 450.856 59.28C450.248 59.8987 449.203 60.208 447.72 60.208C446.237 60.208 445.187 59.8987 444.568 59.28C443.96 58.6507 443.656 57.5787 443.656 56.064C443.656 54.5387 443.96 53.4613 444.568 52.832ZM447.72 53.664C447.091 53.664 446.669 53.824 446.456 54.144C446.243 54.464 446.136 55.104 446.136 56.064C446.136 57.0027 446.243 57.632 446.456 57.952C446.669 58.272 447.091 58.432 447.72 58.432C448.339 58.432 448.755 58.272 448.968 57.952C449.192 57.632 449.304 57.0027 449.304 56.064C449.304 55.1147 449.192 54.48 448.968 54.16C448.755 53.8293 448.339 53.664 447.72 53.664ZM456.323 48.96H462.947C463.352 48.96 463.645 49.088 463.827 49.344C464.019 49.5893 464.051 49.8933 463.923 50.256L460.579 60H458.179L460.979 52C461.107 51.6053 461.261 51.2587 461.443 50.96H456.419L456.323 48.96ZM467.593 48.752C468.617 48.752 469.331 48.992 469.737 49.472C470.142 49.952 470.345 50.8053 470.345 52.032C470.345 53.248 470.142 54.1013 469.737 54.592C469.331 55.072 468.617 55.312 467.593 55.312C466.579 55.312 465.87 55.072 465.465 54.592C465.059 54.1013 464.857 53.248 464.857 52.032C464.857 50.8053 465.059 49.952 465.465 49.472C465.87 48.992 466.579 48.752 467.593 48.752ZM469.001 60H467.481L474.105 48.96H475.609L469.001 60ZM467.577 50.064C467.193 50.064 466.931 50.1973 466.793 50.464C466.665 50.72 466.601 51.2427 466.601 52.032C466.601 52.832 466.665 53.36 466.793 53.616C466.931 53.872 467.193 54 467.577 54C467.982 54 468.249 53.872 468.377 53.616C468.515 53.36 468.585 52.832 468.585 52.032C468.585 51.232 468.515 50.704 468.377 50.448C468.249 50.192 467.982 50.064 467.577 50.064ZM475.529 53.616C476.553 53.616 477.267 53.8613 477.673 54.352C478.078 54.832 478.281 55.68 478.281 56.896C478.281 58.1227 478.078 58.9813 477.673 59.472C477.267 59.952 476.553 60.192 475.529 60.192C474.515 60.192 473.806 59.952 473.401 59.472C473.006 58.9813 472.809 58.1227 472.809 56.896C472.809 55.68 473.006 54.832 473.401 54.352C473.806 53.8613 474.515 53.616 475.529 53.616ZM476.313 55.328C476.185 55.072 475.923 54.944 475.529 54.944C475.134 54.944 474.867 55.072 474.729 55.328C474.601 55.5733 474.542 56.096 474.553 56.896C474.542 57.696 474.601 58.224 474.729 58.48C474.867 58.736 475.134 58.864 475.529 58.864C475.923 58.864 476.185 58.736 476.313 58.48C476.451 58.224 476.521 57.696 476.521 56.896C476.521 56.1067 476.451 55.584 476.313 55.328Z" fill="white"/>
<defs>
<filter id="filter0_f" x="0" y="0" width="523" height="155.911" filterUnits="userSpaceOnUse" color-interpolation-filters="sRGB">
<feFlood flood-opacity="0" result="BackgroundImageFix"/>
<feBlend mode="normal" in="SourceGraphic" in2="BackgroundImageFix" result="shape"/>
<feGaussianBlur stdDeviation="25" result="effect1_foregroundBlur"/>
</filter>
<linearGradient id="paint0_linear" x1="467.577" y1="14.9997" x2="34.4637" y2="135.7" gradientUnits="userSpaceOnUse">
<stop stop-color="#FFBD6F"/>
<stop offset="0.489444" stop-color="#E5787E"/>
<stop offset="0.985106" stop-color="#B0539C"/>
</linearGradient>
<linearGradient id="paint1_linear" x1="546.5" y1="-73.5" x2="-67.5881" y2="150.714" gradientUnits="userSpaceOnUse">
<stop offset="0.147013" stop-color="#FFBD6F"/>
<stop offset="0.495438" stop-color="#E5787E"/>
<stop offset="0.837254" stop-color="#B0539C"/>
<stop offset="1" stop-color="#5321E2"/>
</linearGradient>
</defs>
</svg>
