<svg width="381" height="156" viewBox="0 0 381 156" fill="none" xmlns="http://www.w3.org/2000/svg">
<g opacity="0.8" filter="url(#filter0_f)">
<path fill-rule="evenodd" clip-rule="evenodd" d="M100.605 58.3864C99.2653 58.3864 98.0145 57.7156 97.2732 56.5997L94.5868 52.5557C93.0042 50.1735 89.5056 50.1735 87.9231 52.5557L85.2366 56.5997C84.4953 57.7156 83.2446 58.3864 81.9048 58.3864H54C51.7909 58.3864 50 60.1772 50 62.3864V101.108C50 103.317 51.7909 105.108 54 105.108H327C329.209 105.108 331 103.317 331 101.108V62.3864C331 60.1772 329.209 58.3864 327 58.3864H100.605Z" fill="url(#paint0_linear)"/>
</g>
<path fill-rule="evenodd" clip-rule="evenodd" d="M110.749 27C109.688 27 108.67 26.5786 107.92 25.8284L99.2635 17.1716C97.7014 15.6095 95.1687 15.6095 93.6066 17.1716L84.9497 25.8284C84.1996 26.5786 83.1822 27 82.1213 27H26C23.7909 27 22 28.7909 22 31V79C22 81.2091 23.7909 83 26 83H357C359.209 83 361 81.2091 361 79V31C361 28.7909 359.209 27 357 27H110.749Z" fill="url(#paint1_linear)"/>
<path d="M64.9244 47.96L62.2204 56.152C61.9004 57.1227 61.5377 57.8533 61.1324 58.344C60.727 58.824 60.1617 59.096 59.4364 59.16C58.711 59.224 57.8257 59.144 56.7804 58.92L57.0524 57.192C58.087 57.2453 58.743 57.2293 59.0204 57.144C59.3084 57.048 59.5537 56.7387 59.7564 56.216L59.8844 55.864H59.2924C58.5777 55.864 58.103 55.496 57.8684 54.76L55.5964 47.96H58.0924L59.8364 53.8C59.8684 53.928 59.9644 53.992 60.1244 53.992H60.5244L62.4284 47.96H64.9244ZM70.996 54.904V54.968C71.7213 55.0213 72.2387 55.2187 72.548 55.56C72.8573 55.9013 73.012 56.3973 73.012 57.048C73.012 57.8373 72.7613 58.3813 72.26 58.68C71.7587 58.9787 70.9107 59.128 69.716 59.128C67.9133 59.128 66.5053 59.096 65.492 59.032V51.112C66.3987 51.048 67.6573 51.016 69.268 51.016C70.5693 51.016 71.4707 51.1653 71.972 51.464C72.4733 51.752 72.724 52.3013 72.724 53.112C72.724 53.6773 72.5853 54.1093 72.308 54.408C72.0413 54.696 71.604 54.8613 70.996 54.904ZM67.716 54.248H69.268C69.748 54.248 70.0733 54.1893 70.244 54.072C70.4253 53.9547 70.516 53.7307 70.516 53.4C70.516 53.1013 70.42 52.8987 70.228 52.792C70.036 52.6853 69.6787 52.632 69.156 52.632L67.716 52.616V54.248ZM67.716 57.48H69.316C69.828 57.48 70.18 57.4213 70.372 57.304C70.564 57.176 70.66 56.9253 70.66 56.552C70.66 56.2 70.5587 55.96 70.356 55.832C70.1533 55.6933 69.7907 55.624 69.268 55.624H67.716V57.48ZM79.641 55.848H76.793C76.8677 56.424 77.0437 56.8133 77.321 57.016C77.5983 57.208 78.0463 57.304 78.665 57.304C79.5077 57.304 80.489 57.2453 81.609 57.128L81.833 58.6C81.0117 58.9947 79.865 59.192 78.393 59.192C76.9103 59.192 75.8543 58.872 75.225 58.232C74.5957 57.592 74.281 56.536 74.281 55.064C74.281 53.528 74.5903 52.4507 75.209 51.832C75.8277 51.2027 76.857 50.888 78.297 50.888C79.609 50.888 80.5583 51.1173 81.145 51.576C81.7317 52.024 82.0303 52.712 82.041 53.64C82.041 54.376 81.849 54.9307 81.465 55.304C81.0917 55.6667 80.4837 55.848 79.641 55.848ZM76.745 54.424H78.985C79.2837 54.424 79.481 54.3547 79.577 54.216C79.673 54.0773 79.721 53.8747 79.721 53.608C79.721 53.2347 79.625 52.9787 79.433 52.84C79.241 52.6907 78.889 52.616 78.377 52.616C77.769 52.616 77.353 52.7387 77.129 52.984C76.905 53.2187 76.777 53.6987 76.745 54.424ZM91.0574 51.112V59H88.6894V52.76H87.6654C87.3987 52.76 87.2014 52.8187 87.0734 52.936C86.956 53.0533 86.876 53.256 86.8334 53.544C86.6094 55.3147 86.4174 56.5093 86.2574 57.128C85.9374 58.6427 84.8654 59.2933 83.0414 59.08L82.8014 57.32C83.2387 57.2453 83.548 57.16 83.7294 57.064C83.9214 56.9573 84.06 56.76 84.1454 56.472C84.348 55.8747 84.5187 54.7547 84.6574 53.112C84.7854 51.7787 85.516 51.112 86.8494 51.112H91.0574ZM100.751 59.016H98.6385V54.888C98.6385 54.5787 98.6652 54.1573 98.7185 53.624H98.6545C98.5372 54.008 98.3398 54.3973 98.0625 54.792L95.0865 59H93.0705V51.112H95.1665V55.32C95.1665 55.6187 95.1398 56.008 95.0865 56.488H95.1345C95.2732 56.136 95.4705 55.7787 95.7265 55.416L98.7345 51.112H100.751V59.016ZM109.798 51.112V59H107.462V56.056C106.555 56.3653 105.67 56.52 104.806 56.52C103.238 56.52 102.454 55.9173 102.454 54.712V51.112H104.79V53.976C104.79 54.2533 104.848 54.4507 104.966 54.568C105.094 54.6747 105.307 54.728 105.606 54.728C106.214 54.728 106.832 54.616 107.462 54.392V51.112H109.798ZM116.86 55.848H114.012C114.086 56.424 114.262 56.8133 114.54 57.016C114.817 57.208 115.265 57.304 115.884 57.304C116.726 57.304 117.708 57.2453 118.828 57.128L119.052 58.6C118.23 58.9947 117.084 59.192 115.612 59.192C114.129 59.192 113.073 58.872 112.444 58.232C111.814 57.592 111.5 56.536 111.5 55.064C111.5 53.528 111.809 52.4507 112.428 51.832C113.046 51.2027 114.076 50.888 115.516 50.888C116.828 50.888 117.777 51.1173 118.364 51.576C118.95 52.024 119.249 52.712 119.26 53.64C119.26 54.376 119.068 54.9307 118.684 55.304C118.31 55.6667 117.702 55.848 116.86 55.848ZM113.964 54.424H116.204C116.502 54.424 116.7 54.3547 116.796 54.216C116.892 54.0773 116.94 53.8747 116.94 53.608C116.94 53.2347 116.844 52.9787 116.652 52.84C116.46 52.6907 116.108 52.616 115.596 52.616C114.988 52.616 114.572 52.7387 114.348 52.984C114.124 53.2187 113.996 53.6987 113.964 54.424ZM128.515 51.112V59H126.195V55.656H123.203V59H120.867V51.112H123.203V54.008H126.195V51.112H128.515ZM138.204 59.016H136.092V54.888C136.092 54.5787 136.118 54.1573 136.172 53.624H136.108C135.99 54.008 135.793 54.3973 135.516 54.792L132.54 59H130.524V51.112H132.62V55.32C132.62 55.6187 132.593 56.008 132.54 56.488H132.588C132.726 56.136 132.924 55.7787 133.18 55.416L136.188 51.112H138.204V59.016ZM145.235 55.848H142.387C142.461 56.424 142.637 56.8133 142.915 57.016C143.192 57.208 143.64 57.304 144.259 57.304C145.101 57.304 146.083 57.2453 147.203 57.128L147.427 58.6C146.605 58.9947 145.459 59.192 143.987 59.192C142.504 59.192 141.448 58.872 140.819 58.232C140.189 57.592 139.875 56.536 139.875 55.064C139.875 53.528 140.184 52.4507 140.803 51.832C141.421 51.2027 142.451 50.888 143.891 50.888C145.203 50.888 146.152 51.1173 146.739 51.576C147.325 52.024 147.624 52.712 147.635 53.64C147.635 54.376 147.443 54.9307 147.059 55.304C146.685 55.6667 146.077 55.848 145.235 55.848ZM142.339 54.424H144.579C144.877 54.424 145.075 54.3547 145.171 54.216C145.267 54.0773 145.315 53.8747 145.315 53.608C145.315 53.2347 145.219 52.9787 145.027 52.84C144.835 52.6907 144.483 52.616 143.971 52.616C143.363 52.616 142.947 52.7387 142.723 52.984C142.499 53.2187 142.371 53.6987 142.339 54.424ZM159.159 57.128L159.383 58.664C158.562 59.016 157.538 59.192 156.311 59.192C154.86 59.192 153.836 58.8827 153.239 58.264C152.652 57.6347 152.359 56.5627 152.359 55.048C152.359 53.5227 152.658 52.4507 153.255 51.832C153.852 51.2027 154.882 50.888 156.343 50.888C157.538 50.888 158.508 51.0533 159.255 51.384L158.999 52.856C157.847 52.8347 157.095 52.824 156.743 52.824C156.018 52.824 155.516 52.9787 155.239 53.288C154.972 53.5973 154.839 54.184 154.839 55.048C154.839 55.912 154.972 56.4987 155.239 56.808C155.516 57.1173 156.018 57.272 156.743 57.272C157.682 57.272 158.487 57.224 159.159 57.128ZM162.772 51.112L162.948 52.264C163.278 51.8693 163.732 51.544 164.308 51.288C164.894 51.032 165.486 50.904 166.084 50.904C167.908 50.904 168.82 52.312 168.82 55.128C168.82 56.6427 168.574 57.704 168.084 58.312C167.593 58.9093 166.83 59.208 165.796 59.208C164.729 59.208 163.849 58.952 163.156 58.44C163.209 58.984 163.225 59.5493 163.204 60.136V62.04H160.852V51.112H162.772ZM163.204 53.512V57.128C164.036 57.3413 164.633 57.448 164.996 57.448C165.529 57.448 165.892 57.2987 166.084 57C166.286 56.7013 166.388 56.0773 166.388 55.128C166.388 54.2 166.297 53.576 166.116 53.256C165.934 52.9253 165.614 52.76 165.156 52.76C164.622 52.76 163.972 53.0107 163.204 53.512ZM175.5 55.848H172.652C172.727 56.424 172.903 56.8133 173.18 57.016C173.458 57.208 173.906 57.304 174.524 57.304C175.367 57.304 176.348 57.2453 177.468 57.128L177.692 58.6C176.871 58.9947 175.724 59.192 174.252 59.192C172.77 59.192 171.714 58.872 171.084 58.232C170.455 57.592 170.14 56.536 170.14 55.064C170.14 53.528 170.45 52.4507 171.068 51.832C171.687 51.2027 172.716 50.888 174.156 50.888C175.468 50.888 176.418 51.1173 177.004 51.576C177.591 52.024 177.89 52.712 177.9 53.64C177.9 54.376 177.708 54.9307 177.324 55.304C176.951 55.6667 176.343 55.848 175.5 55.848ZM172.604 54.424H174.844C175.143 54.424 175.34 54.3547 175.436 54.216C175.532 54.0773 175.58 53.8747 175.58 53.608C175.58 53.2347 175.484 52.9787 175.292 52.84C175.1 52.6907 174.748 52.616 174.236 52.616C173.628 52.616 173.212 52.7387 172.988 52.984C172.764 53.2187 172.636 53.6987 172.604 54.424ZM188.149 57.304V61.256H186.597L186.421 59H180.517L180.357 61.256H178.805V57.304H179.797C180.266 56.0987 180.591 54.6747 180.773 53.032C180.901 51.752 181.653 51.112 183.029 51.112H186.901V57.304H188.149ZM184.677 57.304V52.712H183.653C183.173 52.712 182.906 52.9627 182.853 53.464C182.671 55.032 182.346 56.312 181.877 57.304H184.677ZM197.187 51.112V59H194.867V55.656H191.875V59H189.539V51.112H191.875V54.008H194.867V51.112H197.187ZM204.204 55.848H201.356C201.43 56.424 201.606 56.8133 201.884 57.016C202.161 57.208 202.609 57.304 203.228 57.304C204.07 57.304 205.052 57.2453 206.172 57.128L206.396 58.6C205.574 58.9947 204.428 59.192 202.956 59.192C201.473 59.192 200.417 58.872 199.788 58.232C199.158 57.592 198.844 56.536 198.844 55.064C198.844 53.528 199.153 52.4507 199.772 51.832C200.39 51.2027 201.42 50.888 202.86 50.888C204.172 50.888 205.121 51.1173 205.708 51.576C206.294 52.024 206.593 52.712 206.604 53.64C206.604 54.376 206.412 54.9307 206.028 55.304C205.654 55.6667 205.046 55.848 204.204 55.848ZM201.308 54.424H203.548C203.846 54.424 204.044 54.3547 204.14 54.216C204.236 54.0773 204.284 53.8747 204.284 53.608C204.284 53.2347 204.188 52.9787 203.996 52.84C203.804 52.6907 203.452 52.616 202.94 52.616C202.332 52.616 201.916 52.7387 201.692 52.984C201.468 53.2187 201.34 53.6987 201.308 54.424ZM208.163 59V52.92C208.163 51.6507 208.84 51.016 210.195 51.016C212.307 51.016 213.795 51.0853 214.659 51.224L214.563 52.872H211.235C210.979 52.872 210.792 52.9307 210.675 53.048C210.568 53.1547 210.515 53.336 210.515 53.592V59H208.163ZM216.396 51.832C217.015 51.2027 218.065 50.888 219.548 50.888C221.031 50.888 222.076 51.2027 222.684 51.832C223.292 52.4613 223.596 53.5387 223.596 55.064C223.596 56.5787 223.292 57.6507 222.684 58.28C222.076 58.8987 221.031 59.208 219.548 59.208C218.065 59.208 217.015 58.8987 216.396 58.28C215.788 57.6507 215.484 56.5787 215.484 55.064C215.484 53.5387 215.788 52.4613 216.396 51.832ZM219.548 52.664C218.919 52.664 218.497 52.824 218.284 53.144C218.071 53.464 217.964 54.104 217.964 55.064C217.964 56.0027 218.071 56.632 218.284 56.952C218.497 57.272 218.919 57.432 219.548 57.432C220.167 57.432 220.583 57.272 220.796 56.952C221.02 56.632 221.132 56.0027 221.132 55.064C221.132 54.1147 221.02 53.48 220.796 53.16C220.583 52.8293 220.167 52.664 219.548 52.664ZM235.751 51.112V59H233.415V56.056C232.508 56.3653 231.623 56.52 230.759 56.52C229.191 56.52 228.407 55.9173 228.407 54.712V51.112H230.743V53.976C230.743 54.2533 230.801 54.4507 230.919 54.568C231.047 54.6747 231.26 54.728 231.559 54.728C232.167 54.728 232.785 54.616 233.415 54.392V51.112H235.751ZM242.813 55.848H239.965C240.04 56.424 240.216 56.8133 240.493 57.016C240.77 57.208 241.218 57.304 241.837 57.304C242.68 57.304 243.661 57.2453 244.781 57.128L245.005 58.6C244.184 58.9947 243.037 59.192 241.565 59.192C240.082 59.192 239.026 58.872 238.397 58.232C237.768 57.592 237.453 56.536 237.453 55.064C237.453 53.528 237.762 52.4507 238.381 51.832C239 51.2027 240.029 50.888 241.469 50.888C242.781 50.888 243.73 51.1173 244.317 51.576C244.904 52.024 245.202 52.712 245.213 53.64C245.213 54.376 245.021 54.9307 244.637 55.304C244.264 55.6667 243.656 55.848 242.813 55.848ZM239.917 54.424H242.157C242.456 54.424 242.653 54.3547 242.749 54.216C242.845 54.0773 242.893 53.8747 242.893 53.608C242.893 53.2347 242.797 52.9787 242.605 52.84C242.413 52.6907 242.061 52.616 241.549 52.616C240.941 52.616 240.525 52.7387 240.301 52.984C240.077 53.2187 239.949 53.6987 239.917 54.424ZM251.429 54.856V54.92C251.749 54.9627 252.01 55.0107 252.213 55.064C252.415 55.1067 252.613 55.2027 252.805 55.352C252.997 55.5013 253.141 55.64 253.237 55.768C253.343 55.896 253.477 56.1467 253.637 56.52C253.797 56.8827 253.925 57.2187 254.021 57.528C254.127 57.8373 254.287 58.328 254.501 59H252.037C251.567 57.5067 251.221 56.5893 250.997 56.248C250.773 55.9067 250.378 55.736 249.812 55.736H249.093C249.146 56.0027 249.173 56.2267 249.173 56.408V59H246.821V51.112H249.173V53.128C249.173 53.448 249.141 53.768 249.077 54.088H249.669C250.277 54.088 250.698 53.9173 250.933 53.576C251.167 53.224 251.471 52.4027 251.845 51.112H254.245C253.754 52.5947 253.423 53.4907 253.253 53.8C252.997 54.2693 252.618 54.5733 252.117 54.712C251.935 54.7653 251.706 54.8133 251.429 54.856ZM256.044 52.872L255.836 51.272C257.254 51.016 258.62 50.888 259.932 50.888C260.998 50.888 261.782 51.1067 262.284 51.544C262.796 51.9707 263.052 52.7173 263.052 53.784V59H261.18L260.94 57.8C260.15 58.728 259.174 59.192 258.012 59.192C257.254 59.192 256.636 58.9947 256.156 58.6C255.686 58.1947 255.452 57.6347 255.452 56.92V56.12C255.452 55.4907 255.665 55 256.092 54.648C256.518 54.296 257.11 54.12 257.868 54.12H260.684V53.768C260.673 53.3733 260.577 53.1067 260.396 52.968C260.225 52.8187 259.889 52.744 259.388 52.744C258.524 52.744 257.409 52.7867 256.044 52.872ZM257.788 56.296V56.6C257.788 57.144 258.092 57.416 258.7 57.416C259.329 57.416 259.99 57.16 260.684 56.648V55.544H258.556C258.044 55.5547 257.788 55.8053 257.788 56.296ZM276.109 51.112V59H273.789V55.656H270.797V59H268.461V51.112H270.797V54.008H273.789V51.112H276.109ZM278.309 52.872L278.101 51.272C279.52 51.016 280.885 50.888 282.197 50.888C283.264 50.888 284.048 51.1067 284.549 51.544C285.061 51.9707 285.317 52.7173 285.317 53.784V59H283.445L283.205 57.8C282.416 58.728 281.44 59.192 280.277 59.192C279.52 59.192 278.901 58.9947 278.421 58.6C277.952 58.1947 277.717 57.6347 277.717 56.92V56.12C277.717 55.4907 277.931 55 278.357 54.648C278.784 54.296 279.376 54.12 280.133 54.12H282.949V53.768C282.939 53.3733 282.843 53.1067 282.661 52.968C282.491 52.8187 282.155 52.744 281.653 52.744C280.789 52.744 279.675 52.7867 278.309 52.872ZM280.053 56.296V56.6C280.053 57.144 280.357 57.416 280.965 57.416C281.595 57.416 282.256 57.16 282.949 56.648V55.544H280.821C280.309 55.5547 280.053 55.8053 280.053 56.296ZM295.095 59H292.663V51.224C292.663 50.7547 292.695 50.3547 292.759 50.024L290.183 50.696L289.895 49.064L292.663 47.96H295.095V59ZM297.01 47.96H303.634C304.039 47.96 304.333 48.088 304.514 48.344C304.706 48.5893 304.738 48.8933 304.61 49.256L301.266 59H298.866L301.666 51C301.794 50.6053 301.949 50.2587 302.13 49.96H297.106L297.01 47.96ZM308.28 47.752C309.304 47.752 310.019 47.992 310.424 48.472C310.829 48.952 311.032 49.8053 311.032 51.032C311.032 52.248 310.829 53.1013 310.424 53.592C310.019 54.072 309.304 54.312 308.28 54.312C307.267 54.312 306.557 54.072 306.152 53.592C305.747 53.1013 305.544 52.248 305.544 51.032C305.544 49.8053 305.747 48.952 306.152 48.472C306.557 47.992 307.267 47.752 308.28 47.752ZM309.688 59H308.168L314.792 47.96H316.296L309.688 59ZM308.264 49.064C307.88 49.064 307.619 49.1973 307.48 49.464C307.352 49.72 307.288 50.2427 307.288 51.032C307.288 51.832 307.352 52.36 307.48 52.616C307.619 52.872 307.88 53 308.264 53C308.669 53 308.936 52.872 309.064 52.616C309.203 52.36 309.272 51.832 309.272 51.032C309.272 50.232 309.203 49.704 309.064 49.448C308.936 49.192 308.669 49.064 308.264 49.064ZM316.216 52.616C317.24 52.616 317.955 52.8613 318.36 53.352C318.765 53.832 318.968 54.68 318.968 55.896C318.968 57.1227 318.765 57.9813 318.36 58.472C317.955 58.952 317.24 59.192 316.216 59.192C315.203 59.192 314.493 58.952 314.088 58.472C313.693 57.9813 313.496 57.1227 313.496 55.896C313.496 54.68 313.693 53.832 314.088 53.352C314.493 52.8613 315.203 52.616 316.216 52.616ZM317 54.328C316.872 54.072 316.611 53.944 316.216 53.944C315.821 53.944 315.555 54.072 315.416 54.328C315.288 54.5733 315.229 55.096 315.24 55.896C315.229 56.696 315.288 57.224 315.416 57.48C315.555 57.736 315.821 57.864 316.216 57.864C316.611 57.864 316.872 57.736 317 57.48C317.139 57.224 317.208 56.696 317.208 55.896C317.208 55.1067 317.139 54.584 317 54.328Z" fill="white"/>
<defs>
<filter id="filter0_f" x="0" y="0.769043" width="381" height="154.339" filterUnits="userSpaceOnUse" color-interpolation-filters="sRGB">
<feFlood flood-opacity="0" result="BackgroundImageFix"/>
<feBlend mode="normal" in="SourceGraphic" in2="BackgroundImageFix" result="shape"/>
<feGaussianBlur stdDeviation="25" result="effect1_foregroundBlur"/>
</filter>
<linearGradient id="paint0_linear" x1="327.397" y1="16.7528" x2="28.1906" y2="73.7469" gradientUnits="userSpaceOnUse">
<stop stop-color="#FFBD6F"/>
<stop offset="0.489444" stop-color="#E5787E"/>
<stop offset="0.985106" stop-color="#B0539C"/>
</linearGradient>
<linearGradient id="paint1_linear" x1="560.5" y1="-74.1568" x2="-53.5881" y2="150.057" gradientUnits="userSpaceOnUse">
<stop offset="0.147013" stop-color="#FFBD6F"/>
<stop offset="0.495438" stop-color="#E5787E"/>
<stop offset="0.837254" stop-color="#B0539C"/>
<stop offset="1" stop-color="#5321E2"/>
</linearGradient>
</defs>
</svg>
