<svg width="470" height="385" viewBox="0 0 470 385" fill="none" xmlns="http://www.w3.org/2000/svg">
<rect width="118.809" height="119.684" transform="matrix(-1 0 0 1 189.779 82.7891)" stroke="url(#paint0_linear)" stroke-width="5"/>
<rect width="217.817" height="179.526" transform="matrix(-1 0 0 1 220.718 202.474)" stroke="url(#paint1_linear)" stroke-width="5"/>
<rect width="277.221" height="279.263" transform="matrix(-1 0 0 1 467 3)" stroke="url(#paint2_linear)" stroke-width="5"/>
<path d="M108.109 123.074H110.183C110.678 123.074 110.938 123.334 110.964 123.854L111.496 136.204H109.593L109.137 124.654H108.756L106.092 133.997C105.978 134.428 105.705 134.644 105.274 134.644H103.618C103.174 134.644 102.895 134.428 102.781 133.997L100.098 124.654H99.7362L99.2986 136.204H97.4147L97.9094 123.854C97.9348 123.334 98.1949 123.074 98.6896 123.074H100.802C101.195 123.074 101.462 123.29 101.601 123.721L103.828 131.409C103.954 131.866 104.1 132.456 104.265 133.179H104.608C104.76 132.506 104.912 131.91 105.064 131.39L107.272 123.721C107.411 123.29 107.69 123.074 108.109 123.074Z" fill="white"/>
<path d="M113.606 128.46L113.435 127.108C115.084 126.817 116.587 126.671 117.945 126.671C119.074 126.671 119.905 126.899 120.437 127.356C120.97 127.813 121.237 128.605 121.237 129.734V136.204H119.771L119.581 134.739C118.515 135.83 117.279 136.376 115.87 136.376C115.008 136.376 114.316 136.147 113.796 135.691C113.276 135.221 113.016 134.574 113.016 133.75V132.779C113.016 132.043 113.244 131.472 113.701 131.067C114.17 130.661 114.824 130.458 115.661 130.458H119.391V129.734C119.378 129.164 119.245 128.77 118.991 128.555C118.737 128.339 118.255 128.231 117.545 128.231C116.822 128.231 115.509 128.307 113.606 128.46ZM114.881 133.027V133.521C114.881 133.978 114.989 134.308 115.204 134.511C115.42 134.714 115.769 134.815 116.251 134.815C117.355 134.815 118.401 134.384 119.391 133.521V131.847H116.004C115.598 131.859 115.306 131.967 115.128 132.17C114.963 132.373 114.881 132.659 114.881 133.027Z" fill="white"/>
<path d="M131.183 126.918V136.204H129.337V128.345H127.472C127.092 128.345 126.819 128.428 126.654 128.593C126.502 128.758 126.394 129.056 126.331 129.487C126.026 131.847 125.741 133.413 125.474 134.187C125.018 135.634 123.996 136.338 122.411 136.3L122.22 134.891C122.715 134.777 123.07 134.638 123.286 134.473C123.514 134.295 123.698 134.029 123.838 133.674C124.129 132.9 124.383 131.396 124.599 129.164C124.688 128.402 124.929 127.838 125.322 127.47C125.728 127.102 126.331 126.918 127.13 126.918H131.183Z" fill="white"/>
<path d="M133.911 127.793C134.597 127.045 135.745 126.671 137.356 126.671C138.967 126.671 140.109 127.045 140.781 127.793C141.453 128.542 141.79 129.804 141.79 131.58C141.79 133.356 141.453 134.612 140.781 135.348C140.109 136.084 138.967 136.452 137.356 136.452C135.732 136.452 134.584 136.084 133.911 135.348C133.239 134.6 132.903 133.344 132.903 131.58C132.903 129.804 133.239 128.542 133.911 127.793ZM139.335 128.935C138.98 128.466 138.32 128.231 137.356 128.231C136.392 128.231 135.732 128.466 135.377 128.935C135.022 129.405 134.844 130.286 134.844 131.58C134.844 132.862 135.022 133.737 135.377 134.206C135.732 134.676 136.392 134.91 137.356 134.91C138.307 134.91 138.961 134.676 139.316 134.206C139.684 133.737 139.868 132.862 139.868 131.58C139.868 130.286 139.69 129.405 139.335 128.935Z" fill="white"/>
<path d="M152.165 126.918H154.049C154.506 126.918 154.734 127.146 154.734 127.603L155.115 136.204H153.402L153.06 128.307H152.755L150.586 134.568C150.472 134.961 150.237 135.158 149.882 135.158H148.493C148.15 135.158 147.909 134.961 147.769 134.568L145.619 128.307H145.315L144.991 136.204H143.298L143.659 127.603C143.659 127.146 143.894 126.918 144.363 126.918H146.228C146.583 126.918 146.818 127.115 146.932 127.508L148.683 132.627C148.822 133.033 148.943 133.477 149.044 133.959H149.33C149.355 133.857 149.406 133.654 149.482 133.35C149.571 133.033 149.641 132.792 149.691 132.627L151.442 127.508C151.582 127.115 151.823 126.918 152.165 126.918Z" fill="white"/>
<path d="M165.465 126.918L161.85 136.642C161.393 137.936 160.809 138.856 160.099 139.401C159.249 140.036 158.038 140.239 156.464 140.01L156.636 138.716C157.625 138.792 158.367 138.666 158.862 138.336C159.344 137.993 159.769 137.397 160.137 136.547L160.27 136.204H159.871C159.541 136.204 159.325 136.046 159.224 135.729L155.951 126.918H157.911L160.213 133.674C160.391 134.143 160.505 134.524 160.556 134.815H160.822C160.848 134.726 160.886 134.6 160.936 134.435C161 134.27 161.051 134.13 161.089 134.016C161.127 133.889 161.165 133.775 161.203 133.674L163.486 126.918H165.465Z" fill="white"/>
<path d="M105.883 144.362L106.321 145.808C105.851 146.1 105.401 146.315 104.97 146.455C104.538 146.582 104.05 146.69 103.504 146.778C102.959 146.854 102.521 146.937 102.191 147.026C100.771 147.432 99.9333 148.396 99.6795 149.918C99.5907 150.4 99.5273 150.857 99.4892 151.288H99.5273C99.7049 150.92 99.9015 150.616 100.117 150.375C100.333 150.134 100.688 149.912 101.183 149.709C101.69 149.506 102.312 149.404 103.048 149.404C104.405 149.404 105.363 149.747 105.921 150.432C106.479 151.117 106.758 152.259 106.758 153.857C106.758 155.456 106.448 156.655 105.826 157.454C105.204 158.24 104.075 158.634 102.439 158.634C101.652 158.634 100.986 158.532 100.441 158.329C99.8952 158.126 99.4702 157.872 99.1657 157.568C98.8613 157.251 98.6266 156.819 98.4617 156.274C98.3094 155.716 98.2143 155.196 98.1762 154.714C98.1382 154.219 98.1191 153.584 98.1191 152.811C98.1191 151.72 98.1572 150.825 98.2333 150.128C98.3221 149.417 98.4807 148.745 98.709 148.11C98.9501 147.463 99.3053 146.943 99.7747 146.55C100.244 146.157 100.847 145.846 101.582 145.618C101.95 145.503 102.413 145.402 102.972 145.313C103.53 145.224 104.037 145.116 104.494 144.99C104.963 144.85 105.426 144.641 105.883 144.362ZM102.572 150.965C101.557 150.965 100.878 151.193 100.536 151.65C100.193 152.094 100.022 152.836 100.022 153.876C100.022 155.094 100.2 155.938 100.555 156.407C100.91 156.864 101.538 157.092 102.439 157.092C103.339 157.092 103.961 156.864 104.304 156.407C104.659 155.938 104.836 155.1 104.836 153.895C104.836 152.754 104.678 151.98 104.361 151.574C104.044 151.168 103.447 150.965 102.572 150.965Z" fill="white"/>
<path d="M116.771 158.405H115.115V152.525C115.115 152.36 115.121 152.132 115.134 151.84C115.16 151.536 115.172 151.333 115.172 151.231H115.134C115.007 151.574 114.785 151.954 114.468 152.373L109.996 158.405H108.512V149.119H110.148V155.018C110.148 155.399 110.129 155.817 110.091 156.274H110.148C110.389 155.792 110.605 155.424 110.795 155.17L115.286 149.119H116.771V158.405Z" fill="white"/>
<path d="M118.633 150.66L118.481 149.271C119.28 149.056 120.257 148.948 121.412 148.948C123.01 148.948 124.114 149.119 124.723 149.461C125.344 149.791 125.655 150.451 125.655 151.441C125.655 152.138 125.509 152.658 125.218 153.001C124.926 153.343 124.425 153.546 123.714 153.61V153.667C124.526 153.73 125.11 153.959 125.465 154.352C125.82 154.733 125.998 155.316 125.998 156.103C125.998 157.08 125.693 157.739 125.084 158.082C124.488 158.412 123.448 158.577 121.964 158.577C120.429 158.577 119.166 158.475 118.177 158.272L118.31 156.883C119.528 156.984 120.701 157.035 121.83 157.035C122.718 157.035 123.315 156.946 123.619 156.769C123.936 156.591 124.095 156.242 124.095 155.722C124.095 155.189 123.93 154.828 123.6 154.637C123.283 154.447 122.699 154.352 121.849 154.352H119.547V153.001H121.83C122.617 153.001 123.143 152.912 123.41 152.735C123.689 152.544 123.828 152.189 123.828 151.669C123.828 151.199 123.664 150.889 123.334 150.736C123.004 150.584 122.376 150.508 121.45 150.508C120.346 150.508 119.407 150.559 118.633 150.66Z" fill="white"/>
<path d="M135.931 149.119V158.405H134.104V154.181H129.518V158.405H127.71V149.119H129.518V152.773H134.104V149.119H135.931Z" fill="white"/>
<path d="M143.751 154.656H139.583C139.672 155.621 139.92 156.268 140.326 156.597C140.744 156.927 141.423 157.092 142.362 157.092C143.186 157.092 144.271 157.016 145.616 156.864L145.787 158.082C144.95 158.45 143.726 158.634 142.114 158.634C140.491 158.634 139.336 158.266 138.651 157.53C137.966 156.781 137.623 155.519 137.623 153.743C137.623 151.942 137.96 150.679 138.632 149.956C139.304 149.233 140.408 148.872 141.943 148.872C143.351 148.872 144.379 149.132 145.026 149.652C145.673 150.172 146.003 150.952 146.015 151.992C146.015 153.768 145.261 154.656 143.751 154.656ZM139.545 153.229H143.256C143.878 153.229 144.176 152.817 144.15 151.992C144.15 151.421 143.992 151.022 143.675 150.794C143.37 150.552 142.825 150.432 142.038 150.432C141.112 150.432 140.472 150.629 140.116 151.022C139.774 151.402 139.583 152.138 139.545 153.229Z" fill="white"/>
<path d="M154.692 156.883L154.882 158.12C153.931 158.462 152.846 158.634 151.628 158.634C150.005 158.634 148.856 158.272 148.184 157.549C147.524 156.813 147.195 155.551 147.195 153.762C147.195 151.973 147.531 150.711 148.203 149.975C148.876 149.239 150.024 148.872 151.647 148.872C152.878 148.872 153.899 149.03 154.711 149.347L154.483 150.527C153.531 150.464 152.688 150.432 151.952 150.432C150.886 150.432 150.15 150.667 149.745 151.136C149.339 151.605 149.136 152.481 149.136 153.762C149.136 155.043 149.339 155.919 149.745 156.388C150.15 156.858 150.886 157.092 151.952 157.092C152.992 157.092 153.906 157.022 154.692 156.883Z" fill="white"/>
<path d="M164.704 149.119L161.088 158.843C160.631 160.137 160.048 161.057 159.337 161.602C158.488 162.236 157.276 162.439 155.703 162.211L155.874 160.917C156.864 160.993 157.606 160.866 158.101 160.537C158.583 160.194 159.008 159.598 159.376 158.748L159.509 158.405H159.109C158.779 158.405 158.564 158.247 158.462 157.93L155.189 149.119H157.149L159.452 155.874C159.629 156.344 159.743 156.724 159.794 157.016H160.061C160.086 156.927 160.124 156.8 160.175 156.636C160.238 156.471 160.289 156.331 160.327 156.217C160.365 156.09 160.403 155.976 160.441 155.874L162.725 149.119H164.704Z" fill="white"/>
<path d="M69.9745 279.864L70.2282 281.792C68.8243 282.198 67.0905 282.401 65.0269 282.401C62.4727 282.401 60.6797 281.724 59.6479 280.371C58.6161 279.018 58.1002 276.675 58.1002 273.343C58.1002 270.011 58.6161 267.668 59.6479 266.315C60.6797 264.962 62.4727 264.285 65.0269 264.285C66.8537 264.285 68.4691 264.454 69.873 264.793L69.6193 266.746C68.2661 266.611 66.7353 266.543 65.0269 266.543C63.42 266.543 62.3036 267.034 61.6777 268.015C61.0688 268.996 60.7643 270.772 60.7643 273.343C60.7643 275.914 61.0688 277.69 61.6777 278.671C62.3036 279.652 63.42 280.143 65.0269 280.143C67.1751 280.143 68.8243 280.05 69.9745 279.864Z" fill="white"/>
<path d="M74.0915 269.715L74.2692 271.618C74.9119 270.941 75.6985 270.4 76.6288 269.994C77.576 269.588 78.4979 269.385 79.3944 269.385C80.866 269.385 81.9401 269.943 82.6167 271.06C83.2933 272.159 83.6316 273.8 83.6316 275.982C83.6316 278.316 83.251 279.974 82.4898 280.955C81.7286 281.919 80.5277 282.401 78.8869 282.401C77.2293 282.401 75.7408 281.987 74.4214 281.158C74.489 282.004 74.5144 282.841 74.4975 283.67V287.146H72.0618V269.715H74.0915ZM74.4975 273.318V279.61C76.1721 280.05 77.4238 280.27 78.2526 280.27C79.3183 280.27 80.0541 279.982 80.46 279.407C80.8829 278.815 81.0943 277.665 81.0943 275.956C81.0943 274.316 80.8998 273.165 80.5108 272.506C80.1386 271.846 79.4874 271.516 78.5571 271.516C77.9481 271.516 77.3392 271.66 76.7303 271.948C76.1213 272.218 75.3771 272.675 74.4975 273.318Z" fill="white"/>
<path d="M93.4992 277.098H87.9427C88.0611 278.384 88.3909 279.246 88.9322 279.686C89.4904 280.126 90.3953 280.346 91.647 280.346C92.7465 280.346 94.1927 280.244 95.9857 280.041L96.2141 281.665C95.0977 282.156 93.4654 282.401 91.3172 282.401C89.1521 282.401 87.6128 281.91 86.6994 280.929C85.786 279.931 85.3293 278.248 85.3293 275.88C85.3293 273.478 85.7776 271.795 86.6741 270.831C87.5706 269.867 89.0421 269.385 91.0889 269.385C92.9664 269.385 94.3365 269.732 95.1992 270.425C96.0618 271.119 96.5016 272.159 96.5185 273.546C96.5185 275.914 95.5121 277.098 93.4992 277.098ZM87.8919 275.195H92.8395C93.6684 275.195 94.0659 274.646 94.032 273.546C94.032 272.785 93.8206 272.252 93.3977 271.948C92.9918 271.626 92.2644 271.466 91.2157 271.466C89.9809 271.466 89.1267 271.728 88.6531 272.252C88.1964 272.76 87.9427 273.741 87.8919 275.195Z" fill="white"/>
<path d="M110.93 280.118V285.75H109.306L109.103 282.097H99.2586L99.0556 285.75H97.4317V280.118H98.9287C99.8929 278.054 100.476 275.567 100.679 272.658C100.815 270.696 101.914 269.715 103.978 269.715H109.154V280.118H110.93ZM106.82 271.618H104.384C103.47 271.618 102.971 272.1 102.887 273.064C102.684 275.956 102.092 278.308 101.111 280.118H106.82V271.618Z" fill="white"/>
<path d="M123.686 269.715V282.097H121.25V276.464H115.135V282.097H112.725V269.715H115.135V274.586H121.25V269.715H123.686Z" fill="white"/>
<path d="M134.113 277.098H128.556C128.675 278.384 129.005 279.246 129.546 279.686C130.104 280.126 131.009 280.346 132.261 280.346C133.36 280.346 134.806 280.244 136.599 280.041L136.828 281.665C135.711 282.156 134.079 282.401 131.931 282.401C129.766 282.401 128.226 281.91 127.313 280.929C126.4 279.931 125.943 278.248 125.943 275.88C125.943 273.478 126.391 271.795 127.288 270.831C128.184 269.867 129.656 269.385 131.702 269.385C133.58 269.385 134.95 269.732 135.813 270.425C136.675 271.119 137.115 272.159 137.132 273.546C137.132 275.914 136.126 277.098 134.113 277.098ZM128.506 275.195H133.453C134.282 275.195 134.68 274.646 134.646 273.546C134.646 272.785 134.434 272.252 134.011 271.948C133.605 271.626 132.878 271.466 131.829 271.466C130.595 271.466 129.74 271.728 129.267 272.252C128.81 272.76 128.556 273.741 128.506 275.195Z" fill="white"/>
<path d="M150.858 269.715H153.37C153.979 269.715 154.283 270.019 154.283 270.628L154.791 282.097H152.507L152.05 271.567H151.644L148.752 279.915C148.6 280.439 148.287 280.701 147.813 280.701H145.961C145.504 280.701 145.183 280.439 144.997 279.915L142.13 271.567H141.724L141.292 282.097H139.034L139.516 270.628C139.516 270.019 139.829 269.715 140.455 269.715H142.942C143.415 269.715 143.728 269.977 143.88 270.501L146.215 277.327C146.401 277.868 146.561 278.46 146.697 279.103H147.077C147.111 278.967 147.179 278.697 147.28 278.291C147.399 277.868 147.492 277.546 147.559 277.327L149.894 270.501C150.08 269.977 150.401 269.715 150.858 269.715Z" fill="white"/>
<path d="M168.591 269.715L163.771 282.68C163.162 284.405 162.384 285.632 161.436 286.359C160.303 287.205 158.688 287.475 156.59 287.171L156.819 285.446C158.138 285.547 159.127 285.378 159.787 284.938C160.43 284.482 160.997 283.687 161.487 282.553L161.665 282.097H161.132C160.692 282.097 160.405 281.885 160.269 281.462L155.905 269.715H158.518L161.589 278.722C161.825 279.348 161.978 279.855 162.045 280.244H162.4C162.434 280.126 162.485 279.957 162.553 279.737C162.637 279.517 162.705 279.331 162.756 279.179C162.806 279.01 162.857 278.857 162.908 278.722L165.953 269.715H168.591Z" fill="white"/>
<path d="M79.4221 295.087L80.0057 297.016C79.3798 297.405 78.7794 297.692 78.2043 297.878C77.6291 298.047 76.9779 298.191 76.2506 298.309C75.5232 298.411 74.9397 298.521 74.4999 298.639C72.6054 299.181 71.489 300.466 71.1507 302.496C71.0323 303.139 70.9478 303.748 70.897 304.323H70.9478C71.1846 303.832 71.4467 303.426 71.7343 303.105C72.0218 302.783 72.4955 302.487 73.1551 302.217C73.8317 301.946 74.6606 301.811 75.6416 301.811C77.4515 301.811 78.7286 302.268 79.4729 303.181C80.2171 304.094 80.5893 305.617 80.5893 307.748C80.5893 309.879 80.1748 311.478 79.346 312.543C78.5172 313.592 77.0117 314.116 74.8297 314.116C73.781 314.116 72.893 313.981 72.1656 313.711C71.4383 313.44 70.8716 313.102 70.4657 312.696C70.0597 312.273 69.7468 311.698 69.5269 310.97C69.3239 310.226 69.1971 309.533 69.1463 308.89C69.0956 308.23 69.0702 307.384 69.0702 306.353C69.0702 304.898 69.1209 303.705 69.2224 302.775C69.3408 301.828 69.5523 300.931 69.8567 300.086C70.1781 299.223 70.6517 298.529 71.2776 298.005C71.9034 297.481 72.7069 297.066 73.688 296.762C74.1785 296.61 74.7959 296.474 75.5402 296.356C76.2844 296.237 76.961 296.094 77.5699 295.924C78.1958 295.738 78.8132 295.459 79.4221 295.087ZM75.0073 303.891C73.6541 303.891 72.7492 304.196 72.2925 304.805C71.8358 305.397 71.6074 306.386 71.6074 307.773C71.6074 309.397 71.8442 310.522 72.3179 311.148C72.7915 311.757 73.6288 312.061 74.8297 312.061C76.0307 312.061 76.8595 311.757 77.3162 311.148C77.7898 310.522 78.0266 309.406 78.0266 307.799C78.0266 306.276 77.8152 305.245 77.3923 304.703C76.9695 304.162 76.1745 303.891 75.0073 303.891Z" fill="white"/>
<path d="M93.9389 313.812H91.7315V305.972C91.7315 305.752 91.7399 305.448 91.7569 305.059C91.7907 304.653 91.8076 304.382 91.8076 304.247H91.7569C91.5877 304.703 91.2917 305.211 90.8688 305.769L84.9063 313.812H82.9273V301.43H85.1093V309.296C85.1093 309.803 85.0839 310.361 85.0332 310.97H85.1093C85.4307 310.328 85.7182 309.837 85.972 309.499L91.9598 301.43H93.9389V313.812Z" fill="white"/>
<path d="M96.4226 303.485L96.2196 301.633C97.2853 301.346 98.5877 301.202 100.127 301.202C102.258 301.202 103.73 301.43 104.542 301.887C105.371 302.327 105.785 303.206 105.785 304.526C105.785 305.456 105.59 306.15 105.201 306.606C104.812 307.063 104.144 307.334 103.197 307.418V307.494C104.28 307.579 105.058 307.883 105.531 308.408C106.005 308.915 106.242 309.693 106.242 310.742C106.242 312.044 105.836 312.924 105.024 313.381C104.229 313.82 102.842 314.04 100.863 314.04C98.8161 314.04 97.133 313.905 95.8137 313.634L95.9913 311.782C97.6151 311.918 99.1797 311.985 100.685 311.985C101.869 311.985 102.664 311.867 103.07 311.63C103.493 311.393 103.704 310.928 103.704 310.235C103.704 309.524 103.485 309.042 103.045 308.788C102.622 308.535 101.844 308.408 100.711 308.408H97.6405V306.606H100.685C101.734 306.606 102.436 306.488 102.791 306.251C103.163 305.997 103.349 305.524 103.349 304.83C103.349 304.204 103.129 303.79 102.69 303.587C102.25 303.384 101.412 303.282 100.178 303.282C98.7061 303.282 97.4544 303.35 96.4226 303.485Z" fill="white"/>
<path d="M119.485 301.43V313.812H117.05V308.179H110.935V313.812H108.525V301.43H110.935V306.302H117.05V301.43H119.485Z" fill="white"/>
<path d="M129.913 308.814H124.356C124.474 310.099 124.804 310.962 125.346 311.402C125.904 311.841 126.809 312.061 128.06 312.061C129.16 312.061 130.606 311.96 132.399 311.757L132.627 313.381C131.511 313.871 129.879 314.116 127.731 314.116C125.565 314.116 124.026 313.626 123.113 312.645C122.199 311.647 121.743 309.964 121.743 307.596C121.743 305.194 122.191 303.511 123.087 302.547C123.984 301.583 125.455 301.1 127.502 301.1C129.38 301.1 130.75 301.447 131.612 302.141C132.475 302.834 132.915 303.875 132.932 305.262C132.932 307.63 131.925 308.814 129.913 308.814ZM124.305 306.911H129.253C130.082 306.911 130.479 306.361 130.445 305.262C130.445 304.5 130.234 303.968 129.811 303.663C129.405 303.342 128.678 303.181 127.629 303.181C126.394 303.181 125.54 303.443 125.066 303.968C124.61 304.475 124.356 305.456 124.305 306.911Z" fill="white"/>
<path d="M144.501 311.782L144.755 313.431C143.486 313.888 142.04 314.116 140.416 314.116C138.251 314.116 136.72 313.634 135.824 312.67C134.944 311.689 134.504 310.006 134.504 307.621C134.504 305.236 134.952 303.553 135.849 302.572C136.745 301.591 138.276 301.1 140.441 301.1C142.082 301.1 143.444 301.312 144.526 301.735L144.222 303.308C142.953 303.223 141.828 303.181 140.847 303.181C139.426 303.181 138.445 303.494 137.904 304.12C137.363 304.746 137.092 305.913 137.092 307.621C137.092 309.33 137.363 310.497 137.904 311.123C138.445 311.748 139.426 312.061 140.847 312.061C142.234 312.061 143.452 311.968 144.501 311.782Z" fill="white"/>
<path d="M157.85 301.43L153.029 314.396C152.42 316.121 151.642 317.347 150.695 318.075C149.561 318.92 147.946 319.191 145.849 318.886L146.077 317.161C147.396 317.263 148.386 317.094 149.045 316.654C149.688 316.197 150.255 315.402 150.745 314.269L150.923 313.812H150.39C149.95 313.812 149.663 313.601 149.528 313.178L145.164 301.43H147.777L150.847 310.437C151.084 311.063 151.236 311.571 151.304 311.96H151.659C151.693 311.841 151.743 311.672 151.811 311.452C151.896 311.232 151.963 311.046 152.014 310.894C152.065 310.725 152.116 310.573 152.166 310.437L155.211 301.43H157.85Z" fill="white"/>
<path d="M259.238 114.895V115.027C259.679 115.071 260.086 115.16 260.46 115.292C260.835 115.424 261.165 115.556 261.451 115.688C261.759 115.82 262.068 116.051 262.376 116.382C262.684 116.712 262.937 116.987 263.136 117.207C263.334 117.427 263.565 117.802 263.829 118.33C264.115 118.859 264.335 119.277 264.49 119.585C264.644 119.871 264.853 120.389 265.117 121.137C265.403 121.864 265.613 122.414 265.745 122.789C265.877 123.163 266.108 123.813 266.438 124.737C266.768 125.662 267.022 126.367 267.198 126.851H263.73C262.387 123.042 261.517 120.719 261.121 119.882C260.218 118.055 259.15 116.943 257.917 116.547C257.433 116.393 256.893 116.315 256.299 116.315H254.02C254.174 117.24 254.251 118.022 254.251 118.66V126.851H250.949V104.062H254.251V111.064C254.251 111.813 254.174 112.671 254.02 113.64H256.299C257.026 113.64 257.675 113.497 258.248 113.211C258.842 112.903 259.348 112.495 259.767 111.989C260.207 111.461 260.614 110.8 260.989 110.007C261.385 109.215 261.748 108.367 262.079 107.464C262.409 106.562 262.772 105.538 263.169 104.393C263.213 104.239 263.246 104.129 263.268 104.062H266.603C265.348 107.739 264.468 110.073 263.961 111.064C262.926 113.134 261.616 114.367 260.031 114.763C259.789 114.829 259.525 114.873 259.238 114.895Z" fill="white"/>
<path d="M273.356 110.734L273.587 113.211C274.424 112.33 275.448 111.626 276.659 111.097C277.892 110.569 279.092 110.305 280.259 110.305C282.174 110.305 283.573 111.031 284.453 112.484C285.334 113.916 285.774 116.051 285.774 118.892C285.774 121.93 285.279 124.088 284.288 125.365C283.297 126.62 281.734 127.247 279.598 127.247C277.441 127.247 275.503 126.708 273.786 125.629C273.874 126.73 273.907 127.82 273.885 128.899V133.423H270.714V110.734H273.356ZM273.885 115.424V123.614C276.064 124.187 277.694 124.473 278.773 124.473C280.16 124.473 281.118 124.099 281.646 123.35C282.196 122.58 282.472 121.082 282.472 118.859C282.472 116.723 282.218 115.226 281.712 114.367C281.228 113.508 280.38 113.079 279.169 113.079C278.376 113.079 277.584 113.266 276.791 113.64C275.998 113.993 275.03 114.587 273.885 115.424Z" fill="white"/>
<path d="M304.469 110.734L298.194 127.611C297.402 129.856 296.389 131.453 295.156 132.4C293.681 133.5 291.578 133.853 288.848 133.456L289.145 131.211C290.862 131.343 292.15 131.122 293.009 130.55C293.846 129.956 294.583 128.921 295.222 127.445L295.453 126.851H294.759C294.187 126.851 293.813 126.576 293.637 126.025L287.956 110.734H291.358L295.354 122.458C295.662 123.273 295.86 123.934 295.948 124.44H296.411C296.455 124.286 296.521 124.066 296.609 123.78C296.719 123.493 296.807 123.251 296.873 123.053C296.939 122.833 297.005 122.635 297.071 122.458L301.035 110.734H304.469Z" fill="white"/>
<path d="M321.582 110.734V126.851H318.477V113.31H310.716V126.851H307.611V110.734H321.582Z" fill="white"/>
<path d="M340.94 110.734V126.851H337.77V119.519H329.81V126.851H326.673V110.734H329.81V117.075H337.77V110.734H340.94Z" fill="white"/>
<path d="M346.95 112.253C348.139 110.954 350.131 110.305 352.928 110.305C355.724 110.305 357.706 110.954 358.873 112.253C360.04 113.552 360.623 115.743 360.623 118.825C360.623 121.908 360.04 124.088 358.873 125.365C357.706 126.642 355.724 127.28 352.928 127.28C350.109 127.28 348.117 126.642 346.95 125.365C345.783 124.066 345.199 121.886 345.199 118.825C345.199 115.743 345.783 113.552 346.95 112.253ZM356.363 114.235C355.746 113.42 354.601 113.013 352.928 113.013C351.254 113.013 350.109 113.42 349.493 114.235C348.876 115.049 348.568 116.58 348.568 118.825C348.568 121.049 348.876 122.569 349.493 123.383C350.109 124.198 351.254 124.605 352.928 124.605C354.579 124.605 355.713 124.198 356.329 123.383C356.968 122.569 357.287 121.049 357.287 118.825C357.287 116.58 356.979 115.049 356.363 114.235Z" fill="white"/>
<path d="M379.952 110.734H383.221C384.014 110.734 384.41 111.13 384.41 111.923L385.071 126.851H382.098L381.504 113.145H380.976L377.21 124.011C377.012 124.693 376.605 125.035 375.988 125.035H373.577C372.983 125.035 372.565 124.693 372.322 124.011L368.59 113.145H368.062L367.501 126.851H364.561L365.189 111.923C365.189 111.13 365.596 110.734 366.411 110.734H369.647C370.264 110.734 370.671 111.075 370.869 111.758L373.908 120.642C374.15 121.347 374.359 122.117 374.535 122.954H375.031C375.075 122.778 375.163 122.425 375.295 121.897C375.449 121.347 375.57 120.928 375.658 120.642L378.697 111.758C378.939 111.075 379.357 110.734 379.952 110.734Z" fill="white"/>
<path d="M404.356 110.734L398.081 127.611C397.288 129.856 396.276 131.453 395.043 132.4C393.567 133.5 391.465 133.853 388.734 133.456L389.032 131.211C390.749 131.343 392.037 131.122 392.896 130.55C393.733 129.956 394.47 128.921 395.109 127.445L395.34 126.851H394.646C394.074 126.851 393.7 126.576 393.523 126.025L387.843 110.734H391.245L395.241 122.458C395.549 123.273 395.747 123.934 395.835 124.44H396.298C396.342 124.286 396.408 124.066 396.496 123.78C396.606 123.493 396.694 123.251 396.76 123.053C396.826 122.833 396.892 122.635 396.958 122.458L400.921 110.734H404.356Z" fill="white"/>
<path d="M279.118 142.109L279.878 144.619C279.063 145.126 278.282 145.5 277.533 145.742C276.785 145.963 275.937 146.15 274.99 146.304C274.043 146.436 273.284 146.579 272.711 146.733C270.245 147.438 268.792 149.111 268.352 151.753C268.198 152.59 268.087 153.383 268.021 154.131H268.087C268.396 153.493 268.737 152.964 269.111 152.546C269.486 152.128 270.102 151.742 270.961 151.39C271.842 151.038 272.92 150.862 274.197 150.862C276.553 150.862 278.216 151.456 279.184 152.645C280.153 153.834 280.638 155.816 280.638 158.59C280.638 161.364 280.098 163.445 279.019 164.832C277.94 166.197 275.981 166.88 273.141 166.88C271.775 166.88 270.62 166.703 269.673 166.351C268.726 165.999 267.988 165.558 267.46 165.03C266.932 164.48 266.524 163.731 266.238 162.784C265.974 161.815 265.809 160.913 265.743 160.076C265.677 159.217 265.643 158.116 265.643 156.773C265.643 154.88 265.71 153.328 265.842 152.117C265.996 150.884 266.271 149.717 266.667 148.616C267.086 147.493 267.702 146.59 268.517 145.907C269.331 145.225 270.377 144.686 271.654 144.289C272.293 144.091 273.097 143.915 274.065 143.761C275.034 143.607 275.915 143.419 276.707 143.199C277.522 142.957 278.326 142.594 279.118 142.109ZM273.372 153.57C271.61 153.57 270.432 153.966 269.838 154.759C269.243 155.529 268.946 156.817 268.946 158.623C268.946 160.737 269.254 162.201 269.871 163.015C270.487 163.808 271.577 164.204 273.141 164.204C274.704 164.204 275.783 163.808 276.377 163.015C276.994 162.201 277.302 160.748 277.302 158.656C277.302 156.674 277.027 155.331 276.476 154.627C275.926 153.922 274.891 153.57 273.372 153.57Z" fill="white"/>
<path d="M299.336 166.483H296.462V156.278C296.462 155.992 296.473 155.595 296.495 155.089C296.539 154.561 296.562 154.208 296.562 154.032H296.495C296.275 154.627 295.89 155.287 295.34 156.014L287.578 166.483H285.002V150.366H287.842V160.604C287.842 161.265 287.809 161.992 287.743 162.784H287.842C288.261 161.948 288.635 161.309 288.965 160.869L296.76 150.366H299.336V166.483Z" fill="white"/>
<path d="M303.89 153.041L303.626 150.63C305.013 150.256 306.708 150.069 308.712 150.069C311.486 150.069 313.402 150.366 314.458 150.961C315.537 151.533 316.077 152.678 316.077 154.395C316.077 155.606 315.824 156.509 315.317 157.104C314.811 157.698 313.941 158.05 312.708 158.16V158.26C314.117 158.37 315.13 158.766 315.746 159.448C316.363 160.109 316.671 161.122 316.671 162.487C316.671 164.182 316.143 165.327 315.086 165.922C314.051 166.494 312.246 166.78 309.67 166.78C307.005 166.78 304.815 166.604 303.097 166.252L303.328 163.841C305.442 164.017 307.479 164.105 309.438 164.105C310.98 164.105 312.014 163.951 312.543 163.643C313.093 163.335 313.369 162.729 313.369 161.826C313.369 160.902 313.082 160.274 312.51 159.944C311.959 159.614 310.947 159.448 309.471 159.448H305.475V157.104H309.438C310.803 157.104 311.717 156.949 312.18 156.641C312.664 156.311 312.906 155.694 312.906 154.792C312.906 153.977 312.62 153.438 312.047 153.173C311.475 152.909 310.385 152.777 308.778 152.777C306.862 152.777 305.233 152.865 303.89 153.041Z" fill="white"/>
<path d="M335.232 150.366V166.483H332.061V159.151H324.101V166.483H320.964V150.366H324.101V156.707H332.061V150.366H335.232Z" fill="white"/>
<path d="M350.125 159.977H342.892C343.047 161.65 343.476 162.773 344.181 163.346C344.907 163.918 346.085 164.204 347.714 164.204C349.146 164.204 351.028 164.072 353.362 163.808L353.659 165.922C352.206 166.56 350.081 166.88 347.285 166.88C344.467 166.88 342.463 166.241 341.274 164.964C340.085 163.665 339.491 161.474 339.491 158.392C339.491 155.265 340.074 153.074 341.241 151.819C342.408 150.564 344.324 149.937 346.988 149.937C349.432 149.937 351.215 150.388 352.338 151.291C353.461 152.194 354.034 153.548 354.056 155.353C354.056 158.436 352.745 159.977 350.125 159.977ZM342.826 157.5H349.267C350.346 157.5 350.863 156.784 350.819 155.353C350.819 154.362 350.544 153.669 349.993 153.272C349.465 152.854 348.518 152.645 347.153 152.645C345.546 152.645 344.434 152.986 343.817 153.669C343.223 154.329 342.892 155.606 342.826 157.5Z" fill="white"/>
<path d="M370.436 163.841L370.766 165.988C369.115 166.582 367.232 166.88 365.118 166.88C362.3 166.88 360.308 166.252 359.141 164.997C357.996 163.72 357.423 161.529 357.423 158.425C357.423 155.32 358.007 153.129 359.174 151.852C360.341 150.575 362.333 149.937 365.152 149.937C367.287 149.937 369.06 150.212 370.469 150.762L370.073 152.81C368.421 152.7 366.957 152.645 365.68 152.645C363.83 152.645 362.553 153.052 361.849 153.867C361.144 154.682 360.792 156.201 360.792 158.425C360.792 160.648 361.144 162.168 361.849 162.982C362.553 163.797 363.83 164.204 365.68 164.204C367.485 164.204 369.071 164.083 370.436 163.841Z" fill="white"/>
<path d="M389.133 150.366L382.858 167.243C382.065 169.489 381.052 171.085 379.819 172.032C378.344 173.133 376.241 173.485 373.511 173.089L373.808 170.843C375.526 170.975 376.814 170.755 377.673 170.182C378.509 169.588 379.247 168.553 379.885 167.078L380.117 166.483H379.423C378.851 166.483 378.476 166.208 378.3 165.658L372.619 150.366H376.021L380.017 162.091C380.326 162.905 380.524 163.566 380.612 164.072H381.074C381.118 163.918 381.184 163.698 381.272 163.412C381.383 163.125 381.471 162.883 381.537 162.685C381.603 162.465 381.669 162.267 381.735 162.091L385.698 150.366H389.133Z" fill="white"/>
<defs>
<linearGradient id="paint0_linear" x1="155.279" y1="-49.2895" x2="14.2785" y2="110.211" gradientUnits="userSpaceOnUse">
<stop offset="0.147013" stop-color="#FFBD6F"/>
<stop offset="0.495438" stop-color="#E5787E"/>
<stop offset="0.749481" stop-color="#B0539C" stop-opacity="0.2"/>
<stop offset="1" stop-color="#5321E2" stop-opacity="0"/>
</linearGradient>
<linearGradient id="paint1_linear" x1="71.1328" y1="43.1496" x2="207.509" y2="179.526" gradientUnits="userSpaceOnUse">
<stop stop-color="#74EBD5" stop-opacity="0"/>
<stop offset="1" stop-color="#0575E6"/>
</linearGradient>
<linearGradient id="paint2_linear" x1="249.296" y1="32.7341" x2="137.51" y2="237.839" gradientUnits="userSpaceOnUse">
<stop stop-color="#74EBD5"/>
<stop offset="1" stop-color="#0575E6" stop-opacity="0"/>
</linearGradient>
</defs>
</svg>
