<svg width="1366" height="683" viewBox="0 0 1366 683" fill="none" xmlns="http://www.w3.org/2000/svg">
<rect y="136" width="1366" height="456" fill="url(#paint0_linear)"/>
<g opacity="0.5">
<path d="M598.755 371.491V240.202L685.325 279.657L684.847 410.942L598.755 371.491Z" fill="url(#paint1_linear)"/>
<path d="M771.418 371.244L771.896 240.202L685.326 279.657L684.847 410.942L771.418 371.244Z" fill="url(#paint2_linear)"/>
<rect width="95.1497" height="95.1497" transform="matrix(0.909934 0.414753 -0.909934 0.414753 685.335 200.74)" fill="url(#paint3_linear)"/>
<path d="M511.552 446.866L511.553 428.567L684.905 507.574L684.904 526.359L511.552 446.866Z" fill="#821D54"/>
<path d="M858.256 446.866L858.257 428.567L684.905 507.574L684.903 526.359L858.256 446.866Z" fill="#700A42"/>
<rect width="190.531" height="190.531" transform="matrix(0.909934 0.414753 -0.909934 0.414753 684.923 349.546)" fill="#952763"/>
<path d="M512.011 411.577V345.569L598.582 385.025L598.104 451.029L512.011 411.577Z" fill="url(#paint4_linear)"/>
<path d="M684.674 411.331L685.153 345.569L598.582 385.025L598.104 451.029L684.674 411.331Z" fill="url(#paint5_linear)"/>
<rect width="95.1497" height="95.1497" transform="matrix(0.909934 0.414753 -0.909934 0.414753 598.591 306.107)" fill="url(#paint6_linear)"/>
<path d="M684.675 411.331L685.153 345.569L771.724 385.025L771.245 451.029L684.675 411.331Z" fill="url(#paint7_linear)"/>
<path d="M857.816 411.331L858.294 345.569L771.723 385.025L771.245 451.029L857.816 411.331Z" fill="url(#paint8_linear)"/>
<rect width="95.1497" height="95.1497" transform="matrix(0.909934 0.414753 -0.909934 0.414753 771.733 306.107)" fill="url(#paint9_linear)"/>
</g>
<defs>
<linearGradient id="paint0_linear" x1="1450.87" y1="-474.478" x2="-385.464" y2="-207.696" gradientUnits="userSpaceOnUse">
<stop offset="0.147013" stop-color="#FFBD6F"/>
<stop offset="0.495438" stop-color="#E5787E"/>
<stop offset="0.837254" stop-color="#B0539C"/>
<stop offset="1" stop-color="#5321E2"/>
</linearGradient>
<linearGradient id="paint1_linear" x1="690.704" y1="11.6208" x2="571.941" y2="14.5411" gradientUnits="userSpaceOnUse">
<stop offset="0.147013" stop-color="#FFBD6F"/>
<stop offset="0.495438" stop-color="#E5787E"/>
<stop offset="0.837254" stop-color="#B0539C"/>
<stop offset="1" stop-color="#5321E2"/>
</linearGradient>
<linearGradient id="paint2_linear" x1="716.611" y1="191.949" x2="769.907" y2="193.514" gradientUnits="userSpaceOnUse">
<stop stop-color="#FF896F"/>
<stop offset="1" stop-color="#B0539C"/>
</linearGradient>
<linearGradient id="paint3_linear" x1="60.4304" y1="-26.8903" x2="2.31693" y2="-23.5436" gradientUnits="userSpaceOnUse">
<stop stop-color="#FF896F"/>
<stop offset="1" stop-color="#B0539C"/>
</linearGradient>
<linearGradient id="paint4_linear" x1="566.993" y1="315.765" x2="514.062" y2="318.268" gradientUnits="userSpaceOnUse">
<stop stop-color="#FF896F"/>
<stop offset="1" stop-color="#B0539C"/>
</linearGradient>
<linearGradient id="paint5_linear" x1="592.695" y1="204.384" x2="711.995" y2="209.159" gradientUnits="userSpaceOnUse">
<stop offset="0.147013" stop-color="#FFBD6F"/>
<stop offset="0.495438" stop-color="#E5787E"/>
<stop offset="0.837254" stop-color="#B0539C"/>
<stop offset="1" stop-color="#5321E2"/>
</linearGradient>
<linearGradient id="paint6_linear" x1="60.4304" y1="-26.8903" x2="2.31693" y2="-23.5436" gradientUnits="userSpaceOnUse">
<stop stop-color="#FF896F"/>
<stop offset="1" stop-color="#B0539C"/>
</linearGradient>
<linearGradient id="paint7_linear" x1="739.96" y1="315.765" x2="686.738" y2="318.295" gradientUnits="userSpaceOnUse">
<stop stop-color="#FF896F"/>
<stop offset="1" stop-color="#B0539C"/>
</linearGradient>
<linearGradient id="paint8_linear" x1="765.837" y1="204.384" x2="885.137" y2="209.159" gradientUnits="userSpaceOnUse">
<stop offset="0.147013" stop-color="#FFBD6F"/>
<stop offset="0.495438" stop-color="#E5787E"/>
<stop offset="0.837254" stop-color="#B0539C"/>
<stop offset="1" stop-color="#5321E2"/>
</linearGradient>
<linearGradient id="paint9_linear" x1="60.4304" y1="-26.8903" x2="2.31693" y2="-23.5436" gradientUnits="userSpaceOnUse">
<stop stop-color="#FF896F"/>
<stop offset="1" stop-color="#B0539C"/>
</linearGradient>
</defs>
</svg>
