<svg width="266" height="152" viewBox="0 0 266 152" fill="none" xmlns="http://www.w3.org/2000/svg">
<g opacity="0.8" filter="url(#filter0_f)">
<path fill-rule="evenodd" clip-rule="evenodd" d="M81.0868 54.5788C79.6033 54.5788 78.271 53.6704 77.729 52.2894C76.5311 49.2369 72.2114 49.2369 71.0134 52.2894C70.4715 53.6704 69.1392 54.5788 67.6556 54.5788H54C51.7909 54.5788 50 56.3696 50 58.5788V97.3007C50 99.5098 51.7909 101.301 54 101.301H212C214.209 101.301 216 99.5098 216 97.3007V58.5788C216 56.3696 214.209 54.5788 212 54.5788H81.0868Z" fill="url(#paint0_linear)"/>
</g>
<path fill-rule="evenodd" clip-rule="evenodd" d="M110.749 29C109.688 29 108.67 28.5786 107.92 27.8284L99.2635 19.1716C97.7014 17.6095 95.1687 17.6095 93.6066 19.1716L84.9497 27.8284C84.1996 28.5786 83.1822 29 82.1213 29H26C23.7909 29 22 30.7909 22 33V81C22 83.2091 23.7909 85 26 85H242C244.209 85 246 83.2091 246 81V33C246 30.7909 244.209 29 242 29H110.749Z" fill="url(#paint1_linear)"/>
<path d="M63.1473 57.048H60.3793V59.72H58.6353V57.048H55.8673V55.32H58.6193V52.632H60.3793V55.32H63.1473V57.048ZM75.0171 51.848H70.4891L70.3611 53.848L71.9451 54.04C73.2144 54.1787 74.1104 54.5467 74.6331 55.144C75.1664 55.7413 75.4331 56.568 75.4331 57.624C75.4331 60.0027 74.1477 61.192 71.5771 61.192C70.5104 61.192 69.2837 61.0747 67.8971 60.84L68.1211 58.952C69.3051 59.08 70.2544 59.144 70.9691 59.144C71.7691 59.144 72.3024 59.0267 72.5691 58.792C72.8464 58.5573 72.9957 58.152 73.0171 57.576C73.0491 56.9147 72.8944 56.488 72.5531 56.296C72.2117 56.104 71.5077 55.96 70.4411 55.864L69.0971 55.704C68.8624 55.6827 68.6704 55.5867 68.5211 55.416C68.3824 55.2453 68.3184 55.0427 68.3291 54.808L68.6011 49.96H75.0971L75.0171 51.848ZM83.8296 51.848H79.3016L79.1736 53.848L80.7576 54.04C82.0269 54.1787 82.9229 54.5467 83.4456 55.144C83.9789 55.7413 84.2456 56.568 84.2456 57.624C84.2456 60.0027 82.9602 61.192 80.3896 61.192C79.3229 61.192 78.0962 61.0747 76.7096 60.84L76.9336 58.952C78.1176 59.08 79.0669 59.144 79.7816 59.144C80.5816 59.144 81.1149 59.0267 81.3816 58.792C81.6589 58.5573 81.8082 58.152 81.8296 57.576C81.8616 56.9147 81.7069 56.488 81.3656 56.296C81.0242 56.104 80.3202 55.96 79.2536 55.864L77.9096 55.704C77.6749 55.6827 77.4829 55.5867 77.3336 55.416C77.1949 55.2453 77.1309 55.0427 77.1416 54.808L77.4136 49.96H83.9096L83.8296 51.848ZM88.1941 49.752C89.2181 49.752 89.9327 49.992 90.3381 50.472C90.7434 50.952 90.9461 51.8053 90.9461 53.032C90.9461 54.248 90.7434 55.1013 90.3381 55.592C89.9327 56.072 89.2181 56.312 88.1941 56.312C87.1807 56.312 86.4714 56.072 86.0661 55.592C85.6607 55.1013 85.4581 54.248 85.4581 53.032C85.4581 51.8053 85.6607 50.952 86.0661 50.472C86.4714 49.992 87.1807 49.752 88.1941 49.752ZM89.6021 61H88.0821L94.7061 49.96H96.2101L89.6021 61ZM88.1781 51.064C87.7941 51.064 87.5327 51.1973 87.3941 51.464C87.2661 51.72 87.2021 52.2427 87.2021 53.032C87.2021 53.832 87.2661 54.36 87.3941 54.616C87.5327 54.872 87.7941 55 88.1781 55C88.5834 55 88.8501 54.872 88.9781 54.616C89.1167 54.36 89.1861 53.832 89.1861 53.032C89.1861 52.232 89.1167 51.704 88.9781 51.448C88.8501 51.192 88.5834 51.064 88.1781 51.064ZM96.1301 54.616C97.1541 54.616 97.8687 54.8613 98.2741 55.352C98.6794 55.832 98.8821 56.68 98.8821 57.896C98.8821 59.1227 98.6794 59.9813 98.2741 60.472C97.8687 60.952 97.1541 61.192 96.1301 61.192C95.1167 61.192 94.4074 60.952 94.0021 60.472C93.6074 59.9813 93.4101 59.1227 93.4101 57.896C93.4101 56.68 93.6074 55.832 94.0021 55.352C94.4074 54.8613 95.1167 54.616 96.1301 54.616ZM96.9141 56.328C96.7861 56.072 96.5247 55.944 96.1301 55.944C95.7354 55.944 95.4687 56.072 95.3301 56.328C95.2021 56.5733 95.1434 57.096 95.1541 57.896C95.1434 58.696 95.2021 59.224 95.3301 59.48C95.4687 59.736 95.7354 59.864 96.1301 59.864C96.5247 59.864 96.7861 59.736 96.9141 59.48C97.0527 59.224 97.1221 58.696 97.1221 57.896C97.1221 57.1067 97.0527 56.584 96.9141 56.328ZM108.514 56.856V56.92C108.834 56.9627 109.096 57.0107 109.298 57.064C109.501 57.1067 109.698 57.2027 109.89 57.352C110.082 57.5013 110.226 57.64 110.322 57.768C110.429 57.896 110.562 58.1467 110.722 58.52C110.882 58.8827 111.01 59.2187 111.106 59.528C111.213 59.8373 111.373 60.328 111.586 61H109.122C108.653 59.5067 108.306 58.5893 108.082 58.248C107.858 57.9067 107.464 57.736 106.898 57.736H106.178C106.232 58.0027 106.258 58.2267 106.258 58.408V61H103.906V53.112H106.258V55.128C106.258 55.448 106.226 55.768 106.162 56.088H106.754C107.362 56.088 107.784 55.9173 108.018 55.576C108.253 55.224 108.557 54.4027 108.93 53.112H111.33C110.84 54.5947 110.509 55.4907 110.338 55.8C110.082 56.2693 109.704 56.5733 109.202 56.712C109.021 56.7653 108.792 56.8133 108.514 56.856ZM123.91 53.096V61H121.622V54.792H118.71V61H116.406V53.096H123.91ZM127.842 53.112L128.018 54.264C128.349 53.8693 128.802 53.544 129.378 53.288C129.965 53.032 130.557 52.904 131.154 52.904C132.978 52.904 133.89 54.312 133.89 57.128C133.89 58.6427 133.645 59.704 133.154 60.312C132.663 60.9093 131.901 61.208 130.866 61.208C129.799 61.208 128.919 60.952 128.226 60.44C128.279 60.984 128.295 61.5493 128.274 62.136V64.04H125.922V53.112H127.842ZM128.274 55.512V59.128C129.106 59.3413 129.703 59.448 130.066 59.448C130.599 59.448 130.962 59.2987 131.154 59C131.357 58.7013 131.458 58.0773 131.458 57.128C131.458 56.2 131.367 55.576 131.186 55.256C131.005 54.9253 130.685 54.76 130.226 54.76C129.693 54.76 129.042 55.0107 128.274 55.512ZM136.123 53.832C136.741 53.2027 137.792 52.888 139.275 52.888C140.757 52.888 141.803 53.2027 142.411 53.832C143.019 54.4613 143.323 55.5387 143.323 57.064C143.323 58.5787 143.019 59.6507 142.411 60.28C141.803 60.8987 140.757 61.208 139.275 61.208C137.792 61.208 136.741 60.8987 136.123 60.28C135.515 59.6507 135.211 58.5787 135.211 57.064C135.211 55.5387 135.515 54.4613 136.123 53.832ZM139.275 54.664C138.645 54.664 138.224 54.824 138.011 55.144C137.797 55.464 137.691 56.104 137.691 57.064C137.691 58.0027 137.797 58.632 138.011 58.952C138.224 59.272 138.645 59.432 139.275 59.432C139.893 59.432 140.309 59.272 140.523 58.952C140.747 58.632 140.859 58.0027 140.859 57.064C140.859 56.1147 140.747 55.48 140.523 55.16C140.309 54.8293 139.893 54.664 139.275 54.664ZM153.453 59.304V63.256H151.901L151.725 61H145.821L145.661 63.256H144.109V59.304H145.101C145.571 58.0987 145.896 56.6747 146.077 55.032C146.205 53.752 146.957 53.112 148.333 53.112H152.205V59.304H153.453ZM149.981 59.304V54.712H148.957C148.477 54.712 148.211 54.9627 148.157 55.464C147.976 57.032 147.651 58.312 147.181 59.304H149.981ZM155.036 54.872L154.828 53.272C156.247 53.016 157.612 52.888 158.924 52.888C159.991 52.888 160.775 53.1067 161.276 53.544C161.788 53.9707 162.044 54.7173 162.044 55.784V61H160.172L159.932 59.8C159.143 60.728 158.167 61.192 157.004 61.192C156.247 61.192 155.628 60.9947 155.148 60.6C154.679 60.1947 154.444 59.6347 154.444 58.92V58.12C154.444 57.4907 154.657 57 155.084 56.648C155.511 56.296 156.103 56.12 156.86 56.12H159.676V55.768C159.665 55.3733 159.569 55.1067 159.388 54.968C159.217 54.8187 158.881 54.744 158.38 54.744C157.516 54.744 156.401 54.7867 155.036 54.872ZM156.78 58.296V58.6C156.78 59.144 157.084 59.416 157.692 59.416C158.321 59.416 158.983 59.16 159.676 58.648V57.544H157.548C157.036 57.5547 156.78 57.8053 156.78 58.296ZM172.737 56.84V56.904C172.971 56.936 173.169 56.9733 173.329 57.016C173.499 57.048 173.665 57.1067 173.825 57.192C173.985 57.2773 174.113 57.3573 174.209 57.432C174.315 57.496 174.427 57.624 174.545 57.816C174.673 57.9973 174.769 58.1573 174.833 58.296C174.907 58.4347 175.003 58.6693 175.121 59C175.249 59.32 175.35 59.608 175.425 59.864C175.51 60.12 175.633 60.4987 175.793 61H173.409C172.886 59.5067 172.518 58.584 172.305 58.232C172.091 57.88 171.755 57.704 171.297 57.704H170.513C170.577 57.9387 170.609 58.168 170.609 58.392V61H168.529V58.392C168.529 58.2 168.555 57.9707 168.609 57.704H167.793C167.355 57.704 167.03 57.88 166.817 58.232C166.614 58.5733 166.241 59.496 165.697 61H163.313C163.483 60.4773 163.606 60.0987 163.681 59.864C163.755 59.6293 163.857 59.3413 163.985 59C164.113 58.648 164.209 58.4133 164.273 58.296C164.337 58.168 164.433 58.008 164.561 57.816C164.689 57.6133 164.801 57.4853 164.897 57.432C164.993 57.368 165.121 57.288 165.281 57.192C165.441 57.096 165.601 57.032 165.761 57C165.931 56.968 166.139 56.936 166.385 56.904V56.84C165.595 56.744 165.062 56.5147 164.785 56.152C164.507 55.7787 164.15 54.9307 163.713 53.608C163.649 53.3947 163.595 53.2293 163.553 53.112H165.873C166.31 54.3813 166.641 55.1973 166.865 55.56C167.089 55.9227 167.43 56.104 167.889 56.104H168.625C168.561 55.8053 168.529 55.4907 168.529 55.16V53.112H170.609V55.16C170.609 55.4907 170.577 55.8053 170.513 56.104H171.201C171.67 56.104 172.011 55.928 172.225 55.576C172.438 55.224 172.769 54.4027 173.217 53.112H175.553C175.062 54.584 174.731 55.48 174.561 55.8C174.283 56.28 173.883 56.5893 173.361 56.728C173.19 56.7707 172.982 56.808 172.737 56.84ZM177.333 54.872L177.125 53.272C178.543 53.016 179.909 52.888 181.221 52.888C182.287 52.888 183.071 53.1067 183.573 53.544C184.085 53.9707 184.341 54.7173 184.341 55.784V61H182.469L182.229 59.8C181.439 60.728 180.463 61.192 179.301 61.192C178.543 61.192 177.925 60.9947 177.445 60.6C176.975 60.1947 176.741 59.6347 176.741 58.92V58.12C176.741 57.4907 176.954 57 177.381 56.648C177.807 56.296 178.399 56.12 179.157 56.12H181.973V55.768C181.962 55.3733 181.866 55.1067 181.685 54.968C181.514 54.8187 181.178 54.744 180.677 54.744C179.813 54.744 178.698 54.7867 177.333 54.872ZM179.077 58.296V58.6C179.077 59.144 179.381 59.416 179.989 59.416C180.618 59.416 181.279 59.16 181.973 58.648V57.544H179.845C179.333 57.5547 179.077 57.8053 179.077 58.296ZM193.705 53.112H195.849C196.383 53.112 196.66 53.384 196.681 53.928L196.937 61H194.777L194.553 54.84H194.329L193.049 59.256C192.932 59.7467 192.639 59.992 192.169 59.992H190.889C190.399 59.992 190.095 59.7467 189.977 59.256L188.713 54.84H188.489L188.297 61H186.153L186.393 53.928C186.393 53.384 186.671 53.112 187.225 53.112H189.337C189.828 53.112 190.121 53.3573 190.217 53.848L191.209 57.336C191.263 57.5387 191.337 57.928 191.433 58.504H191.609C191.62 58.4507 191.647 58.28 191.689 57.992C191.743 57.704 191.791 57.4853 191.833 57.336L192.809 53.848C192.905 53.3573 193.204 53.112 193.705 53.112Z" fill="white"/>
<defs>
<filter id="filter0_f" x="0" y="0" width="266" height="151.301" filterUnits="userSpaceOnUse" color-interpolation-filters="sRGB">
<feFlood flood-opacity="0" result="BackgroundImageFix"/>
<feBlend mode="normal" in="SourceGraphic" in2="BackgroundImageFix" result="shape"/>
<feGaussianBlur stdDeviation="25" result="effect1_foregroundBlur"/>
</filter>
<linearGradient id="paint0_linear" x1="213.872" y1="17.8858" x2="33.2685" y2="39.4125" gradientUnits="userSpaceOnUse">
<stop stop-color="#FFBD6F"/>
<stop offset="0.489444" stop-color="#E5787E"/>
<stop offset="0.985106" stop-color="#B0539C"/>
</linearGradient>
<linearGradient id="paint1_linear" x1="560.5" y1="-72.1568" x2="-53.5881" y2="152.057" gradientUnits="userSpaceOnUse">
<stop offset="0.147013" stop-color="#FFBD6F"/>
<stop offset="0.495438" stop-color="#E5787E"/>
<stop offset="0.837254" stop-color="#B0539C"/>
<stop offset="1" stop-color="#5321E2"/>
</linearGradient>
</defs>
</svg>
