<svg width="375" height="160" viewBox="0 0 375 160" fill="none" xmlns="http://www.w3.org/2000/svg">
<g opacity="0.8" filter="url(#filter0_f)">
<path fill-rule="evenodd" clip-rule="evenodd" d="M94.2883 62.7892C92.9716 62.7892 91.7391 62.1412 90.9928 61.0563L88.0186 56.7329C86.429 54.4224 83.0171 54.4224 81.4276 56.7329L78.4533 61.0563C77.707 62.1412 76.4746 62.7892 75.1578 62.7892H46C43.7909 62.7892 42 64.5801 42 66.7892V105.511C42 107.72 43.7909 109.511 46 109.511H329C331.209 109.511 333 107.72 333 105.511V66.7892C333 64.5801 331.209 62.7892 329 62.7892H94.2883Z" fill="url(#paint0_linear)"/>
</g>
<path fill-rule="evenodd" clip-rule="evenodd" d="M202.749 11C201.688 11 200.67 10.5786 199.92 9.82843L191.263 1.17157C189.701 -0.390525 187.169 -0.390523 185.607 1.17157L176.95 9.82843C176.2 10.5786 175.182 11 174.121 11H27C24.7909 11 23 12.7909 23 15V87C23 89.2091 24.7909 91 27 91H348C350.209 91 352 89.2091 352 87V15C352 12.7909 350.209 11 348 11H202.749Z" fill="url(#paint1_linear)"/>
<path d="M93.69 31.96L90.986 40.152C90.666 41.1227 90.3033 41.8533 89.898 42.344C89.4927 42.824 88.9273 43.096 88.202 43.16C87.4767 43.224 86.5913 43.144 85.546 42.92L85.818 41.192C86.8527 41.2453 87.5087 41.2293 87.786 41.144C88.074 41.048 88.3193 40.7387 88.522 40.216L88.65 39.864H88.058C87.3433 39.864 86.8687 39.496 86.634 38.76L84.362 31.96H86.858L88.602 37.8C88.634 37.928 88.73 37.992 88.89 37.992H89.29L91.194 31.96H93.69ZM99.7616 38.904V38.968C100.487 39.0213 101.004 39.2187 101.314 39.56C101.623 39.9013 101.778 40.3973 101.778 41.048C101.778 41.8373 101.527 42.3813 101.026 42.68C100.524 42.9787 99.6763 43.128 98.4816 43.128C96.679 43.128 95.271 43.096 94.2576 43.032V35.112C95.1643 35.048 96.423 35.016 98.0336 35.016C99.335 35.016 100.236 35.1653 100.738 35.464C101.239 35.752 101.49 36.3013 101.49 37.112C101.49 37.6773 101.351 38.1093 101.074 38.408C100.807 38.696 100.37 38.8613 99.7616 38.904ZM96.4816 38.248H98.0336C98.5136 38.248 98.839 38.1893 99.0096 38.072C99.191 37.9547 99.2816 37.7307 99.2816 37.4C99.2816 37.1013 99.1856 36.8987 98.9936 36.792C98.8016 36.6853 98.4443 36.632 97.9216 36.632L96.4816 36.616V38.248ZM96.4816 41.48H98.0816C98.5936 41.48 98.9456 41.4213 99.1376 41.304C99.3296 41.176 99.4256 40.9253 99.4256 40.552C99.4256 40.2 99.3243 39.96 99.1216 39.832C98.919 39.6933 98.5563 39.624 98.0336 39.624H96.4816V41.48ZM108.407 39.848H105.559C105.633 40.424 105.809 40.8133 106.087 41.016C106.364 41.208 106.812 41.304 107.431 41.304C108.273 41.304 109.255 41.2453 110.375 41.128L110.599 42.6C109.777 42.9947 108.631 43.192 107.159 43.192C105.676 43.192 104.62 42.872 103.991 42.232C103.361 41.592 103.047 40.536 103.047 39.064C103.047 37.528 103.356 36.4507 103.975 35.832C104.593 35.2027 105.623 34.888 107.063 34.888C108.375 34.888 109.324 35.1173 109.911 35.576C110.497 36.024 110.796 36.712 110.807 37.64C110.807 38.376 110.615 38.9307 110.231 39.304C109.857 39.6667 109.249 39.848 108.407 39.848ZM105.511 38.424H107.751C108.049 38.424 108.247 38.3547 108.343 38.216C108.439 38.0773 108.487 37.8747 108.487 37.608C108.487 37.2347 108.391 36.9787 108.199 36.84C108.007 36.6907 107.655 36.616 107.143 36.616C106.535 36.616 106.119 36.7387 105.895 36.984C105.671 37.2187 105.543 37.6987 105.511 38.424ZM119.823 35.112V43H117.455V36.76H116.431C116.164 36.76 115.967 36.8187 115.839 36.936C115.722 37.0533 115.642 37.256 115.599 37.544C115.375 39.3147 115.183 40.5093 115.023 41.128C114.703 42.6427 113.631 43.2933 111.807 43.08L111.567 41.32C112.004 41.2453 112.314 41.16 112.495 41.064C112.687 40.9573 112.826 40.76 112.911 40.472C113.114 39.8747 113.284 38.7547 113.423 37.112C113.551 35.7787 114.282 35.112 115.615 35.112H119.823ZM129.516 43.016H127.404V38.888C127.404 38.5787 127.431 38.1573 127.484 37.624H127.42C127.303 38.008 127.105 38.3973 126.828 38.792L123.852 43H121.836V35.112H123.932V39.32C123.932 39.6187 123.905 40.008 123.852 40.488H123.9C124.039 40.136 124.236 39.7787 124.492 39.416L127.5 35.112H129.516V43.016ZM138.563 35.112V43H136.227V40.056C135.321 40.3653 134.435 40.52 133.571 40.52C132.003 40.52 131.219 39.9173 131.219 38.712V35.112H133.555V37.976C133.555 38.2533 133.614 38.4507 133.731 38.568C133.859 38.6747 134.073 38.728 134.371 38.728C134.979 38.728 135.598 38.616 136.227 38.392V35.112H138.563ZM145.625 39.848H142.777C142.852 40.424 143.028 40.8133 143.305 41.016C143.583 41.208 144.031 41.304 144.649 41.304C145.492 41.304 146.473 41.2453 147.593 41.128L147.817 42.6C146.996 42.9947 145.849 43.192 144.377 43.192C142.895 43.192 141.839 42.872 141.209 42.232C140.58 41.592 140.265 40.536 140.265 39.064C140.265 37.528 140.575 36.4507 141.193 35.832C141.812 35.2027 142.841 34.888 144.281 34.888C145.593 34.888 146.543 35.1173 147.129 35.576C147.716 36.024 148.015 36.712 148.025 37.64C148.025 38.376 147.833 38.9307 147.449 39.304C147.076 39.6667 146.468 39.848 145.625 39.848ZM142.729 38.424H144.969C145.268 38.424 145.465 38.3547 145.561 38.216C145.657 38.0773 145.705 37.8747 145.705 37.608C145.705 37.2347 145.609 36.9787 145.417 36.84C145.225 36.6907 144.873 36.616 144.361 36.616C143.753 36.616 143.337 36.7387 143.113 36.984C142.889 37.2187 142.761 37.6987 142.729 38.424ZM157.281 35.112V43H154.961V39.656H151.969V43H149.633V35.112H151.969V38.008H154.961V35.112H157.281ZM166.969 43.016H164.857V38.888C164.857 38.5787 164.884 38.1573 164.937 37.624H164.873C164.756 38.008 164.559 38.3973 164.281 38.792L161.305 43H159.289V35.112H161.385V39.32C161.385 39.6187 161.359 40.008 161.305 40.488H161.353C161.492 40.136 161.689 39.7787 161.945 39.416L164.953 35.112H166.969V43.016ZM174 39.848H171.152C171.227 40.424 171.403 40.8133 171.68 41.016C171.958 41.208 172.406 41.304 173.024 41.304C173.867 41.304 174.848 41.2453 175.968 41.128L176.192 42.6C175.371 42.9947 174.224 43.192 172.752 43.192C171.27 43.192 170.214 42.872 169.584 42.232C168.955 41.592 168.64 40.536 168.64 39.064C168.64 37.528 168.95 36.4507 169.568 35.832C170.187 35.2027 171.216 34.888 172.656 34.888C173.968 34.888 174.918 35.1173 175.504 35.576C176.091 36.024 176.39 36.712 176.4 37.64C176.4 38.376 176.208 38.9307 175.824 39.304C175.451 39.6667 174.843 39.848 174 39.848ZM171.104 38.424H173.344C173.643 38.424 173.84 38.3547 173.936 38.216C174.032 38.0773 174.08 37.8747 174.08 37.608C174.08 37.2347 173.984 36.9787 173.792 36.84C173.6 36.6907 173.248 36.616 172.736 36.616C172.128 36.616 171.712 36.7387 171.488 36.984C171.264 37.2187 171.136 37.6987 171.104 38.424ZM187.925 41.128L188.149 42.664C187.327 43.016 186.303 43.192 185.077 43.192C183.626 43.192 182.602 42.8827 182.005 42.264C181.418 41.6347 181.125 40.5627 181.125 39.048C181.125 37.5227 181.423 36.4507 182.021 35.832C182.618 35.2027 183.647 34.888 185.109 34.888C186.303 34.888 187.274 35.0533 188.021 35.384L187.765 36.856C186.613 36.8347 185.861 36.824 185.509 36.824C184.783 36.824 184.282 36.9787 184.005 37.288C183.738 37.5973 183.605 38.184 183.605 39.048C183.605 39.912 183.738 40.4987 184.005 40.808C184.282 41.1173 184.783 41.272 185.509 41.272C186.447 41.272 187.253 41.224 187.925 41.128ZM191.537 35.112L191.713 36.264C192.044 35.8693 192.497 35.544 193.073 35.288C193.66 35.032 194.252 34.904 194.849 34.904C196.673 34.904 197.585 36.312 197.585 39.128C197.585 40.6427 197.34 41.704 196.849 42.312C196.359 42.9093 195.596 43.208 194.561 43.208C193.495 43.208 192.615 42.952 191.921 42.44C191.975 42.984 191.991 43.5493 191.969 44.136V46.04H189.617V35.112H191.537ZM191.969 37.512V41.128C192.801 41.3413 193.399 41.448 193.761 41.448C194.295 41.448 194.657 41.2987 194.849 41C195.052 40.7013 195.153 40.0773 195.153 39.128C195.153 38.2 195.063 37.576 194.881 37.256C194.7 36.9253 194.38 36.76 193.921 36.76C193.388 36.76 192.737 37.0107 191.969 37.512ZM204.266 39.848H201.418C201.493 40.424 201.669 40.8133 201.946 41.016C202.223 41.208 202.671 41.304 203.29 41.304C204.133 41.304 205.114 41.2453 206.234 41.128L206.458 42.6C205.637 42.9947 204.49 43.192 203.018 43.192C201.535 43.192 200.479 42.872 199.85 42.232C199.221 41.592 198.906 40.536 198.906 39.064C198.906 37.528 199.215 36.4507 199.834 35.832C200.453 35.2027 201.482 34.888 202.922 34.888C204.234 34.888 205.183 35.1173 205.77 35.576C206.357 36.024 206.655 36.712 206.666 37.64C206.666 38.376 206.474 38.9307 206.09 39.304C205.717 39.6667 205.109 39.848 204.266 39.848ZM201.37 38.424H203.61C203.909 38.424 204.106 38.3547 204.202 38.216C204.298 38.0773 204.346 37.8747 204.346 37.608C204.346 37.2347 204.25 36.9787 204.058 36.84C203.866 36.6907 203.514 36.616 203.002 36.616C202.394 36.616 201.978 36.7387 201.754 36.984C201.53 37.2187 201.402 37.6987 201.37 38.424ZM216.914 41.304V45.256H215.362L215.186 43H209.282L209.122 45.256H207.57V41.304H208.562C209.032 40.0987 209.357 38.6747 209.538 37.032C209.666 35.752 210.418 35.112 211.794 35.112H215.666V41.304H216.914ZM213.442 41.304V36.712H212.418C211.938 36.712 211.672 36.9627 211.618 37.464C211.437 39.032 211.112 40.312 210.642 41.304H213.442ZM225.953 35.112V43H223.633V39.656H220.641V43H218.305V35.112H220.641V38.008H223.633V35.112H225.953ZM232.969 39.848H230.121C230.196 40.424 230.372 40.8133 230.649 41.016C230.926 41.208 231.374 41.304 231.993 41.304C232.836 41.304 233.817 41.2453 234.937 41.128L235.161 42.6C234.34 42.9947 233.193 43.192 231.721 43.192C230.238 43.192 229.182 42.872 228.553 42.232C227.924 41.592 227.609 40.536 227.609 39.064C227.609 37.528 227.918 36.4507 228.537 35.832C229.156 35.2027 230.185 34.888 231.625 34.888C232.937 34.888 233.886 35.1173 234.473 35.576C235.06 36.024 235.358 36.712 235.369 37.64C235.369 38.376 235.177 38.9307 234.793 39.304C234.42 39.6667 233.812 39.848 232.969 39.848ZM230.073 38.424H232.313C232.612 38.424 232.809 38.3547 232.905 38.216C233.001 38.0773 233.049 37.8747 233.049 37.608C233.049 37.2347 232.953 36.9787 232.761 36.84C232.569 36.6907 232.217 36.616 231.705 36.616C231.097 36.616 230.681 36.7387 230.457 36.984C230.233 37.2187 230.105 37.6987 230.073 38.424ZM236.929 43V36.92C236.929 35.6507 237.606 35.016 238.961 35.016C241.073 35.016 242.561 35.0853 243.425 35.224L243.329 36.872H240.001C239.745 36.872 239.558 36.9307 239.441 37.048C239.334 37.1547 239.281 37.336 239.281 37.592V43H236.929ZM245.162 35.832C245.78 35.2027 246.831 34.888 248.314 34.888C249.796 34.888 250.842 35.2027 251.45 35.832C252.058 36.4613 252.362 37.5387 252.362 39.064C252.362 40.5787 252.058 41.6507 251.45 42.28C250.842 42.8987 249.796 43.208 248.314 43.208C246.831 43.208 245.78 42.8987 245.162 42.28C244.554 41.6507 244.25 40.5787 244.25 39.064C244.25 37.5387 244.554 36.4613 245.162 35.832ZM248.314 36.664C247.684 36.664 247.263 36.824 247.05 37.144C246.836 37.464 246.73 38.104 246.73 39.064C246.73 40.0027 246.836 40.632 247.05 40.952C247.263 41.272 247.684 41.432 248.314 41.432C248.932 41.432 249.348 41.272 249.562 40.952C249.786 40.632 249.898 40.0027 249.898 39.064C249.898 38.1147 249.786 37.48 249.562 37.16C249.348 36.8293 248.932 36.664 248.314 36.664ZM264.516 35.112V43H262.18V40.056C261.274 40.3653 260.388 40.52 259.524 40.52C257.956 40.52 257.172 39.9173 257.172 38.712V35.112H259.508V37.976C259.508 38.2533 259.567 38.4507 259.684 38.568C259.812 38.6747 260.026 38.728 260.324 38.728C260.932 38.728 261.551 38.616 262.18 38.392V35.112H264.516ZM271.579 39.848H268.731C268.805 40.424 268.981 40.8133 269.259 41.016C269.536 41.208 269.984 41.304 270.603 41.304C271.445 41.304 272.427 41.2453 273.547 41.128L273.771 42.6C272.949 42.9947 271.803 43.192 270.331 43.192C268.848 43.192 267.792 42.872 267.163 42.232C266.533 41.592 266.219 40.536 266.219 39.064C266.219 37.528 266.528 36.4507 267.147 35.832C267.765 35.2027 268.795 34.888 270.235 34.888C271.547 34.888 272.496 35.1173 273.083 35.576C273.669 36.024 273.968 36.712 273.979 37.64C273.979 38.376 273.787 38.9307 273.403 39.304C273.029 39.6667 272.421 39.848 271.579 39.848ZM268.683 38.424H270.923C271.221 38.424 271.419 38.3547 271.515 38.216C271.611 38.0773 271.659 37.8747 271.659 37.608C271.659 37.2347 271.563 36.9787 271.371 36.84C271.179 36.6907 270.827 36.616 270.315 36.616C269.707 36.616 269.291 36.7387 269.067 36.984C268.843 37.2187 268.715 37.6987 268.683 38.424ZM280.194 38.856V38.92C280.514 38.9627 280.775 39.0107 280.978 39.064C281.181 39.1067 281.378 39.2027 281.57 39.352C281.762 39.5013 281.906 39.64 282.002 39.768C282.109 39.896 282.242 40.1467 282.402 40.52C282.562 40.8827 282.69 41.2187 282.786 41.528C282.893 41.8373 283.053 42.328 283.266 43H280.802C280.333 41.5067 279.986 40.5893 279.762 40.248C279.538 39.9067 279.143 39.736 278.578 39.736H277.858C277.911 40.0027 277.938 40.2267 277.938 40.408V43H275.586V35.112H277.938V37.128C277.938 37.448 277.906 37.768 277.842 38.088H278.434C279.042 38.088 279.463 37.9173 279.698 37.576C279.933 37.224 280.237 36.4027 280.61 35.112H283.01C282.519 36.5947 282.189 37.4907 282.018 37.8C281.762 38.2693 281.383 38.5733 280.882 38.712C280.701 38.7653 280.471 38.8133 280.194 38.856ZM284.809 36.872L284.601 35.272C286.02 35.016 287.385 34.888 288.697 34.888C289.764 34.888 290.548 35.1067 291.049 35.544C291.561 35.9707 291.817 36.7173 291.817 37.784V43H289.945L289.705 41.8C288.916 42.728 287.94 43.192 286.777 43.192C286.02 43.192 285.401 42.9947 284.921 42.6C284.452 42.1947 284.217 41.6347 284.217 40.92V40.12C284.217 39.4907 284.431 39 284.857 38.648C285.284 38.296 285.876 38.12 286.633 38.12H289.449V37.768C289.439 37.3733 289.343 37.1067 289.161 36.968C288.991 36.8187 288.655 36.744 288.153 36.744C287.289 36.744 286.175 36.7867 284.809 36.872ZM286.553 40.296V40.6C286.553 41.144 286.857 41.416 287.465 41.416C288.095 41.416 288.756 41.16 289.449 40.648V39.544H287.321C286.809 39.5547 286.553 39.8053 286.553 40.296ZM171.125 59.112V67H168.805V63.656H165.813V67H163.477V59.112H165.813V62.008H168.805V59.112H171.125ZM173.325 60.872L173.117 59.272C174.536 59.016 175.901 58.888 177.213 58.888C178.28 58.888 179.064 59.1067 179.565 59.544C180.077 59.9707 180.333 60.7173 180.333 61.784V67H178.461L178.221 65.8C177.432 66.728 176.456 67.192 175.293 67.192C174.536 67.192 173.917 66.9947 173.437 66.6C172.968 66.1947 172.733 65.6347 172.733 64.92V64.12C172.733 63.4907 172.946 63 173.373 62.648C173.8 62.296 174.392 62.12 175.149 62.12H177.965V61.768C177.954 61.3733 177.858 61.1067 177.677 60.968C177.506 60.8187 177.17 60.744 176.669 60.744C175.805 60.744 174.69 60.7867 173.325 60.872ZM175.069 64.296V64.6C175.069 65.144 175.373 65.416 175.981 65.416C176.61 65.416 177.272 65.16 177.965 64.648V63.544H175.837C175.325 63.5547 175.069 63.8053 175.069 64.296ZM190.11 67H187.678V59.224C187.678 58.7547 187.71 58.3547 187.774 58.024L185.198 58.696L184.91 57.064L187.678 55.96H190.11V67ZM192.026 55.96H198.65C199.055 55.96 199.348 56.088 199.53 56.344C199.722 56.5893 199.754 56.8933 199.626 57.256L196.282 67H193.882L196.682 59C196.81 58.6053 196.964 58.2587 197.146 57.96H192.122L192.026 55.96ZM203.296 55.752C204.32 55.752 205.034 55.992 205.44 56.472C205.845 56.952 206.048 57.8053 206.048 59.032C206.048 60.248 205.845 61.1013 205.44 61.592C205.034 62.072 204.32 62.312 203.296 62.312C202.282 62.312 201.573 62.072 201.168 61.592C200.762 61.1013 200.56 60.248 200.56 59.032C200.56 57.8053 200.762 56.952 201.168 56.472C201.573 55.992 202.282 55.752 203.296 55.752ZM204.704 67H203.184L209.808 55.96H211.312L204.704 67ZM203.28 57.064C202.896 57.064 202.634 57.1973 202.496 57.464C202.368 57.72 202.304 58.2427 202.304 59.032C202.304 59.832 202.368 60.36 202.496 60.616C202.634 60.872 202.896 61 203.28 61C203.685 61 203.952 60.872 204.08 60.616C204.218 60.36 204.288 59.832 204.288 59.032C204.288 58.232 204.218 57.704 204.08 57.448C203.952 57.192 203.685 57.064 203.28 57.064ZM211.232 60.616C212.256 60.616 212.97 60.8613 213.376 61.352C213.781 61.832 213.984 62.68 213.984 63.896C213.984 65.1227 213.781 65.9813 213.376 66.472C212.97 66.952 212.256 67.192 211.232 67.192C210.218 67.192 209.509 66.952 209.104 66.472C208.709 65.9813 208.512 65.1227 208.512 63.896C208.512 62.68 208.709 61.832 209.104 61.352C209.509 60.8613 210.218 60.616 211.232 60.616ZM212.016 62.328C211.888 62.072 211.626 61.944 211.232 61.944C210.837 61.944 210.57 62.072 210.432 62.328C210.304 62.5733 210.245 63.096 210.256 63.896C210.245 64.696 210.304 65.224 210.432 65.48C210.57 65.736 210.837 65.864 211.232 65.864C211.626 65.864 211.888 65.736 212.016 65.48C212.154 65.224 212.224 64.696 212.224 63.896C212.224 63.1067 212.154 62.584 212.016 62.328Z" fill="white"/>
<defs>
<filter id="filter0_f" x="-8" y="5" width="391" height="154.511" filterUnits="userSpaceOnUse" color-interpolation-filters="sRGB">
<feFlood flood-opacity="0" result="BackgroundImageFix"/>
<feBlend mode="normal" in="SourceGraphic" in2="BackgroundImageFix" result="shape"/>
<feGaussianBlur stdDeviation="25" result="effect1_foregroundBlur"/>
</filter>
<linearGradient id="paint0_linear" x1="329.269" y1="20.8761" x2="20.1255" y2="81.6664" gradientUnits="userSpaceOnUse">
<stop stop-color="#FFBD6F"/>
<stop offset="0.489444" stop-color="#E5787E"/>
<stop offset="0.985106" stop-color="#B0539C"/>
</linearGradient>
<linearGradient id="paint1_linear" x1="372.441" y1="-121.828" x2="-65.7035" y2="-45.005" gradientUnits="userSpaceOnUse">
<stop offset="0.147013" stop-color="#FFBD6F"/>
<stop offset="0.495438" stop-color="#E5787E"/>
<stop offset="0.837254" stop-color="#B0539C"/>
<stop offset="1" stop-color="#5321E2"/>
</linearGradient>
</defs>
</svg>
