<svg width="504" height="155" viewBox="0 0 504 155" fill="none" xmlns="http://www.w3.org/2000/svg">
<path d="M452.5 78C452.5 85.1874 447.071 92.1599 436.936 98.5972C426.826 105.019 412.163 110.821 393.999 115.701C357.678 125.459 307.474 131.5 252 131.5C196.526 131.5 146.322 125.459 110.001 115.701C91.8373 110.821 77.1741 105.019 67.0637 98.5972C56.9291 92.1599 51.5 85.1874 51.5 78C51.5 70.8126 56.9291 63.8401 67.0637 57.4028C77.1741 50.9809 91.8373 45.179 110.001 40.2991C146.322 30.5413 196.526 24.5 252 24.5C307.474 24.5 357.678 30.5413 393.999 40.2991C412.163 45.179 426.826 50.9809 436.936 57.4028C447.071 63.8401 452.5 70.8126 452.5 78Z" stroke="#DEDEDE"/>
<path d="M399.5 77.5C399.5 79.5798 398.549 81.6548 396.647 83.7103C394.742 85.7684 391.908 87.7777 388.216 89.7074C380.834 93.5661 370.119 97.0562 356.837 99.9928C330.28 105.864 293.568 109.5 253 109.5C212.432 109.5 175.72 105.864 149.163 99.9928C135.881 97.0562 125.166 93.5661 117.784 89.7074C114.092 87.7777 111.258 85.7684 109.353 83.7103C107.451 81.6548 106.5 79.5798 106.5 77.5C106.5 75.4202 107.451 73.3452 109.353 71.2897C111.258 69.2316 114.092 67.2223 117.784 65.2926C125.166 61.4339 135.881 57.9438 149.163 55.0072C175.72 49.1358 212.432 45.5 253 45.5C293.568 45.5 330.28 49.1358 356.837 55.0072C370.119 57.9438 380.834 61.4339 388.216 65.2926C391.908 67.2223 394.742 69.2316 396.647 71.2897C398.549 73.3452 399.5 75.4202 399.5 77.5Z" stroke="#DEDEDE"/>
<path d="M503.5 77.5C503.5 87.9638 496.603 98.0275 483.903 107.262C471.213 116.489 452.819 124.819 430.044 131.823C384.5 145.829 321.552 154.5 252 154.5C182.448 154.5 119.5 145.829 73.9561 131.823C51.1813 124.819 32.787 116.489 20.0975 107.262C7.3969 98.0275 0.5 87.9638 0.5 77.5C0.5 67.0362 7.3969 56.9725 20.0975 47.7379C32.787 38.5112 51.1813 30.1813 73.9561 23.1771C119.5 9.17071 182.448 0.5 252 0.5C321.552 0.5 384.5 9.17071 430.044 23.1771C452.819 30.1813 471.213 38.5112 483.903 47.7379C496.603 56.9725 503.5 67.0362 503.5 77.5Z" stroke="#DEDEDE"/>
<g clip-path="url(#clip0)">
<path d="M267.094 82.3417C270.311 80.8515 273.514 79.7644 276.661 79.0985C277.568 78.9066 278.148 78.0152 277.956 77.1076C277.764 76.2001 276.874 75.6199 275.965 75.8121C272.323 76.5827 268.624 77.8715 264.925 79.6527C262.858 77.1881 260.493 74.6111 257.94 72.0588C255.228 69.3468 252.488 66.8437 249.884 64.6887C252.137 61.8401 253.976 58.6507 255.367 55.1601C257.536 49.7178 258.636 43.4999 258.636 36.6787C258.636 35.751 257.884 34.999 256.956 34.999C256.029 34.999 255.276 35.751 255.276 36.6787C255.276 47.1889 252.582 55.8873 247.26 62.5996C246.255 61.8335 245.282 61.1294 244.352 60.5024C239.374 57.1449 236.409 56.3579 234.751 57.9557C234.74 57.9666 234.727 57.9773 234.716 57.9886C234.714 57.9903 234.713 57.9918 234.711 57.9933C234.71 57.9943 234.709 57.9955 234.708 57.9963C234.284 58.4218 234.022 58.9363 233.922 59.5502L209.131 118.67C208.867 119.299 209.01 120.025 209.492 120.507C209.813 120.829 210.243 120.999 210.68 120.999C210.899 120.999 211.12 120.957 211.329 120.869C211.334 120.866 211.329 120.869 211.334 120.866L270.449 96.0763C271.01 95.9856 271.486 95.7565 271.889 95.3942C271.918 95.3698 271.945 95.344 271.973 95.3181C271.983 95.3075 271.995 95.2988 272.005 95.288C272.007 95.2864 272.008 95.2845 272.01 95.283C272.022 95.2716 272.032 95.2592 272.043 95.2472C273.641 93.5899 272.854 90.6251 269.496 85.6473C268.787 84.5952 267.98 83.4876 267.094 82.3417ZM222.322 109.033C221.972 111.219 221.192 112.656 220.817 113.247L213.817 116.183L220.926 99.2281C222.318 102.715 222.8 106.056 222.322 109.033ZM232.659 103.35C231.981 107.21 230.185 109.071 229.674 109.533L225.248 111.389C226.232 107.886 226.491 102.326 222.688 95.027L227.722 83.0241C232.944 92.9259 233.336 99.4868 232.659 103.35ZM238.65 105.768L235.03 107.287C235.375 106.415 235.679 105.422 235.899 104.298C237.244 97.4355 235.049 88.9511 229.38 79.0708L231.197 74.7371C232.636 76.468 234.275 78.9178 234.938 80.4625C235.212 81.0986 235.831 81.4795 236.482 81.4795C236.704 81.4795 236.929 81.4353 237.145 81.3426C237.997 80.9763 238.391 79.9886 238.025 79.1362C237.04 76.8444 234.542 73.2784 232.632 71.3157L235.409 64.6935C235.895 65.5855 236.498 66.5627 237.22 67.634C237.718 68.3717 238.263 69.1365 238.849 69.9226C244.595 78.6412 244.465 87.5652 243.342 93.5195C242.147 99.8528 239.59 104.49 238.65 105.768ZM251.593 100.341L243.619 103.685C244.77 101.159 245.945 97.8439 246.643 94.1423C247.422 90.0079 247.765 84.5711 246.323 78.7001C247.118 79.5406 247.937 80.383 248.776 81.2227C251.289 83.735 253.825 86.0662 256.254 88.1094C256.013 96.0397 252.376 99.6534 251.593 100.341ZM257.383 97.9131C258.282 96.0528 259.076 93.6554 259.43 90.661C260.444 91.435 261.427 92.1462 262.365 92.7789C263.437 93.5019 264.414 94.104 265.306 94.5905L257.383 97.9131ZM263.29 89.3346C259.639 86.7473 255.328 83.0228 251.152 78.8469C246.976 74.6712 243.252 70.3603 240.664 66.7087C238.163 63.1775 237.488 61.3743 237.311 60.5933C238.092 60.771 239.895 61.4452 243.426 63.9469C243.95 64.318 244.488 64.7145 245.036 65.1303C244.919 65.2515 244.802 65.374 244.683 65.4937C244.027 66.1497 244.027 67.2132 244.683 67.8693C245.011 68.1972 245.441 68.3613 245.87 68.3613C246.3 68.3613 246.73 68.1972 247.058 67.8693C247.269 67.6584 247.477 67.4445 247.682 67.2287C250.23 69.3349 252.924 71.7939 255.565 74.4346C257.836 76.7053 259.971 79.0152 261.864 81.238C261.561 81.4064 261.258 81.5778 260.955 81.7528C260.151 82.2167 259.876 83.244 260.34 84.0472C260.651 84.5861 261.215 84.8874 261.796 84.8874C262.081 84.8874 262.37 84.8147 262.634 84.662C263.101 84.3926 263.567 84.1341 264.034 83.8816C264.763 84.8085 265.441 85.7096 266.052 86.573C268.554 90.1042 269.228 91.9073 269.406 92.6884C268.625 92.5105 266.821 91.8363 263.29 89.3346Z" fill="url(#paint0_linear)"/>
<path d="M239.383 83.4646C239.002 82.6185 238.008 82.2413 237.162 82.622C236.342 82.9909 235.962 83.9359 236.286 84.7638C236.54 85.4295 237.176 85.8438 237.855 85.8438C238.039 85.8438 238.226 85.8133 238.41 85.7491C239.285 85.4427 239.747 84.4845 239.44 83.6089C239.424 83.5633 239.403 83.5086 239.383 83.4646Z" fill="url(#paint1_linear)"/>
<path d="M271.725 60.9837C272.053 61.3115 272.483 61.4756 272.913 61.4756C273.343 61.4756 273.772 61.3115 274.1 60.9837C277.853 57.2307 283.933 55.5107 288.373 55.1525C289.297 55.0779 289.986 54.2676 289.912 53.3431C289.837 52.4184 289.029 51.7321 288.102 51.804C283.068 52.2103 276.122 54.2112 271.725 58.6082C271.069 59.2642 271.069 60.3277 271.725 60.9837Z" fill="url(#paint2_linear)"/>
<path d="M293.755 52.1269C293.708 52.1142 293.659 52.1016 293.61 52.0893C292.71 51.8649 291.799 52.4133 291.575 53.3135C291.35 54.2136 291.899 55.1252 292.799 55.3492L292.885 55.3714C293.03 55.4106 293.177 55.4294 293.321 55.4294C294.062 55.4294 294.741 54.9347 294.942 54.1845C295.183 53.2886 294.651 52.3675 293.755 52.1269Z" fill="url(#paint3_linear)"/>
<path d="M221.347 49.0459H223.026V50.7256C223.026 51.6531 223.778 52.4053 224.706 52.4053C225.634 52.4053 226.386 51.6531 226.386 50.7256V49.0459H228.065C228.993 49.0459 229.745 48.2937 229.745 47.3662C229.745 46.4387 228.993 45.6865 228.065 45.6865H226.386V44.0068C226.386 43.0793 225.634 42.3271 224.706 42.3271C223.778 42.3271 223.026 43.0793 223.026 44.0068V45.6865H221.347C220.419 45.6865 219.667 46.4387 219.667 47.3662C219.667 48.2939 220.419 49.0459 221.347 49.0459Z" fill="url(#paint4_linear)"/>
<path d="M260.651 65.3381H262.331V67.0176C262.331 67.9453 263.083 68.6973 264.01 68.6973C264.938 68.6973 265.69 67.9453 265.69 67.0176V65.3381H267.37C268.297 65.3381 269.049 64.5859 269.049 63.6584C269.049 62.7308 268.297 61.9787 267.37 61.9787H265.69V60.2988C265.69 59.3713 264.938 58.6191 264.01 58.6191C263.083 58.6191 262.331 59.3713 262.331 60.2988V61.9787H260.651C259.723 61.9787 258.971 62.7308 258.971 63.6584C258.971 64.5861 259.723 65.3381 260.651 65.3381Z" fill="url(#paint5_linear)"/>
<path d="M283.999 105.146H282.319V103.467C282.319 102.539 281.567 101.787 280.639 101.787C279.712 101.787 278.959 102.539 278.959 103.467V105.146H277.28C276.352 105.146 275.6 105.899 275.6 106.826C275.6 107.754 276.352 108.506 277.28 108.506H278.959V110.186C278.959 111.113 279.712 111.865 280.639 111.865C281.567 111.865 282.319 111.113 282.319 110.186V108.506H283.999C284.926 108.506 285.678 107.754 285.678 106.826C285.678 105.899 284.926 105.146 283.999 105.146Z" fill="url(#paint6_linear)"/>
<path d="M274.502 45.0781C277.281 45.0781 279.542 42.8176 279.542 40.0391C279.542 37.2605 277.281 35 274.502 35C271.724 35 269.463 37.2605 269.463 40.0391C269.463 42.8176 271.724 45.0781 274.502 45.0781ZM274.502 38.3594C275.429 38.3594 276.182 39.1129 276.182 40.0391C276.182 40.9652 275.429 41.7188 274.502 41.7188C273.576 41.7188 272.823 40.9652 272.823 40.0391C272.823 39.1129 273.576 38.3594 274.502 38.3594Z" fill="url(#paint7_linear)"/>
<path d="M285.006 64.1621C282.228 64.1621 279.967 66.4226 279.967 69.2012C279.967 71.9797 282.228 74.2402 285.006 74.2402C287.785 74.2402 290.045 71.9797 290.045 69.2012C290.045 66.4226 287.785 64.1621 285.006 64.1621ZM285.006 70.8809C284.08 70.8809 283.327 70.1274 283.327 69.2012C283.327 68.275 284.08 67.5215 285.006 67.5215C285.933 67.5215 286.686 68.275 286.686 69.2012C286.686 70.1274 285.933 70.8809 285.006 70.8809Z" fill="url(#paint8_linear)"/>
<path d="M242.342 51.0615C245.121 51.0615 247.381 48.801 247.381 46.0225C247.381 43.2439 245.121 40.9834 242.342 40.9834C239.564 40.9834 237.303 43.2439 237.303 46.0225C237.303 48.801 239.564 51.0615 242.342 51.0615ZM242.342 44.3428C243.268 44.3428 244.022 45.0963 244.022 46.0225C244.022 46.9486 243.268 47.7022 242.342 47.7022C241.416 47.7022 240.663 46.9486 240.663 46.0225C240.663 45.0965 241.416 44.3428 242.342 44.3428Z" fill="url(#paint9_linear)"/>
<path d="M284.45 84.3926C284.45 83.4674 283.696 82.7129 282.771 82.7129C281.845 82.7129 281.091 83.4674 281.091 84.3926C281.091 85.3177 281.845 86.0723 282.771 86.0723C283.696 86.0723 284.45 85.3176 284.45 84.3926Z" fill="url(#paint10_linear)"/>
<path d="M265.301 50.9668C266.226 50.9668 266.981 50.2123 266.981 49.2871C266.981 48.3619 266.226 47.6074 265.301 47.6074C264.376 47.6074 263.622 48.3619 263.622 49.2871C263.622 50.2121 264.376 50.9668 265.301 50.9668Z" fill="url(#paint11_linear)"/>
<path d="M287.809 95.3105C286.884 95.3105 286.129 96.0652 286.129 96.9904C286.129 97.9156 286.884 98.6701 287.809 98.6701C288.734 98.6701 289.489 97.9156 289.489 96.9904C289.489 96.0652 288.734 95.3105 287.809 95.3105Z" fill="url(#paint12_linear)"/>
<path d="M232.38 40.0391C233.305 40.0391 234.06 39.2845 234.06 38.3594C234.06 37.4342 233.305 36.6797 232.38 36.6797C231.455 36.6797 230.7 37.4342 230.7 38.3594C230.7 39.2845 231.455 40.0391 232.38 40.0391Z" fill="url(#paint13_linear)"/>
</g>
<defs>
<linearGradient id="paint0_linear" x1="282.279" y1="-80.1351" x2="187.717" y2="-76.456" gradientUnits="userSpaceOnUse">
<stop offset="0.147013" stop-color="#FFBD6F"/>
<stop offset="0.495438" stop-color="#E5787E"/>
<stop offset="0.837254" stop-color="#B0539C"/>
<stop offset="1" stop-color="#5321E2"/>
</linearGradient>
<linearGradient id="paint1_linear" x1="239.744" y1="77.9617" x2="235.137" y2="78.1847" gradientUnits="userSpaceOnUse">
<stop offset="0.147013" stop-color="#FFBD6F"/>
<stop offset="0.495438" stop-color="#E5787E"/>
<stop offset="0.837254" stop-color="#B0539C"/>
<stop offset="1" stop-color="#5321E2"/>
</linearGradient>
<linearGradient id="paint2_linear" x1="291.078" y1="38.8438" x2="265.653" y2="41.2247" gradientUnits="userSpaceOnUse">
<stop offset="0.147013" stop-color="#FFBD6F"/>
<stop offset="0.495438" stop-color="#E5787E"/>
<stop offset="0.837254" stop-color="#B0539C"/>
<stop offset="1" stop-color="#5321E2"/>
</linearGradient>
<linearGradient id="paint3_linear" x1="295.216" y1="47.5002" x2="290.457" y2="47.7368" gradientUnits="userSpaceOnUse">
<stop offset="0.147013" stop-color="#FFBD6F"/>
<stop offset="0.495438" stop-color="#E5787E"/>
<stop offset="0.837254" stop-color="#B0539C"/>
<stop offset="1" stop-color="#5321E2"/>
</linearGradient>
<linearGradient id="paint4_linear" x1="228.73" y1="43.5085" x2="220.756" y2="51.4824" gradientUnits="userSpaceOnUse">
<stop stop-color="#74EBD5"/>
<stop offset="1" stop-color="#0575E6"/>
</linearGradient>
<linearGradient id="paint5_linear" x1="268.034" y1="59.8005" x2="260.06" y2="67.7744" gradientUnits="userSpaceOnUse">
<stop stop-color="#74EBD5"/>
<stop offset="1" stop-color="#0575E6"/>
</linearGradient>
<linearGradient id="paint6_linear" x1="284.663" y1="102.968" x2="276.689" y2="110.942" gradientUnits="userSpaceOnUse">
<stop stop-color="#74EBD5"/>
<stop offset="1" stop-color="#0575E6"/>
</linearGradient>
<linearGradient id="paint7_linear" x1="278.526" y1="36.1813" x2="270.552" y2="44.1552" gradientUnits="userSpaceOnUse">
<stop stop-color="#74EBD5"/>
<stop offset="1" stop-color="#0575E6"/>
</linearGradient>
<linearGradient id="paint8_linear" x1="289.03" y1="65.3434" x2="281.056" y2="73.3173" gradientUnits="userSpaceOnUse">
<stop stop-color="#74EBD5"/>
<stop offset="1" stop-color="#0575E6"/>
</linearGradient>
<linearGradient id="paint9_linear" x1="246.366" y1="42.1647" x2="238.392" y2="50.1386" gradientUnits="userSpaceOnUse">
<stop stop-color="#74EBD5"/>
<stop offset="1" stop-color="#0575E6"/>
</linearGradient>
<linearGradient id="paint10_linear" x1="284.659" y1="78.2155" x2="280.058" y2="78.4386" gradientUnits="userSpaceOnUse">
<stop offset="0.147013" stop-color="#FFBD6F"/>
<stop offset="0.495438" stop-color="#E5787E"/>
<stop offset="0.837254" stop-color="#B0539C"/>
<stop offset="1" stop-color="#5321E2"/>
</linearGradient>
<linearGradient id="paint11_linear" x1="267.19" y1="43.11" x2="262.589" y2="43.3331" gradientUnits="userSpaceOnUse">
<stop offset="0.147013" stop-color="#FFBD6F"/>
<stop offset="0.495438" stop-color="#E5787E"/>
<stop offset="0.837254" stop-color="#B0539C"/>
<stop offset="1" stop-color="#5321E2"/>
</linearGradient>
<linearGradient id="paint12_linear" x1="289.698" y1="90.8129" x2="285.097" y2="91.036" gradientUnits="userSpaceOnUse">
<stop offset="0.147013" stop-color="#FFBD6F"/>
<stop offset="0.495438" stop-color="#E5787E"/>
<stop offset="0.837254" stop-color="#B0539C"/>
<stop offset="1" stop-color="#5321E2"/>
</linearGradient>
<linearGradient id="paint13_linear" x1="234.268" y1="32.1823" x2="229.668" y2="32.4054" gradientUnits="userSpaceOnUse">
<stop offset="0.147013" stop-color="#FFBD6F"/>
<stop offset="0.495438" stop-color="#E5787E"/>
<stop offset="0.837254" stop-color="#B0539C"/>
<stop offset="1" stop-color="#5321E2"/>
</linearGradient>
<clipPath id="clip0">
<rect width="86" height="86" fill="white" transform="translate(209 35)"/>
</clipPath>
</defs>
</svg>
